<?xml version="1.0" encoding="utf-8"?>
<!-- Generator: Adobe Illustrator 21.0.0, SVG Export Plug-In . SVG Version: 6.00 Build 0)  -->
<svg version="1.1" id="Layer_1" xmlns="http://www.w3.org/2000/svg" xmlns:xlink="http://www.w3.org/1999/xlink" x="0px" y="0px"
	 viewBox="0 0 2560 1440" style="enable-background:new 0 0 2560 1440;" xml:space="preserve">
<style type="text/css">
	.st0{fill:#FDFDFF;}
	.st1{fill:none;}
	.st2{fill:#000066;}
	.st3{fill:#FFFFFF;}
	.st4{fill:none;stroke:#000066;stroke-width:0;stroke-linecap:round;stroke-linejoin:round;}
	.st5{fill:#FCFCFC;}
</style>
<g>
	<g>
		<path class="st0" d="M262.2,97.5c0.1-4.2,0.1-8.3,0.2-12.5c0-0.5-0.6-0.7-0.9-0.4c-8.8,7.2-19.9,11.5-31.2,12.5
			c-5.5,0.5-11.1,0.2-16.5-1c-5.9-1.2-11.5-3.5-17-5.9c-3.4-1.4-6.6-3.2-9.6-5.1c-2.1-1.4-4-2.9-6.2-4.1c-0.2-0.1-0.5-0.1-0.7,0.1
			c-6.9,7.9-16.3,13.3-26.5,15.6c-11.1,2.5-22.1,0.7-32.4-3.7c-6.5-2.8-12.5-6.4-18.6-10c-0.2-0.2-0.8-0.1-0.8,0.3
			c-0.1,0.7,0,1.4,0,2.1c-0.7,16.4-1.4,32.9-2.1,49.3c-0.6,14.6-0.9,29.1,0.6,43.6c1.5,14,4.8,28,11.3,40.6
			c6.3,12.1,15.4,22.5,25.9,31.2c5.1,4.3,10.6,8.2,16.2,11.7c5.9,3.8,12.1,7.9,19.3,8.9c7.6,1.1,15.3-0.9,22.4-3.4
			c3.3-1.2,6.6-2.4,9.8-3.7c1.7-0.7,3.4-1.5,5-2.4c1.6-0.9,2.9-2.2,4.5-3.1c5.4-3.4,10.6-6.7,15.4-10.9c4.8-4.2,9.1-9,12.9-14.1
			c7.8-10.6,13.1-22.8,15.5-35.8c3-16.2,2.8-33,3.1-49.4C261.9,131.1,262,114.3,262.2,97.5z M259.3,182.5
			c-1.1,14.2-4.2,27.9-11.1,40.4c-6.2,11.2-14.8,21-25.1,28.6c-2.6,1.9-5.3,3.6-8,5.2c-1.4,0.8-2.6,1.8-3.9,2.7
			c-1.5,1-3.2,1.9-4.9,2.6c-6.9,3-14.2,5.8-21.7,7.2c-4,0.7-8.2,1-12.3,0.3c-3.9-0.7-7.4-2.4-10.8-4.4c-5.8-3.3-11.4-6.9-16.7-10.9
			c-10.8-8-18.9-17.8-26.1-29.1c-7.6-11.8-13.8-25-16-38.8c-2.2-14.2-2.3-28.6-1.9-42.9c0.4-15.6,1.3-31.1,1.9-46.6
			c0.1-3.3,0.3-6.6,0.4-9.9c0-0.3,0.1-0.5,0-0.8c0-0.5,0-1,0.1-1.5c0-0.1,0-0.1,0-0.2c10.3,6.1,21.1,12.3,33.2,14.1
			c10.5,1.5,21.5-0.5,30.8-5.5c5.2-2.7,9.8-6.4,13.7-10.8c1.9,1.1,3.6,2.4,5.4,3.6c2.7,1.8,5.4,3.3,8.3,4.7
			c5.7,2.6,11.7,5.1,17.8,6.5c11.1,2.5,22.9,1.7,33.5-2.2c5.6-2.1,10.8-5,15.4-8.6c-0.2,15.9-0.4,31.9-0.6,47.8
			C260.5,150.1,260.6,166.3,259.3,182.5z"/>
		<path class="st0" d="M264.4,94.4c0.1-4.3,0.1-8.6,0.2-12.9c0-0.5-0.6-0.7-1-0.4c-9.1,7.4-20.4,11.9-32.1,12.9
			c-5.7,0.5-11.4,0.2-17-1c-6-1.3-11.9-3.6-17.5-6c-3.5-1.5-6.7-3.3-9.9-5.3c-2.1-1.4-4.1-3-6.4-4.2c-0.2-0.1-0.5-0.1-0.7,0.1
			c-7.1,8.1-16.7,13.7-27.3,16c-11.4,2.6-22.7,0.7-33.3-3.8c-6.6-2.9-12.9-6.6-19.1-10.2c-0.3-0.2-0.8-0.1-0.8,0.3
			c-0.1,0.7,0,1.4,0,2.1c-0.7,16.9-1.5,33.8-2.2,50.7c-0.6,15-0.9,30,0.6,44.9c1.5,14.4,4.9,28.8,11.6,41.8
			c6.5,12.4,15.9,23.1,26.6,32.1c5.3,4.4,10.9,8.4,16.6,12.1c6.1,3.9,12.5,8.2,19.8,9.2c7.8,1.1,15.7-0.9,23.1-3.5
			c3.4-1.2,6.8-2.5,10.1-3.9c1.8-0.7,3.5-1.5,5.1-2.5s3-2.2,4.6-3.2c5.5-3.5,10.9-6.8,15.8-11.2c4.9-4.3,9.4-9.2,13.2-14.5
			c8-10.9,13.5-23.5,16-36.8c3.1-16.6,2.9-33.9,3.1-50.8C264,129,264.2,111.7,264.4,94.4z M261.4,181.9
			c-1.2,14.6-4.3,28.7-11.5,41.6c-6.4,11.5-15.2,21.6-25.8,29.4c-2.7,1.9-5.4,3.7-8.3,5.3c-1.4,0.8-2.6,1.9-4,2.8
			c-1.6,1-3.3,1.9-5,2.7c-7,3.1-14.6,6-22.3,7.4c-4.2,0.8-8.5,1-12.7,0.3c-4-0.7-7.6-2.5-11.1-4.5c-5.9-3.4-11.7-7.1-17.2-11.2
			c-11.1-8.2-21.2-18-28.7-29.7c-7.8-12.1-12.4-26-14.7-40.2c-2.3-14.6-2.4-29.4-2-44.2c0.4-16,1.3-32,2-48
			c0.1-3.4,0.3-6.8,0.4-10.2c0-0.3,0.1-0.5,0-0.8c0-0.5,0-1,0.1-1.6c0-0.1,0-0.1,0-0.2c10.6,6.3,21.7,12.6,34.1,14.5
			c10.8,1.6,22.1-0.6,31.7-5.7c5.3-2.8,10.1-6.6,14.1-11.1c1.9,1.1,3.7,2.5,5.6,3.7c2.7,1.8,5.6,3.4,8.6,4.8
			c5.8,2.7,12,5.2,18.4,6.7c11.4,2.6,23.5,1.8,34.4-2.3c5.7-2.1,11.1-5.1,15.9-8.8c-0.2,16.4-0.4,32.8-0.6,49.2
			C262.6,148.6,262.7,165.2,261.4,181.9z"/>
		<path class="st1" d="M175.2,220c0.1,0,0.3,0,0.4,0.1c0.5,0.2,1,0.4,1.5,0.7c-0.5-0.3-1-0.5-1.5-0.7
			C175.4,220.1,175.3,220,175.2,220z"/>
		<path class="st1" d="M178.2,220.2c0.4,0,0.8,0,1.1-0.1C179,220.2,178.6,220.2,178.2,220.2z"/>
		<path class="st1" d="M182.4,240.2c0.7,0,1.5-0.1,1.7-0.7c0.2-0.5-0.2-1.1-0.7-1.3c-0.5-0.2-1.1-0.2-1.6-0.2l0.1,0.7
			c-0.3-0.8-1.4-1.1-2.2-0.7c-0.8,0.4-1.3,1.1-1.8,1.9C179.4,240.1,180.9,240.2,182.4,240.2z"/>
		<path class="st1" d="M186.7,225.2c-0.5-0.7-1-1.3-1.5-2.1c-0.3-0.4-0.9-0.3-1,0.1c0.2-0.3,0.7-0.4,0.9,0c0.4,0.7,0.9,1.4,1.5,2.1
			c0.1,0.2,0.1,0.4,0.1,0.6C186.8,225.7,186.9,225.4,186.7,225.2z"/>
		<path class="st1" d="M181,248.2c1.4,0.3,2.9-0.3,4-1.2l-0.2-0.3c-0.5-1.2-1.3-2.3-2.4-2.7c-1.2-0.5-2.7-0.1-3.2,1
			C178.4,246.3,179.6,247.9,181,248.2z"/>
		<path class="st1" d="M191.8,192.4c-1.9-0.7-4.3,0-5.4,1.8c2.2,0.6,4.7,0.4,6.8-0.7L191.8,192.4z"/>
		<path class="st1" d="M166.6,232.9C166.6,232.9,166.6,232.9,166.6,232.9c-0.2,0.5-0.1,1.5-0.1,2c0,0,0,0,0,0.1c0-0.1,0-0.1,0-0.2
			C166.6,234.2,166.5,233.4,166.6,232.9z"/>
		<path class="st1" d="M117.1,118.8c0.1,0,0.3,0.1,0.5,0.1C117.5,118.8,117.3,118.8,117.1,118.8z"/>
		<path class="st1" d="M195.2,199.4c-1.4,0-2.8-0.5-4,0.1c-0.5,0.2-0.8,0.6-1.2,1c-2.6,3.1-4.5,6.7-5.5,10.6
			c0.8-0.2,1.4,0.7,1.6,1.4c0.1,0.6,0.2,1.2,0.5,1.7l7.3,0.2l0.1,0c0.3-0.2,0.7-0.5,0.8-0.8c0.4-1-0.3-2-0.8-2.8
			c-0.8-1.5-1.2-3.2-1.1-4.9c0-0.5,0.1-1.1,0.4-1.5c0.9-1.2,2.9-0.8,4.1-1.8c0.8-0.7,0.9-1.9,0.3-2.7
			C197.1,199.2,196,198.9,195.2,199.4z"/>
		<path class="st1" d="M202.9,159.4C202.9,159.4,202.8,159.4,202.9,159.4C202.8,159.4,202.8,159.4,202.9,159.4
			C202.9,159.5,202.9,159.5,202.9,159.4C202.9,159.5,202.9,159.4,202.9,159.4z"/>
		<path class="st1" d="M203.6,174.2l0.9,0.4c-0.4-1.6,0.5-3.4,2-4.1c0.4-0.1,0.8-0.3,1.1-0.5c0.3-0.2,0.4-0.5,0.5-0.8
			c0.4-1.3-0.5-2.9-1.8-2.8c-0.8,0.1-1.5,0.8-2,1.5c-0.8,1-1.6,1.9-1.9,3.2C202.1,172.2,202.5,173.7,203.6,174.2z"/>
		<path class="st1" d="M208.3,221.4c0-0.3,0.1-0.5,0.1-0.6c0.3-1.2,0.6-2.3,1-3.5c0,0-0.1,0-0.1,0c-0.4,1.2-0.7,2.3-1,3.5
			C208.4,220.9,208.3,221.1,208.3,221.4c-0.4-0.1-0.8,0-0.7,0.4c0,0.3,0,0.5,0,0.8c-0.1,0.1-0.3,0.2-0.4,0.4c-0.2,0.4-0.1,0.8,0,1.1
			c-0.1,0.1-0.2,0.3-0.2,0.5l0,0c-0.1,0-0.2,0-0.3,0c-0.2,0-0.4,0-0.6,0.1c-0.5,0.1-0.5,0.7-0.2,1c0,0-0.1,0-0.1,0
			c-1-0.2-2-0.2-3.1,0c-0.4,0.1-0.4,0.5-0.3,0.7l-12.4-0.3l0,0l12.4,0.3c-0.1-0.3,0-0.7,0.3-0.7c1.1-0.3,2.1-0.3,3.1,0
			c0,0,0.1,0,0.1,0c-0.3-0.3-0.3-0.8,0.2-1c0.2-0.1,0.4-0.1,0.6-0.1c0.1,0,0.2,0,0.3,0l0,0c0.1-0.2,0.2-0.3,0.2-0.5
			c-0.2-0.4-0.3-0.7,0-1.1c0.1-0.2,0.3-0.4,0.4-0.4c0-0.3,0-0.6,0-0.8C207.6,221.4,208,221.2,208.3,221.4z"/>
		<path class="st1" d="M204.2,218.5c-1.4,0-2.6,1.1-2.7,2.5c0,1.4,1.1,2.6,2.5,2.7c1.4,0,2.6-1.1,2.7-2.5
			C206.7,219.7,205.6,218.5,204.2,218.5z"/>
		<path class="st1" d="M194,161.5c-1-0.1-1.9,0.3-2.8,0.7c-1.4,0.6-2.8,1.1-4.2,1.7c-0.5,0.2-1.2,0.5-1.6,0.9
			c-0.7,0.8-0.7,2-0.1,2.9c0.7,0.8,1.9,1,2.8,0.5c1-0.6,1.4-1.8,2.2-2.6c1.2-1.1,3-1.1,4.6-1l-0.6,0.1c0.9,0.5,2-0.5,1.8-1.5
			C195.9,162.2,194.9,161.6,194,161.5z"/>
		<path class="st1" d="M208.8,217C208.8,217,208.8,217,208.8,217C208.8,217,208.8,217,208.8,217z"/>
		<path class="st1" d="M206.1,216.3c-0.1,0.2-0.1,0.4,0.1,0.5C206.1,216.7,206.1,216.5,206.1,216.3L206.1,216.3z"/>
		<path class="st1" d="M169.9,257.5c-0.3,1.3,1,2.6,2.4,2.7c1.3,0.1,2.7-0.4,4-0.6c1.5-0.2,2.9-0.2,4.3,0.3c0.9,0.3,1.9,0.7,2.8,0.7
			c0.9-0.1,2-0.9,1.8-1.8l1-0.8C180.8,257.8,175.3,257.6,169.9,257.5z"/>
		<path class="st1" d="M193.7,231.2c0.1,0,0.2,0,0.3,0c0,0,0,0,0,0C193.9,231.2,193.8,231.2,193.7,231.2z"/>
		<path class="st1" d="M192.8,234.4c-1.2-0.7-2.7-0.6-4-0.4l-0.2,0.3c-1.1,1.3-1.8,3-2.1,4.7c-0.1,0.5-0.1,0.9,0.1,1.3
			c0.5,0.7,1.7,0.6,2.4,0.1s1.3-1.3,2.1-1.7c0.8-0.4,1.8-0.4,2.5-1C194.5,237,193.9,235.1,192.8,234.4z"/>
		<path class="st1" d="M191.7,231.5c-0.1,0.1-0.2,0.2-0.3,0.3C191.5,231.7,191.7,231.6,191.7,231.5
			C191.7,231.5,191.7,231.5,191.7,231.5z"/>
		<path class="st1" d="M203.1,159.9c0,0.1,0.1,0.1,0.2,0.2c0.2,0.1,0.4,0.2,0.5,0.2c0,0,0-0.1,0-0.1
			C203.6,160.1,203.4,160,203.1,159.9C203.1,159.9,203.1,159.9,203.1,159.9z"/>
		<path class="st1" d="M199.8,256.6c-0.7,0.6-1.3,1.4-2,1.9c-0.9,0.6-1.9,1-3,1.1c1.1,0.5,2.2,1,3.4,1c1.2,0.1,2.5-0.4,3.1-1.3
			c0.3-0.5,0.5-1.1,0.9-1.6c0.7-0.9,1.9-1.1,3-1.4c1.1-0.3,2.2-0.9,2.4-2.1l-1.3-0.1C203.9,254.1,201.5,255,199.8,256.6z"/>
		<path class="st1" d="M194.8,252.1c-0.5-1-1.8-1.6-2.7-1c-0.9,0.7-0.7,2-0.2,3.1c0.3,0.7,0.8,1.5,1.6,1.7c0.6,0.1,1.2-0.5,1.2-1
			l0.2,0.5C195,254.3,195.2,253.1,194.8,252.1z"/>
		<path class="st1" d="M180.2,221.7c1.5,1.1,3,2.6,4.7,3.2c-0.1-0.1-0.1-0.2-0.2-0.2c-1.6-0.6-3-2-4.4-3
			C180.3,221.6,180.3,221.6,180.2,221.7z"/>
		<path class="st1" d="M173.8,222.2C173.7,222.2,173.7,222.2,173.8,222.2l-0.2,5.5l0.1,0L173.8,222.2z"/>
		<path class="st1" d="M175.9,217.1c-0.2-0.1-0.5-0.2-0.7-0.4C175.4,216.9,175.7,217,175.9,217.1z"/>
		<path class="st1" d="M179.4,218.6c2.1,1,0.7,1.9-0.2,2.2C180.1,220.5,181.6,219.7,179.4,218.6z"/>
		<path class="st1" d="M178,218.5c0.2,0,0.5,0,0.7,0C178.5,218.5,178.2,218.5,178,218.5z"/>
		<path class="st1" d="M173.8,216.7C173.8,216.7,173.9,216.7,173.8,216.7C173.8,216.7,173.8,216.7,173.8,216.7L173.8,216.7z"/>
		<path class="st1" d="M176,217.2C176,217.2,176,217.2,176,217.2C176,217.2,176,217.2,176,217.2z"/>
		<path class="st1" d="M208.6,216.8c0,0.1,0.1,0.1,0.1,0.2C208.7,216.9,208.6,216.8,208.6,216.8
			C208.6,216.8,208.6,216.8,208.6,216.8z"/>
		<path class="st1" d="M219.2,192.8l0.5,0.4c-0.7,0.3-0.7,1.3-0.2,1.8c0.5,0.5,1.4,0.4,2,0.1c1.1-0.7,1.4-2.3,0.5-3.2
			C221.1,190.9,219.2,191.5,219.2,192.8z"/>
		<path class="st1" d="M228,191.7c0.9-0.7,1-2.2,0.3-3.1l-1,0.6c-1-0.6-2.4,0.5-2.1,1.7C225.4,191.9,227,192.4,228,191.7z"/>
		<path class="st1" d="M222.8,195.3c-1.2,1-0.3,3.4,1.3,3.4c1.6,0,2.6-2.1,1.8-3.4l-0.5,0.2C224.7,194.8,223.5,194.7,222.8,195.3z"
			/>
		<path class="st1" d="M221.4,172.7c0.1,0.1,0.2,0.2,0.3,0.3c0.2,0.2,0.6,0.2,0.8,0c0.2-0.2,0.2-0.5,0.1-0.7
			c0.1,0.2,0.1,0.4-0.1,0.6c-0.2,0.2-0.6,0.2-0.8,0C221.5,172.9,221.5,172.8,221.4,172.7c-0.2-0.3-0.5-0.4-0.9-0.5l0-1
			c-0.5,0-0.6,0.7-0.3,1c0,0-0.1,0-0.1,0c-0.3-0.1-0.4-0.5-0.3-0.7c0.3-0.6-0.6-1.2-0.9-0.6c-0.5,0.9-0.1,2.1,0.9,2.3
			C220.4,173.4,221,173.2,221.4,172.7z"/>
		<path class="st1" d="M205.5,161.3c0,0.1,0.1,0.1,0.2,0.2c0.1,0,0.1,0,0.2,0.1c0,0,0-0.1,0-0.1
			C205.8,161.4,205.6,161.4,205.5,161.3C205.5,161.3,205.5,161.3,205.5,161.3z"/>
		<path class="st1" d="M216,158.1c0.2,0.3,0.5,0.4,0.9,0.6c2.8,1.2,6.4-0.7,7.4-3.6c0.4-1,0.3-2.4-0.7-2.9c-1.4-0.6-2.6,1-3.1,2.4
			l-0.3,0.7c-1-0.2-2.2-0.3-3.2,0.2C215.9,155.9,215.3,157.3,216,158.1z"/>
		<path class="st1" d="M204.8,187.7c-0.6,1.1-0.3,2.9,1,3c1.2,0.1,1.7-1.4,2.5-2.2c1-1.1,2.7-1.3,4.2-1.6c1.8-0.4,3.5-1,5.1-1.9
			c0.7-0.4,1.3-0.9,1.6-1.5c0.3-0.7-0.1-1.7-0.8-1.8c-0.3,0-0.7,0.1-1,0.3c-1.9,0.8-3.8,1.7-5.7,2.5c-0.3,0.1-0.7,0.3-1,0.2
			c-0.6-0.1-0.8-0.9-0.8-1.5c0-0.6,0.2-1.2,0.1-1.8l0.3-0.1c0.2-1.4,0.3-3-0.3-4.3c-0.6-1.3-2.4-2.2-3.6-1.4
			c-1.4,0.9-1.1,2.9-0.5,4.4c0.6,1.5,1.6,3,1.2,4.6C206.5,185.7,205.4,186.6,204.8,187.7z"/>
		<path class="st1" d="M211.5,165.2c0.2,0.2,0.6,0.2,0.8,0c0.2,0,0.4,0.1,0.6,0.1c0-0.1-0.1-0.1-0.1-0.1c-0.2,0-0.4,0-0.6-0.1
			c-0.2,0.2-0.5,0.2-0.8,0c-0.1-0.1-0.2-0.2-0.3-0.2C211.2,164.9,211.3,165.1,211.5,165.2z"/>
		<path class="st1" d="M182.6,183.2l-0.2-1.2c-0.4-0.8-1-1.6-1.9-1.6c-1.2,0-1.8,1.7-1,2.6C180.1,183.8,181.6,183.8,182.6,183.2z"/>
		<path class="st1" d="M179.3,166.7c-0.1,0.8-0.2,1.6-0.2,2.4c-0.1,1.1-0.2,2.3,0.3,3.3c0.5,1,1.8,1.7,2.7,1.1c1-0.6,1-2,0.8-3.1
			c-0.2-1.1-0.5-2.4,0.1-3.3c-1.2-0.5-2.4-1.3-3.3-2.3l0.6,0.9C179.9,165.3,179.4,166.1,179.3,166.7z"/>
		<path class="st1" d="M173.7,220.5l0,0.5c0.2,0.1,0.3,0.2,0.5,0.3c0.3,0.2,0.3,0.5,0.2,0.7c0.2-0.2,0.2-0.6-0.1-0.8
			c-0.1-0.1-0.3-0.2-0.5-0.3L173.7,220.5C173.8,220.5,173.8,220.5,173.7,220.5z"/>
		<path class="st1" d="M182.1,202.3c0.9,0.2,0.9-1.2,1.2-2.1c0.4-1,1.6-1.5,2.5-2.1c0.9-0.6,1.7-2,0.9-2.8c-0.5,1.1-1.5,1.9-2.7,2.1
			c-0.1-1.6-0.6-3.1-1.4-4.4l-0.7,0.1c-0.2,2.6-0.3,5.1-0.5,7.7C181.4,201.4,181.5,202.2,182.1,202.3z"/>
		<path class="st1" d="M207.9,120.9c0.9,0.3,1.9,0.5,2.8,0.5c1-0.1,2-0.5,2.4-1.3c0.5-0.9,0.2-2.1-0.6-2.5c-0.9-0.4-2.1,0.5-1.8,1.4
			l0,0.2C209.5,118.8,208.1,119.7,207.9,120.9z"/>
		<path class="st1" d="M199.1,168.5c-0.9-0.7-2.3,0.3-2.3,1.3c-1.8-0.1-3.6-0.1-5.5-0.2c-0.5,0-1,0-1.5,0.2
			c-0.9,0.4-1.3,1.4-1.5,2.4c-1.5,5.4-2.1,11.1-1.7,16.7c0.1,0.5,0.1,1,0.4,1.3c0.3,0.3,0.8,0.4,1.3,0.4c2.9,0.1,5.7-1.6,8.4-0.8
			c0.8,0.2,1.6,0.7,2.5,0.7c1.1,0,2.2-0.9,2.4-2c0.2-1.1-0.5-2.3-1.5-2.7c-1.1-0.4-2.4,0.1-3.4-0.4c-1.7-0.7-1.8-3.1-1.6-5
			c0.1-0.5,0.1-1,0.5-1.4c0.3-0.3,0.7-0.4,1.2-0.5c2-0.3,4-0.2,5.9,0.3c1.1-0.4,0.7-2.1-0.2-2.9c-0.9-0.7-2.2-1.1-2.7-2.2
			C199,172.1,200.7,169.6,199.1,168.5z"/>
		<path class="st1" d="M218,152.3c0.1,0.7,0.6,1.6,1.3,1.4c0.3-0.1,0.4-0.3,0.6-0.5c1.1-1.6,1.1-3.6,1.1-5.5c0-0.3,0-0.7-0.3-0.9
			c-0.2-0.2-0.8-0.1-0.7,0.3l-0.8,0.3C218.2,148.7,217.8,150.5,218,152.3z"/>
		<path class="st1" d="M220.5,171.2c-0.1-0.1-0.1-0.2-0.2-0.3C220.4,171,220.5,171.1,220.5,171.2L220.5,171.2c0.5,0,0.9,0.2,1.2,0.4
			C221.4,171.3,221,171.2,220.5,171.2z"/>
		<path class="st1" d="M211.9,142.6c-0.9,1-0.3,2.9,1.1,3.2c1.3,0.3,2.6-1.2,2.2-2.5l0.9-1C214.7,141.8,212.8,141.5,211.9,142.6z"/>
		<path class="st1" d="M215.6,167c-0.2-0.1-0.3-0.2-0.5-0.3c-0.1,0.1-0.3,0.1-0.5,0c-0.6-0.3-1.1-0.6-1.5-1c0.4,0.5,1,0.9,1.6,1.2
			c0.1,0,0.3,0,0.5,0c0.2,0.1,0.3,0.2,0.5,0.3c0.3,0.2,0.6,0.4,0.9,0.6c0.3,0.2,0.5,0.3,0.7,0.4c0,0,0,0,0-0.1
			c-0.3-0.2-0.6-0.3-0.9-0.5C216.2,167.3,215.9,167.2,215.6,167z"/>
		<path class="st1" d="M219.9,170.3c-0.8-0.5-1.4-1.2-2.3-1.6c0,0-0.1,0-0.1-0.1c0,0.1,0.1,0.2,0.2,0.2c0.9,0.4,1.5,1.2,2.3,1.6
			c0,0,0.1,0,0.1,0.1c0.1,0.1,0.1,0.2,0.2,0.3c-0.1-0.1-0.1-0.2-0.2-0.3c0.7,0.3,1.3,0.2,2,0.6c0,0,0,0,0,0
			c-0.7-0.4-1.4-0.3-2.1-0.6C220,170.4,219.9,170.3,219.9,170.3z"/>
		<path class="st1" d="M205.2,158.7c0.6,0.2,1.2,0.5,1.8,0.8c1.2,0.8,2.3,1.6,3.4,2.4c0,0,0.1,0,0.1,0c-1.1-0.8-2.2-1.6-3.4-2.4
			C206.5,159.1,205.9,158.8,205.2,158.7z"/>
		<path class="st1" d="M206.1,162.1c0.2,0.2,0.4,0.3,0.7,0.2c0.2-0.1,0.4-0.2,0.6-0.3c0-0.1-0.1-0.1-0.1-0.2
			c-0.3,0.1-0.5,0.2-0.7,0.3C206.5,162.2,206.3,162.2,206.1,162.1z"/>
		<path class="st1" d="M210.8,158.8c0.6,0.3,0.8-0.8,0.9-1.4c0.2-0.8,0.9-1.3,1.6-1.7c0.7-0.4,1.5-0.9,1.7-1.7
			c0.2-0.8-0.5-1.9-1.3-1.5l0.5-0.2c-0.5-0.4-1.4-0.4-2,0c-0.6,0.4-0.9,1.1-1.1,1.7C210.7,155.6,210.5,157.2,210.8,158.8z"/>
		<path class="st1" d="M222.6,170.1L222.6,170.1c0,0-0.1-0.1-0.1-0.1C222.5,170.1,222.5,170.1,222.6,170.1z"/>
		<path class="st1" d="M209.9,163.2c-0.7,0.1-1.5-0.1-2-0.7c0.5,0.6,1.3,0.9,2.1,0.8C210,163.3,209.9,163.3,209.9,163.2z"/>
		<path class="st1" d="M215.1,165.2c-0.7-0.7-1.2-1.5-1.8-2.4c-0.2-0.4-0.5-0.6-0.8-0.7c0.3,0.1,0.5,0.3,0.7,0.7
			C213.8,163.7,214.3,164.5,215.1,165.2C215.1,165.2,215.1,165.2,215.1,165.2z"/>
		<path class="st1" d="M210.6,164.2C210.6,164.2,210.6,164.2,210.6,164.2c0,0-0.1-0.1-0.1-0.1C210.6,164.1,210.6,164.2,210.6,164.2z
			"/>
		<path class="st1" d="M210.7,161.9c0.1,0,0.2,0.1,0.2,0.1c0,0,0,0,0.1,0C210.9,162,210.8,161.9,210.7,161.9z"/>
		<path class="st1" d="M204.6,160.9c0.2-0.1,0.4-0.1,0.6-0.1c0-0.1,0-0.1,0-0.2c-0.2,0-0.5,0.1-0.7,0.1c-0.2,0-0.3,0-0.5-0.1
			C204.1,160.8,204.4,161,204.6,160.9z"/>
		<path class="st1" d="M215.7,168.8l-0.6,0.5c-0.5,1.5-0.6,3.6,0.9,4c1.1,0.3,2.2-1,2.1-2.1C217.9,170,216.9,169.1,215.7,168.8z"/>
		<path class="st1" d="M223.3,170.7C223.3,170.7,223.3,170.7,223.3,170.7c0.3,0.4-0.3,1-0.7,0.7c-0.1,0-0.1,0-0.2,0c0,0,0,0-0.1,0
			c0,0,0.1,0.1,0.1,0.1l0,0.4c0,0.1-0.1,0.2-0.1,0.3c0,0,0,0,0,0c0,0,0,0,0,0c0,0,0,0,0,0.1c0-0.1,0.1-0.2,0.1-0.3l0-0.4
			c0.1,0,0.1,0,0.2,0C223.2,171.7,223.8,171.1,223.3,170.7z"/>
		<path class="st1" d="M166,231.7c-0.1,0.1-0.1,0.1-0.1,0.2C165.9,231.8,166,231.7,166,231.7z"/>
		<path class="st1" d="M172.3,225.1c0.1-0.4-0.2-0.6-0.5-0.6C172.1,224.5,172.3,224.8,172.3,225.1
			C172.3,225.1,172.3,225.1,172.3,225.1z"/>
		<path class="st1" d="M168.8,189.3c-0.2,0.1-0.3,0.2-0.4,0.3c-0.3,0.5,0.4,1.1,1,1.2c1.6,0.3,3.2,0.4,4.8,0.1l-0.2-1.7
			C172.4,188.5,170.4,188.5,168.8,189.3z"/>
		<path class="st1" d="M139.8,184.7c0.3-1.1,0.4-2.3,0.5-3.5c0-1.2-0.1-2.5-1-3.2c-0.9-0.7-2.7-0.1-2.5,1l0.1,0
			C136.9,181.3,138,183.4,139.8,184.7z"/>
		<path class="st1" d="M153.5,192c-0.5-0.9-1.4-1.6-2.4-2c-1.3-0.5-2.8-0.6-4.2-0.6c-1.4,0-3.1,0.1-4.2,1c-1.1,0.9-1.5,3-0.2,3.8
			c1.4,0.8,3.7-0.2,4.4,1.2c0.4,0.8,0.1,2.2,1,2.2c0.4,0,0.6-0.3,0.9-0.6c2.1-2.2,5.7-1.6,8.6-0.8C156.5,194.4,155.2,193,153.5,192z
			"/>
		<path class="st1" d="M125.4,177.9c-0.2,0.2-0.3,0.6-0.5,0.9c-0.5,0.7-1.6,0.7-2.5,1c-0.9,0.3-1.6,1.5-0.9,2l0.7,0.9
			c0.4,0.6,1.4,0.4,1.9-0.1c0.5-0.5,0.9-1.2,1.5-1.6c0.4-0.2,0.8-0.4,1.2-0.6c0.7-0.5,1.1-1.5,0.7-2.2
			C127.1,177.5,125.9,177.3,125.4,177.9z"/>
		<path class="st1" d="M131.7,183.6c-0.8,0.2-1.4,1.3-1,2.1c0.7-0.2,1.4-0.3,1.9-0.9c0.4-0.6,0.2-1.6-0.5-1.7L131.7,183.6z"/>
		<path class="st1" d="M138,192.4c0.9-0.3,1.4-1.2,1.8-1.9c0.2-0.3,0.3-0.6,0.1-0.9c-0.1-0.1-0.2-0.2-0.4-0.2c-1.3-0.5-3,0.6-2.9,2
			l-0.1-0.4C136.1,191.8,137.2,192.7,138,192.4z"/>
		<path class="st1" d="M136,184.5c-0.7,0.3-1.5,0.7-1.9,1.4c-0.5,0.6-0.4,1.7,0.2,2.1c0.8,0.6,2-0.1,2.3-1c0.4-0.9,0.1-1.9-0.1-2.8
			L136,184.5z"/>
		<path class="st1" d="M156.1,147l-1.2,1.1c-1.2,0.1-1.6,1.9-0.8,2.7c0.9,0.8,2.4,0.3,3-0.7C157.6,149,157.1,147.6,156.1,147z"/>
		<path class="st1" d="M134.2,158.1c0.4,0.7,1.5,0.5,2.1-0.1s0.8-1.4,1.1-2.1c0.3-0.7,0.9-1.5,1.7-1.5c-0.1-0.5-0.5-0.8-1-0.9
			l-1.6,1.1c-0.6-0.5-1.6-0.3-2.1,0.3c-0.5,0.6-0.5,1.4-0.5,2.2C133.9,157.5,134,157.8,134.2,158.1z"/>
		<path class="st1" d="M136.3,151.7c1-0.4,1.8-1,2.3-1.9c0.2-0.4-0.1-0.9-0.6-0.8c-1.5,0.3-2.9,0.9-4.2,1.6c-0.6,0.3-0.1,1.3,0.5,1
			c0.5-0.3,1-0.5,1.5-0.7C135.5,151.2,135.8,151.9,136.3,151.7z"/>
		<path class="st1" d="M139.7,137.9c-0.8-0.6-1.8-1.3-2.8-1c-0.9,0.3-1.5,1.1-1.3,2c0.1,0.6,1,0.5,1.1-0.1c0.1,0,0.2,0,0.3,0
			c0.8-0.3,1.6-0.2,2.3,0.1C139.9,139.1,140.2,138.2,139.7,137.9z"/>
		<path class="st1" d="M130.3,151.3c-0.4-1.4-1.5-2.6-2.9-2.9l-0.3,0.1c-0.6,0.4-0.6,1.3-0.2,1.9c0.3,0.6,0.9,1,1.4,1.6
			c0.8,0.9,1.1,2.2,0.8,3.3C130.1,154.2,130.6,152.7,130.3,151.3z"/>
		<path class="st1" d="M131,127.5c-0.6,0.3-1.5,0.6-1.5,1.3c0.1,0.7,1,0.9,1.7,0.9c1.4,0,2.9-0.1,3.9-0.9c1.1-0.8,1.2-2.8,0-3.4
			c-0.9-0.4-2.3-0.1-2.6-1l-0.1,0.4C132.6,125.8,132,127,131,127.5z"/>
		<path class="st1" d="M123.9,125.7c-0.2,0.9,0.1,1.9,0.4,2.8c0.4,1,0.7,2.1,1.1,3.1c1-1.8,0.9-4.1-0.1-5.8l0.8-1.2
			C125.3,124.1,124.2,124.8,123.9,125.7z"/>
		<path class="st1" d="M122.7,159.5c0.7,0.1,0.9-0.9,1-1.6c0.1-0.7,0.5-1.6,1.2-1.3c0.3,0.1,0.4,0.4,0.5,0.7
			c0.5,1.2,1.1,2.5,1.7,3.8c1.2,0,1.9-1.6,1.5-2.7c-0.4-1.1-1.4-1.9-2.4-2.6c-1-0.7-2-1.5-2.4-2.6c-0.2-0.5-0.2-1.1-0.3-1.7
			c-0.4-1.6-1.7-2.8-2.9-3.8l-0.2,0.4c-0.8,1.4-0.2,3.1,0.6,4.5c0.8,1.4,1.8,2.8,1.7,4.5C122.5,157.8,122.2,158.8,122.7,159.5z"/>
		<path class="st1" d="M159.6,225.2C159.6,225.2,159.6,225.2,159.6,225.2c-1.5-0.1-3-0.3-4.6,0C156.5,225,158,225.1,159.6,225.2z"/>
		<path class="st1" d="M165.8,215.9c0.3,0,0.5,0,0.8,0c0,0,0,0,0,0C166.3,215.9,166,215.9,165.8,215.9z"/>
		<path class="st1" d="M154.9,215.9C154.9,215.9,154.9,215.9,154.9,215.9C154.9,215.9,154.9,215.9,154.9,215.9
			C154.9,215.9,154.9,215.9,154.9,215.9z"/>
		<path class="st1" d="M152.7,225.4C152.7,225.4,152.7,225.4,152.7,225.4l0.3-8.1c0,0,0,0,0,0L152.7,225.4z"/>
		<path class="st1" d="M153.8,226.1c0.1-0.2,0.2-0.4,0.1-0.6c0,0-0.1-0.1-0.1-0.1c0,0,0,0.1,0.1,0.1
			C153.9,225.7,153.9,226,153.8,226.1L153.8,226.1z"/>
		<path class="st1" d="M172.8,215.1l-0.1,0l0,0.8c-0.4,0.3-0.8,0.7-0.9,1.1c-0.1,0.4-0.1,0.7,0,1c0,0-0.1,0-0.1,0c0.1,0,0.1,0,0.2,0
			c-0.1-0.3-0.1-0.6,0-1c0.1-0.4,0.5-0.8,0.9-1.1l0,0L172.8,215.1z"/>
		<path class="st1" d="M172.7,219.1C172.7,219.1,172.7,219.1,172.7,219.1l-0.1,1.2c-0.4-0.2-0.7-0.4-1.1-0.6c0,0,0,0,0,0
			c0.4,0.2,0.8,0.5,1.2,0.7l0,0L172.7,219.1z"/>
		<path class="st1" d="M157.1,216C157.1,216,157.1,216,157.1,216c0.4,0,0.7-0.4,0.6-0.7c0,0,0,0,0,0
			C157.7,215.6,157.5,216,157.1,216z"/>
		<path class="st1" d="M155.8,220.4c0,1.4,1.1,2.6,2.5,2.7c1.4,0,2.6-1.1,2.7-2.5c0-1.4-1.1-2.6-2.5-2.7S155.9,219,155.8,220.4z"/>
		<path class="st1" d="M167.3,216.4c0,0,0.1,0,0.1,0c0,0,0,0,0,0C167.4,216.4,167.3,216.4,167.3,216.4z"/>
		<path class="st1" d="M153.3,217.4c0.4,0,0.8-0.4,0.6-0.8c0.1-0.2,0.2-0.5,0.2-0.7c0,0,0,0,0,0c-0.1,0.2-0.2,0.5-0.2,0.7
			C154,217,153.6,217.4,153.3,217.4z"/>
		<path class="st1" d="M174.6,237.9c0.6-0.3,0.6-1.5-0.1-1.4l-0.8-0.1c-0.4-1.5-2.1-2.5-3.5-2.2c-1.5,0.3-2.6,1.9-2.3,3.4
			c0.1,0.5,0.4,1,0.8,1.2c1.2,0.7,2.5-0.6,3.8-0.8C173.2,238,174,238.2,174.6,237.9z"/>
		<path class="st1" d="M170.3,217.7c-0.1,0-0.2,0-0.3,0c-0.1,0-0.2,0-0.2,0c0,0,0,0,0,0c0.1,0,0.2,0,0.3,0
			C170.1,217.7,170.2,217.7,170.3,217.7z"/>
		<path class="st1" d="M170.8,218.1c0.1,0,0.1,0,0.2,0C170.9,218,170.9,218,170.8,218.1C170.8,218.1,170.8,218.1,170.8,218.1z"/>
		<path class="st1" d="M238.4,182.7c-1.3-0.2-2.9,1-2.6,2.3c0.2,0.6,0.6,1.1,1.1,1.6c0.7,0.7,1.4,1.5,2.2,2.2
			c0.1,0.1,0.3,0.3,0.5,0.3c0.3,0,0.4-0.3,0.5-0.6c0.3-0.8,0.4-1.8,0.3-2.6l0.7-0.4C240.7,184.1,239.7,182.9,238.4,182.7z"/>
		<path class="st1" d="M232.1,187.1c-1,0.9-1.8,2.2-1.6,3.5c0.2,1.3,1.8,2.4,2.9,1.8c0.8-0.5,1-1.6,0.8-2.5
			c-0.3-0.9-0.9-1.6-1.5-2.3l0,0C232.6,187.4,232.4,187.2,232.1,187.1z"/>
		<path class="st1" d="M219.3,103.5c-12.5-1.7-24.2-7-35.1-13.4c-0.8-0.5-1.6-1-2.5-0.9c-1.2,0-2.3,0.9-3.2,1.7
			c-14.9,12.7-36.6,17.1-55.3,11c-5-1.6-9.9-4-13.3-8c-1.5,23.6-1.9,47.3-1.3,70.9c0.2,7.9,0.6,15.9,2,23.7
			c4.5,25.3,20.5,48.3,42.7,61.3c0.4,0.2,0.8,0.4,1.2,0.4c1.5,0,1.7-2.2,2.5-3.5c1.5-2.7,6.1-2.3,7.4-5.1c0.7-1.6-0.1-3.4-0.1-5.2
			c0-0.6,0.2-1.2,0.4-1.8c0-0.8,0-1.7,0-2.5c0-0.3-0.1-0.9,0.1-1.2c0.4-0.6,1.4-0.4,2.1-0.3c0,0,0.1,0,0.2,0c0.5,0,0.9,0.1,1.4,0.1
			c0.3-0.1,0.5-0.1,0.9-0.1c1.2,0,2.4,0.1,3.6,0.2c0.3,0,0.5,0.1,0.8,0.1c0.4,0,0.5,0.4,0.5,0.6c0.1-0.3,0-0.7-0.4-0.8
			c-0.3,0-0.5-0.1-0.8-0.1c0.1-1-0.1-1.9-0.3-2.8l-0.1,0l-21.2-0.6l0.4-13.8l0,0l0,0l22,0.7l0,0.1l0,1.2c0.3-0.1,0.6-0.2,0.9-0.2
			c0.5,0,0.5,0.1,0.9,0.3c0.5,0.3,1.1,0.8,1.6,1.2c0.3,0.2,0.3,0.5,0.6,0.7c0.4,0.3,0.8,0.2,1.2,0.2c0.6,0.1,1.2,0.2,1.7,0.6
			c0.7,0.6,0.9,1.6,0.5,2.4c0.5-0.8,0.4-1.9-0.4-2.5c-0.5-0.4-1.1-0.5-1.7-0.6c-0.5-0.1-0.8,0-1.2-0.2c-0.3-0.2-0.4-0.5-0.6-0.7
			c-0.5-0.4-1.1-0.8-1.6-1.2c-0.4-0.2-0.4-0.3-0.9-0.3c-0.3,0-0.5,0.1-0.9,0.2l0-1.2c0,0,0,0,0.1-0.1c0.6-0.8,0.5-1.9,0.3-2.9
			c-0.9-5.5-0.8-11.2,0.3-16.7c-3.2,0-6.5,0.6-9.5,1.6c4.5,3.9,4.4,11.9-0.3,15.6c-0.3,0.3-0.7,0.5-1.1,0.6
			c-1.3,0.2-2.1-1.4-2.5-2.7s-1.9-2.7-2.9-1.8c0.9-0.7,0.1-2.2-0.9-2.5c-1-0.4-2.2,0-3.3,0c-1.4,0-2.9-0.6-4.4-0.6
			c-1.4,0-3.1,1-3,2.5c-1.6-1.4-1.9-4-0.7-5.7c-2.5-0.6-5.2-0.2-7.3,1.3c-3.6-1.5-8-4.1-7.4-8.1c-1.3,3.2-2.5,6.5-3.7,9.7
			c-0.7-2.7-2.3-5.1-3.9-7.4c-1.3-2-2.7-4-4.1-5.9c-1.3-1.9-2.7-4-2.7-6.3c0-1.7,0.8-3.3,1.6-4.8c1.8-3,5.9-5.8,8.5-3.5
			c1.4,1.2,2.5,3.8,4.1,2.9c1.4-3.2,2.3-8.1-0.9-9.5c1.2-2.2,3.5-4.6,5.9-3.7c1.6,0.6,2.4,2.4,3,4c0.7,2.1,1.5,4.2,2.3,6.3
			c0.8,2.2,1.7,4.5,3.8,5.6c2,1.1,4.6,0.5,6.7,1.4c2,0.8,3.3,2.8,4.7,4.6c1.4,1.7,3.2,3.4,5.4,3.3c2.2-0.1,3.9-3.3,2.1-4.6
			c-1.3-0.3-2.7,0.1-3.6,1.1c-1.4-2.1-2.8-4.2-4.2-6.4c-0.2-0.4-0.5-0.8-0.5-1.3c0.1-0.5,0.5-0.9,0.8-1.2c1.8-1.5,3.6-3.1,5.9-3.7
			c2.3-0.5,5.1,0.3,5.9,2.5c1,2.6-1.1,6.2,0.9,8.1c1.4,1.3,3.9,0.7,5.1-0.9c1.2-1.5,1.4-3.5,1.6-5.4c0.2-3.2,0.4-6.6-1-9.6
			c-1.4-2.9-4.9-5.1-7.9-4c-4,1.4-5.3,7.4-9.5,8.1c-1,0.2-2.1,0-3.1,0.2c-2.8,0.5-4.4,4.2-2.8,6.6c-7.8-2.4-11.5-13.4-6.6-20
			c-2.9,0.7-6-0.3-8.9,0.1c-4.5,0.5-8.4,4.2-9.2,8.6c-3.2,0.6-7.8,0.4-8.3-2.9c-0.3-1.5,0.6-2.9,0.8-4.4c0.2-1.5-0.7-3.5-2.2-3.1
			c0.9-4.3-0.4-9.1-3.4-12.3c-0.3-1.9,1.9-3.3,3.8-3.3c1.9,0,3.7,1,5.4,1.6c4.3,1.5,9,1,13.3-0.3c1-0.3,2.1-0.7,2.7-1.5
			c0.6-0.8,0.6-2.3-0.2-2.8c-1.8-0.3-3.6,0-5.2,0.9c-0.3-1.6,0.3-3.4,1.6-4.5c-1.7-0.9-3-2.7-3.3-4.6c-0.9-0.9-2.6,0-3.2,1.2
			c-0.6,1.2-0.7,2.6-1.5,3.7c-2.2,2.8-8,1.3-9,4.7c-2.7-1.7-3.7-5.6-2.2-8.4c0.8-1.6,2.2-3.4,1.2-4.9c-0.6-0.8-1.6-1-2.5-1.4
			c-2-1-3-3.5-2.2-5.5c0.7-1.9,2.8-3.1,4.8-2.8c-2.5-0.7-3.4-4.8-1.1-6.3c1.9-1.3,9.7,1.9,12.6,2.4l10.2,6.1c0,0,0.1,0,0.1,0l0,0
			c0,0,0,0,0,0l-10.3-6c0.3-0.6,0.8-1.1,1.4-1.5c0.1-0.1,0.1-0.1,0.2-0.2c1.9-1.3,4.6-1.7,6.8-1.2c2.3,0.5,4.4,2.4,4.6,4.7
			c0.1,1.1-0.3,2.2-1,3l3.8,2.4c0.1,0.3,0.3,0.6,0.5,0.8c0.7,0.8,1.8,1.3,1.8,2.5c0,0,0,0,0,0.1l0,0c0,1-0.7,1.7-1.7,2
			c-1.8,0.5-3.4-0.6-4.8-1.6c-1-0.7-2.1-1.7-2.7-2.8c0.5,1.2,1.7,2.2,2.8,2.9c1.4,1,2.9,2.1,4.8,1.6c0.9-0.3,1.6-1.1,1.7-2l4.8,2.8
			c0.2,0.4,0.7,0.6,1.2,0.7l13.9,8.1c-0.3,0.2-0.6,0.5-0.9,0.7c-1.7,1-3.9-0.2-5.2-1.7c-1.3-1.5-2.2-3.4-4-4.4
			c-1.8-0.9-3.9-0.6-5.8-0.3c-2.9,0.5-5.8,0.9-8.6,1.8c0.1-0.1,0.1-0.2,0.1-0.4c0.3-0.1,0.5-0.2,0.7-0.3c0.4-0.1,0.4-0.5,0.2-0.8
			c0.1,0.2,0,0.5-0.2,0.6c-0.2,0.1-0.5,0.2-0.7,0.3c0,0.1,0,0.3-0.1,0.4c0,0-0.1,0.1-0.1,0.1c-0.2,0.1-0.3,0.4-0.6,0.6
			c-0.1,0.1-0.3,0.1-0.5,0.1c-0.4,0-0.8,0.2-1.1,0.1c0,0,0,0-0.1,0.1c-0.2,0.2-0.6,0.2-0.8,0c0.1,0.4,0.6,0.4,0.8,0.2c0,0,0,0,0,0
			c0.1,0.1,0.3,0.2,0.5,0.2c3.1,0.5,6.3,0.7,9.5,0.5c1.4-0.1,3-0.2,4.2,0.6c0.7,0.4,1.2,1.1,1.7,1.7c1.3,1.6,3,2.7,4.7,3.9
			c0.6,0.4,1.3,0.8,2,0.7c0.7-0.1,1.3-0.8,1.9-1.2c2.4-1.5,5.4,0.4,7.5,2.2c1.4,1.3,3.1,3.1,2.3,4.9c-1.2,2.6-6.5,1.7-6.8,4.6
			c-0.2,1.6,1.4,2.8,2.9,3.5c1.2,0.6,2.4,1.2,3.7,1.3c1.3,0.1,2.8-0.3,3.4-1.4c0.5-0.8,0.5-1.7,0.5-2.6c0.1-3.1,0.2-6.3,0.1-9.5
			l8.3,4.9c-0.2,1.5-0.3,3.1-0.8,4.6c-0.4,1.4-1.1,2.8-1.4,4.2c-0.3,1.4,0,3.1,1.1,4c1,0.9,2.6,0.9,3.8,0.2c0.8-0.6,1.3-1.6,2.1-2.3
			c0.8-0.6,1.8-0.8,2.6-1.4c0.8-0.6,1.4-1.8,0.8-2.6c-0.7-0.9-2.2-0.4-3.2-0.9c-0.9-0.5-1.2-1.7-1.2-2.7c0-0.3,0-0.5,0-0.8l1.5,0.9
			c0.8,1,1.8,1.7,2.9,2.3c0.1,0.3,0.5,0.4,0.7,0.3c0.1,0,0.2,0.1,0.3,0.1c0,0.1,0.1,0.3,0.2,0.3c0.5,0.2,0.9,0.5,1.4,0.7
			c0.2,0.1,0.5,0.1,0.6-0.1l0,0c-0.6,1-0.8,2.3-0.3,3.3c0.3,0.6,0.7,1,1.3,1.1c0.4,0,0.8-0.1,1.2-0.2c0.8-0.3,1.7-0.6,2.5-1
			c0-0.1,0-0.1,0-0.2c0-0.1,0.1-0.2,0.2-0.2c0,0,0,0,0,0c0.1-0.2,0.3-0.4,0.5-0.3c0.1,0,0.1,0,0.2,0c0,0,0.1,0,0.1,0
			c0.2,0,0.4,0.2,0.4,0.4c0,0,0.1,0,0.1,0c-0.1-0.2-0.2-0.4-0.4-0.4c0.6-0.5,1.2-1.1,1.5-1.8c1.1-2.8-1.3-6.2,0.2-8.9
			c0.4-0.7,1.1-1.3,1.7-2c2.7-3.2,2.1-8.7-1.2-11.2c-0.5-0.3-1.1-0.6-1.5-0.3c-0.3,0.2-0.4,0.6-0.5,0.9c-1.1,2.8-4.8,3.4-7.9,3.6
			l0.3,0c-1.9,0.1-3.8,0.4-5.6,1c-0.8,0.2-1.5,0.5-2.1,1.1c-1.1,1-1.4,2.5-1.4,3.9c-0.2,1.4-0.2,2.9-0.4,4.3l-8.3-4.9
			c0-0.6,0-1.2-0.1-1.8c0-0.9-0.1-1.8-0.4-2.6c-1.1-2.8-4.7-3.5-7.7-3.3c-1,0-2.2,0.2-3,0.8c-0.1,0.1-0.1,0.1-0.2,0.2L153,129
			c0.1,0,0.1,0,0.2,0c0.9,0.1,2-0.2,2.2-1.1c0.3-0.9-1.1-1.8-1.6-1l0-0.1c-0.9-0.4-2.3,0.1-2.2,1.1c0,0.1,0.1,0.3,0.1,0.4l-4.8-2.8
			c0,0,0,0,0-0.1c0-1.2-1.2-1.7-1.8-2.5c-0.2-0.3-0.4-0.6-0.5-0.8c-1-2.4,0.8-5.8-0.7-8.1c-0.8-1.3-2.6-2.4-2.1-3.8
			c0.2-0.6,0.9-1,1.5-1c1.8-0.1,3.1,1.6,4.9,1.7c1.3,0.1,2.8-0.7,3.8,0.2c1,0.8,0.5,2.5,1.3,3.5c0.7,0.9,2.2,0.8,3,1.6
			c1,1.1,0.1,2.9-0.2,4.4c-0.4,2.5,1.4,4.8,3.3,6.4c1.9,1.6,4.2,2.9,5.4,5.1c0.3,0.6,0.6,1.2,1.1,1.6c0.5,0.3,1.1,0.5,1.7,0.5
			c4.1,0.3,8.6-2,12.1,0.1c0.8,0.5,1.5,1.2,2.4,1.5c2.8,1,5.4-2,8.4-2.4c3-0.4,6.9,1.5,8.6-1c0.4-0.6,0.5-1.4,0.8-2
			c0.9-1.9,3.1-2.7,4.7-4c1.6-1.3,2.6-4.2,0.8-5.3c-0.5-0.3-1-0.4-1.4-0.8c-0.5-0.6-0.4-1.4-0.2-2.1c0.6-3.2,1.6-6.9,4.5-8.3
			c0.9-0.5,2-0.7,3-0.8c2.7-0.5,5.3-1,8-1.5c0.4,2.9-4,4.4-4.3,7.3c-0.2,2,1.5,4.4,0.1,5.9c-0.9,1-2.9,1-3,2.4
			c-0.1,0.9,0.6,1.7,1.5,1.8c2.8,0.3,5.9,0,8.1-1.7c1.9-1.5,2.8-4.3,1.6-6.4c-2-0.1-4.1,0.9-5.3,2.5c-0.9-1.4,0.2-3.3,1.5-4.4
			c1.3-1.1,2.9-2,3.5-3.6c0.2-0.6,0.3-1.3,0.7-1.9c1-1.3,3.2-0.5,4.4,0.7c1.2,1.2,2.2,2.9,3.9,3c2.3,0.2,4-2.8,6.4-2.7
			c2.5,0.1,4.2,3.4,6.6,2.7c1.1-0.3,1.9-1.5,3.3-0.6c0.9,0.5,1.3,1.5,1.2,2.5c-0.2,1.8-0.1,3.9-1,5.6c-0.7,1.3-2.2,2.3-3.7,1.9
			c-1.5-0.4-3.6-1.8-4-0.3c3.5,2.7,7.4,6.3,6.7,10.7c-0.3,1.6-1.1,3-2,4.3l-3.1,4.9c-0.2,0.2-0.3,0.4-0.6,0.5c-1.3,0.6-1.9-1.5-2-3
			c-0.1-1.8-0.8-3.6-2-4.9c-3.8-4.2-9.4-3.1-14.5-2.5c-4.4,0.5-9.5,0.1-11.9-3.5c-1.1-0.2-1.7,1.4-1.2,2.4c0.5,1,1.6,1.5,2.4,2.2
			c1.4,1.2,2.1,2.9,3.2,4.4c1.1,1.4,2.9,2.7,4.6,2.2c1.8-0.6,3.4-2.8,4.9-1.7c-0.8,2-2.5,3.6-2.7,5.7c-0.3,2.3,2.9,4.9,4.2,2.4
			c0.2-0.3,0.4-0.6,0.7-0.7c1.4-0.5,1.5,2.1,2.6,3.2c0.6,0.6,1.6,0.5,2.4,0.4c2.6-0.4,5.1-1.3,7.3-2.7c1.4-0.9,2.7-1.9,4.3-2.4
			c1.6-0.5,3.5-0.2,4.4,1.1c-1.8,0.3-3,2.6-2.2,4.3c0.5-0.8,2-0.3,2.3,0.6c0.3,1-0.1,2-0.4,2.9c-2.3,5.6-4.5,11.1-6.8,16.7
			c-1.4-0.3-2.9,0.6-3.4,1.9c-1.9,0.7-3.9-0.5-5.2-2c-1.3-1.5-2.3-3.3-3.9-4.5c-2.8-2-6.8-1.4-10-0.3c-0.1,1.2-0.1,2.3,0.1,3.4
			c-0.2-0.3-0.3-0.6-0.6-0.8c-0.1-0.1-0.3-0.3-0.5-0.3c-0.1-0.1-0.2-0.2-0.4-0.2c-0.4-0.2-0.7-0.4-1.1-0.7c-0.1-0.1-0.1-0.1-0.2-0.2
			l0,0c-0.1,0-0.1-0.1-0.1-0.1c-0.3-0.2-0.6-0.4-0.9-0.5c0.3,0.1,0.5,0.2,0.8,0.4c0.1,0,0.1,0.1,0.1,0.1l0,0
			c0.1,0.1,0.1,0.1,0.2,0.2c0.4,0.3,0.7,0.5,1.1,0.7c0.2,0,0.3,0.1,0.4,0.2c0.1,0.1,0.3,0.2,0.5,0.3c0.2,0.2,0.4,0.5,0.6,0.8
			c0,0,0,0,0,0.1c0.1,0.2,0.3,0.4,0.4,0.7c0.5,0.3,1,0.6,1.5,0.8c-0.5-0.2-1-0.5-1.5-0.8c-0.2-0.2-0.3-0.4-0.4-0.7l3.3,2l0,0
			c0,0,0,0,0,0c0.2-2.4,2.8-4.6,5.2-3.9c-0.4,1.5-0.8,3-1.3,4.5c1.5,0.3,3-0.3,3.9-1.5c0.2,2.1,1.1,4.2,2.7,5.6
			c-0.6,2.3-3.2,3.6-5.5,4.1c-2.4,0.6-4.9,0.9-6.7,2.6c-1.7,1.6-1.8,5.3,0.5,6c4.4-2.3,8.8-4.5,13.2-6.8c1.2-0.6,2.5-1.3,3.9-1.3
			c4,0,6.1,5.2,5.2,9.2c-1.3,5.7-5.9,10.1-10.3,13.9c-1.7,0.1-2.2-2.3-1.8-4c0.4-1.7,1-3.7-0.3-4.8c-2.5,0.7-3.2,3.8-4.2,6.1
			c-1.2,2.6-3.7,4.8-6.6,4.9c-2.9,0.1-5.8-2.3-5.6-5.2c0.2-1.4,0.9-3.1-0.1-4.1c-0.5-0.6-1.4-0.6-2.1-0.6c-2.2-0.1-4.5-0.2-6.5,0.7
			c-2,0.9-3.6,3.2-3,5.3c2.4-0.4,4.7-1.6,6.4-3.3c2.3,2.1,4.8,5.1,3.6,8c-0.8,1.9-2.9,2.8-4.8,3.6c-3.5,1.3-7,2.7-10.5,4
			c0.4,0.7,1,1.1,1.7,1.4l0.1,0l12.4,0.4l-0.4,13.3l-22.1-0.6l-0.8,0v0l0.8,0c-0.3,0.8,0.3,1.7,1.1,2.2c0,0,0,0,0,0c0,0,0.1,0,0.1,0
			c1.3,0.1,2.6,0.2,4,0.2c0.6,0,1.5-0.1,1.9,0.5c0.5,0.6,0.3,1.9,0.4,2.6c0.1,1.1,0.1,2.1,0.2,3.2c0.1,0.1,0.1,0.3,0.1,0.4
			c0,0.1,0,0.2-0.2,0.4c0,0,0,0,0,0.1c0,0.1-0.1,0.2-0.2,0.2c0.1,0.8,0.2,1.7,0.3,2.5c0.1,0.3-0.1,0.5-0.3,0.6
			c0.3-0.1,0.5-0.3,0.5-0.6c-0.1-0.8-0.2-1.7-0.3-2.5c0.1,0,0.1-0.1,0.2-0.2c0.3,1.8,0.6,3.6,1.4,5.1c1.4,2.9,4.7,4.7,7.9,5
			c3.2,0.3,6.5-0.6,9.5-1.8c14.1-5.7,24.4-18.7,29.9-32.9c5.6-14.2,7-29.6,8-44.8c1.5-24.2,1.9-48.5,1.3-72.8
			C245.2,102.9,231.8,105.1,219.3,103.5z M130,113.3c0-0.2,0.1-0.3,0.1-0.2l0.1,0.1C130.1,113.2,130,113.3,130,113.3z M197.9,155.7
			L197.9,155.7c0-0.1,0-0.1,0-0.1l0,0C197.9,155.7,197.9,155.7,197.9,155.7z M189.6,146.8c0.4-1,1.8-0.6,2.8-0.9
			c1.7-0.5,2-2.8,3.4-3.9c1.3-1.1,3.4-0.8,4.7,0.3c1.3,1.1,2,2.7,2.4,4.4c0.2,0.7,0.3,1.5-0.1,2.1c-0.5,0.9-1.7,1-2.7,0.9
			s-2.1-0.3-2.9,0.3c-0.8,0.6-0.5,2.3,0.5,2.1c0.6-0.1,0.9-0.7,1.4-1c0.9-0.5,2,0.3,2.8,1c0.2,0.2,0.4,0.4,0.4,0.6
			c0.1,0.7-0.9,0.9-1.6,1.1c-1.1,0.1-2.1,0.9-2.7,1.8l0,0c0.2-0.2,0.2-0.5-0.2-0.7c-0.1-0.1-0.2-0.1-0.4-0.2
			c0.1,0.1,0.2,0.1,0.3,0.2c0.3,0.2,0.3,0.5,0.1,0.7c0,0,0,0.1-0.1,0.1c-0.1,0.1-0.4,0.2-0.6,0.1c-0.5-0.2-0.9-0.5-1.4-0.7
			c-0.1-0.1-0.2-0.2-0.2-0.3c-0.1,0-0.2-0.1-0.3-0.1c-0.3,0.1-0.7,0-0.7-0.3c-1.1-0.6-2-1.3-2.8-2.3l-1.5-0.9c0-0.8,0.1-1.6-0.2-2.3
			C189.8,148.1,189.4,147.4,189.6,146.8z M195.9,130.8l-29.5-0.9l0.9-29.5l29.5,0.9L195.9,130.8z"/>
		<path class="st1" d="M236,155.6l-0.7,0.8c-0.2-1.3-0.5-2.8-1.8-3.2c-1-0.3-2.1,0.4-2.6,1.4c-0.5,1-0.5,2.1-0.4,3.2
			c0,0.5,0,1,0.4,1.3c0.5,0.5,1.3,0.4,1.9,0.2c1-0.3,2-0.6,3-1c0.8-0.3,1.8-0.9,1.9-1.8C237.8,155.7,236.5,154.8,236,155.6z"/>
		<path class="st1" d="M195.3,102.6l-26.7-0.8l-0.8,26.7l26.7,0.8L195.3,102.6z M172.8,110.7c-0.1,0-0.3,0-0.4-0.1
			c0,1.3-0.1,2.5-0.1,3.7c0,0.7-1.1,0.7-1.1,0c0.1-3,0.2-6,0.3-9c0-0.3,0.3-0.5,0.5-0.5c0.1-0.1,0.1-0.1,0.2-0.2
			c2.1-1,5.6-0.4,5.5,2.6C177.6,109.6,174.7,110.4,172.8,110.7z M184,124.7c-0.6,3.1-5.1,3.4-5.6,0.1c-0.1-0.7,1-0.9,1.1-0.3
			c0.3,1.9,2.8,2.1,3.4,0.3c0.4-1.1-0.3-2.3-1.1-2.9c-0.9-0.5-2-0.5-2.7-1.3c-0.8-0.9-0.9-2.4-0.3-3.6c1.6-3.1,5.9-0.5,5.2,2.5
			c-0.2,0.7-1.2,0.4-1-0.3c0.7-3.1-4.2-3-3.5-0.1c0.4,1.3,1.8,1.4,2.8,2C183.5,121.8,184.2,123.3,184,124.7z M192.8,112.4
			c-1.9,2.5-5.7,3-8.2,1.2c-2.8-2.1-3.4-6.2-0.7-8.7c2.4-2.3,6.3-1.7,8.3,0.9c0.4,0.6-0.4,1.3-0.8,0.7c-1.5-2-4.3-2.8-6.4-1.1
			c-2.3,1.8-2.1,4.9-0.2,6.9c1.8,1.8,4.8,1.8,6.6,0.1c0.5-0.4,0.9-0.8,0.8-1.5c-0.1-0.2-0.1-0.3-0.1-0.4c0-0.1,0-0.3,0-0.4l0,0
			c0-0.3-0.1-0.5-0.2-0.7c0.2,0,0.4,0,0.6,0.1s0.3,0.1,0.5,0.2C194,110.2,193.4,111.5,192.8,112.4z"/>
		<path class="st1" d="M234.3,162.5c-0.2,1.7,1.1,3.3,2.7,3.8c0.6,0.2,1.5,0.2,1.9-0.4c0.2-0.2,0.2-0.5,0.2-0.8c0.1-2,0.2-4,0.3-6
			l-1.3,1.1C236.4,159.5,234.5,160.8,234.3,162.5z"/>
		<path class="st1" d="M196.2,148.6c-1.4,0.4,0,2.6,0.3,3.3c0.4,0.8,0.6,1.6,0.3,2.4c0.1,0.1,0.2,0.1,0.4,0.2
			c-0.1-0.1-0.2-0.1-0.3-0.2c0.3-0.8,0.1-1.6-0.3-2.4C196.2,151.2,194.8,148.9,196.2,148.6c0.7-0.1,0.5-1.1-0.1-1.1
			C196.7,147.5,196.8,148.4,196.2,148.6z"/>
		<path class="st1" d="M191.4,151.6c0.1,0.1,0.1,0.2,0.2,0.2C191.6,151.8,191.5,151.7,191.4,151.6z"/>
		<path class="st1" d="M244,153.3c0.1-0.8-0.7-1.7-1.3-1.2l-0.5,0.1c-0.5,1.8-1.1,3.7-1.6,5.5c-0.1,0.4-0.2,0.8,0,1.1
			c0.4,0.8,1.8,0.2,2.1-0.7c0.2-0.9,0-1.9,0.3-2.8C243.3,154.6,243.9,154.1,244,153.3z"/>
		<path class="st1" d="M195.5,153.5c0.1,0,0.1,0,0.2,0.1c0,0,0,0,0,0C195.7,153.5,195.6,153.5,195.5,153.5c-0.2-1.6-1.6-2.8-3.2-2.9
			C194,150.7,195.3,151.9,195.5,153.5z"/>
		<path class="st1" d="M175.7,105.6c-0.9-0.6-2.1-0.4-3,0c0,0-0.1,0-0.1,0c0,1.4-0.1,2.7-0.1,4.1c0,0,0,0,0.1,0
			c1.3-0.2,3-0.5,3.8-1.6C176.9,107.2,176.6,106.1,175.7,105.6z"/>
		<path class="st1" d="M154.2,145.5l0.1,0.9c0.6-2.3,0.2-4.9-1.3-6.9c-1,0.8-1.5,2.2-1.3,3.4C152,144.1,153,145.2,154.2,145.5z"/>
		<path class="st1" d="M227.2,126.4c0.9,1,2.6,1.3,3.8,0.5c1.1-0.8,1.4-2.7,0.4-3.6c-0.4-0.3-0.9-0.5-1.3-0.9
			c-0.9-0.9-0.9-2.6-1.7-3.5c-1,0.9-1.8,2.1-2.1,3.4C225.9,123.8,226.2,125.4,227.2,126.4z"/>
		<path class="st1" d="M167.8,159.6l-1,0.1c-1.2,0.1-2.4,0.4-3.4,1.1c-0.2,0.1-0.4,0.2-0.4,0.5c-0.2,0.5,0.4,1,0.9,1.2
			c0.9,0.4,1.9,0.8,2.9,0.8c1,0,2-0.6,2.4-1.5C169.6,160.8,168.8,159.5,167.8,159.6z"/>
		<path class="st1" d="M170.1,161c0.3,1.5,1.4,2.7,2.7,3.3c1.1,0.5,3.4,0.6,3.4-1.2l-0.7,0C174.3,161.4,172.1,160.6,170.1,161z"/>
		<path class="st1" d="M148.2,115.3c-1.1,0.5-1.9,1.4-2.1,2.5c-0.2,0.7,0,1.7,0.7,1.9c0.6,0.2,1.2-0.3,1.4-0.9
			c0.2-0.6,0.1-1.3,0-1.9L148.2,115.3z"/>
		<path class="st1" d="M153.8,172.1c0.5,0,1.1,0,1.6-0.2c1-0.5,1.2-1.7,1.1-2.7c-0.1-1.1-0.3-2.1,0-3.1l-0.4-0.1
			c-2.8,1.4-5.3,3.4-7.2,5.7C150.5,171.9,152.1,172,153.8,172.1z"/>
		<path class="st1" d="M228.2,118.9c-0.1-0.1-0.3-0.2-0.5-0.3L228.2,118.9z"/>
		<path class="st1" d="M148.9,141.7c-0.6-1-1.6-1.8-2.7-2.3c-1.1-0.5-2.3-0.9-3.4-0.5c-1.1,0.4-1.9,1.7-1.5,2.8
			c0.6,1.5,2.9,1.4,4,2.5c0.5,0.4,0.7,1.1,1,1.8c0.6,1.6,1.2,3.3,1.8,4.9c0.3,0.9,0.8,1.9,1.8,1.8c0.9,0,1.4-1.3,1.1-2.1
			s-1-1.5-1.5-2.3c-0.5-0.8-0.8-1.8-0.2-2.6l-0.3-0.6C149.6,144.1,149.5,142.7,148.9,141.7z"/>
		<path class="st1" d="M157.4,153.9c-0.2,0.9,0.2,1.8,0.9,2.3c0.7,0.6,1.6,0.8,2.4,1c0.5,0.2,1,0.2,1.4-0.1c0.4-0.3,0.4-0.8,0.4-1.3
			c0-2.2-0.2-4.4-0.5-6.6c-0.1-0.8-0.2-1.6-0.7-2.3c-0.4-0.7-1.3-1.1-2.1-0.8l-0.2,1.4c0.5,1.6,0.1,3.5-0.8,4.8
			C157.9,152.9,157.5,153.4,157.4,153.9z"/>
		<path class="st1" d="M228.4,119L228.4,119C228.3,119,228.3,119,228.4,119l-0.2-0.1C228.2,118.9,228.3,118.9,228.4,119L228.4,119
			L228.4,119z"/>
		<path class="st2" d="M130,113.3c0.1-0.1,0.1-0.1,0.2-0.2l-0.1-0.1C130,113.1,130,113.2,130,113.3z"/>
		<path class="st3" d="M257.9,172.9c0.7-28.1,1.3-56.2,1.9-84.2c-8.1,4.8-16.5,9.8-25.8,11.5c-17.1,3.2-34.1-4.8-49-13.8
			c-1.2-0.8-2.7-1.6-4.1-1.1c-0.8,0.2-1.4,0.8-2,1.3c-6.6,5.8-14.7,10-23.2,12.3c-13.8,3.6-28.9,1.7-41.8-4.5
			c-3.2-1.6-6.4-3.5-8.6-6.4l-1.1-0.9c-0.4,20.9-0.8,41.8-1.2,62.7c-0.2,10.3-0.4,20.7,0.9,31c4.9,37.6,31.7,71.5,67.1,84.9
			c2.5,0.9,5,1.8,7.7,1.9c2.5,0.1,5-0.3,7.4-0.9c6.7-1.5,13.3-3.8,19.6-6.6c7.2-3.3,14-7.6,20.1-12.6c16.9-14,28.2-34.6,31-56.4
			C257.6,185,257.8,178.9,257.9,172.9z M166,231.7c0,0-0.1,0.1-0.1,0.2c0,0-0.1,0.1-0.1,0.1c0,0,0,0,0-0.1
			C165.8,231.8,165.9,231.8,166,231.7z M166.5,234.7c0,0.1,0,0.1,0,0.2c0,0,0,0,0-0.1c0-0.6-0.1-1.5,0.1-2c0,0,0,0,0,0
			C166.5,233.4,166.6,234.2,166.5,234.7z M168.8,238.9c-0.4-0.2-0.7-0.7-0.8-1.2c-0.4-1.5,0.8-3.1,2.3-3.4c1.5-0.3,3.1,0.7,3.5,2.2
			l0.8,0.1c0.7-0.1,0.7,1.1,0.1,1.4c-0.6,0.3-1.4,0.1-2.1,0.2C171.3,238.2,169.9,239.5,168.8,238.9z M174.3,221.1
			c0.3,0.2,0.3,0.6,0.1,0.8c0.1-0.2,0.1-0.5-0.2-0.7c-0.1-0.1-0.3-0.2-0.5-0.3l0-0.5c0,0,0,0,0.1,0.1l0,0.3
			C173.9,220.9,174.1,221,174.3,221.1z M179.7,164.8c0.9,1,2,1.8,3.3,2.3c-0.6,1-0.3,2.2-0.1,3.3c0.2,1.1,0.2,2.5-0.8,3.1
			c-1,0.5-2.3-0.1-2.7-1.1c-0.5-1-0.4-2.2-0.3-3.3c0.1-0.8,0.2-1.6,0.2-2.4c0.1-0.6,0.6-1.5,1-1.1L179.7,164.8z M180.4,180.3
			c0.9,0,1.5,0.9,1.9,1.6l0.2,1.2c-1,0.6-2.4,0.6-3.2-0.3C178.7,182,179.3,180.2,180.4,180.3z M181.4,200.8c0.1-2.6,0.3-5.1,0.5-7.7
			l0.7-0.1c0.8,1.3,1.3,2.8,1.4,4.4c1.2-0.2,2.2-1,2.7-2.1c0.8,0.8,0,2.2-0.9,2.8c-1,0.6-2.2,1.1-2.5,2.1c-0.3,0.9-0.4,2.2-1.2,2.1
			C181.5,202.2,181.4,201.4,181.4,200.8z M199.7,173.9c0.5,1.1,1.8,1.5,2.7,2.2c0.9,0.7,1.3,2.5,0.2,2.9c-1.9-0.5-4-0.6-5.9-0.3
			c-0.4,0.1-0.9,0.2-1.2,0.5c-0.4,0.4-0.4,0.9-0.5,1.4c-0.2,1.9-0.1,4.2,1.6,5c1.1,0.5,2.3,0,3.4,0.4c1.1,0.4,1.8,1.6,1.5,2.7
			c-0.2,1.1-1.3,2-2.4,2c-0.9,0-1.6-0.5-2.5-0.7c-2.8-0.8-5.6,0.9-8.4,0.8c-0.5,0-1-0.1-1.3-0.4c-0.3-0.3-0.4-0.8-0.4-1.3
			c-0.4-5.6,0.2-11.3,1.7-16.7c0.2-0.9,0.6-2,1.5-2.4c0.5-0.2,1-0.2,1.5-0.2c1.8,0.1,3.6,0.1,5.5,0.2c0-1,1.4-2,2.3-1.3
			C200.7,169.6,199,172.1,199.7,173.9z M212.5,117.6c0.9,0.4,1.1,1.6,0.6,2.5c-0.5,0.9-1.4,1.3-2.4,1.3c-0.9,0-1.9-0.2-2.8-0.5
			c0.2-1.2,1.6-2.1,2.8-1.7l0-0.2C210.4,118.1,211.6,117.2,212.5,117.6z M220.8,146.7c0.2,0.2,0.3,0.6,0.3,0.9c0,1.9,0,3.9-1.1,5.5
			c-0.2,0.2-0.3,0.4-0.6,0.5c-0.7,0.2-1.2-0.7-1.3-1.4c-0.2-1.7,0.2-3.5,1.2-5l0.8-0.3C220,146.6,220.5,146.5,220.8,146.7z
			 M220,155.3l0.3-0.7c0.5-1.4,1.8-3,3.1-2.4c1,0.5,1.1,1.9,0.7,2.9c-1,2.9-4.6,4.8-7.4,3.6c-0.3-0.1-0.6-0.3-0.9-0.6
			c-0.7-0.8,0-2.2,0.9-2.6C217.8,155,219,155.1,220,155.3z M225.4,195.5l0.5-0.2c0.8,1.3-0.2,3.5-1.8,3.4c-1.6,0-2.5-2.4-1.3-3.4
			C223.5,194.7,224.7,194.8,225.4,195.5z M227.3,189.1l1-0.6c0.7,0.9,0.6,2.4-0.3,3.1c-0.9,0.7-2.5,0.2-2.8-0.9
			C224.9,189.7,226.3,188.5,227.3,189.1z M221.5,195c-0.6,0.4-1.5,0.4-2-0.1c-0.5-0.5-0.5-1.5,0.2-1.8l-0.5-0.4c0-1.3,1.9-1.9,2.8-1
			C222.9,192.7,222.5,194.4,221.5,195z M219.7,173.3c-1-0.3-1.3-1.5-0.9-2.3c0.3-0.6,1.2,0,0.9,0.6c-0.1,0.2,0,0.6,0.3,0.7
			c0,0,0.1,0,0.1,0c-0.3-0.3-0.2-0.9,0.3-1l0,1c0.4,0,0.6,0.2,0.9,0.4c0.1,0.1,0.2,0.2,0.3,0.3c0.2,0.2,0.6,0.2,0.8,0
			c0.2-0.2,0.2-0.4,0.1-0.6c0.1,0.2,0.1,0.5-0.1,0.7c-0.2,0.2-0.6,0.2-0.8,0c-0.1-0.1-0.2-0.2-0.3-0.3
			C221,173.2,220.4,173.4,219.7,173.3z M205.7,179.9c-0.6-1.5-0.9-3.5,0.5-4.4c1.2-0.8,3,0.1,3.6,1.4c0.6,1.3,0.5,2.9,0.3,4.3
			l-0.3,0.1c0.1,0.6-0.1,1.2-0.1,1.8c0,0.6,0.2,1.3,0.8,1.5c0.4,0.1,0.7-0.1,1-0.2c1.9-0.8,3.8-1.7,5.7-2.5c0.3-0.1,0.7-0.3,1-0.3
			c0.8,0.1,1.1,1.1,0.8,1.8c-0.3,0.7-1,1.2-1.6,1.5c-1.6,0.9-3.3,1.5-5.1,1.9c-1.5,0.3-3.2,0.5-4.2,1.6c-0.8,0.8-1.3,2.3-2.5,2.2
			c-1.3-0.1-1.6-1.9-1-3c0.6-1.1,1.7-1.9,2-3.2C207.3,183,206.3,181.4,205.7,179.9z M205.9,161.6c-0.1,0-0.1,0-0.2-0.1
			c-0.1,0-0.1-0.1-0.2-0.2c0,0,0,0,0,0c0.1,0.1,0.2,0.1,0.3,0.1C205.9,161.5,205.9,161.5,205.9,161.6z M211.4,165
			c0.2,0.2,0.6,0.2,0.8,0c0.2,0,0.4,0.1,0.6,0.1c0,0.1,0.1,0.1,0.1,0.1c-0.2,0-0.4,0-0.6-0.1c-0.2,0.2-0.5,0.2-0.8,0
			c-0.2-0.1-0.3-0.3-0.4-0.4C211.2,164.9,211.3,164.9,211.4,165z M212.5,162.1c0.3,0.1,0.6,0.3,0.8,0.7c0.6,0.9,1.1,1.7,1.8,2.4
			c0,0-0.1,0-0.1,0c-0.7-0.7-1.3-1.5-1.9-2.4C213,162.5,212.7,162.3,212.5,162.1z M210.9,162.1c-0.1-0.1-0.1-0.1-0.2-0.1
			C210.8,161.9,210.9,162,210.9,162.1C211,162,211,162,210.9,162.1z M210.6,164.2C210.6,164.2,210.6,164.2,210.6,164.2
			C210.6,164.2,210.6,164.1,210.6,164.2C210.6,164.1,210.6,164.1,210.6,164.2z M207.9,162.6c0.5,0.5,1.3,0.8,2,0.7
			c0,0.1,0.1,0.1,0.1,0.2C209.2,163.5,208.4,163.2,207.9,162.6z M218.1,171.2c0.2,1.2-0.9,2.5-2.1,2.1c-1.5-0.4-1.4-2.5-0.9-4
			l0.6-0.5C216.9,169.1,217.9,170,218.1,171.2z M220.5,171.2L220.5,171.2c-0.1-0.1-0.1-0.2-0.2-0.3
			C220.4,171,220.5,171.1,220.5,171.2c0.5,0,0.9,0.1,1.2,0.4C221.4,171.4,221,171.2,220.5,171.2z M222.5,171.5l0,0.4
			c0,0.1-0.1,0.2-0.1,0.3c0,0,0,0,0-0.1c0,0,0,0,0,0c0,0,0,0,0,0c0-0.1,0.1-0.2,0.1-0.3L222.5,171.5c-0.1-0.1-0.1-0.1-0.2-0.1
			c0,0,0,0,0.1,0C222.5,171.4,222.5,171.4,222.5,171.5c0.5,0.1,1.1-0.4,0.8-0.8c0,0,0,0,0,0c0.5,0.4-0.1,1-0.6,0.8
			C222.6,171.5,222.6,171.5,222.5,171.5z M222.6,170.1c0,0-0.1-0.1-0.1-0.1C222.5,170.1,222.6,170.1,222.6,170.1L222.6,170.1z
			 M222.1,171.1c-0.7-0.4-1.3-0.3-2-0.6c0.1,0.1,0.1,0.2,0.2,0.3c-0.1-0.1-0.1-0.2-0.2-0.3c0,0-0.1,0-0.1-0.1
			c-0.8-0.4-1.4-1.2-2.3-1.6c-0.1,0-0.2-0.1-0.2-0.2c0,0,0.1,0,0.1,0.1c0.9,0.4,1.4,1.1,2.3,1.6c0,0,0.1,0,0.1,0.1
			C220.7,170.7,221.4,170.6,222.1,171.1C222.1,171,222.1,171,222.1,171.1z M217.4,168.1c-0.2-0.1-0.5-0.3-0.7-0.4
			c-0.3-0.2-0.6-0.4-0.9-0.6c-0.1-0.1-0.3-0.2-0.5-0.3c-0.1,0-0.3,0-0.5,0c-0.6-0.3-1.2-0.7-1.6-1.2c0.4,0.4,0.9,0.7,1.5,1
			c0.1,0.1,0.3,0.1,0.5,0c0.1,0.1,0.3,0.2,0.5,0.3c0.3,0.2,0.6,0.4,0.9,0.6C216.8,167.7,217.1,167.9,217.4,168.1
			C217.4,168.1,217.4,168.1,217.4,168.1z M215.2,143.3c0.4,1.3-0.9,2.8-2.2,2.5c-1.4-0.3-2-2.2-1.1-3.2c1-1.1,2.8-0.7,4.2-0.3
			L215.2,143.3z M211.2,154.1c0.2-0.6,0.6-1.3,1.1-1.7c0.6-0.4,1.4-0.5,2,0l-0.5,0.2c0.8-0.3,1.5,0.7,1.3,1.5
			c-0.2,0.8-1,1.3-1.7,1.7c-0.7,0.4-1.5,0.9-1.6,1.7c-0.1,0.6-0.3,1.7-0.9,1.4C210.5,157.2,210.7,155.6,211.2,154.1z M210.5,161.9
			C210.5,161.9,210.5,161.9,210.5,161.9c-1.2-0.8-2.3-1.7-3.5-2.4c-0.6-0.4-1.2-0.7-1.8-0.8c0.7,0.1,1.3,0.5,1.9,0.9
			C208.3,160.3,209.4,161.1,210.5,161.9z M207.5,161.9c-0.2,0.1-0.4,0.2-0.6,0.3c-0.3,0.1-0.6,0-0.7-0.2c0.2,0.1,0.4,0.1,0.6,0
			c0.2-0.1,0.4-0.2,0.7-0.3C207.4,161.8,207.4,161.9,207.5,161.9z M204.5,160.8c0.3,0,0.5-0.1,0.7-0.1c0,0.1,0,0.1,0,0.2
			c-0.2,0-0.4,0-0.6,0.1c-0.3,0-0.5-0.1-0.6-0.3C204.1,160.7,204.3,160.8,204.5,160.8z M203.8,160.2c-0.2-0.1-0.3-0.1-0.5-0.2
			c-0.1,0-0.1-0.1-0.2-0.2c0,0,0,0,0,0c0.2,0.2,0.5,0.2,0.7,0.3C203.8,160.2,203.8,160.2,203.8,160.2z M202.3,171
			c0.3-1.2,1.1-2.2,1.9-3.2c0.6-0.7,1.2-1.4,2-1.5c1.3-0.1,2.3,1.6,1.8,2.8c-0.1,0.3-0.3,0.6-0.5,0.8c-0.3,0.2-0.7,0.4-1.1,0.5
			c-1.5,0.6-2.4,2.5-2,4.1l-0.9-0.4C202.5,173.7,202.1,172.2,202.3,171z M202.8,159.4C202.8,159.4,202.9,159.4,202.8,159.4
			C202.9,159.4,202.9,159.5,202.8,159.4C202.9,159.5,202.9,159.5,202.8,159.4C202.8,159.4,202.8,159.4,202.8,159.4z M197.4,202.6
			c-1.2,1-3.2,0.6-4.1,1.8c-0.3,0.4-0.4,1-0.4,1.5c-0.1,1.7,0.3,3.4,1.1,4.9c0.5,0.9,1.1,1.9,0.8,2.8c-0.1,0.4-0.5,0.6-0.8,0.8
			l-0.1,0l-7.3-0.2c-0.3-0.5-0.4-1.1-0.5-1.7c-0.2-0.8-0.8-1.7-1.6-1.4c1-3.9,2.9-7.5,5.5-10.6c0.3-0.4,0.7-0.8,1.2-1
			c1.2-0.7,2.6-0.1,4-0.1c0.8-0.4,2-0.2,2.5,0.5C198.3,200.7,198.2,202,197.4,202.6z M206.2,216.9c-0.1-0.2-0.1-0.4-0.1-0.5l0,0
			C206.1,216.5,206.1,216.7,206.2,216.9z M207.6,222.7c-0.1,0.1-0.3,0.2-0.4,0.4c-0.2,0.4-0.2,0.8,0,1.1c-0.1,0.1-0.2,0.3-0.2,0.5
			l0,0c-0.1,0-0.2,0-0.3,0c-0.2,0-0.4,0-0.6,0.1c-0.5,0.1-0.5,0.7-0.2,1c0,0-0.1,0-0.1,0c-1-0.2-2-0.2-3.1,0
			c-0.4,0.1-0.5,0.5-0.3,0.7l-12.4-0.3l0,0l12.4,0.3c-0.1-0.3,0-0.7,0.3-0.7c1.1-0.3,2.1-0.3,3.1,0c0,0,0.1,0,0.1,0
			c-0.3-0.2-0.3-0.8,0.2-1c0.2-0.1,0.4-0.1,0.6-0.1c0.1,0,0.2,0,0.3,0l0,0c0.1-0.2,0.2-0.3,0.2-0.5c-0.2-0.3-0.2-0.7,0-1.1
			C207.3,222.9,207.4,222.8,207.6,222.7c0-0.3,0-0.6,0-0.9c0-0.4,0.4-0.6,0.7-0.5c0-0.3,0.1-0.5,0.1-0.6c0.3-1.2,0.6-2.4,1-3.5
			c0,0,0,0,0.1,0c-0.4,1.2-0.7,2.3-1,3.5c0,0.1-0.1,0.3-0.1,0.6c-0.3-0.1-0.7,0.1-0.7,0.5C207.6,222.1,207.6,222.4,207.6,222.7z
			 M206.7,221.2c0,1.4-1.2,2.6-2.7,2.5c-1.4,0-2.6-1.2-2.5-2.7c0-1.4,1.2-2.6,2.7-2.5C205.6,218.5,206.7,219.7,206.7,221.2z
			 M208.8,217C208.8,217,208.8,217,208.8,217C208.8,217,208.8,217,208.8,217z M208.6,216.8C208.6,216.8,208.6,216.8,208.6,216.8
			c0,0.1,0.1,0.1,0.1,0.2C208.7,216.9,208.6,216.8,208.6,216.8z M179.2,220.2c-0.3,0-0.6,0.1-1.1,0.1
			C178.6,220.2,179,220.2,179.2,220.2z M175.6,220.1c-0.1,0-0.3,0-0.4-0.1C175.3,220,175.4,220.1,175.6,220.1c0.5,0.2,1,0.4,1.5,0.7
			C176.6,220.5,176.1,220.3,175.6,220.1z M179.7,238c0.8-0.4,1.9-0.2,2.2,0.7l-0.1-0.7c0.5-0.1,1.1-0.1,1.6,0.2
			c0.5,0.2,0.9,0.8,0.7,1.3c-0.2,0.6-1,0.8-1.7,0.7c-1.5,0-3-0.1-4.5-0.4C178.4,239.1,178.9,238.3,179.7,238z M179,245
			c0.5-1.1,2.1-1.5,3.2-1c1.2,0.5,2,1.6,2.4,2.7l0.2,0.3c-1.1,0.9-2.6,1.5-4,1.2C179.6,247.9,178.4,246.3,179,245z M186.6,225.3
			c-0.5-0.7-1-1.4-1.5-2.1c-0.2-0.4-0.7-0.3-0.9,0c0.1-0.4,0.7-0.6,1-0.1c0.4,0.7,0.9,1.4,1.5,2.1c0.2,0.2,0.2,0.5,0,0.7
			C186.7,225.7,186.7,225.5,186.6,225.3z M186.4,194.2c1.1-1.7,3.5-2.5,5.4-1.8l1.3,1.1C191.1,194.6,188.6,194.8,186.4,194.2z
			 M194.3,164.7l0.6-0.1c-1.6-0.1-3.4-0.1-4.6,1c-0.8,0.8-1.2,2-2.2,2.6c-0.9,0.5-2.1,0.3-2.8-0.5c-0.6-0.8-0.6-2.1,0.1-2.9
			c0.4-0.5,1-0.7,1.6-0.9c1.4-0.6,2.8-1.1,4.2-1.7c0.9-0.4,1.9-0.7,2.8-0.7c1,0.1,2,0.7,2.1,1.7
			C196.3,164.2,195.1,165.2,194.3,164.7z M184.8,224.6c0.1,0.1,0.1,0.2,0.2,0.2c-1.7-0.6-3.2-2-4.7-3.2c0,0,0.1-0.1,0.1-0.1
			C181.8,222.6,183.2,224,184.8,224.6z M179.1,220.8c1-0.3,2.4-1.2,0.2-2.2C181.6,219.7,180.1,220.5,179.1,220.8z M178,218.5
			c0.2,0,0.5,0,0.7,0C178.5,218.5,178.2,218.5,178,218.5z M175.2,216.7c0.2,0.1,0.5,0.3,0.7,0.4C175.7,217,175.4,216.9,175.2,216.7z
			 M176,217.2C176,217.2,176,217.2,176,217.2C176,217.2,176,217.2,176,217.2z M173.8,216.7L173.8,216.7
			C173.8,216.7,173.8,216.7,173.8,216.7C173.9,216.7,173.8,216.7,173.8,216.7z M173.7,222.2C173.7,222.2,173.7,222.2,173.7,222.2
			l-0.1,5.5l-0.1,0L173.7,222.2z M183.4,260.5c-0.9,0-1.9-0.4-2.8-0.7c-1.4-0.4-2.9-0.5-4.3-0.3c-1.3,0.2-2.7,0.7-4,0.6
			c-1.4-0.2-2.7-1.4-2.4-2.7c5.5,0.2,10.9,0.3,16.3,0.5l-1,0.8C185.4,259.6,184.4,260.4,183.4,260.5z M189,240.5
			c-0.7,0.5-1.9,0.6-2.4-0.1c-0.2-0.4-0.2-0.9-0.1-1.3c0.3-1.7,1-3.4,2.1-4.7l0.2-0.3c1.3-0.2,2.8-0.3,4,0.4
			c1.2,0.7,1.8,2.5,0.8,3.5c-0.7,0.6-1.6,0.6-2.5,1C190.3,239.2,189.7,240,189,240.5z M193.7,231.2c0.1,0,0.2,0,0.3,0c0,0,0,0,0,0
			C193.9,231.2,193.8,231.2,193.7,231.2z M191.4,231.8c0.1,0,0.2-0.1,0.3-0.3c0,0,0,0,0.1,0C191.7,231.6,191.5,231.7,191.4,231.8z
			 M193.5,255.9c-0.8-0.1-1.3-0.9-1.6-1.7c-0.4-1-0.6-2.4,0.2-3.1c0.9-0.7,2.2,0,2.7,1c0.5,1,0.3,2.1,0.2,3.2l-0.2-0.5
			C194.7,255.4,194.1,256,193.5,255.9z M205.2,256.3c-1.1,0.3-2.3,0.5-3,1.4c-0.4,0.5-0.6,1.1-0.9,1.6c-0.7,1-2,1.4-3.1,1.3
			c-1.2-0.1-2.3-0.5-3.4-1c1.1,0,2.1-0.4,3-1.1c0.7-0.6,1.3-1.3,2-1.9c1.7-1.6,4.1-2.5,6.4-2.4l1.3,0.1
			C207.4,255.4,206.2,256,205.2,256.3z M253.9,168c-1,15.2-2.5,30.7-8,44.8c-5.6,14.2-15.8,27.2-29.9,32.9c-3,1.2-6.3,2.1-9.5,1.8
			c-3.2-0.3-6.5-2.1-7.9-5c-0.7-1.5-1.1-3.4-1.4-5.1c0,0.1-0.1,0.2-0.2,0.2c0.1,0.8,0.2,1.7,0.3,2.5c0.1,0.4-0.2,0.6-0.5,0.6
			c0.2-0.1,0.4-0.3,0.3-0.6c-0.2-0.8-0.2-1.7-0.3-2.5c0.1,0,0.1-0.1,0.2-0.2c0,0,0,0,0-0.1c0.1-0.1,0.2-0.2,0.2-0.4
			c0-0.2,0-0.3-0.1-0.4c0-1.1-0.1-2.1-0.2-3.2c-0.1-0.7,0.1-2-0.4-2.6c-0.4-0.6-1.3-0.5-1.9-0.5c-1.3-0.1-2.6-0.2-4-0.2
			c0,0-0.1,0-0.1,0c0,0,0,0,0,0c-0.8-0.5-1.4-1.4-1.1-2.2l-0.8,0v0l0.8,0l22.1,0.6l0.4-13.3l-12.4-0.4l-0.1,0
			c-0.7-0.3-1.3-0.7-1.7-1.4c3.5-1.3,7-2.7,10.5-4c1.9-0.7,4.1-1.6,4.8-3.6c1.2-2.9-1.3-5.9-3.6-8c-1.7,1.8-4,3-6.4,3.3
			c-0.6-2.1,1-4.4,3-5.3c2-0.9,4.3-0.8,6.5-0.7c0.8,0,1.6,0.1,2.1,0.6c1,1,0.2,2.6,0.1,4.1c-0.3,2.9,2.7,5.4,5.6,5.2
			c2.9-0.1,5.3-2.3,6.6-4.9c1.1-2.3,1.8-5.4,4.2-6.1c1.3,1.1,0.7,3.1,0.3,4.8c-0.4,1.7,0.1,4.1,1.8,4c4.4-3.9,9-8.2,10.3-13.9
			c0.9-3.9-1.2-9.2-5.2-9.2c-1.4,0-2.7,0.6-3.9,1.3c-4.4,2.3-8.8,4.5-13.2,6.8c-2.3-0.8-2.2-4.4-0.5-6c1.8-1.7,4.3-2,6.7-2.6
			c2.4-0.6,4.9-1.8,5.5-4.1c-1.5-1.5-2.5-3.5-2.7-5.6c-0.9,1.2-2.4,1.8-3.9,1.5c0.4-1.5,0.8-3,1.3-4.5c-2.4-0.6-5,1.5-5.2,3.9
			c0,0,0,0,0,0l0,0l-3.3-2c0.1,0.2,0.2,0.4,0.4,0.7c0.5,0.3,0.9,0.6,1.5,0.8c-0.5-0.2-1-0.5-1.5-0.8c-0.1-0.2-0.3-0.4-0.4-0.7
			c0,0,0,0,0-0.1c-0.2-0.3-0.3-0.6-0.6-0.8c-0.1-0.1-0.3-0.2-0.5-0.3c-0.1-0.1-0.2-0.2-0.4-0.2c-0.4-0.2-0.7-0.4-1.1-0.7
			c0-0.1-0.1-0.1-0.2-0.2l0,0c0,0-0.1-0.1-0.1-0.1c-0.2-0.2-0.5-0.3-0.8-0.4c0.3,0.1,0.6,0.2,0.9,0.5c0,0,0.1,0.1,0.1,0.1l0,0
			c0.1,0.1,0.1,0.1,0.2,0.2c0.3,0.3,0.7,0.5,1.1,0.7c0.2,0,0.3,0.1,0.4,0.2c0.1,0.1,0.3,0.2,0.5,0.3c0.2,0.2,0.4,0.5,0.6,0.8
			c-0.3-1.1-0.3-2.3-0.1-3.4c3.3-1.2,7.2-1.8,10,0.3c1.6,1.2,2.5,3,3.9,4.5c1.3,1.5,3.4,2.7,5.2,2c0.5-1.3,2-2.2,3.4-1.9
			c2.3-5.6,4.5-11.1,6.8-16.7c0.4-0.9,0.7-1.9,0.4-2.9c-0.3-0.9-1.8-1.4-2.3-0.6c-0.8-1.7,0.4-4,2.2-4.3c-0.9-1.4-2.8-1.6-4.4-1.1
			c-1.6,0.5-2.9,1.5-4.3,2.4c-2.2,1.4-4.7,2.3-7.3,2.7c-0.8,0.1-1.8,0.2-2.4-0.4c-1.1-1-1.2-3.7-2.6-3.2c-0.3,0.1-0.6,0.4-0.7,0.7
			c-1.3,2.5-4.5-0.1-4.2-2.4c0.3-2.1,2-3.7,2.7-5.7c-1.5-1.1-3.2,1.2-4.9,1.7c-1.7,0.5-3.5-0.7-4.6-2.2c-1.1-1.4-1.8-3.2-3.2-4.4
			c-0.8-0.7-1.9-1.2-2.4-2.2c-0.5-1,0.1-2.6,1.2-2.4c2.4,3.6,7.5,4,11.9,3.5c5.1-0.6,10.7-1.6,14.5,2.5c1.2,1.4,1.9,3.1,2,4.9
			c0.1,1.4,0.7,3.6,2,3c0.2-0.1,0.4-0.3,0.6-0.5l3.1-4.9c0.9-1.3,1.7-2.7,2-4.3c0.7-4.4-3.2-8-6.7-10.7c0.4-1.5,2.5-0.1,4,0.3
			c1.4,0.4,2.9-0.6,3.7-1.9c0.9-1.7,0.8-3.8,1-5.6c0.1-1-0.3-2-1.2-2.5c-1.4-0.9-2.3,0.3-3.3,0.6c-2.4,0.7-4.1-2.7-6.6-2.7
			c-2.4-0.1-4.1,2.9-6.4,2.7c-1.7-0.1-2.8-1.8-3.9-3c-1.2-1.2-3.4-2-4.4-0.7c-0.4,0.5-0.4,1.3-0.7,1.9c-0.6,1.6-2.2,2.5-3.5,3.6
			c-1.3,1.1-2.4,3-1.5,4.4c1.2-1.6,3.3-2.5,5.3-2.5c1.2,2.1,0.2,4.9-1.6,6.4c-2.2,1.8-5.3,2.1-8.1,1.7c-0.9-0.1-1.6-0.9-1.5-1.8
			c0.2-1.4,2.1-1.4,3-2.4c1.4-1.5-0.4-3.8-0.1-5.9c0.3-2.9,4.7-4.4,4.3-7.3c-2.7,0.5-5.3,1-8,1.5c-1,0.2-2.1,0.4-3,0.8
			c-2.9,1.5-3.9,5.1-4.5,8.3c-0.1,0.7-0.3,1.6,0.2,2.1c0.4,0.4,0.9,0.5,1.4,0.8c1.8,1.1,0.8,4-0.8,5.3c-1.6,1.3-3.9,2.1-4.7,4
			c-0.3,0.6-0.4,1.4-0.8,2c-1.6,2.5-5.5,0.6-8.6,1c-3,0.4-5.6,3.4-8.4,2.4c-0.9-0.3-1.6-1-2.4-1.5c-3.5-2.1-8,0.3-12.1-0.1
			c-0.6-0.1-1.2-0.2-1.7-0.5c-0.5-0.4-0.8-1-1.1-1.6c-1.3-2.2-3.5-3.5-5.4-5.1c-1.9-1.6-3.7-3.9-3.3-6.4c0.2-1.5,1.2-3.3,0.2-4.4
			c-0.8-0.9-2.2-0.7-3-1.6c-0.8-1-0.4-2.6-1.3-3.5c-1-0.9-2.5-0.1-3.8-0.2c-1.7-0.1-3.1-1.8-4.9-1.7c-0.7,0.1-1.3,0.4-1.5,1
			c-0.5,1.4,1.2,2.5,2.1,3.8c1.5,2.3-0.3,5.7,0.7,8.1c0.1,0.3,0.3,0.6,0.5,0.8c0.7,0.8,1.8,1.3,1.8,2.5c0,0,0,0.1,0,0.1l4.8,2.8
			c-0.1-0.1-0.1-0.3-0.1-0.4c-0.1-1,1.3-1.4,2.2-1.1l0,0.1c0.5-0.7,1.8,0.2,1.6,1c-0.3,0.9-1.3,1.2-2.2,1.1c-0.1,0-0.1,0-0.2,0
			l13.9,8.1c0.1-0.1,0.1-0.1,0.2-0.2c0.9-0.6,2-0.8,3-0.8c3-0.2,6.6,0.5,7.7,3.3c0.3,0.8,0.3,1.7,0.4,2.6c0,0.6,0,1.2,0.1,1.8
			l8.3,4.9c0.2-1.4,0.2-2.9,0.4-4.3c0-1.4,0.3-2.9,1.4-3.9c0.6-0.5,1.3-0.8,2.1-1.1c1.8-0.6,3.7-0.9,5.6-1l-0.3,0
			c3-0.2,6.7-0.7,7.9-3.6c0.1-0.3,0.2-0.7,0.5-0.9c0.5-0.3,1.1,0,1.5,0.3c3.4,2.6,4,8,1.2,11.2c-0.6,0.7-1.3,1.3-1.7,2
			c-1.4,2.7,1,6.1-0.2,8.9c-0.3,0.7-0.8,1.3-1.5,1.8c0.2,0,0.3,0.2,0.4,0.4c0,0-0.1,0-0.1,0c0-0.2-0.2-0.4-0.4-0.4c0,0-0.1,0-0.1,0
			c-0.1,0-0.1,0-0.2,0c-0.3,0-0.4,0.1-0.5,0.3c0,0,0,0,0,0c-0.1,0.1-0.1,0.2-0.2,0.2c0,0.1,0,0.2,0,0.2c-0.8,0.4-1.6,0.7-2.5,1
			c-0.4,0.1-0.8,0.3-1.2,0.2c-0.6-0.1-1.1-0.6-1.3-1.1c-0.5-1.1-0.3-2.3,0.3-3.3l0,0c-0.1,0.1-0.4,0.2-0.6,0.1
			c-0.5-0.2-0.9-0.5-1.4-0.7c-0.1-0.1-0.2-0.2-0.2-0.3c-0.1,0-0.2-0.1-0.3-0.1c-0.3,0.1-0.7,0-0.7-0.3c-1.1-0.6-2-1.3-2.9-2.3
			l-1.5-0.9c0,0.3,0,0.5,0,0.8c0,1,0.3,2.2,1.2,2.7c1,0.5,2.5,0.1,3.2,0.9c0.6,0.8,0,2-0.8,2.6c-0.8,0.6-1.9,0.8-2.6,1.4
			c-0.8,0.7-1.3,1.7-2.1,2.3c-1.1,0.8-2.7,0.7-3.8-0.2c-1.1-1-1.3-2.6-1.1-4c0.3-1.4,0.9-2.8,1.4-4.2c0.5-1.5,0.7-3,0.8-4.6L178,144
			c0.1,3.1,0,6.3-0.1,9.5c0,0.9-0.1,1.8-0.5,2.6c-0.7,1.1-2.1,1.6-3.4,1.4c-1.3-0.1-2.5-0.7-3.7-1.3c-1.5-0.7-3.1-1.9-2.9-3.5
			c0.4-2.9,5.6-2,6.8-4.6c0.8-1.8-0.8-3.6-2.3-4.9c-2.1-1.8-5.2-3.7-7.5-2.2c-0.6,0.4-1.2,1.1-1.9,1.2c-0.7,0.1-1.4-0.3-2-0.7
			c-1.7-1.2-3.4-2.3-4.7-3.9c-0.5-0.6-1-1.3-1.7-1.7c-1.2-0.8-2.8-0.6-4.2-0.6c-3.2,0.2-6.4,0-9.5-0.5c-0.2,0-0.4-0.1-0.5-0.2
			c0,0,0,0,0,0c-0.3,0.2-0.8,0.2-0.8-0.2c0.2,0.2,0.5,0.2,0.8,0c0,0,0,0,0.1-0.1c0.4,0,0.7-0.2,1.1-0.1c0.2,0,0.4,0,0.5-0.1
			c0.3-0.1,0.3-0.4,0.6-0.6c0,0,0.1-0.1,0.1-0.1c0.1-0.1,0.2-0.2,0.1-0.4c0.3-0.1,0.5-0.2,0.7-0.3c0.3-0.1,0.3-0.4,0.2-0.6
			c0.2,0.2,0.2,0.6-0.2,0.8c-0.3,0.1-0.5,0.2-0.7,0.3c0,0.1,0,0.3-0.1,0.4c2.8-0.8,5.7-1.3,8.6-1.8c2-0.3,4.1-0.6,5.8,0.3
			c1.7,0.9,2.7,2.8,4,4.4c1.3,1.5,3.5,2.7,5.2,1.7c0.3-0.2,0.6-0.5,0.9-0.7l-13.9-8.1c-0.5-0.1-1-0.3-1.2-0.7l-4.8-2.8
			c0,0.9-0.7,1.8-1.7,2c-1.8,0.5-3.4-0.6-4.8-1.6c-1.1-0.8-2.2-1.8-2.8-2.9c0.6,1.1,1.7,2,2.7,2.8c1.4,1,2.9,2.1,4.8,1.6
			c0.9-0.3,1.6-1,1.7-2l0,0c0,0,0-0.1,0-0.1c0-1.2-1.1-1.7-1.8-2.5c-0.2-0.3-0.4-0.6-0.5-0.8l-3.8-2.4c0.7-0.8,1.1-1.9,1-3
			c-0.2-2.4-2.3-4.2-4.6-4.7c-2.2-0.5-4.9-0.1-6.8,1.2c-0.1,0.1-0.1,0.1-0.2,0.2c-0.6,0.4-1,0.9-1.4,1.5l10.3,6c0,0,0,0,0,0l0,0
			c0,0-0.1,0-0.1,0l-10.2-6.1c-2.9-0.4-10.7-3.7-12.6-2.4c-2.2,1.5-1.3,5.6,1.1,6.3c0.1,0,0.3,0,0.5,0.1c-0.1,0-0.3,0-0.5-0.1
			c-2-0.3-4.1,0.9-4.8,2.8c-0.7,2,0.3,4.6,2.2,5.5c0.9,0.4,1.9,0.6,2.5,1.4c1,1.4-0.4,3.3-1.2,4.9c-1.4,2.8-0.4,6.7,2.2,8.4
			c1-3.4,6.9-1.9,9-4.7c0.8-1.1,0.9-2.5,1.5-3.7c0.6-1.2,2.3-2.1,3.2-1.2c0.3,1.9,1.6,3.7,3.3,4.6c-1.3,1.1-1.9,2.9-1.6,4.5
			c1.5-0.9,3.4-1.2,5.2-0.9c0.9,0.5,0.9,1.9,0.2,2.8c-0.6,0.8-1.7,1.2-2.7,1.5c-4.3,1.2-9.1,1.8-13.3,0.3c-1.8-0.6-3.5-1.6-5.4-1.6
			c-1.9,0-4.1,1.4-3.8,3.3c3,3.2,4.3,7.9,3.4,12.3c1.5-0.3,2.4,1.7,2.2,3.1c-0.2,1.5-1.1,2.9-0.8,4.4c0.6,3.2,5.1,3.4,8.3,2.9
			c0.8-4.5,4.8-8.1,9.2-8.6c3-0.3,6,0.6,8.9-0.1c-4.8,6.6-1.2,17.6,6.6,20c-1.6-2.4,0-6.1,2.8-6.6c1-0.2,2.1,0,3.1-0.2
			c4.2-0.7,5.5-6.7,9.5-8.1c3.1-1.1,6.5,1.1,7.9,4c1.4,2.9,1.3,6.3,1,9.6c-0.2,1.9-0.4,3.9-1.6,5.4c-1.2,1.5-3.6,2.2-5.1,0.9
			c-2-1.9,0.1-5.5-0.9-8.1c-0.8-2.2-3.6-3.1-5.9-2.5c-2.3,0.5-4.1,2.2-5.9,3.7c-0.4,0.3-0.7,0.7-0.8,1.2c-0.1,0.5,0.2,0.9,0.5,1.3
			c1.4,2.1,2.8,4.3,4.2,6.4c0.9-1,2.3-1.4,3.6-1.1c1.8,1.4,0,4.5-2.1,4.6c-2.2,0.1-4.1-1.6-5.4-3.3c-1.4-1.7-2.7-3.7-4.7-4.6
			c-2.1-0.9-4.7-0.3-6.7-1.4c-2-1.1-3-3.4-3.8-5.6c-0.8-2.1-1.5-4.2-2.3-6.3c-0.6-1.6-1.3-3.4-3-4c-2.4-0.8-4.6,1.5-5.9,3.7
			c3.2,1.4,2.4,6.2,0.9,9.5c-1.6,0.9-2.8-1.7-4.1-2.9c-2.6-2.4-6.7,0.4-8.5,3.5c-0.9,1.5-1.6,3.1-1.6,4.8c0,2.3,1.4,4.4,2.7,6.3
			c1.4,2,2.8,4,4.1,5.9c1.6,2.3,3.2,4.7,3.9,7.4c1.2-3.3,2.4-6.5,3.7-9.7c-0.6,3.9,3.8,6.6,7.4,8.1c2.1-1.5,4.9-1.9,7.3-1.3
			c-1.2,1.7-0.9,4.3,0.7,5.7c-0.1-1.4,1.6-2.5,3-2.5c1.5,0,2.9,0.6,4.4,0.6c1.1,0,2.2-0.3,3.3,0c1,0.3,1.8,1.8,0.9,2.5
			c1-0.8,2.4,0.5,2.9,1.8s1.2,2.9,2.5,2.7c0.4-0.1,0.8-0.3,1.1-0.6c4.6-3.7,4.7-11.8,0.3-15.6c3.1-1,6.3-1.6,9.5-1.6
			c-1.1,5.5-1.2,11.2-0.3,16.7c0.2,1,0.3,2.1-0.3,2.9c0,0,0,0-0.1,0.1l0,1.2c0.3-0.1,0.6-0.2,0.9-0.2c0.5,0,0.5,0.1,0.9,0.3
			c0.5,0.3,1.1,0.8,1.6,1.2c0.2,0.2,0.3,0.5,0.6,0.7c0.4,0.2,0.7,0.1,1.2,0.2c0.6,0.1,1.2,0.2,1.7,0.6c0.8,0.7,0.9,1.7,0.4,2.5
			c0.4-0.8,0.2-1.8-0.5-2.4c-0.5-0.4-1.1-0.5-1.7-0.6c-0.4,0-0.8,0-1.2-0.2c-0.3-0.2-0.3-0.5-0.6-0.7c-0.5-0.4-1.1-0.8-1.6-1.2
			c-0.4-0.2-0.4-0.3-0.9-0.3c-0.3,0-0.6,0.1-0.9,0.2l0-1.2l0-0.1l-22-0.7l-0.4,13.8l21.2,0.6l0.1,0c0.2,0.9,0.4,1.9,0.3,2.8
			c0.3,0,0.5,0.1,0.8,0.1c0.4,0,0.6,0.5,0.4,0.8c0-0.3-0.1-0.6-0.5-0.6c-0.3,0-0.5,0-0.8-0.1c-1.2-0.1-2.4-0.2-3.6-0.2
			c-0.3,0-0.6,0.1-0.9,0.1c-0.5,0-0.9-0.1-1.4-0.1c-0.1,0-0.1,0-0.2,0c-0.7-0.1-1.7-0.2-2.1,0.3c-0.2,0.3-0.1,0.8-0.1,1.2
			c0,0.8,0,1.7,0,2.5c-0.2,0.5-0.4,1.1-0.4,1.8c0,1.7,0.8,3.6,0.1,5.2c-1.3,2.8-5.9,2.4-7.4,5.1c-0.7,1.3-0.9,3.5-2.5,3.5
			c-0.4,0-0.8-0.2-1.2-0.4c-22.2-13-38.2-36-42.7-61.3c-1.4-7.8-1.7-15.8-2-23.7c-0.7-23.7-0.3-47.3,1.3-70.9
			c3.4,3.9,8.3,6.3,13.3,8c18.7,6,40.3,1.7,55.3-11c0.9-0.8,2-1.7,3.2-1.7c0.9,0,1.8,0.5,2.5,0.9c10.8,6.4,22.6,11.7,35.1,13.4
			c12.5,1.7,25.9-0.6,35.9-8.2C255.9,119.5,255.5,143.8,253.9,168z M210.3,226.7L210.3,226.7L210.3,226.7
			C210.3,226.8,210.3,226.8,210.3,226.7z M210.5,216.4l0.1,0l0,0.1C210.6,216.5,210.5,216.4,210.5,216.4z M234.2,189.9
			c0.3,0.9,0,2-0.8,2.5c-1.1,0.7-2.7-0.4-2.9-1.8c-0.2-1.3,0.7-2.6,1.6-3.5c0.3,0.1,0.5,0.3,0.6,0.5l0,0
			C233.3,188.3,233.9,189.1,234.2,189.9z M240.1,188.5c-0.1,0.3-0.2,0.5-0.5,0.6c-0.2,0-0.4-0.2-0.5-0.3c-0.7-0.7-1.5-1.5-2.2-2.2
			c-0.5-0.4-0.9-0.9-1.1-1.6c-0.3-1.3,1.2-2.5,2.6-2.3c1.3,0.2,2.3,1.4,2.7,2.7l-0.7,0.4C240.6,186.7,240.5,187.7,240.1,188.5z
			 M237.7,156.6c-0.1,0.9-1.1,1.5-1.9,1.8c-1,0.4-1.9,0.7-3,1c-0.7,0.2-1.5,0.3-1.9-0.2c-0.3-0.3-0.4-0.9-0.4-1.3
			c0-1.1,0-2.2,0.4-3.2c0.5-1,1.6-1.7,2.6-1.4c1.3,0.4,1.6,1.9,1.8,3.2l0.7-0.8C236.5,154.8,237.8,155.7,237.7,156.6z M238,160.2
			l1.3-1.1c-0.1,2-0.2,4-0.3,6c0,0.3,0,0.5-0.2,0.8c-0.3,0.6-1.2,0.6-1.9,0.4c-1.6-0.5-2.9-2.1-2.7-3.8
			C234.5,160.8,236.4,159.5,238,160.2z M242.7,158.2c-0.3,0.9-1.7,1.5-2.1,0.7c-0.2-0.3-0.1-0.7,0-1.1c0.5-1.8,1.1-3.7,1.6-5.5
			l0.5-0.1c0.6-0.5,1.4,0.4,1.3,1.2c-0.2,0.8-0.8,1.3-1,2C242.7,156.3,242.9,157.3,242.7,158.2z M228.2,118.9l-0.5-0.3
			C227.9,118.6,228.1,118.8,228.2,118.9l0.1,0.1C228.3,118.9,228.2,118.9,228.2,118.9l-0.5-0.3C227.9,118.6,228.1,118.7,228.2,118.9
			l0.2,0.1l0,0l0,0l0,0c0.8,0.9,0.8,2.6,1.7,3.5c0.4,0.3,0.9,0.5,1.3,0.9c1,0.9,0.8,2.8-0.4,3.6c-1.1,0.8-2.8,0.5-3.8-0.5
			c-0.9-1-1.2-2.6-0.9-3.9c0.3-1.3,1.1-2.5,2.1-3.4C228.3,118.9,228.2,118.9,228.2,118.9z M148.2,118.8c-0.2,0.6-0.8,1.1-1.4,0.9
			c-0.7-0.2-0.9-1.2-0.7-1.9c0.3-1.1,1.1-2.1,2.1-2.5l0,1.6C148.3,117.6,148.4,118.2,148.2,118.8z M176.2,163.2
			c0,1.8-2.3,1.7-3.4,1.2c-1.3-0.6-2.4-1.9-2.7-3.3c2-0.4,4.3,0.4,5.4,2.2L176.2,163.2z M169.2,161.7c-0.4,0.9-1.4,1.5-2.4,1.5
			c-1,0-2-0.4-2.9-0.8c-0.5-0.2-1.1-0.6-0.9-1.2c0.1-0.2,0.3-0.4,0.4-0.5c1-0.7,2.2-1,3.4-1.1l1-0.1
			C168.8,159.5,169.6,160.8,169.2,161.7z M159.1,147.6l0.2-1.4c0.8-0.3,1.7,0.1,2.1,0.8c0.5,0.7,0.6,1.5,0.7,2.3
			c0.3,2.2,0.4,4.4,0.5,6.6c0,0.5,0,1-0.4,1.3c-0.4,0.3-1,0.2-1.4,0.1c-0.9-0.2-1.8-0.5-2.4-1c-0.7-0.5-1.2-1.4-0.9-2.3
			c0.2-0.5,0.6-1,0.9-1.5C159.2,151.1,159.6,149.3,159.1,147.6z M149.3,145.6c-0.6,0.7-0.3,1.8,0.2,2.6c0.5,0.8,1.2,1.4,1.5,2.3
			s-0.2,2.1-1.1,2.1c-0.9,0-1.5-0.9-1.8-1.8c-0.6-1.6-1.2-3.3-1.8-4.9c-0.2-0.6-0.5-1.3-1-1.8c-1.2-1.1-3.4-1-4-2.5
			c-0.5-1.1,0.4-2.4,1.5-2.8c1.1-0.4,2.4-0.1,3.4,0.5c1.1,0.5,2.1,1.3,2.7,2.3c0.6,1,0.7,2.4,0,3.4L149.3,145.6z M156.1,165.9
			l0.4,0.1c-0.4,1-0.1,2.1,0,3.1c0,1-0.2,2.3-1.1,2.7c-0.5,0.2-1,0.3-1.6,0.2c-1.7,0-3.3-0.2-4.9-0.4
			C150.8,169.3,153.3,167.3,156.1,165.9z M153.1,139.5c1.4,2,1.9,4.6,1.3,6.9l-0.1-0.9c-1.2-0.3-2.2-1.4-2.5-2.6
			C151.5,141.7,152.1,140.3,153.1,139.5z M157.1,150.1c-0.5,1.1-2.1,1.5-3,0.7c-0.9-0.8-0.4-2.6,0.8-2.7l1.2-1.1
			C157.1,147.6,157.6,149,157.1,150.1z M134.3,151.6c-0.6,0.3-1.1-0.6-0.5-1c1.3-0.8,2.8-1.3,4.2-1.6c0.5-0.1,0.8,0.4,0.6,0.8
			c-0.5,0.9-1.3,1.5-2.3,1.9c-0.5,0.2-0.8-0.5-0.5-0.8C135.3,151.1,134.8,151.3,134.3,151.6z M134.4,155c0.5-0.6,1.5-0.9,2.1-0.3
			l1.6-1.1c0.5,0,0.9,0.4,1,0.9c-0.8,0.1-1.4,0.8-1.7,1.5c-0.3,0.7-0.6,1.5-1.1,2.1s-1.6,0.7-2.1,0.1c-0.2-0.3-0.2-0.5-0.3-0.9
			C133.9,156.4,133.9,155.6,134.4,155z M139.3,138.9c-0.7-0.3-1.5-0.4-2.3-0.1c-0.1,0-0.2,0-0.3,0c0,0.6-0.9,0.7-1.1,0.1
			c-0.2-0.9,0.4-1.7,1.3-2c1.1-0.3,2,0.4,2.8,1C140.2,138.2,139.9,139.1,139.3,138.9z M132.4,124.7l0.1-0.4c0.3,0.9,1.7,0.6,2.6,1
			c1.2,0.6,1.1,2.6,0,3.4c-1,0.9-2.5,0.9-3.9,0.9c-0.7,0-1.6-0.2-1.7-0.9c-0.1-0.7,0.9-1,1.5-1.3C132,127,132.6,125.8,132.4,124.7z
			 M125.4,131.6c-0.4-1-0.7-2.1-1.1-3.1c-0.3-0.9-0.6-1.8-0.4-2.8c0.2-0.9,1.4-1.6,2.1-1.2l-0.8,1.2
			C126.3,127.5,126.3,129.8,125.4,131.6z M128.2,151.9c-0.5-0.6-1.1-1-1.4-1.6c-0.4-0.6-0.4-1.5,0.2-1.9l0.3-0.1
			c1.4,0.4,2.5,1.5,2.9,2.9c0.4,1.4-0.1,3-1.2,3.9C129.3,154.1,129,152.8,128.2,151.9z M120.9,152.5c-0.8-1.4-1.4-3.2-0.6-4.5
			l0.2-0.4c1.2,1.1,2.5,2.2,2.9,3.8c0.1,0.5,0.1,1.1,0.3,1.7c0.4,1.1,1.4,1.9,2.4,2.6c1,0.7,2,1.5,2.4,2.6c0.4,1.1-0.3,2.7-1.5,2.7
			c-0.5-1.3-1.1-2.6-1.7-3.8c-0.1-0.3-0.2-0.5-0.5-0.7c-0.6-0.3-1.1,0.7-1.2,1.3c-0.1,0.7-0.3,1.7-1,1.6c-0.5-0.7-0.2-1.7-0.1-2.5
			C122.6,155.4,121.7,153.9,120.9,152.5z M174.2,190.9c-1.6,0.2-3.2,0.2-4.8-0.1c-0.6-0.1-1.4-0.7-1-1.2c0.1-0.1,0.3-0.2,0.4-0.3
			c1.6-0.7,3.6-0.8,5.2-0.1L174.2,190.9z M157.3,196.1c-2.9-0.8-6.5-1.4-8.6,0.8c-0.3,0.3-0.5,0.6-0.9,0.6c-0.9,0-0.6-1.4-1-2.2
			c-0.7-1.4-3-0.4-4.4-1.2c-1.3-0.8-1-2.8,0.2-3.8c1.1-0.9,2.8-1,4.2-1c1.4,0,2.9,0.1,4.2,0.6c1,0.4,1.9,1.1,2.4,2
			C155.2,193,156.5,194.4,157.3,196.1z M136.6,187c-0.4,0.9-1.5,1.5-2.3,1c-0.6-0.5-0.6-1.5-0.2-2.1c0.5-0.7,1.2-1,1.9-1.4l0.4-0.2
			C136.7,185.2,137,186.2,136.6,187z M139.2,178.1c0.9,0.7,1.1,2,1,3.2c0,1.2-0.2,2.3-0.5,3.5c-1.7-1.3-2.9-3.4-3-5.6l-0.1,0
			C136.5,177.9,138.3,177.3,139.2,178.1z M136.5,191l0.1,0.4c-0.1-1.4,1.6-2.6,2.9-2c0.1,0,0.2,0.1,0.4,0.2c0.2,0.3,0.1,0.6-0.1,0.9
			c-0.4,0.8-0.9,1.7-1.8,1.9C137.2,192.7,136.1,191.8,136.5,191z M132.6,184.8c-0.5,0.6-1.2,0.7-1.9,0.9c-0.4-0.8,0.2-1.9,1-2.1
			l0.4-0.5C132.8,183.2,133,184.2,132.6,184.8z M126.8,180.5c-0.4,0.2-0.8,0.4-1.2,0.6c-0.6,0.4-0.9,1.1-1.5,1.6
			c-0.5,0.5-1.5,0.7-1.9,0.1l-0.7-0.9c-0.7-0.5,0-1.7,0.9-2c0.9-0.3,2-0.3,2.5-1c0.2-0.3,0.3-0.7,0.5-0.9c0.5-0.6,1.7-0.4,2.1,0.4
			C127.8,179,127.4,180,126.8,180.5z M171.8,224.5c0.3,0,0.6,0.3,0.5,0.6c0,0,0,0,0,0C172.3,224.8,172.1,224.5,171.8,224.5z
			 M153.8,225.5C153.8,225.5,153.8,225.5,153.8,225.5C153.8,225.5,153.8,225.5,153.8,225.5c0.1,0.2,0.1,0.4,0,0.6l0,0
			C153.9,226,153.9,225.7,153.8,225.5z M153.8,216.6c0.1-0.2,0.2-0.5,0.2-0.7c0,0,0,0,0,0C154,216.1,153.9,216.4,153.8,216.6
			c0.3,0.4-0.1,0.8-0.5,0.8C153.6,217.4,154,217,153.8,216.6z M157.6,215.2C157.6,215.2,157.6,215.2,157.6,215.2
			c0.1,0.3-0.1,0.8-0.5,0.7c0,0,0,0,0,0C157.5,216,157.7,215.6,157.6,215.2z M161,220.6c0,1.4-1.2,2.6-2.7,2.5
			c-1.4,0-2.6-1.2-2.5-2.7c0-1.4,1.2-2.6,2.7-2.5S161.1,219.1,161,220.6z M169.8,217.8c0.1,0,0.1,0,0.2,0c0.1,0,0.2,0,0.3,0
			c-0.1,0-0.1,0-0.2,0C169.9,217.7,169.9,217.8,169.8,217.8C169.8,217.8,169.8,217.8,169.8,217.8z M170.8,218.1
			C170.8,218.1,170.8,218.1,170.8,218.1c0.1,0,0.1,0,0.2,0C170.9,218.1,170.9,218.1,170.8,218.1z M167.3,216.4c0,0,0.1,0,0.1,0
			c0,0,0,0,0,0C167.4,216.4,167.3,216.4,167.3,216.4z M165.8,215.9c0.3,0,0.5,0,0.8,0c0,0,0,0,0,0
			C166.3,215.9,166,215.9,165.8,215.9z M154.9,215.9C154.9,215.9,154.9,215.9,154.9,215.9C154.9,215.9,154.9,215.9,154.9,215.9
			C154.9,215.9,154.9,215.9,154.9,215.9z M152.7,225.4C152.7,225.4,152.7,225.4,152.7,225.4l0.2-8.2c0,0,0,0,0,0L152.7,225.4z
			 M159.6,225.2C159.6,225.2,159.6,225.2,159.6,225.2c-1.5-0.1-3-0.2-4.6,0C156.5,224.9,158,225.1,159.6,225.2z M172.7,220.4
			c-0.4-0.2-0.8-0.4-1.2-0.7c0,0,0,0,0,0C171.9,220,172.2,220.2,172.7,220.4l0-1.3c0,0,0,0,0.1,0L172.7,220.4L172.7,220.4z
			 M172.8,215.9c-0.4,0.3-0.8,0.7-0.9,1.1c-0.1,0.4-0.1,0.7,0,1c-0.1,0-0.1,0-0.2,0c0,0,0.1,0,0.1,0c-0.1-0.3-0.1-0.6,0-1
			C171.9,216.6,172.3,216.3,172.8,215.9l0-0.8l0.1,0L172.8,215.9L172.8,215.9z"/>
		<path class="st3" d="M210.3,226.7C210.3,226.8,210.3,226.8,210.3,226.7L210.3,226.7L210.3,226.7z"/>
		<path class="st3" d="M210.6,216.4l-0.1,0c0,0,0.1,0.1,0.1,0.1L210.6,216.4z"/>
		<path class="st3" d="M197.9,155.7L197.9,155.7c0.1,0,0.1,0,0.1-0.1l0,0C197.9,155.6,197.9,155.7,197.9,155.7z"/>
		<path class="st3" d="M165.9,231.8c0,0,0.1-0.1,0.1-0.2C165.9,231.8,165.8,231.8,165.9,231.8C165.8,231.9,165.8,231.9,165.9,231.8
			C165.8,231.9,165.8,231.9,165.9,231.8z"/>
		<path class="st3" d="M190.2,151l1.5,0.9c0.8,0.9,1.7,1.7,2.8,2.3c0.1,0.4,0.5,0.5,0.7,0.3c0.1,0,0.2,0.1,0.3,0.1
			c0,0.1,0.1,0.3,0.2,0.3c0.5,0.2,0.9,0.5,1.4,0.7c0.2,0.1,0.5,0.1,0.6-0.1c0,0,0.1-0.1,0.1-0.1c0.2-0.2,0.2-0.5-0.1-0.7
			c-0.1-0.1-0.2-0.1-0.3-0.2c0.1,0.1,0.2,0.1,0.4,0.2c0.3,0.2,0.3,0.5,0.2,0.7l0,0c0.6-0.9,1.6-1.6,2.7-1.8c0.7-0.1,1.7-0.3,1.6-1.1
			c0-0.3-0.2-0.4-0.4-0.6c-0.7-0.7-1.8-1.5-2.8-1c-0.5,0.3-0.8,0.9-1.4,1c-1,0.2-1.3-1.5-0.5-2.1c0.8-0.6,1.9-0.4,2.9-0.3
			s2.2,0,2.7-0.9c0.3-0.6,0.2-1.4,0.1-2.1c-0.4-1.6-1.1-3.3-2.4-4.4c-1.3-1.1-3.4-1.4-4.7-0.3c-1.4,1.1-1.7,3.4-3.4,3.9
			c-1,0.3-2.4,0-2.8,0.9c-0.2,0.6,0.2,1.3,0.4,1.9C190.3,149.5,190.2,150.2,190.2,151z M191.6,151.9c-0.1-0.1-0.1-0.2-0.2-0.2
			C191.5,151.7,191.6,151.8,191.6,151.9z M196.2,148.6c-1.5,0.4-0.1,2.6,0.3,3.3c0.4,0.8,0.6,1.6,0.3,2.4c0.1,0.1,0.2,0.1,0.3,0.2
			c-0.1-0.1-0.2-0.1-0.4-0.2c0.3-0.8,0.1-1.6-0.3-2.4C196.2,151.2,194.8,148.9,196.2,148.6c0.6-0.1,0.4-1.1-0.1-1.1
			C196.7,147.5,196.9,148.4,196.2,148.6z M195.6,153.5c0.1,0,0.1,0,0.1,0.1c0,0,0,0,0,0C195.7,153.5,195.6,153.5,195.6,153.5
			c-0.3-1.6-1.6-2.8-3.2-2.9C194,150.7,195.3,151.9,195.6,153.5z"/>
		<path class="st3" d="M166.4,129.9l29.5,0.9l0.9-29.5l-29.5-0.9L166.4,129.9z M168.7,101.8l26.7,0.8l-0.8,26.7l-26.7-0.8
			L168.7,101.8z"/>
		<path class="st3" d="M172.2,104.7c-0.1,0-0.1,0.1-0.2,0.2c-0.3,0-0.5,0.2-0.5,0.5c-0.1,3-0.2,6-0.3,9c0,0.7,1.1,0.7,1.1,0
			c0-1.2,0.1-2.5,0.1-3.7c0.1,0.1,0.2,0.1,0.4,0.1c2-0.3,4.8-1.1,4.9-3.5C177.8,104.2,174.4,103.6,172.2,104.7z M176.3,108.1
			c-0.8,1.1-2.5,1.4-3.8,1.6c0,0,0,0-0.1,0c0-1.4,0.1-2.7,0.1-4.1c0,0,0.1,0,0.1,0c0.9-0.4,2.1-0.7,3,0
			C176.6,106.1,176.9,107.2,176.3,108.1z"/>
		<path class="st3" d="M182.3,121.1c-1-0.6-2.4-0.6-2.8-2c-0.7-2.9,4.1-2.9,3.5,0.1c-0.1,0.7,0.9,1,1,0.3c0.6-3-3.6-5.6-5.2-2.5
			c-0.6,1.1-0.5,2.6,0.3,3.6c0.7,0.8,1.8,0.8,2.7,1.3c0.9,0.6,1.5,1.8,1.1,2.9c-0.6,1.8-3.1,1.6-3.4-0.3c-0.1-0.7-1.1-0.4-1.1,0.3
			c0.5,3.3,5,3,5.6-0.1C184.2,123.3,183.5,121.8,182.3,121.1z"/>
		<path class="st3" d="M228.4,119L228.4,119l-0.2-0.1C228.2,118.9,228.3,118.9,228.4,119C228.3,119,228.3,119,228.4,119L228.4,119z"
			/>
		<path class="st3" d="M228.2,118.8c-0.1-0.1-0.3-0.2-0.5-0.3L228.2,118.8z"/>
		<line class="st4" x1="152" y1="213.4" x2="152" y2="213.4"/>
		<path class="st5" d="M192.9,109.4c-0.1-0.1-0.3-0.2-0.5-0.2s-0.4,0-0.6-0.1c0,0,0,0,0,0l-4.6-0.1c-0.3,0-0.5,0.2-0.6,0.5l0,0.1
			c0,0.3,0.2,0.5,0.5,0.6l4.8,0.1c0,0,0,0,0,0c0,0.1,0.1,0.3,0.1,0.4c0.1,0.7-0.3,1.1-0.8,1.5c-1.9,1.7-4.8,1.7-6.6-0.1
			c-2-1.9-2.1-5.1,0.2-6.9c2.1-1.6,4.9-0.9,6.4,1.1c0.4,0.6,1.2-0.2,0.8-0.7c-1.9-2.6-5.8-3.3-8.3-0.9c-2.6,2.5-2,6.6,0.7,8.7
			c2.5,1.9,6.3,1.3,8.2-1.2C193.4,111.5,194,110.2,192.9,109.4z"/>
	</g>
	<g>
		<path class="st3" d="M333.4,101.1h9.1c4.9,0,8.5,0.5,10.7,1.4c2.2,0.9,3.9,2.4,5.2,4.4c1.3,2,1.9,4.5,1.9,7.3
			c0,3.2-0.8,5.8-2.5,7.9c-1.7,2.1-3.9,3.5-6.7,4.4c-1.7,0.5-4.7,0.7-9.1,0.7v19.2h-8.6V101.1z M342.1,118.8h2.7
			c2.2,0,3.6-0.2,4.5-0.5c0.8-0.3,1.5-0.8,2-1.5c0.5-0.7,0.7-1.6,0.7-2.6c0-1.7-0.7-3-2-3.8c-1-0.6-2.8-0.9-5.5-0.9h-2.4V118.8z"/>
		<path class="st3" d="M392.5,112.9h8.4v33.5h-8.4v-3.5c-1.6,1.6-3.3,2.7-4.9,3.4c-1.6,0.7-3.4,1-5.4,1c-4.3,0-8.1-1.7-11.2-5
			c-3.2-3.4-4.7-7.5-4.7-12.5c0-5.2,1.5-9.4,4.6-12.7c3.1-3.3,6.8-5,11.1-5c2,0,3.9,0.4,5.7,1.1c1.8,0.8,3.4,1.9,4.9,3.4V112.9z
			 M383.7,119.8c-2.6,0-4.8,0.9-6.5,2.8c-1.7,1.8-2.6,4.2-2.6,7.1c0,2.9,0.9,5.3,2.6,7.1c1.7,1.9,3.9,2.8,6.5,2.8
			c2.6,0,4.8-0.9,6.6-2.8c1.7-1.8,2.6-4.2,2.6-7.2c0-2.9-0.9-5.3-2.6-7.1C388.6,120.7,386.4,119.8,383.7,119.8z"/>
		<path class="st3" d="M409.4,112.9h8.4v3.4c1.9-1.6,3.6-2.7,5.2-3.3c1.5-0.6,3.1-0.9,4.7-0.9c3.3,0,6.1,1.2,8.4,3.5
			c1.9,2,2.9,4.9,2.9,8.7v22.1h-8.3v-14.7c0-4-0.2-6.6-0.5-8c-0.4-1.3-1-2.3-1.9-3c-0.9-0.7-2-1-3.3-1c-1.7,0-3.2,0.6-4.4,1.7
			c-1.2,1.1-2.1,2.7-2.5,4.7c-0.2,1-0.4,3.3-0.4,6.8v13.4h-8.4V112.9z"/>
		<path class="st3" d="M472,112.9h8.4v28.7c0,5.7-1.1,9.8-3.4,12.5c-3.1,3.6-7.7,5.4-13.8,5.4c-3.3,0-6-0.4-8.3-1.2
			c-2.2-0.8-4.1-2-5.7-3.6c-1.5-1.6-2.7-3.5-3.4-5.8h9.3c0.8,0.9,1.9,1.7,3.2,2.1s2.8,0.7,4.6,0.7c2.3,0,4.1-0.3,5.4-1
			c1.4-0.7,2.3-1.6,2.9-2.7c0.6-1.1,0.8-3,0.8-5.7c-1.5,1.5-3,2.5-4.6,3.2c-1.6,0.6-3.5,1-5.5,1c-4.5,0-8.3-1.6-11.4-4.9
			c-3.1-3.2-4.6-7.3-4.6-12.3c0-5.3,1.6-9.6,4.9-12.8c3-2.9,6.5-4.4,10.6-4.4c1.9,0,3.7,0.4,5.5,1.1c1.7,0.7,3.4,1.9,5.2,3.5V112.9z
			 M463.3,119.8c-2.6,0-4.8,0.9-6.6,2.7c-1.7,1.8-2.6,4-2.6,6.7c0,2.8,0.9,5.1,2.6,6.9c1.8,1.8,4,2.7,6.6,2.7c2.6,0,4.8-0.9,6.4-2.6
			c1.7-1.7,2.5-4,2.5-6.9c0-2.8-0.9-5.1-2.6-6.8C468.1,120.7,465.9,119.8,463.3,119.8z"/>
		<path class="st3" d="M513.5,112.9h8.4v33.5h-8.4v-3.5c-1.6,1.6-3.3,2.7-4.9,3.4c-1.6,0.7-3.4,1-5.4,1c-4.3,0-8.1-1.7-11.2-5
			c-3.2-3.4-4.7-7.5-4.7-12.5c0-5.2,1.5-9.4,4.6-12.7c3.1-3.3,6.8-5,11.1-5c2,0,3.9,0.4,5.7,1.1c1.8,0.8,3.4,1.9,4.9,3.4V112.9z
			 M504.7,119.8c-2.6,0-4.8,0.9-6.5,2.8c-1.7,1.8-2.6,4.2-2.6,7.1c0,2.9,0.9,5.3,2.6,7.1c1.7,1.9,3.9,2.8,6.5,2.8
			c2.6,0,4.8-0.9,6.6-2.8c1.7-1.8,2.6-4.2,2.6-7.2c0-2.9-0.9-5.3-2.6-7.1C509.6,120.7,507.4,119.8,504.7,119.8z"/>
		<path class="st3" d="M530.4,112.9h8.4v3.4c1.9-1.6,3.6-2.7,5.2-3.3c1.5-0.6,3.1-0.9,4.7-0.9c3.3,0,6.1,1.2,8.4,3.5
			c1.9,2,2.9,4.9,2.9,8.7v22.1h-8.3v-14.7c0-4-0.2-6.6-0.5-8c-0.4-1.3-1-2.3-1.9-3c-0.9-0.7-2-1-3.3-1c-1.7,0-3.2,0.6-4.4,1.7
			c-1.2,1.1-2.1,2.7-2.5,4.7c-0.2,1-0.4,3.3-0.4,6.8v13.4h-8.4V112.9z"/>
		<path class="st3" d="M571.5,99.1c1.5,0,2.7,0.5,3.8,1.6c1.1,1.1,1.6,2.4,1.6,3.9c0,1.5-0.5,2.8-1.6,3.8s-2.3,1.6-3.7,1.6
			c-1.5,0-2.8-0.5-3.8-1.6c-1.1-1.1-1.6-2.4-1.6-3.9c0-1.5,0.5-2.7,1.6-3.8S570,99.1,571.5,99.1z M567.3,112.9h8.4v33.5h-8.4V112.9z
			"/>
		<path class="st3" d="M643.6,108.5l-6.1,6c-3.8-4.1-8.3-6.1-13.4-6.1c-4.5,0-8.2,1.5-11.2,4.4c-3,3-4.5,6.5-4.5,10.8
			c0,4.4,1.6,8.1,4.7,11.1c3.1,3,7,4.6,11.5,4.6c3,0,5.5-0.6,7.5-1.9c2-1.3,3.7-3.2,4.9-5.9h-13.1v-8.1h22.8l0.1,1.9
			c0,4-1,7.7-3.1,11.3c-2.1,3.5-4.7,6.3-8,8.1s-7.1,2.8-11.5,2.8c-4.7,0-8.9-1-12.6-3.1c-3.7-2-6.6-4.9-8.7-8.7
			c-2.1-3.8-3.2-7.8-3.2-12.2c0-6,2-11.2,5.9-15.6c4.7-5.3,10.8-7.9,18.3-7.9c3.9,0,7.6,0.7,11,2.2
			C638.1,103.4,640.9,105.5,643.6,108.5z"/>
		<path class="st3" d="M657.1,99.1c1.5,0,2.7,0.5,3.8,1.6c1.1,1.1,1.6,2.4,1.6,3.9c0,1.5-0.5,2.8-1.6,3.8s-2.3,1.6-3.7,1.6
			c-1.5,0-2.8-0.5-3.8-1.6c-1.1-1.1-1.6-2.4-1.6-3.9c0-1.5,0.5-2.7,1.6-3.8S655.7,99.1,657.1,99.1z M652.9,112.9h8.4v33.5h-8.4
			V112.9z"/>
		<path class="st3" d="M667,112.9h7.2v4.2c0.8-1.7,1.8-2.9,3.1-3.8s2.7-1.3,4.2-1.3c1.1,0,2.2,0.3,3.4,0.9l-2.6,7.2
			c-1-0.5-1.8-0.7-2.4-0.7c-1.3,0-2.4,0.8-3.3,2.4c-0.9,1.6-1.3,4.7-1.3,9.4l0,1.6v13.5H667V112.9z"/>
		<path class="st3" d="M688.2,99.9h8.4v46.4h-8.4V99.9z"/>
		<path class="st3" d="M724.7,117.5l-5.2,5.2c-2.1-2.1-4-3.1-5.8-3.1c-0.9,0-1.7,0.2-2.2,0.6c-0.5,0.4-0.8,0.9-0.8,1.5
			c0,0.5,0.2,0.9,0.5,1.2c0.3,0.4,1.2,0.9,2.5,1.6l3.1,1.5c3.2,1.6,5.5,3.2,6.7,4.9c1.2,1.7,1.8,3.6,1.8,5.8c0,3-1.1,5.5-3.3,7.4
			c-2.2,2-5.1,3-8.8,3c-4.9,0-8.8-1.9-11.7-5.7l5.2-5.6c1,1.1,2.1,2.1,3.5,2.8c1.3,0.7,2.5,1.1,3.5,1.1c1.1,0,2-0.3,2.7-0.8
			c0.7-0.5,1-1.1,1-1.8c0-1.3-1.2-2.6-3.7-3.8l-2.8-1.4c-5.4-2.7-8.1-6.1-8.1-10.2c0-2.6,1-4.9,3.1-6.8c2-1.9,4.6-2.8,7.8-2.8
			c2.2,0,4.2,0.5,6.1,1.4C721.7,114.4,723.4,115.8,724.7,117.5z"/>
	</g>
	<g>
		<path class="st3" d="M401.5,204.8h-9.1v10.4h7.8v4.6h-7.8v15.5h-5.3v-35.2h14.4V204.8z"/>
		<path class="st3" d="M419.1,232.5c0,1.9-1,2.8-2.9,2.8h-9.2c-1.9,0-2.9-0.9-2.9-2.8v-17.1c0-1.9,1-2.8,2.9-2.8h9.2
			c1.9,0,2.9,0.9,2.9,2.8V232.5z M414.1,231.1v-14.1h-4.9v14.1H414.1z"/>
		<path class="st3" d="M437.9,235.3h-5.1v-0.8c-1.2,0.2-2.4,0.4-3.6,0.6c-1.5,0.2-2.7,0.3-3.6,0.3c-1.9,0-2.8-0.9-2.8-2.8v-20h5.1
			v18.4l4.9-0.1v-18.3h5.1V235.3z"/>
		<path class="st3" d="M456.8,235.3h-5.2v-18.4l-4.8,0.1v18.3h-5.1v-22.7h5.1v0.8c1.2-0.2,2.4-0.4,3.6-0.6c1.5-0.2,2.7-0.4,3.6-0.4
			c1.9,0,2.8,0.9,2.8,2.8V235.3z"/>
		<path class="st3" d="M475.5,235.3h-5.1v-0.8c-3.5,0.6-5.4,0.9-5.8,0.9c-1.3,0-2.3-0.4-3-1.1c-0.7-0.8-1.1-1.8-1.1-3.1v-14
			c0-1.8,0.7-3.1,2-3.8c1-0.5,2.4-0.8,4.4-0.8c0.4,0,1.1,0,1.9,0c0.8,0,1.4,0,1.8,0v-12.5h5.1V235.3z M470.4,230.9v-14h-3.2
			c-1.1,0-1.7,0.6-1.7,1.7v10.8c0,1.1,0.5,1.7,1.6,1.7C467.4,231.2,468.5,231.1,470.4,230.9z"/>
		<path class="st3" d="M493.9,232.5c0,1.9-1,2.8-2.9,2.8h-8.9c-1.9,0-2.9-0.9-2.9-2.8v-17.1c0-1.9,1-2.8,2.9-2.8h8.9
			c1.9,0,2.9,0.9,2.9,2.8v8.3l-1.4,1.4h-8.3v6.4h4.8v-3.8h4.9V232.5z M489,221.9v-5.4h-4.8v5.4H489z"/>
		<path class="st3" d="M512.7,235.3h-5.1v-0.8c-3.5,0.6-5.4,0.9-5.8,0.9c-1.3,0-2.3-0.4-3-1.1c-0.7-0.8-1.1-1.8-1.1-3.1v-14
			c0-1.8,0.7-3.1,2-3.8c1-0.5,2.4-0.8,4.4-0.8c0.4,0,1.1,0,1.9,0c0.8,0,1.4,0,1.8,0v-12.5h5.1V235.3z M507.6,230.9v-14h-3.2
			c-1.1,0-1.7,0.6-1.7,1.7v10.8c0,1.1,0.5,1.7,1.6,1.7C504.6,231.2,505.7,231.1,507.6,230.9z"/>
		<path class="st3" d="M540.9,232.5c0,1.9-1,2.8-2.9,2.8h-9.2c-1.9,0-2.9-0.9-2.9-2.8v-17.1c0-1.9,1-2.8,2.9-2.8h9.2
			c1.9,0,2.9,0.9,2.9,2.8V232.5z M535.8,231.1v-14.1H531v14.1H535.8z"/>
		<path class="st3" d="M559.7,235.3h-5.2v-18.4l-4.8,0.1v18.3h-5.1v-22.7h5.1v0.8c1.2-0.2,2.4-0.4,3.6-0.6c1.5-0.2,2.7-0.4,3.6-0.4
			c1.9,0,2.8,0.9,2.8,2.8V235.3z"/>
		<path class="st3" d="M588.4,204.8h-5.8v30.5h-5.2v-30.5h-5.8v-4.6h16.8V204.8z"/>
		<path class="st3" d="M605.1,222.1H600v-5.2L596,217v18.3h-5.1v-22.7h5.1v0.8c1.1-0.2,2.1-0.4,3.2-0.6c1.3-0.2,2.3-0.3,3.2-0.3
			c1.9,0,2.8,0.9,2.8,2.8V222.1z"/>
		<path class="st3" d="M623.1,235.3H618v-0.8c-1.2,0.2-2.4,0.4-3.6,0.6c-1.5,0.2-2.7,0.3-3.6,0.3c-1.9,0-2.8-0.9-2.8-2.8v-20h5.1
			v18.4l4.9-0.1v-18.3h5.1V235.3z"/>
		<path class="st3" d="M636.7,235.3h-5.7c-1.9,0-2.9-0.9-2.9-2.8V217h-2.4v-4.4h2.4v-6.2h5.1v6.2h3.3v4.4h-3.3V231h3.4V235.3z"/>
		<path class="st3" d="M654.6,235.3h-5.2v-18.4l-4.8,0.1v18.3h-5.1v-35.2h5.1v13.3c1.2-0.2,2.4-0.4,3.6-0.6c1.5-0.2,2.7-0.4,3.6-0.4
			c1.9,0,2.8,0.9,2.8,2.8V235.3z"/>
	</g>
</g>
</svg>
