<?xml version="1.0" encoding="utf-8"?>
<!-- Generator: Adobe Illustrator 21.0.0, SVG Export Plug-In . SVG Version: 6.00 Build 0)  -->
<svg version="1.1" id="Layer_1" xmlns="http://www.w3.org/2000/svg" xmlns:xlink="http://www.w3.org/1999/xlink" x="0px" y="0px"
	 viewBox="0 0 2560 1440" style="enable-background:new 0 0 2560 1440;" xml:space="preserve">
<style type="text/css">
	.st0{fill:#FDFDFF;}
	.st1{fill:none;}
	.st2{fill:#000066;}
	.st3{fill:#FFFFFF;}
	.st4{fill:none;stroke:#000066;stroke-width:0;stroke-linecap:round;stroke-linejoin:round;}
	.st5{fill:#FCFCFC;}
</style>
<g>
	<g>
		<path class="st0" d="M549.9,461.8c0.2-17.5,0.5-35.2,0.7-52.7c0.1-2.1-2.3-3-3.9-1.8c-37.2,30.4-83.7,48.6-131.5,52.8
			c-23.2,2-46.6,0.7-69.5-4.1c-24.7-5.2-48.6-14.7-71.6-24.7c-14.1-6.1-27.6-13.3-40.5-21.6c-8.7-5.9-17-12.2-26.3-17.4
			c-0.7-0.5-2.1-0.5-2.7,0.2c-29.2,33.1-68.6,55.9-111.7,65.6c-46.6,10.5-93,3-136.4-15.7c-27.2-11.8-52.8-26.9-78.4-42
			c-1-0.6-3.2-0.2-3.4,1.3c-0.5,2.9-0.2,5.8-0.1,8.7c-3,69.2-6,138.6-8.9,207.8c-2.5,61.3-3.9,122.8,2.5,183.8
			c6.1,59.1,20,118,47.6,171.1c26.5,50.9,65,94.7,109,131.4c21.5,18,44.5,34.4,68.1,49.4c25,15.8,51.1,33.4,81.1,37.6
			c32,4.6,64.4-3.8,94.6-14.2c14-4.9,27.9-10.1,41.5-15.8c7.2-3,14.4-6.3,21-10.2c6.7-3.9,12.3-9.1,18.8-13.1
			c22.7-14.2,44.6-28,64.8-45.9c20.2-17.8,38.3-37.8,54.2-59.6c32.7-44.7,55.3-96.2,65.5-150.6c12.7-68.2,12-139,12.9-208.3
			C548.3,603.3,549.1,532.5,549.9,461.8z M537.6,820.2c-4.7,59.9-17.6,117.5-46.9,170.2c-26.1,47.2-62.4,88.6-105.9,120.3
			c-10.9,7.9-22.2,15.2-33.9,21.8c-5.9,3.3-10.7,7.7-16.3,11.4c-6.5,4.2-13.5,7.8-20.6,10.9c-28.9,12.8-60,24.5-91.2,30.3
			c-17,3.1-34.7,4.3-51.8,1.2c-16.5-2.9-31.2-10.2-45.6-18.4c-24.2-14-47.9-29.2-70.3-45.9c-45.4-33.7-79.5-74.9-110.2-122.6
			c-32.1-49.7-58.1-105.3-67.4-163.6c-9.5-59.7-9.9-120.6-8.2-180.9c1.8-65.6,5.4-131,8.1-196.5c0.6-13.8,1.1-27.7,1.7-41.7
			c0.2-1.1,0.2-2.1,0.1-3.3c0.1-2.1,0.1-4.3,0.3-6.4c0-0.3,0-0.6-0.1-0.9c43.5,25.7,88.9,51.7,139.7,59.2
			c44.3,6.5,90.4-2.3,129.7-23.2c21.8-11.5,41.5-26.9,57.9-45.3c7.9,4.7,15.2,10.1,22.8,15.2c11.2,7.5,22.9,13.9,35,19.6
			c23.9,11.1,49.3,21.5,75.2,27.4c46.6,10.7,96.3,7.2,141-9.4c23.4-8.7,45.4-20.9,65.1-36.2c-0.8,67.1-1.7,134.4-2.5,201.6
			C542.7,683.6,543,752,537.6,820.2z"/>
		<path class="st0" d="M558.8,448.9c0.2-18,0.5-36.2,0.7-54.2c0.1-2.2-2.4-3-4-1.8c-38.2,31.3-86.1,50-135.3,54.3
			c-23.9,2.1-48,0.7-71.5-4.2c-25.4-5.3-50-15.1-73.6-25.4c-14.5-6.2-28.4-13.7-41.6-22.3c-8.9-6.1-17.5-12.6-27-17.9
			c-0.8-0.5-2.2-0.5-2.8,0.2c-30,34-70.5,57.5-114.8,67.5c-47.9,10.8-95.6,3-140.3-16.2c-28-12.1-54.3-27.7-80.6-43.2
			c-1.1-0.7-3.3-0.3-3.5,1.3c-0.6,3-0.2,5.9-0.1,8.9c-3.1,71.2-6.2,142.5-9.2,213.7c-2.5,63.1-4,126.3,2.6,189
			c6.3,60.8,20.6,121.4,49,176c27.2,52.4,66.9,97.4,112.1,135.2c22.2,18.5,45.8,35.4,70,50.8c25.7,16.3,52.5,34.3,83.4,38.7
			c32.9,4.8,66.2-3.9,97.3-14.6c14.4-5,28.7-10.4,42.6-16.2c7.5-3.1,14.8-6.4,21.6-10.5c6.9-4,12.7-9.3,19.4-13.5
			c23.3-14.6,45.8-28.8,66.6-47.2c20.8-18.3,39.4-38.9,55.8-61.3c33.7-46,56.9-99,67.4-154.9c13.1-70.1,12.3-143,13.3-214.2
			C557.2,594.5,558,521.7,558.8,448.9z M546.2,817.5c-4.8,61.6-18.1,120.9-48.2,175.1c-26.9,48.5-64.2,91.1-108.9,123.7
			c-11.2,8.1-22.9,15.6-34.8,22.4c-6.1,3.4-11.1,8-16.8,11.7c-6.7,4.3-13.9,8-21.2,11.3c-29.7,13.2-61.7,25.2-93.8,31.1
			c-17.5,3.2-35.7,4.4-53.3,1.2c-17-3-32.1-10.5-46.9-19c-24.9-14.4-49.2-30-72.3-47.2C3.2,1093.3-39.5,1052.1-71,1003
			c-33.1-51.1-52.1-109.5-61.7-169.5c-9.7-61.4-10.2-124.1-8.4-186c1.9-67.5,5.5-134.7,8.3-202.1c0.6-14.2,1.2-28.5,1.8-42.9
			c0.2-1.1,0.2-2.2,0.1-3.4c0.1-2.2,0.1-4.4,0.4-6.6c0-0.3,0-0.6-0.1-0.9C-86,418-39.3,444.8,12.9,452.5c45.5,6.7,93-2.3,133.4-23.8
			c22.4-11.8,42.7-27.7,59.5-46.6c8.2,4.8,15.7,10.3,23.5,15.6c11.5,7.7,23.5,14.3,36,20.2c24.6,11.4,50.7,22.1,77.3,28.2
			c47.9,11,99.1,7.4,145-9.7c24.1-9,46.7-21.4,66.9-37.3c-0.8,69.1-1.7,138.3-2.5,207.3C551.4,677,551.8,747.4,546.2,817.5z"/>
		<path class="st1" d="M183,978.1c0.6,0.1,1.2,0.2,1.8,0.3c2.1,0.8,4.3,1.8,6.4,3c-2.1-1.2-4.3-2.2-6.4-3
			C184.3,978.3,183.6,978.2,183,978.1z"/>
		<path class="st1" d="M195.8,979c1.8,0.1,3.4-0.2,4.4-0.3C199.2,978.8,197.6,978.9,195.8,979z"/>
		<path class="st1" d="M213.7,1063.2c2.9,0.1,6.4-0.4,7.3-3.1c0.7-2.3-0.9-4.6-3-5.6c-2.1-1-4.5-0.9-6.8-0.7l0.5,2.8
			c-1.3-3.5-6-4.4-9.4-2.9c-3.2,1.6-5.5,4.7-7.5,7.8C200.9,1062.6,207.3,1063.1,213.7,1063.2z"/>
		<path class="st1" d="M231.6,999.8c-2.2-2.8-4.2-5.6-6.1-8.7c-1.2-1.9-3.8-1.1-4.3,0.5c0.9-1.1,2.9-1.5,4,0.1
			c1.9,3,3.9,5.9,6.1,8.7c0.5,0.8,0.6,1.7,0.3,2.5C232.2,1002,232.3,1000.7,231.6,999.8z"/>
		<path class="st1" d="M207.4,1097c5.9,1.4,12.1-1.3,16.9-5l-1-1.4c-2-4.9-5.3-9.6-10.3-11.6c-5-2.1-11.6-0.5-13.7,4.3
			C196.9,1088.9,201.5,1095.6,207.4,1097z"/>
		<path class="st1" d="M253.1,862c-8.1-3.1-18.1,0.1-22.9,7.4c9.4,2.7,19.9,1.7,28.6-2.8L253.1,862z"/>
		<path class="st1" d="M147,1032.2C147,1032.2,147,1032.2,147,1032.2c-1,2.1-0.4,6.1-0.4,8.5c0,0.1,0,0.2,0,0.2
			c0.1-0.2,0.2-0.5,0.2-0.8C146.9,1037.9,146.4,1034.5,147,1032.2z"/>
		<path class="st1" d="M-61.4,551.6c0.6,0.2,1.4,0.3,2,0.4C-60,551.8-60.8,551.6-61.4,551.6z"/>
		<path class="st1" d="M267.3,891.2c-5.8,0-11.8-2.2-16.9,0.6c-2,1-3.4,2.6-4.9,4.3c-10.9,12.9-19,28.2-23.1,44.5
			c3.2-1,5.9,2.8,6.7,6c0.5,2.5,0.9,5.2,2.1,7.2l30.9,0.9l0.4,0c1.5-0.9,2.8-2,3.4-3.6c1.5-4.1-1.3-8.3-3.3-12
			c-3.5-6.2-5.1-13.4-4.7-20.6c0.1-2.3,0.4-4.6,1.7-6.3c3.8-5.1,12.3-3.3,17.1-7.4c3.3-2.8,3.7-8.1,1.3-11.4
			C275.6,890.4,270.7,889.3,267.3,891.2z"/>
		<path class="st1" d="M299.9,722.8c-0.1,0-0.3-0.1-0.4-0.1c0.1,0.1,0.1,0.2,0.2,0.3c0.1,0,0.1,0.1,0.2,0.1
			C299.9,723,299.9,722.9,299.9,722.8z"/>
		<path class="st1" d="M302.8,785l3.6,1.6c-1.6-6.8,2.1-14.4,8.4-17.1c1.5-0.6,3.4-1.1,4.6-2.1c1.1-0.9,1.7-2.1,2.2-3.4
			c1.8-5.3-2.1-12.2-7.7-12c-3.5,0.4-6.2,3.3-8.6,6.1c-3.3,4-6.8,8.2-8,13.3C296.4,776.6,298,782.9,302.8,785z"/>
		<path class="st1" d="M322.7,983.8c0.2-1.2,0.4-2.1,0.5-2.6c1.2-5,2.7-9.8,4.3-14.8c-0.1-0.1-0.2-0.1-0.3-0.2
			c-1.5,4.9-2.9,9.9-4.1,14.8c-0.2,0.6-0.4,1.5-0.5,2.6c-1.4-0.3-3.1,0.2-3,2c0.1,1.1,0.1,2.3,0,3.5c-0.6,0.4-1.2,0.9-1.7,1.8
			c-0.8,1.7-0.6,3.3,0.2,4.7c-0.3,0.6-0.6,1.2-1,2l0,0.2c-0.5,0-0.8,0.1-1.2,0.1c-0.8,0-1.5,0.1-2.4,0.4c-2,0.5-2.1,3.1-0.7,4.1
			c-0.2,0-0.5,0-0.6,0.1c-4.4-0.9-8.5-0.9-13.1,0.2c-1.5,0.4-1.9,1.9-1.5,3.2l-52.2-1.3l0,0.2l52.4,1.3c-0.6-1.2-0.1-2.7,1.5-3.2
			c4.6-1.1,8.7-1.1,13.1-0.2c0.2,0,0.5,0,0.6-0.1c-1.3-1.1-1.4-3.5,0.7-4.1c0.9-0.3,1.7-0.4,2.4-0.4c0.5,0,0.8-0.1,1.2-0.1l0-0.2
			c0.3-0.8,0.7-1.4,1-2c-0.9-1.5-1.1-3.1-0.2-4.7c0.5-0.9,1.1-1.5,1.7-1.8c0-1.2,0.1-2.4,0-3.5C319.6,984,321.3,983.3,322.7,983.8z"
			/>
		<path class="st1" d="M305.2,971.7c-6.1-0.2-11.1,4.5-11.3,10.6c-0.2,6.1,4.5,11.1,10.6,11.3c6.1,0.2,11.1-4.5,11.3-10.6
			C316,976.9,311.3,971.9,305.2,971.7z"/>
		<path class="st1" d="M262.3,731.6c-4.1-0.3-8.1,1.3-12,2.8c-5.9,2.4-11.7,4.7-17.6,7.1c-2.3,1-4.9,2-6.7,3.9
			c-3,3.3-3.2,8.6-0.5,12c2.8,3.4,8.1,4.4,11.8,2.2c4.2-2.5,5.7-7.6,9.2-10.8c5-4.7,12.6-4.6,19.5-4.1l-2.4,0.4
			c3.6,2.1,8.4-2,7.7-6.3C270.6,734.6,266.4,731.8,262.3,731.6z"/>
		<path class="st1" d="M324.6,965.3C324.6,965.3,324.6,965.3,324.6,965.3C324.6,965.3,324.6,965.3,324.6,965.3z"/>
		<path class="st1" d="M313.4,962.7c-0.3,0.7-0.2,1.6,0.2,2.3c-0.4-0.7-0.4-1.6,0-2.3L313.4,962.7z"/>
		<path class="st1" d="M160.7,1135.9c-1.4,5.6,4.4,10.8,10.2,11.4c5.6,0.6,11.3-1.5,17-2.5c6.1-1,12.4-0.7,18.2,1.2
			c3.9,1.2,7.8,3,11.8,2.8c4-0.3,8.3-3.7,7.5-7.5l4.1-3.2C206.7,1137.3,183.7,1136.6,160.7,1135.9z"/>
		<path class="st1" d="M261,1025c0.5,0,0.9,0,1.4,0.2c0-0.1,0-0.1,0-0.2C261.9,1025.1,261.4,1025,261,1025z"/>
		<path class="st1" d="M257.2,1038.8c-5.1-3-11.3-2.5-17-1.6l-1,1.3c-4.6,5.6-7.7,12.6-8.8,19.8c-0.2,2-0.4,3.9,0.6,5.7
			c2,3.1,7.1,2.7,10.2,0.5c3.1-2.2,5.5-5.5,8.9-7c3.4-1.6,7.5-1.6,10.3-4.1C264.6,1049.5,262.1,1041.7,257.2,1038.8z"/>
		<path class="st1" d="M252.7,1026.4c-0.2,0.5-0.7,0.9-1.2,1.1c0.6-0.1,1.1-0.5,1.5-1C252.9,1026.5,252.8,1026.5,252.7,1026.4z"/>
		<path class="st1" d="M300.8,724.6c0.2,0.2,0.4,0.5,0.6,0.7c0.8,0.4,1.5,0.7,2.2,1c0-0.1,0-0.3,0-0.5
			C302.8,725.6,301.9,725.3,300.8,724.6C300.8,724.7,300.8,724.6,300.8,724.6z"/>
		<path class="st1" d="M286.8,1132.3c-3,2.7-5.5,5.8-8.6,8.1c-3.6,2.6-8.1,4.3-12.6,4.5c4.5,2.1,9.2,4.1,14.2,4.4
			c5,0.3,10.4-1.5,13.3-5.5c1.4-2.1,2.3-4.7,3.9-6.7c3-3.7,8.1-4.6,12.7-5.9c4.5-1.2,9.4-4,10-8.8l-5.6-0.3
			C304,1121.8,294.1,1125.6,286.8,1132.3z"/>
		<path class="st1" d="M265.6,1113.4c-2-4.2-7.6-6.9-11.3-4.2c-3.7,2.8-2.9,8.6-1,12.9c1.4,3.1,3.5,6.5,6.9,7.1
			c2.6,0.5,5.1-2.1,5.2-4.3l0.9,2C266.8,1122.4,267.6,1117.5,265.6,1113.4z"/>
		<path class="st1" d="M204.5,985.1c6.3,4.8,12.5,10.9,19.7,13.4c-0.2-0.3-0.4-0.7-0.7-1c-6.7-2.7-12.6-8.3-18.5-12.8
			C204.8,984.8,204.6,984.9,204.5,985.1z"/>
		<path class="st1" d="M177.1,987.4c-0.1,0-0.2-0.1-0.3-0.1l-0.7,23.1l0.3,0L177.1,987.4z"/>
		<path class="st1" d="M186.2,965.9c-1-0.5-2-1-3-1.6C184.1,964.9,185.2,965.4,186.2,965.9z"/>
		<path class="st1" d="M200.9,972.3c9,4.2,3.1,7.9-1,9.3C204,980.2,210,976.6,200.9,972.3z"/>
		<path class="st1" d="M194.9,971.9c1,0.1,2.1,0,3.1,0C197,971.8,195.9,971.9,194.9,971.9z"/>
		<path class="st1" d="M177.5,964.2c0-0.2,0.2-0.1,0.2-0.1c-0.2,0-0.2,0-0.2,0L177.5,964.2z"/>
		<path class="st1" d="M186.5,966.1C186.5,966.1,186.4,966.1,186.5,966.1C186.4,966.1,186.5,966.1,186.5,966.1z"/>
		<path class="st1" d="M324,964.5c0.1,0.3,0.3,0.5,0.5,0.7C324.3,965,324.1,964.8,324,964.5C324,964.5,324,964.5,324,964.5z"/>
		<path class="st1" d="M368.7,863.5l1.9,1.6c-2.8,1.1-3.1,5.4-0.8,7.4c2.2,2,5.9,1.9,8.4,0.3c4.5-2.8,6.1-9.9,2.2-13.6
			C376.5,855.4,368.5,858.2,368.7,863.5z"/>
		<path class="st1" d="M405.5,858.7c3.9-2.9,4.4-9.3,1.5-13.2l-4.3,2.5c-4.2-2.7-10,2.3-8.9,7C394.8,859.7,401.6,861.6,405.5,858.7z
			"/>
		<path class="st1" d="M383.7,874.2c-5.2,4.3-1.2,14.3,5.5,14.3c6.7,0.2,11.1-8.8,7.6-14.4l-2.3,0.8
			C391.9,871.8,386.9,871.5,383.7,874.2z"/>
		<path class="st1" d="M377.8,779c0.4,0.5,0.7,0.9,1.2,1.4c0.7,0.9,2.4,0.8,3.2,0.1c0.8-0.8,0.8-1.9,0.3-2.8
			c0.3,0.8,0.3,1.8-0.5,2.5c-0.8,0.7-2.5,0.8-3.2-0.1c-0.4-0.5-0.7-0.9-1.2-1.4c-0.9-0.9-2.1-1.6-3.6-1.6l0.1-4.2
			c-2.1,0.1-2.6,3-1.2,4c-0.2,0.1-0.5,0-0.6,0c-1.2-0.5-1.8-2-1.3-3.1c1.3-2.5-2.6-5-3.9-2.4c-1.9,3.6-0.4,8.7,3.7,9.9
			C373.4,781.9,376.1,780.9,377.8,779z"/>
		<path class="st1" d="M310.9,730.7c0.2,0.3,0.4,0.6,0.8,0.8c0.3,0.1,0.5,0.2,0.8,0.2c0-0.2,0-0.3,0-0.5c-0.5,0-0.9,0-1.4-0.3
			C311,730.9,310.9,730.8,310.9,730.7z"/>
		<path class="st1" d="M355,717.2c0.9,1.1,2.2,1.9,3.6,2.4c11.9,4.9,26.9-3,31.1-15.2c1.5-4.4,1.2-10.3-3-12.3
			c-5.7-2.6-10.8,4.4-13.1,10.1l-1.5,3.2c-4.4-0.7-9.2-1.3-13.3,0.7C354.8,708,352.2,713.7,355,717.2z"/>
		<path class="st1" d="M308,841.9c-2.6,4.6-1.3,12.3,4,12.6c4.9,0.3,7.2-5.9,10.5-9.4c4.4-4.7,11.4-5.4,17.7-6.8
			c7.5-1.6,14.7-4.1,21.4-7.9c2.8-1.6,5.6-3.6,6.9-6.5c1.3-2.9-0.2-7.2-3.4-7.6c-1.4-0.2-2.9,0.5-4.3,1.1c-8,3.6-16.1,7.1-24.1,10.7
			c-1.4,0.6-2.8,1.3-4.3,0.9c-2.6-0.5-3.5-3.6-3.5-6.2c0.1-2.6,0.9-5.2,0.4-7.8l1.1-0.3c0.6-6.1,1.3-12.6-1.4-18.2
			c-2.7-5.4-10.1-9.3-15.2-5.9c-5.7,3.6-4.8,12.3-2.1,18.5c2.7,6.3,6.8,12.8,4.9,19.3C315.1,833.7,310.5,837.2,308,841.9z"/>
		<path class="st1" d="M336.1,747.1c1,0.9,2.4,0.7,3.2-0.1c0.7,0.2,1.6,0.3,2.5,0.4c-0.2-0.2-0.4-0.4-0.5-0.6
			c-0.9,0-1.7-0.2-2.6-0.4c-0.8,0.7-2.2,1-3.2,0.1c-0.4-0.4-0.7-0.7-1.1-1C335,746,335.5,746.5,336.1,747.1z"/>
		<path class="st1" d="M214.3,822.9l-0.9-5.2c-1.9-3.3-4.4-6.8-8.2-6.9c-4.9-0.1-7.4,7.1-4.3,11C204,825.4,210.1,825.5,214.3,822.9z
			"/>
		<path class="st1" d="M200.5,753.6c-0.3,3.3-0.7,6.7-0.9,10c-0.4,4.7-0.8,9.7,1.3,13.9c2,4.2,7.6,7.1,11.6,4.8
			c4.2-2.5,4.4-8.2,3.4-13c-0.9-4.7-2.3-10,0.3-14c-5.3-2.3-10-5.6-13.9-9.9l2.6,3.6C202.8,747.4,200.8,751,200.5,753.6z"/>
		<path class="st1" d="M177,980l-0.1,2.1c0.8,0.3,1.4,0.7,1.9,1.1c1.1,0.7,1.2,1.9,0.7,2.9c0.8-0.9,1-2.5-0.3-3.5
			c-0.6-0.3-1.3-0.8-1.9-1.1l0-1.3C177.2,980.1,177.1,980.1,177,980z"/>
		<path class="st1" d="M212.1,903.5c3.6,0.7,4-5.1,5.1-8.7c1.5-4.4,6.6-6.3,10.6-8.8c3.9-2.5,7.1-8.3,3.7-11.6
			c-2,4.5-6.5,7.9-11.4,8.6c-0.4-6.6-2.5-12.9-6-18.5l-2.9,0.2c-0.6,10.8-1.4,21.6-1.9,32.4C209.2,899.8,209.7,903,212.1,903.5z"/>
		<path class="st1" d="M320.8,560.6c3.9,1.2,8,2.2,12,2c4.1-0.3,8.3-2,10.2-5.6c2.1-3.6,1-8.8-2.7-10.4c-3.8-1.6-8.7,2.2-7.5,6
			l0,0.8C327.6,551.9,321.7,555.5,320.8,560.6z"/>
		<path class="st1" d="M284.1,760.9c-3.7-2.9-9.8,1.1-9.8,5.5c-7.6-0.2-15.4-0.5-23-0.7c-2.1-0.1-4.4-0.1-6.4,0.7
			c-3.7,1.7-5.4,6.1-6.4,10c-6.3,22.8-8.7,46.6-7,70.3c0.2,2,0.5,4.1,1.8,5.5c1.3,1.4,3.4,1.8,5.4,1.8c12,0.5,24-6.7,35.6-3.3
			c3.5,1,6.8,2.9,10.4,3.1c4.7,0,9.3-3.7,10-8.4c0.9-4.7-2-9.8-6.5-11.3c-4.7-1.5-9.9,0.3-14.4-1.7c-7.2-3.1-7.7-13-6.8-20.9
			c0.2-2.1,0.4-4.4,2-5.9c1.3-1.3,3.1-1.7,4.9-2c8.3-1.3,16.8-0.9,24.9,1.2c4.6-1.5,3-9-0.9-12.1c-3.9-3-9.3-4.7-11.4-9.2
			C283.3,776.4,290.5,765.6,284.1,760.9z"/>
		<path class="st1" d="M363.7,692.6c0.4,3.1,2.5,6.9,5.5,6c1.1-0.4,1.9-1.3,2.5-2.2c4.5-6.6,4.7-15.1,4.7-23.2c0-1.4-0.1-3-1.1-4
			c-1-0.9-3.3-0.3-3.1,1.1l-3.4,1.3C364.6,677.7,362.8,685.4,363.7,692.6z"/>
		<path class="st1" d="M374.2,772.4c-0.3-0.4-0.5-0.9-0.8-1.3C373.7,771.6,373.9,772,374.2,772.4L374.2,772.4c2,0.1,3.7,0.6,5.1,1.6
			C377.9,773,376.2,772.4,374.2,772.4z"/>
		<path class="st1" d="M337.7,651.9c-3.8,4.3-1.1,12.2,4.6,13.4c5.5,1.1,11.1-5.1,9.3-10.5l3.9-4.1
			C349.5,648.8,341.8,647.2,337.7,651.9z"/>
		<path class="st1" d="M353.4,754.6c-0.8-0.3-1.3-0.8-1.9-1.1c-0.6,0.3-1.4,0.3-2-0.1c-2.5-1.2-4.4-2.5-6.2-4.3
			c1.9,2.1,4,3.6,6.7,4.9c0.6,0.2,1.4,0.2,2,0.1c0.8,0.3,1.3,0.8,1.9,1.1c1.2,0.8,2.5,1.6,3.9,2.4c1.1,0.7,2.1,1.2,3.1,1.8
			c0-0.1,0-0.2,0.1-0.2c-1.3-0.8-2.5-1.4-3.7-2.2C356,756.2,354.8,755.4,353.4,754.6z"/>
		<path class="st1" d="M371.4,768.7c-3.4-1.9-5.9-4.9-9.5-6.7c-0.1-0.1-0.2-0.2-0.4-0.3c0.2,0.4,0.5,0.7,1,0.9
			c3.6,1.8,6.2,4.9,9.5,6.7c0.1,0.2,0.5,0.2,0.6,0.3c0.2,0.4,0.4,0.8,0.6,1.1c-0.3-0.5-0.5-1-0.8-1.4c2.9,1.3,5.5,1,8.4,2.5
			c0,0-0.1-0.1-0.1-0.1c-3-1.8-5.9-1.4-8.8-2.7C371.9,768.9,371.6,768.9,371.4,768.7z"/>
		<path class="st1" d="M309.6,719.6c2.6,0.6,5.2,2,7.6,3.6c4.9,3.2,9.7,6.7,14.5,10.2c0.1,0,0.2,0,0.3,0c-4.7-3.4-9.4-6.9-14.2-10
			C315.3,721.6,312.5,720.1,309.6,719.6z"/>
		<path class="st1" d="M313.4,734c0.6,0.9,1.9,1.3,3,0.8c1-0.4,1.8-0.9,2.7-1.3c-0.1-0.3-0.3-0.5-0.4-0.7c-1.1,0.4-2,1-2.9,1.4
			C314.9,734.5,314,734.4,313.4,734z"/>
		<path class="st1" d="M333.1,720.3c2.4,1.3,3.3-3.3,3.8-6c0.7-3.3,4-5.5,6.9-7.3c2.9-1.7,6.2-3.8,7.2-7.1c1-3.3-2-7.8-5.3-6.4
			l2-0.7c-2.2-1.9-5.9-1.6-8.2,0.2c-2.3,1.8-3.8,4.6-4.8,7.3C332.6,706.8,332,713.6,333.1,720.3z"/>
		<path class="st1" d="M382.9,768l0.1,0c-0.2-0.1-0.5-0.2-0.7-0.3C382.5,767.8,382.7,767.9,382.9,768z"/>
		<path class="st1" d="M329.4,738.8c-3.1,0.5-6.3-0.6-8.5-2.8c2.1,2.6,5.5,3.9,8.9,3.4C329.6,739.2,329.5,739,329.4,738.8z"/>
		<path class="st1" d="M351.4,747.2c-3-2.9-5.1-6.3-7.7-9.9c-1-1.5-2.2-2.4-3.5-2.9c1.1,0.6,2,1.5,2.9,2.8c2.6,3.7,4.8,7.2,7.9,10.1
			C351.2,747.2,351.3,747.2,351.4,747.2z"/>
		<path class="st1" d="M332.5,742.9C332.5,742.9,332.5,742.9,332.5,742.9c-0.2-0.2-0.3-0.3-0.4-0.5
			C332.2,742.6,332.4,742.8,332.5,742.9z"/>
		<path class="st1" d="M332.8,733.4c0.3,0.1,0.7,0.2,1,0.5c0.1,0,0.2,0,0.3-0.1C333.7,733.5,333.3,733.4,332.8,733.4z"/>
		<path class="st1" d="M307.1,729.1c0.9-0.2,1.8-0.2,2.6-0.3c-0.1-0.2-0.1-0.4-0.2-0.7c-0.9,0.1-2,0.2-3.1,0.4
			c-0.7,0.1-1.4-0.1-1.9-0.5C305.1,728.8,306.1,729.3,307.1,729.1z"/>
		<path class="st1" d="M353.9,762.4l-2.5,1.9c-2,6.3-2.4,15.3,3.9,17c4.7,1.4,9.4-4.1,8.7-9C363.2,767.4,358.8,763.8,353.9,762.4z"
			/>
		<path class="st1" d="M386,770.2C386,770.2,385.9,770.2,386,770.2c1.3,1.8-1.2,4-3.1,3.1c-0.3,0-0.5-0.2-0.8-0.2
			c-0.1,0-0.2-0.1-0.3-0.1c0.2,0.2,0.4,0.3,0.6,0.3l-0.2,1.8c0,0.5-0.3,0.9-0.5,1.2c0,0,0,0,0,0c0,0,0,0,0,0
			c0.1,0.1,0.1,0.2,0.2,0.3c0.2-0.3,0.4-0.7,0.5-1.1l0.2-1.8c0.3,0.2,0.5,0.2,0.8,0.2C385.4,774.6,388.1,772,386,770.2z"/>
		<path class="st1" d="M144.5,1027.3c-0.3,0.3-0.5,0.5-0.6,0.7C144.1,1027.7,144.3,1027.5,144.5,1027.3z"/>
		<path class="st1" d="M171.1,999.6c0.3-1.6-0.9-2.6-2.2-2.7c1.2,0.1,2.3,1.2,2.1,2.7C171,999.6,171.1,999.6,171.1,999.6z"/>
		<path class="st1" d="M156.2,848.7c-0.8,0.3-1.4,0.7-1.9,1.3c-1.4,2.2,1.8,4.5,4.4,5c6.7,1.3,13.5,1.5,20.2,0.5l-0.7-7.3
			C171.2,845.3,163.2,845.5,156.2,848.7z"/>
		<path class="st1" d="M33.9,829.3c1.2-4.8,1.8-9.7,2-14.6c0.1-4.9-0.4-10.4-4.3-13.4c-3.9-3-11.3-0.5-10.6,4.4l0.3,0.2
			C21.8,815,26.6,823.9,33.9,829.3z"/>
		<path class="st1" d="M91.9,860c-2.2-3.7-6-6.6-10.3-8.2c-5.6-2.1-11.8-2.5-17.9-2.5c-6.1,0-13,0.2-17.8,4
			c-4.8,3.8-6.2,12.6-0.8,15.8c5.8,3.4,15.7-0.9,18.6,5.1c1.6,3.4,0.5,9.5,4.3,9.4c1.5-0.1,2.6-1.4,3.7-2.6c8.7-9.3,23.8-6.7,36-3.5
			C104.4,870.4,98.8,864.4,91.9,860z"/>
		<path class="st1" d="M-26.8,800.8c-0.9,1-1.3,2.7-2.3,3.9c-2.2,3.1-6.8,3.1-10.5,4.4c-3.7,1.3-6.7,6.3-3.6,8.6l3.1,3.7
			c1.8,2.5,5.9,1.6,8.1-0.5c2.2-2.1,3.7-4.9,6.1-6.7c1.6-1,3.4-1.6,5-2.6c2.8-2,4.5-6.1,2.9-9.4C-19.6,799-24.6,798.1-26.8,800.8z"
			/>
		<path class="st1" d="M0.1,824.7c-3.5,0.8-5.9,5.3-4.4,8.7c2.9-0.7,6-1.3,7.9-3.7c1.7-2.4,1-6.8-1.9-7.1L0.1,824.7z"/>
		<path class="st1" d="M26.7,861.8c3.7-1.1,5.8-4.9,7.4-8.2c0.6-1.2,1.1-2.7,0.4-3.8c-0.4-0.5-0.9-0.8-1.5-1
			c-5.6-2.1-12.6,2.7-12.3,8.6l-0.4-1.7C18.4,859.1,23,862.9,26.7,861.8z"/>
		<path class="st1" d="M18.2,828.5c-3.1,1.4-6.2,3-8.1,5.8c-1.9,2.7-1.9,7.1,0.8,9c3.3,2.4,8.2-0.4,9.7-4.1
			c1.5-3.8,0.5-7.9-0.6-11.7L18.2,828.5z"/>
		<path class="st1" d="M102.7,670.5l-5,4.7c-4.9,0.5-6.9,8-3.2,11.3c3.7,3.3,10.3,1.4,12.4-3.1C109,678.9,106.9,673.2,102.7,670.5z"
			/>
		<path class="st1" d="M10.3,717.2c1.9,2.8,6.5,2,8.8-0.3c2.4-2.4,3.4-5.8,4.7-8.8c1.3-3,3.7-6.1,7.1-6.5c-0.4-2-2.2-3.6-4.2-3.6
			l-6.7,4.8c-2.5-2.2-6.7-1.1-8.7,1.4c-2.1,2.5-2.3,6-2.1,9.4C9.3,714.9,9.6,716.1,10.3,717.2z"/>
		<path class="st1" d="M19.4,690.4c4.2-1.5,7.4-4,9.7-7.9c1-1.8-0.5-3.8-2.5-3.4c-6.3,1.3-12.3,3.6-17.9,6.9c-2.5,1.4-0.3,5.5,2.2,4
			c2-1.2,4.2-2.3,6.3-3.2C15.9,688.3,17.1,691.2,19.4,690.4z"/>
		<path class="st1" d="M33.8,632c-3.3-2.7-7.5-5.4-11.9-4.2c-3.8,1.1-6.4,4.5-5.6,8.4c0.5,2.6,4.4,2,4.4-0.5c0.5,0.2,0.9,0.2,1.4,0
			c3.4-1.1,6.6-1,9.7,0.4C34.4,637.2,35.6,633.4,33.8,632z"/>
		<path class="st1" d="M-6.2,688.5c-1.5-6-6.2-10.9-12.1-12.4l-1.4,0.4c-2.5,1.8-2.5,5.6-0.9,8c1.4,2.5,4,4.2,5.9,6.6
			c3.2,3.8,4.4,9.1,3.4,14C-6.7,701-4.7,694.4-6.2,688.5z"/>
		<path class="st1" d="M-2.8,588.3c-2.6,1.4-6.5,2.5-6.3,5.6c0.2,2.9,4.1,3.8,7,3.7c5.8-0.1,12-0.2,16.4-3.9
			c4.5-3.5,5.2-11.9,0-14.3c-3.8-1.8-9.6-0.4-11-4.3l-0.5,1.7C3.7,581.1,1.4,586.1-2.8,588.3z"/>
		<path class="st1" d="M-32.9,580.8c-1,3.9,0.4,7.9,1.6,11.6c1.5,4.3,3.1,8.8,4.6,13.1c4-7.5,3.9-17.1-0.6-24.4l3.4-5.2
			C-27.2,574-31.8,576.9-32.9,580.8z"/>
		<path class="st1" d="M-38,723.2c2.9,0.2,3.8-3.8,4-6.7c0.2-2.9,2.2-6.8,4.9-5.6c1.2,0.5,1.8,1.7,2.2,2.8c2.3,5.2,4.7,10.7,7,16.1
			c5-0.2,8-6.6,6.3-11.4c-1.7-4.8-6-8.1-10.2-11c-4.2-2.9-8.5-6.2-10-11c-0.7-2.3-0.8-4.7-1.3-7c-1.6-6.8-7.1-11.6-12.3-16.2
			l-0.7,1.5c-3.4,5.8-0.9,13.2,2.5,19.1c3.3,5.9,7.4,12,7.2,18.8C-38.7,716.2-40.2,720.4-38,723.2z"/>
		<path class="st1" d="M117.3,999.9C117.4,999.9,117.4,999.9,117.3,999.9c-6.4-0.6-12.7-1.1-19.2,0
			C104.6,999,110.9,999.5,117.3,999.9z"/>
		<path class="st1" d="M143.5,960.8c1.1,0,2.1,0,3.2,0l0,0C145.6,960.8,144.6,960.8,143.5,960.8z"/>
		<path class="st1" d="M97.5,960.8c0.1,0,0.2,0,0.3,0c0,0-0.1,0-0.2,0C97.6,960.8,97.6,960.8,97.5,960.8z"/>
		<path class="st1" d="M88.2,1000.6c0,0,0.1,0,0.2,0l1-34.3c0,0-0.1-0.1-0.1-0.1L88.2,1000.6z"/>
		<path class="st1" d="M93,1003.9c0.5-0.7,0.7-1.8,0.2-2.6c-0.1-0.2-0.2-0.3-0.4-0.4c0.1,0.1,0.2,0.2,0.2,0.4
			c0.4,0.8,0.4,1.8-0.2,2.6L93,1003.9z"/>
		<path class="st1" d="M173.3,957.5l-0.5,0l-0.1,3.5c-1.9,1.3-3.4,2.9-3.9,4.6c-0.4,1.5-0.4,2.9-0.1,4.1c-0.2,0-0.3,0-0.5,0
			c0.3,0,0.5,0,0.8,0c-0.3-1.2-0.4-2.6,0.1-4.1c0.5-1.7,2.1-3.3,3.9-4.6l0.2,0L173.3,957.5z"/>
		<path class="st1" d="M172.8,974.4c-0.2,0-0.1-0.2-0.3-0.2l-0.2,5.3c-1.6-0.8-3.1-1.7-4.7-2.6c0,0-0.1,0-0.1,0
			c1.5,1,3.3,1.9,4.9,2.7l0.2,0L172.8,974.4z"/>
		<path class="st1" d="M106.9,961.1c0,0,0.1,0,0.2,0c1.7,0.1,2.6-1.7,2.2-3.1c-0.1,0-0.1,0-0.2,0
			C109.6,959.3,108.6,961.1,106.9,961.1z"/>
		<path class="st1" d="M101.7,979.8c-0.2,6.1,4.5,11.1,10.6,11.3c6.1,0.2,11.1-4.5,11.3-10.6c0.2-6.1-4.5-11.1-10.6-11.3
			C106.9,969,101.8,973.7,101.7,979.8z"/>
		<path class="st1" d="M149.9,962.9c0.2,0,0.4,0,0.5,0c0,0,0,0,0,0C150.3,962.9,150.1,962.9,149.9,962.9z"/>
		<path class="st1" d="M90.8,966.9c1.6,0.1,3.3-1.5,2.3-3.4c0.3-0.9,0.7-1.9,1-2.8c0,0-0.1,0-0.1,0c-0.3,0.9-0.7,2-1,2.9
			C94,965.4,92.4,966.9,90.8,966.9z"/>
		<path class="st1" d="M180.7,1053.5c2.6-1.3,2.6-6.5-0.3-6.1l-3.3-0.4c-1.8-6.1-8.7-10.5-15-9.1c-6.3,1.3-11.1,8.2-9.6,14.5
			c0.5,2.1,1.7,4.2,3.5,5.1c4.9,2.7,10.6-2.6,15.9-3.3C174.9,1053.8,178.1,1054.8,180.7,1053.5z"/>
		<path class="st1" d="M162.4,968.4c-0.4,0-0.8,0-1.2,0.2c-0.4,0-0.6,0.1-1,0.1c0,0,0,0,0,0c0.5,0,0.8-0.1,1.2-0.1
			C161.8,968.4,162.1,968.4,162.4,968.4z"/>
		<path class="st1" d="M164.7,969.9c0.2,0,0.5,0,0.7-0.1C165.2,969.8,165,969.8,164.7,969.9C164.7,969.8,164.7,969.8,164.7,969.9z"
			/>
		<path class="st1" d="M449.5,820.9c-5.6-0.9-12,4.2-10.8,9.7c0.7,2.6,2.6,4.6,4.5,6.5c3,3,6.1,6.1,9.2,9.3c0.6,0.6,1.3,1.4,2.2,1.3
			c1.2-0.1,1.9-1.3,2.2-2.4c1.3-3.5,1.7-7.4,1.1-11.1l3.1-1.9C459.2,827,455.1,821.8,449.5,820.9z"/>
		<path class="st1" d="M423,839.6c-4.1,3.8-7.6,9.2-6.8,14.9c0.7,5.7,7.5,10.3,12.3,7.4c3.3-2,4.3-6.7,3.2-10.4
			c-1.1-3.7-3.8-6.8-6.3-9.8l0.1,0.2C425,840.7,424.1,839.9,423,839.6z"/>
		<path class="st1" d="M369.2,487c-52.6-7.1-102.1-29.6-147.7-56.6c-3.3-1.9-6.9-4-10.7-4c-5.2,0-9.6,3.7-13.5,7.1
			C134.5,487.2,43.1,505.4-35.4,480c-21-6.9-41.7-17-56.1-33.5c-6.4,99.4-8,199.1-5.3,298.8c1,33.4,2.4,66.9,8.2,99.9
			c19,106.4,86.6,203.4,179.9,258.1c1.7,0.8,3.3,1.8,5.1,1.8c6.4,0,7.3-9.2,10.3-14.8c6.3-11.4,25.9-9.7,31.3-21.6
			c2.9-6.8-0.3-14.5-0.3-21.8c0.1-2.6,0.7-5.1,1.6-7.4c0-3.5-0.1-7.1,0-10.5c0-1.4-0.3-3.7,0.6-4.9c1.7-2.4,5.8-1.8,8.9-1.4
			c0.2-0.1,0.5-0.1,0.8-0.1c2,0.1,3.8,0.3,5.8,0.3c1.1-0.3,2.3-0.4,3.7-0.5c5.2,0.2,10.2,0.6,15.2,0.9c1.1,0.2,2.1,0.2,3.2,0.2
			c1.6,0.1,2.2,1.5,2.1,2.7c0.6-1.3,0-3.2-1.9-3.3c-1.1,0-2.1-0.2-3.2-0.2c0.3-4-0.3-8.1-1.3-11.9l-0.5,0l-89.2-2.7l1.8-58l0-0.2
			l0,0.2l92.5,2.8l0,0.3l-0.2,5.2c1.2-0.6,2.6-0.8,3.7-1c2.1-0.1,2,0.4,3.6,1.3c2.1,1.4,4.8,3.2,6.9,4.9c1.2,1,1.3,2.2,2.7,3
			c1.8,1.1,3.2,0.7,5,0.9c2.4,0.4,5.2,0.9,7.1,2.7c3.1,2.6,3.7,6.6,2.1,10.1c2-3.5,1.5-7.9-1.8-10.7c-1.9-1.7-4.5-2.3-7.1-2.7
			c-2-0.4-3.4,0.1-5-0.9c-1.3-0.8-1.6-2-2.7-3c-2.1-1.7-4.6-3.5-6.9-4.9c-1.6-1-1.6-1.4-3.6-1.3c-1.1,0.1-2.3,0.4-3.7,1l0.2-5.2
			c0.2-0.1,0.2-0.1,0.3-0.3c2.7-3.3,2.1-8.2,1.3-12.3c-3.9-23.1-3.4-47.2,1.2-70.2c-13.6,0.2-27.2,2.5-40.1,6.9
			c18.8,16.4,18.4,50.2-1.1,65.9c-1.4,1.2-3,2.2-4.8,2.4c-5.7,0.7-8.6-6.1-10.6-11.4c-2-5.4-7.9-11.2-12.3-7.7
			c3.6-2.8,0.6-9.1-3.8-10.5c-4.4-1.5-9.1-0.1-13.7-0.1c-6.1,0-12.1-2.5-18.4-2.5c-6.1,0-13.2,4.3-12.8,10.4
			c-6.7-5.8-8.2-16.8-3.1-24.2c-10.4-2.6-22.1-0.7-30.9,5.5c-15.3-6.3-33.7-17.5-31.3-34c-5.3,13.5-10.4,27.3-15.6,41
			c-2.9-11.4-9.7-21.5-16.4-31.1c-5.7-8.4-11.5-16.6-17.4-25c-5.5-7.9-11.4-16.6-11.4-26.4c-0.1-7.2,3.2-13.9,6.9-20
			c7.7-12.7,25-24.5,35.9-14.6c5.8,5.2,10.6,16,17.4,12.3c6.1-13.7,9.7-34-4-39.9c5.2-9.3,14.6-19.2,24.7-15.7
			c6.8,2.3,10.1,9.9,12.4,16.7c3.1,8.9,6.3,17.7,9.6,26.5c3.4,9.1,7.3,19,15.9,23.5c8.5,4.5,19.3,2.3,28.3,5.9
			c8.6,3.5,14.1,11.9,19.8,19.2c5.7,7.3,13.6,14.4,22.9,13.9c9.2-0.5,16.4-13.8,9-19.5c-5.4-1.2-11.4,0.6-15.2,4.7
			c-5.8-8.9-11.8-17.9-17.6-26.9c-1-1.6-2.2-3.4-2-5.4c0.4-2,1.9-3.6,3.5-4.9c7.5-6.5,15.3-13.2,24.8-15.5
			c9.7-2.3,21.4,1.4,24.8,10.7c4.1,11.1-4.8,26.1,3.8,34.2c5.9,5.7,16.4,2.8,21.3-3.6c5.1-6.4,5.9-14.9,6.6-22.9
			c1-13.7,1.6-28-4.3-40.3c-6-12.4-20.5-21.6-33.4-17c-16.9,5.9-22.3,31.3-40,34.1c-4.3,0.8-8.8-0.1-13.1,0.7
			c-11.6,2.1-18.4,17.7-11.8,27.7c-32.9-10.3-48.2-56.3-27.9-84.3c-12.3,2.8-25.1-1.1-37.6,0.4c-18.8,2.2-35.4,17.7-38.9,36.4
			c-13.6,2.5-32.8,1.6-35.1-12c-1.2-6.3,2.4-12.4,3.3-18.6c1-6.2-3.1-14.6-9.3-13.2c3.6-18.3-1.9-38.1-14.4-51.8
			c-1.1-8,7.9-14.1,16-14c8.1,0.1,15.4,4.3,22.9,6.9c17.9,6.3,38,4,56.2-1.2c4.3-1.2,8.8-2.8,11.5-6.2c2.7-3.6,2.7-9.5-1-11.8
			c-7.4-1.3-15.2,0-21.7,3.6c-1.3-6.9,1.4-14.4,6.8-19c-7.3-3.9-12.6-11.3-14-19.5c-4-3.9-11.1,0-13.6,4.9c-2.6,5.1-2.9,11-6.4,15.5
			c-9.2,11.8-33.7,5.5-38.1,19.7c-11.2-7.3-15.4-23.5-9.4-35.5c3.4-6.8,9.4-14.5,5-20.6c-2.5-3.3-6.7-4-10.3-5.8
			c-8.3-4.1-12.5-14.7-9.3-23.3c3-8,12-13,20.3-11.9c-10.4-3.1-14.2-20.1-4.8-26.5c7.9-5.4,40.9,8.1,53,10l43,25.6
			c0.2,0,0.3-0.1,0.5-0.1l-0.1,0c0.1,0,0.1,0,0.2-0.1l-43.4-25.5c1.4-2.4,3.5-4.5,5.8-6.2c0.3-0.3,0.6-0.4,0.9-0.7
			c8.1-5.4,19.6-7,28.8-5.1c9.7,2.1,18.6,10,19.5,19.9c0.5,4.6-1.3,9.2-4.3,12.8l16,10c0.6,1.2,1.3,2.5,2.2,3.6
			c2.8,3.4,7.6,5.4,7.6,10.6c0,0,0,0.1,0,0.2l0.1,0.1c-0.1,4.1-3.1,7.4-7,8.5c-7.7,2.2-14.2-2.4-20.1-6.7
			c-4.2-3.1-8.8-7.2-11.3-11.7c2.3,4.9,7.2,9.1,11.7,12.4c5.8,4.3,12.4,8.8,20.1,6.7c4-1.1,6.8-4.5,7-8.5l20.4,11.9
			c1,1.7,3.1,2.7,5.1,3l58.4,34.2c-1.2,1-2.5,2.2-3.9,3.1c-7.1,4.4-16.4-0.7-21.9-7.1c-5.4-6.4-9.5-14.5-16.8-18.3
			c-7.5-3.9-16.4-2.6-24.6-1.4c-12.2,1.9-24.5,4-36.3,7.4c0.3-0.4,0.5-1.1,0.5-1.5c1.1-0.3,2-0.7,3.1-1.1c1.5-0.6,1.5-2.1,0.7-3.2
			c0.4,0.9,0.2,2-1,2.6c-0.9,0.4-2,0.9-3.1,1.1c0.1,0.6-0.2,1.1-0.5,1.5c-0.2,0.1-0.3,0.3-0.5,0.4c-0.9,0.6-1.3,1.8-2.4,2.4
			c-0.6,0.4-1.4,0.4-2.1,0.4c-1.7-0.1-3.2,0.7-4.7,0.6c-0.2,0.1-0.2,0.1-0.3,0.3c-1,0.8-2.6,0.9-3.3-0.1c0.3,1.5,2.4,1.7,3.6,0.7
			c0,0,0,0.2,0.1,0.2c0.6,0.5,1.4,0.7,2.1,0.8c13.2,2.2,26.7,3.1,40.1,2.3c6.1-0.3,12.7-0.8,17.7,2.4c2.8,1.8,4.9,4.6,7.1,7.1
			c5.6,6.6,12.7,11.5,19.8,16.4c2.5,1.8,5.4,3.5,8.4,3.2c3.1-0.4,5.4-3.2,8.1-4.9c9.9-6.4,22.6,1.6,31.7,9.3
			c6.1,5.4,13,13.2,9.6,20.7c-5.1,11.1-27.2,7.2-28.8,19.4c-1,6.8,6,11.6,12.2,14.7c5,2.4,10.1,5,15.5,5.5
			c5.5,0.5,11.6-1.3,14.5-6.1c1.9-3.3,2.2-7.1,2.3-10.9c0.6-13.2,0.8-26.6,0.5-39.9l35,20.6c-0.7,6.5-1.5,13.1-3.5,19.2
			c-1.9,5.9-4.6,11.6-5.7,17.6c-1.1,6.1-0.1,12.9,4.5,17c4.3,3.8,11.1,4,15.8,0.6c3.4-2.5,5.4-6.7,8.8-9.5c3.3-2.6,7.7-3.6,11.2-6.1
			c3.4-2.5,5.9-7.6,3.2-10.9c-2.9-3.6-9.1-1.8-13.3-3.9c-3.9-2.1-5.1-7-5-11.4c0-1.1,0.1-2.1,0.1-3.2l6.3,3.7
			c3.5,4.1,7.5,7.2,12,9.7c0.3,1.4,1.9,1.9,3.2,1.5c0.5,0.2,0.8,0.3,1.2,0.5c0,0.6,0.4,1.1,1,1.4c2,1,3.9,2.1,5.8,3.1
			c0.9,0.5,2,0.2,2.6-0.4l0.1,0.2c-2.7,4.3-3.5,9.5-1.3,14c1.1,2.3,3.1,4.4,5.6,4.7c1.8,0.2,3.5-0.3,5.2-0.9
			c3.5-1.2,7.1-2.5,10.3-4.2c0-0.3,0-0.6,0-0.9c0.2-0.3,0.3-0.8,0.6-1c0.2-0.1,0.2-0.1,0.2-0.1c0.5-0.9,1.1-1.5,2.2-1.5
			c0.3,0,0.5,0,0.8,0c0.2,0,0.3,0,0.5,0c0.9,0.2,1.6,1,1.8,1.9c0.2,0,0.3,0,0.5-0.1c-0.3-0.8-0.8-1.5-1.7-1.6
			c2.7-2.1,4.9-4.6,6.2-7.7c4.8-11.7-5.3-26.1,0.7-37.3c1.6-3.1,4.6-5.6,7-8.5c11.4-13.7,8.9-36.6-5.3-47.4
			c-1.9-1.4-4.5-2.7-6.5-1.4c-1.2,0.9-1.8,2.5-2.3,3.9c-4.8,11.9-20.4,14.3-33.2,15l1.1-0.1c-8.1,0.4-16,1.8-23.7,4.3
			c-3.2,1-6.3,2.2-8.8,4.5c-4.5,4.1-6,10.6-6,16.4c-0.6,6.1-1,12.2-1.6,18.2l-35-20.6c-0.1-2.6-0.2-5-0.2-7.6
			c-0.2-3.7-0.4-7.5-1.6-10.9c-4.5-11.7-19.8-14.6-32.3-13.8c-4.4,0.2-9.2,0.8-12.7,3.4c-0.3,0.3-0.6,0.4-0.9,0.7l-58.4-34.2
			c0.3,0.2,0.5,0.2,0.8,0.2c3.8,0.4,8.3-1,9.4-4.6c1.2-3.6-4.5-7.4-6.6-4.3l0-0.5c-3.9-1.5-9.8,0.5-9.3,4.6c0,0.6,0.3,1.2,0.6,1.7
			l-20.4-11.9c0,0,0-0.2,0-0.3c-0.2-5-5-7-7.8-10.4c-1-1.1-1.6-2.3-2.2-3.6c-4.1-10,3.3-24.4-2.9-34.2c-3.5-5.4-11-10.1-8.7-16
			c1-2.6,3.6-4.2,6.5-4.4c7.6-0.4,13.2,6.8,20.5,7.3c5.5,0.5,11.8-2.8,16,0.8c4,3.5,2.1,10.6,5.5,14.6c3.1,3.7,9.2,3.2,12.4,6.8
			c4.3,4.7,0.2,12-0.7,18.4c-1.5,10.5,5.8,20.1,14,26.9c8,6.8,17.6,12.4,23,21.6c1.4,2.5,2.6,5.1,4.8,6.8c2.1,1.4,4.7,2,7.1,2.2
			c17.2,1.4,36.1-8.5,50.9,0.3c3.4,1.9,6.2,4.9,10,6.2c11.9,4.3,23-8.4,35.5-10.2c12.7-1.7,29.2,6.4,36.1-4.2
			c1.6-2.7,2.2-5.9,3.5-8.6c3.7-8,13.1-11.3,20-16.8c6.9-5.4,11-17.5,3.6-22.1c-1.9-1.1-4.2-1.7-5.7-3.2c-2.1-2.3-1.5-6-0.9-9
			c2.7-13.5,6.7-28.9,19-35.1c3.9-2,8.3-2.8,12.6-3.6c11.3-2.1,22.5-4,33.7-6.1c1.6,12.2-16.9,18.5-18.3,30.7
			c-1,8.5,6.3,18.5,0.5,24.7c-3.9,4.1-12,4.2-12.6,10.1c-0.3,3.8,2.7,7.2,6.5,7.7c11.7,1.4,24.8,0.1,34-7.3
			c7.8-6.3,11.7-18.2,6.8-27.1c-8.5-0.3-17.2,3.7-22.4,10.4c-3.8-5.9,0.7-13.8,6.2-18.4c5.5-4.6,12.3-8.5,14.6-15.1
			c1-2.6,1.2-5.6,2.8-7.8c4.1-5.7,13.5-2.2,18.3,2.8c4.9,5,9.4,12,16.5,12.5c9.9,0.9,17-11.7,27-11.4c10.3,0.3,17.8,14.4,27.8,11.5
			c4.6-1.2,8.1-6.2,14.1-2.5c3.6,2.2,5.4,6.4,5,10.7c-0.7,7.7-0.4,16.6-4.2,23.6c-3.1,5.5-9.4,9.8-15.5,8.1
			c-6.2-1.7-15-7.5-16.7-1.3c14.9,11.3,31.3,26.5,28.2,44.9c-1.1,6.7-4.8,12.5-8.5,18.2l-13.1,20.5c-0.6,0.9-1.4,1.8-2.4,2.2
			c-5.4,2.7-8.2-6.5-8.5-12.6c-0.5-7.6-3.2-15-8.4-20.8c-15.9-17.5-39.7-13.1-61.1-10.7c-18.3,2-39.9,0.6-50.1-14.6
			c-4.5-0.9-7,5.9-4.9,9.9c2.2,4,6.7,6.1,10.2,9.1c5.8,4.9,8.9,12.3,13.5,18.4c4.5,6.1,12.1,11.3,19.4,9.1
			c7.4-2.4,14.4-11.9,20.8-7.3c-3.3,8.4-10.4,15.2-11.5,24.2c-1.4,9.7,12.2,20.6,17.5,10.1c0.7-1.4,1.7-2.4,3.1-3
			c5.9-2.3,6.4,9,11,13.3c2.7,2.4,6.8,2.2,10.3,1.7c11-1.6,21.5-5.6,31-11.4c5.9-3.6,11.4-8,18-10c6.6-2.1,14.8-0.9,18.6,4.8
			c-7.7,1.3-12.7,11-9.2,18.1c2.2-3.4,8.4-1.4,9.8,2.4c1.4,4-0.2,8.2-1.7,12.1c-9.5,23.5-18.9,46.9-28.5,70.4
			c-5.9-1.2-12.3,2.5-14.4,8.1c-7.9,3-16.5-2.2-22-8.4c-5.6-6.3-9.6-14-16.3-18.9c-11.9-8.6-28.4-6-42.2-1.1
			c-0.6,4.9-0.4,9.7,0.6,14.5c-0.7-1.2-1.5-2.3-2.5-3.3c-0.6-0.6-1.3-1.1-1.9-1.4c-0.4-0.5-1-0.8-1.8-1c-1.5-0.8-3.1-1.6-4.5-3
			c-0.3-0.3-0.4-0.5-0.7-0.8l-0.1-0.2c-0.3-0.2-0.4-0.3-0.6-0.5c-1.2-0.9-2.5-1.7-3.8-2c1.1,0.4,2.2,1,3.2,1.8
			c0.3,0.2,0.4,0.3,0.6,0.5l0.1,0.2c0.3,0.3,0.6,0.5,0.7,0.8c1.5,1.4,3,2.2,4.5,3c0.8,0.2,1.4,0.5,1.8,1c0.6,0.5,1.3,1,1.9,1.4
			c1,0.8,1.8,2,2.5,3.3c0,0.2,0.1,0.2,0.1,0.3c0.6,0.9,1.2,1.9,1.7,2.8c2.1,1.4,4,2.7,6.3,3.4c-2.3-0.7-4.2-2-6.1-3.4
			c-0.7-0.9-1.2-1.9-1.7-2.8l14.1,8.3l0,0.1c0,0,0,0,0,0c1-10.2,11.8-19.2,22.1-16.6c-1.9,6.2-3.6,12.5-5.3,18.9
			c6.2,1.1,12.8-1.4,16.5-6.5c0.8,8.9,4.8,17.5,11.3,23.8c-2.7,9.8-13.4,15-23.4,17.4c-10,2.4-20.8,3.9-28.2,11
			c-7.4,6.9-7.7,22.2,2,25.3c18.6-9.5,37-19.1,55.5-28.6c5.1-2.7,10.5-5.3,16.3-5.4c17.1-0.1,25.7,22.1,22,38.7
			c-5.3,24.1-24.7,42.3-43.2,58.7c-7.2,0.2-9.1-9.9-7.4-16.8c1.7-7,4.3-15.7-1.4-20.1c-10.4,2.9-13.3,15.9-17.8,25.7
			c-5.2,11-15.7,20.2-27.7,20.8c-12,0.5-24.5-9.9-23.4-22c0.6-6.1,3.7-13-0.4-17.2c-2.2-2.4-5.9-2.6-9.1-2.7
			c-9.3-0.4-19-0.7-27.5,3.1c-8.5,3.9-15.2,13.4-12.7,22.3c10.3-1.7,19.9-6.7,27.1-14.1c9.8,9,20.4,21.6,15.3,33.8
			c-3.3,8.1-12.2,12-20.4,15.1c-14.6,5.6-29.4,11.3-44.1,16.9c1.7,3,4.2,4.8,7,6l0.2,0l52,1.6l-1.7,55.8l-93.3-2.4l-3.2-0.1l0,0
			l3.3,0.1c-1.2,3.3,1.3,7.4,4.6,9.3c0,0,0,0-0.1,0c0.2,0,0.3,0,0.5,0c5.6,0.3,11.1,0.6,16.7,1c2.6,0.1,6.4-0.3,8.2,2.1
			c2.1,2.7,1.3,8.1,1.5,11.2c0.3,4.6,0.5,9,0.7,13.6c0.4,0.5,0.6,1.1,0.4,1.8c0,0.5-0.2,0.9-0.8,1.5c0,0.2-0.2,0.1-0.2,0.3
			c-0.2,0.3-0.3,0.8-0.6,0.9c0.4,3.5,0.7,7,1.4,10.6c0.2,1.3-0.5,2.2-1.5,2.6c1.1-0.2,2.2-1.2,1.9-2.7c-0.5-3.5-1-7-1.4-10.6
			c0.3-0.1,0.5-0.4,0.6-0.9c1.3,7.5,2.6,15.2,5.7,21.6c6,12.4,19.7,19.9,33.3,21.3c13.7,1.3,27.3-2.4,40.1-7.5
			c59.5-24.1,102.6-78.8,126.1-138.6s29.7-124.7,33.8-188.9c6.5-102,8.2-204.3,5.5-306.6C478.1,484.5,421.8,494.1,369.2,487z
			 M-7.4,528.7c0.2-0.8,0.3-1.2,0.5-1.1l0.4,0.3C-6.8,528.3-7.1,528.4-7.4,528.7z M278.9,707.3l-0.1-0.2c0-0.2,0.2-0.3,0.3-0.4
			l0.1,0.2C279,707,279,707.1,278.9,707.3z M243.9,669.8c1.6-4.1,7.7-2.7,11.8-3.9c7.2-2.1,8.6-11.8,14.4-16.5
			c5.6-4.6,14.3-3.2,19.8,1.4s8.3,11.5,10.1,18.4c0.7,2.9,1.2,6.1-0.3,8.7c-2.2,3.6-7.3,4-11.5,3.6c-4.3-0.4-8.9-1.2-12.4,1.5
			c-3.4,2.6-2,9.8,2.2,9.1c2.4-0.4,3.7-3.1,5.9-4.2c3.9-2.2,8.5,1.2,11.6,4.3c0.7,0.8,1.6,1.6,1.7,2.6c0.5,3.1-3.8,4-6.7,4.5
			c-4.6,0.6-8.6,3.7-11.2,7.4l-0.1-0.2c0.6-0.9,0.7-2.3-0.7-3.1c-0.5-0.2-1-0.5-1.5-0.7c0.4,0.2,0.9,0.5,1.3,0.7
			c1.3,0.8,1.3,2.2,0.4,2.9c0,0.2-0.2,0.3-0.3,0.4c-0.6,0.6-1.5,0.9-2.6,0.4c-2-1-3.9-2.1-5.8-3.1c-0.6-0.3-0.9-0.9-1-1.4
			c-0.5-0.2-0.8-0.3-1.2-0.5c-1.2,0.6-2.9,0.1-3.2-1.5c-4.6-2.4-8.6-5.5-11.9-9.5l-6.3-3.7c0.1-3.3,0.4-6.7-0.8-9.8
			C244.8,675.1,242.9,672.3,243.9,669.8z M270.5,602.1L146,598.3l3.8-124.3l124.5,3.8L270.5,602.1z"/>
		<path class="st1" d="M439.4,706.7l-2.9,3.6c-0.8-5.4-2.2-11.9-7.5-13.5c-4.4-1.4-9,1.9-11,5.9c-2,4.1-1.9,8.9-1.8,13.5
			c-0.1,2,0.2,4.3,1.5,5.7c2.1,2,5.4,1.7,8.2,0.9c4.3-1.2,8.5-2.6,12.5-4.3c3.5-1.4,7.4-3.7,8-7.5
			C447.2,707,441.5,703.4,439.4,706.7z"/>
		<path class="st1" d="M268,483.6l-112.3-3.4l-3.4,112.3l112.3,3.4L268,483.6z M173,517.8c-0.6,0-1.1,0-1.5-0.4
			c-0.2,5.3-0.3,10.5-0.5,15.7c-0.1,2.9-4.7,2.8-4.6-0.1c0.4-12.6,0.8-25.4,1.2-38c0-1.4,1.1-1.9,2.2-2.1c0.3-0.3,0.5-0.6,0.9-0.7
			c9-4.3,23.5-1.7,23,10.8C193.2,513,181.2,516.5,173,517.8z M220.2,576.5c-2.5,13.2-21.6,14.4-23.8,0.5c-0.4-2.9,4.1-4,4.4-1.1
			c1.3,8.1,11.8,8.9,14.4,1.2c1.7-4.5-1.1-9.6-4.8-12c-3.7-2.2-8.3-2.2-11.3-5.7c-3.4-3.9-3.6-10.3-1.2-15
			c6.9-13,24.7-2.1,22.1,10.4c-0.7,2.9-4.9,1.5-4.4-1.4c2.8-12.9-17.7-12.7-14.6-0.4c1.5,5.7,7.6,5.7,11.8,8.3
			C218,564.4,221.3,570.6,220.2,576.5z M257.4,524.7c-8.1,10.4-24.1,12.8-34.6,4.9c-11.8-8.9-14.1-26.2-3.1-36.8
			c10.2-9.9,26.6-7.1,34.8,3.8c1.8,2.3-1.5,5.4-3.3,3.1c-6.3-8.4-18.2-11.7-27-4.8c-9.5,7.5-9,20.7-0.7,28.9c7.7,7.5,20,7.5,28,0.4
			c2-1.8,3.8-3.4,3.2-6.3c-0.3-0.8-0.4-1.4-0.6-1.8c0.2-0.6,0.2-1.2,0.2-1.8l0-0.2c-0.1-1.1-0.4-2.1-0.8-3.1c0.8,0,1.7,0.1,2.4,0.2
			s1.4,0.5,2,1C262.6,515.6,260,521,257.4,524.7z"/>
		<path class="st1" d="M432.1,735.8c-1,7.1,4.4,14,11.2,16c2.7,0.8,6.5,0.7,7.8-1.9c0.6-1,0.7-2.3,0.7-3.3
			c0.3-8.4,0.7-16.7,1.1-25.1l-5.3,4.7C441.2,723.3,432.9,728.8,432.1,735.8z"/>
		<path class="st1" d="M271.7,677c-6,1.6-0.2,11,1.1,13.9c1.6,3.4,2.4,6.8,1.2,10.2c0.5,0.2,1,0.5,1.5,0.7c-0.4-0.2-0.9-0.5-1.3-0.7
			c1.2-3.5,0.4-6.8-1.2-10.2c-1.4-2.9-7.2-12.4-1.1-13.9c2.7-0.6,1.9-4.6-0.6-4.5C273.7,672.6,274.4,676.4,271.7,677z"/>
		<path class="st1" d="M251.7,690c0.2,0.3,0.5,0.7,0.8,1C252.2,690.7,251.9,690.4,251.7,690z"/>
		<path class="st1" d="M473.2,697.2c0.6-3.2-2.8-7.1-5.3-5l-2.1,0.5c-2.2,7.7-4.6,15.4-6.8,23.1c-0.5,1.7-0.9,3.3-0.1,4.6
			c1.6,3.6,7.6,1,8.8-2.8c1-3.8-0.1-8.1,1.3-11.8C470,702.7,472.5,700.3,473.2,697.2z"/>
		<path class="st1" d="M268.9,697.8c0.3,0.2,0.5,0.2,0.8,0.3c0,0,0,0,0-0.1c-0.2-0.1-0.4-0.1-0.6-0.3c-1-6.9-6.8-11.9-13.5-12.1
			C262.3,686,267.9,691,268.9,697.8z"/>
		<path class="st1" d="M185.5,496.1c-3.9-2.7-8.8-1.8-12.6,0.1c-0.2,0-0.5,0.1-0.6,0.1c-0.2,5.8-0.3,11.4-0.5,17.2
			c0.2-0.1,0.2-0.1,0.3-0.1c5.4-0.8,12.7-2.1,15.9-6.8C190.3,502.9,189,498.3,185.5,496.1z"/>
		<path class="st1" d="M94.8,664.3l0.5,3.7c2.7-9.8,0.6-20.8-5.4-29.1c-4.2,3.4-6.4,9.1-5.5,14.3C85.5,658.4,89.7,663,94.8,664.3z"
			/>
		<path class="st1" d="M402.2,583.5c4,4.2,11.1,5.5,15.9,2.3c4.8-3.2,5.8-11.2,1.5-15c-1.6-1.4-3.7-2.2-5.4-3.7
			c-4-3.6-3.9-10.8-7.2-14.5c-4.1,4-7.6,8.9-8.8,14.5C397,572.7,398.2,579.3,402.2,583.5z"/>
		<path class="st1" d="M152.1,723.7l-4.3,0.3c-5,0.3-10,1.8-14.2,4.6c-0.8,0.4-1.6,1-1.9,1.9c-0.8,2.3,1.7,4,4,5
			c3.9,1.6,8,3.3,12.2,3.3c4.1,0,8.6-2.3,10.1-6.2C159.6,728.6,156.4,723.3,152.1,723.7z"/>
		<path class="st1" d="M161.7,729.6c1.3,6.1,5.7,11.4,11.3,14.1c4.8,2.3,14.2,2.7,14.3-4.9l-2.7-0.1
			C179.6,731.3,170.2,727.7,161.7,729.6z"/>
		<path class="st1" d="M69.4,537c-4.5,2-7.8,6-9,10.7c-0.9,3-0.1,7.2,3,8c2.6,0.7,5.2-1.4,6.1-3.9c0.8-2.6,0.3-5.3-0.1-7.9L69.4,537
			z"/>
		<path class="st1" d="M93.1,776.1c2.3,0.1,4.6,0,6.6-1c4-2,4.9-7.2,4.8-11.6c-0.3-4.4-1.4-8.9,0.1-13.1l-1.8-0.4
			c-11.8,5.9-22.2,14.3-30.4,24.2C79.1,775.3,86.1,776,93.1,776.1z"/>
		<path class="st1" d="M406.5,552c-0.4-0.5-1.2-0.9-1.9-1.3L406.5,552z"/>
		<path class="st1" d="M72.6,648c-2.6-4.3-6.8-7.5-11.3-9.6c-4.5-2.3-9.8-3.6-14.4-2c-4.6,1.7-8.1,7.2-6.1,11.8
			c2.7,6.2,12.2,5.7,17,10.4c2.1,1.9,3.1,4.8,4,7.4c2.4,6.8,4.9,13.7,7.4,20.5c1.3,3.7,3.6,7.9,7.4,7.7c4-0.2,5.8-5.3,4.7-9
			c-1.1-3.7-4.1-6.5-6.3-9.8c-2.2-3.3-3.4-7.7-1-10.8l-1.3-2.3C75.5,658.1,75.1,652.3,72.6,648z"/>
		<path class="st1" d="M108,699.6c-1,3.6,1,7.5,4,9.7c2.8,2.4,6.6,3.4,10.2,4.3c2,0.7,4.4,1,6.1-0.3c1.6-1.2,1.6-3.5,1.7-5.4
			c0-9.3-0.7-18.4-1.9-27.6c-0.5-3.4-1-6.9-3.1-9.7c-1.9-2.8-5.6-4.6-8.9-3.3l-0.8,5.9c1.9,6.9,0.6,14.6-3.5,20.3
			C110.5,695.4,108.7,697.4,108,699.6z"/>
		<path class="st1" d="M407.1,552.4L407.1,552.4c-0.1,0-0.2-0.1-0.2-0.1l-0.5-0.3c0.1,0.2,0.4,0.3,0.6,0.6L407.1,552.4L407.1,552.4z
			"/>
		<path class="st2" d="M-7.4,528.7c0.3-0.3,0.6-0.4,0.9-0.7l-0.4-0.3C-7,527.5-7.2,528-7.4,528.7z"/>
		<path class="st3" d="M531.6,779.5c2.8-118.4,5.5-236.7,8.1-354.9c-34.3,20.4-69.3,41.1-108.5,48.5
			c-71.8,13.5-143.8-20.4-206.4-58.1c-5.2-3.2-11.4-6.6-17.4-4.8c-3.2,1-5.7,3.3-8.2,5.4c-28,24.6-61.8,42.3-97.8,51.7
			c-58.3,15-121.8,7.1-175.9-19.1c-13.7-6.7-27.1-14.7-36-27l-4.8-3.8c-1.6,88.1-3.2,176.1-5,264.3c-0.9,43.5-1.6,87.4,3.9,130.6
			c20.5,158.3,133.4,301.2,282.8,357.8c10.4,4,21.2,7.5,32.3,8.1c10.5,0.6,20.9-1.3,31-3.6c28.4-6.4,56.2-15.8,82.6-27.9
			c30.3-14,59-31.9,84.6-53.2C468,1034.5,515.7,947.8,527.3,856C530.5,830.7,531.1,805.1,531.6,779.5z M144.5,1027.3
			c-0.2,0.2-0.4,0.4-0.6,0.7c-0.1,0.1-0.2,0.3-0.3,0.4c0-0.1,0-0.2,0-0.3C143.7,1027.8,144,1027.6,144.5,1027.3z M146.7,1040.1
			c0,0.3-0.1,0.6-0.2,0.8c0-0.1,0-0.2,0-0.2c0.1-2.4-0.6-6.4,0.4-8.5c0,0,0,0,0,0C146.4,1034.5,146.9,1037.9,146.7,1040.1z
			 M156.1,1057.5c-1.8-1-3-3-3.5-5.1c-1.5-6.3,3.3-13.2,9.6-14.5c6.3-1.3,13.2,3,15,9.1l3.3,0.4c2.9-0.4,2.9,4.8,0.3,6.1
			c-2.6,1.3-5.8,0.3-8.7,0.6C166.7,1054.9,161,1060.2,156.1,1057.5z M179.2,982.6c1.3,0.9,1.2,2.5,0.3,3.5c0.5-0.9,0.4-2.2-0.7-2.9
			c-0.6-0.5-1.2-0.8-1.9-1.1l0.1-2.1c0.1,0.1,0.2,0.2,0.3,0.2l0,1.3C177.9,981.8,178.6,982.3,179.2,982.6z M202.3,745.4
			c3.8,4.2,8.6,7.6,13.9,9.9c-2.6,4-1.2,9.3-0.3,14c0.9,4.7,0.7,10.5-3.4,13c-4,2.3-9.6-0.6-11.6-4.8c-2-4.2-1.7-9.2-1.3-13.9
			c0.3-3.3,0.7-6.7,0.9-10c0.2-2.6,2.3-6.2,4.4-4.6L202.3,745.4z M205.2,810.7c3.8,0.1,6.3,3.7,8.2,6.9l0.9,5.2
			c-4.2,2.6-10.3,2.6-13.4-1.2C197.8,817.8,200.3,810.6,205.2,810.7z M209.4,897.2c0.5-10.8,1.3-21.6,1.9-32.4l2.9-0.2
			c3.5,5.6,5.6,11.9,6,18.5c4.9-0.8,9.4-4.1,11.4-8.6c3.4,3.3,0.2,9.1-3.7,11.6c-4,2.5-9.1,4.4-10.6,8.8c-1.2,3.6-1.5,9.4-5.1,8.7
			C209.7,903,209.2,899.8,209.4,897.2z M286.6,783.6c2.1,4.5,7.6,6.2,11.4,9.2c3.9,3,5.5,10.5,0.9,12.1c-8.2-2.1-16.7-2.5-24.9-1.2
			c-1.8,0.2-3.7,0.6-4.9,2c-1.6,1.5-1.8,3.8-2,5.9c-0.8,7.9-0.4,17.8,6.8,20.9c4.5,2,9.7,0.1,14.4,1.7c4.5,1.5,7.4,6.6,6.5,11.3
			c-0.8,4.7-5.3,8.4-10,8.4c-3.7-0.1-6.9-2-10.4-3.1c-11.6-3.4-23.6,3.9-35.6,3.3c-2-0.1-4.1-0.4-5.4-1.8c-1.3-1.4-1.6-3.6-1.8-5.5
			c-1.7-23.7,0.7-47.5,7-70.3c1-3.9,2.7-8.3,6.4-10c2-0.9,4.3-0.8,6.4-0.7c7.6,0.2,15.4,0.5,23,0.7c0-4.4,6-8.3,9.8-5.5
			C290.5,765.6,283.3,776.4,286.6,783.6z M340.2,546.6c3.8,1.6,4.8,6.8,2.7,10.4c-1.9,3.6-6.1,5.3-10.2,5.6c-4,0.2-8-0.9-12-2
			c0.9-5.2,6.8-8.8,11.9-7.3l0-0.8C331.5,548.8,336.5,545,340.2,546.6z M375.2,669.2c1,0.9,1.1,2.6,1.1,4c0.1,8.1-0.2,16.6-4.7,23.2
			c-0.6,0.9-1.4,1.8-2.5,2.2c-2.9,1-5.1-2.9-5.5-6c-0.8-7.2,0.9-14.9,5.1-21l3.4-1.3C371.9,669,374.2,668.3,375.2,669.2z
			 M372.1,705.4l1.5-3.2c2.3-5.7,7.4-12.7,13.1-10.1c4.2,2,4.5,7.9,3,12.3c-4.2,12.2-19.2,20.1-31.1,15.2c-1.4-0.5-2.7-1.3-3.6-2.4
			c-2.8-3.4-0.2-9.1,3.8-11.2C362.9,704,367.7,704.6,372.1,705.4z M394.5,875l2.3-0.8c3.5,5.6-0.9,14.6-7.6,14.4
			c-6.7-0.1-10.7-10.1-5.5-14.3C386.9,871.5,391.9,871.8,394.5,875z M402.7,847.9l4.3-2.5c2.9,3.9,2.4,10.3-1.5,13.2
			c-3.9,2.9-10.7,1-11.8-3.7C392.7,850.2,398.5,845.2,402.7,847.9z M378.1,872.8c-2.5,1.6-6.1,1.8-8.4-0.3c-2.2-2-1.9-6.3,0.8-7.4
			l-1.9-1.6c-0.1-5.3,7.9-8.1,11.7-4.4C384.2,862.9,382.6,870,378.1,872.8z M370.9,781.2c-4.1-1.2-5.6-6.3-3.7-9.9
			c1.3-2.5,5.2-0.1,3.9,2.4c-0.5,1.1,0.1,2.6,1.3,3.1c0.2,0,0.5,0.2,0.6,0c-1.5-1.1-1-4,1.2-4l-0.1,4.2c1.5,0,2.7,0.7,3.6,1.6
			c0.4,0.5,0.7,0.9,1.2,1.4c0.7,0.9,2.4,0.8,3.2,0.1c0.7-0.7,0.8-1.7,0.5-2.5c0.5,0.9,0.5,2.1-0.3,2.8c-0.8,0.7-2.5,0.8-3.2-0.1
			c-0.4-0.5-0.7-0.9-1.2-1.4C376.1,780.9,373.4,781.9,370.9,781.2z M311.7,809.2c-2.7-6.2-3.7-14.9,2.1-18.5
			c5.1-3.3,12.5,0.5,15.2,5.9c2.7,5.6,2.1,12.1,1.4,18.2l-1.1,0.3c0.5,2.6-0.3,5.2-0.4,7.8c-0.1,2.6,0.9,5.7,3.5,6.2
			c1.5,0.4,2.9-0.4,4.3-0.9c8-3.6,16.1-7.1,24.1-10.7c1.4-0.6,2.9-1.3,4.3-1.1c3.2,0.4,4.7,4.7,3.4,7.6c-1.3,2.9-4.1,4.9-6.9,6.5
			c-6.7,3.8-13.9,6.3-21.4,7.9c-6.3,1.3-13.3,2-17.7,6.8c-3.3,3.6-5.6,9.7-10.5,9.4c-5.3-0.3-6.6-8-4-12.6c2.6-4.6,7.1-8.2,8.6-13.3
			C318.5,822.1,314.4,815.6,311.7,809.2z M312.4,731.8c-0.3-0.1-0.5-0.2-0.8-0.2c-0.3-0.2-0.6-0.5-0.8-0.8c0.1,0.1,0.1,0.1,0.2,0.2
			c0.4,0.3,0.9,0.3,1.4,0.3C312.4,731.5,312.4,731.6,312.4,731.8z M335.5,746.4c1,0.9,2.4,0.7,3.2-0.1c0.9,0.2,1.7,0.4,2.6,0.4
			c0.2,0.2,0.3,0.4,0.5,0.6c-0.9,0-1.8-0.2-2.5-0.4c-0.8,0.7-2.2,1-3.2,0.1c-0.6-0.5-1.2-1.1-1.7-1.7
			C334.8,745.7,335.2,746.1,335.5,746.4z M340.2,734.3c1.3,0.5,2.5,1.4,3.5,2.9c2.6,3.6,4.7,7,7.7,9.9c-0.1,0-0.3,0-0.4,0.1
			c-3.1-3-5.3-6.4-7.9-10.1C342.3,735.8,341.3,734.9,340.2,734.3z M333.8,733.9c-0.3-0.2-0.6-0.4-1-0.5c0.5,0,0.9,0.1,1.3,0.4
			C334,733.9,333.9,733.9,333.8,733.9z M332.4,742.8C332.5,742.9,332.5,742.9,332.4,742.8c-0.1-0.1-0.2-0.2-0.4-0.4
			C332.2,742.6,332.3,742.7,332.4,742.8z M320.9,736c2.2,2.2,5.4,3.3,8.5,2.8c0.1,0.2,0.3,0.4,0.4,0.6
			C326.4,739.9,323,738.6,320.9,736z M364,772.3c0.8,4.9-4,10.4-8.7,9c-6.3-1.7-5.9-10.7-3.9-17l2.5-1.9
			C358.8,763.8,363.2,767.4,364,772.3z M374.2,772.4L374.2,772.4c-0.3-0.4-0.5-0.9-0.8-1.3C373.7,771.6,373.9,772,374.2,772.4
			c2,0,3.7,0.6,5.1,1.6C377.9,773.1,376.2,772.5,374.2,772.4z M382.5,773.6l-0.2,1.8c0,0.4-0.3,0.8-0.5,1.1
			c-0.1-0.1-0.1-0.2-0.2-0.3c0,0,0,0,0,0c0,0,0,0,0,0c0.2-0.3,0.5-0.7,0.5-1.2l0.2-1.8c-0.2,0-0.4-0.1-0.6-0.3
			c0.1,0,0.2,0.1,0.3,0.1c0.3,0,0.5,0.2,0.8,0.2c2,0.9,4.4-1.3,3.1-3.2c0,0,0.1,0,0.1,0.1c2.1,1.7-0.6,4.4-2.7,3.6
			C383,773.8,382.8,773.8,382.5,773.6z M382.9,768c-0.2-0.1-0.4-0.2-0.6-0.3c0.2,0.1,0.5,0.2,0.7,0.3L382.9,768z M380.8,771.8
			c-2.8-1.5-5.5-1.2-8.4-2.5c0.3,0.5,0.5,1,0.8,1.4c-0.2-0.4-0.4-0.7-0.6-1.1c-0.1-0.2-0.5-0.2-0.6-0.3c-3.3-1.8-5.9-4.9-9.5-6.7
			c-0.5-0.2-0.8-0.5-1-0.9c0.1,0.1,0.2,0.2,0.4,0.3c3.6,1.8,6.1,4.8,9.5,6.7c0.1,0.2,0.5,0.2,0.6,0.3c2.9,1.3,5.8,0.9,8.8,2.7
			C380.8,771.8,380.8,771.8,380.8,771.8z M361,759.5c-1-0.6-2-1.2-3.1-1.8c-1.3-0.8-2.7-1.6-3.9-2.4c-0.6-0.3-1.2-0.8-1.9-1.1
			c-0.6,0.1-1.4,0.1-2-0.1c-2.7-1.3-4.9-2.9-6.7-4.9c1.7,1.8,3.7,3.2,6.2,4.3c0.6,0.3,1.4,0.3,2,0.1c0.6,0.3,1.2,0.8,1.9,1.1
			c1.3,0.8,2.5,1.6,3.9,2.4c1.2,0.8,2.4,1.4,3.7,2.2C361,759.3,361,759.4,361,759.5z M351.6,654.8c1.8,5.4-3.9,11.6-9.3,10.5
			c-5.7-1.2-8.4-9.1-4.6-13.4c4.1-4.7,11.8-3.1,17.9-1.3L351.6,654.8z M334.8,700.4c1-2.7,2.5-5.6,4.8-7.3c2.3-1.8,6-2.1,8.2-0.2
			l-2,0.7c3.2-1.4,6.3,3.1,5.3,6.4c-1,3.3-4.3,5.4-7.2,7.1c-2.9,1.7-6.2,3.9-6.9,7.3c-0.5,2.7-1.4,7.3-3.8,6
			C332,713.6,332.6,706.8,334.8,700.4z M332,733.4c-0.1,0-0.2,0-0.3,0c-4.8-3.5-9.5-7-14.5-10.2c-2.4-1.6-4.9-2.9-7.6-3.6
			c2.9,0.5,5.6,2,8.2,3.7C322.6,726.5,327.3,729.9,332,733.4z M319.1,733.4c-0.8,0.4-1.7,0.9-2.7,1.3c-1.1,0.5-2.4,0.1-3-0.8
			c0.6,0.4,1.5,0.5,2.4,0.2c0.9-0.4,1.9-1,2.9-1.4C318.8,732.9,319,733.2,319.1,733.4z M306.5,728.5c1.1-0.1,2.1-0.2,3.1-0.4
			c0.1,0.2,0.1,0.4,0.2,0.7c-0.8,0.1-1.7,0.1-2.6,0.3c-1.1,0.2-2.1-0.4-2.5-1.1C305.1,728.4,305.8,728.6,306.5,728.5z M303.7,726.3
			c-0.7-0.2-1.4-0.6-2.2-1c-0.3-0.2-0.5-0.4-0.6-0.7c0,0,0,0,0.1,0c1,0.6,2,1,2.9,1.2C303.7,726,303.7,726.1,303.7,726.3z
			 M297.5,771.5c1.2-5.1,4.7-9.3,8-13.3c2.4-2.8,5-5.8,8.6-6.1c5.6-0.3,9.5,6.7,7.7,12c-0.5,1.4-1.1,2.6-2.2,3.4
			c-1.2,1-3.1,1.6-4.6,2.1c-6.3,2.7-10.1,10.4-8.4,17.1l-3.6-1.6C298,782.9,296.4,776.6,297.5,771.5z M299.5,722.7
			c0.1,0.1,0.2,0.1,0.4,0.1c0,0.1,0,0.2,0,0.3c-0.1,0-0.1-0.1-0.2-0.1C299.6,722.9,299.6,722.8,299.5,722.7z M276.6,904.9
			c-4.8,4.1-13.3,2.3-17.1,7.4c-1.3,1.8-1.6,4.1-1.7,6.3c-0.4,7.1,1.2,14.4,4.7,20.6c2,3.7,4.8,7.9,3.3,12c-0.6,1.6-1.9,2.7-3.4,3.6
			l-0.4,0l-30.9-0.9c-1.2-2-1.5-4.8-2.1-7.2c-0.8-3.2-3.4-7-6.7-6c4.2-16.3,12.2-31.6,23.1-44.5c1.4-1.6,2.8-3.3,4.9-4.3
			c5.1-2.7,11.1-0.6,16.9-0.6c3.4-1.9,8.2-0.8,10.6,2.3C280.4,896.8,279.9,902.1,276.6,904.9z M313.6,964.9
			c-0.5-0.7-0.6-1.6-0.2-2.3l0.2,0C313.2,963.3,313.3,964.2,313.6,964.9z M319.8,989.3c-0.6,0.3-1.2,0.9-1.7,1.8
			c-1,1.6-0.7,3.2,0.2,4.7c-0.3,0.6-0.6,1.2-1,2l0,0.2c-0.5,0-0.8,0.1-1.2,0.1c-0.8,0-1.5,0.1-2.4,0.4c-2.1,0.5-2.1,3-0.7,4.1
			c-0.2,0.1-0.5,0.1-0.6,0.1c-4.4-0.9-8.5-0.9-13.1,0.2c-1.5,0.4-2,1.9-1.5,3.2l-52.4-1.3l0-0.2l52.2,1.3c-0.4-1.2-0.1-2.7,1.5-3.2
			c4.6-1.1,8.7-1.1,13.1-0.2c0.2-0.1,0.5-0.1,0.6-0.1c-1.3-1-1.3-3.5,0.7-4.1c0.9-0.3,1.7-0.4,2.4-0.4c0.5,0,0.8-0.1,1.2-0.1l0-0.2
			c0.3-0.8,0.7-1.4,1-2c-0.7-1.4-1-3.1-0.2-4.7c0.5-0.9,1.1-1.3,1.7-1.8c0-1.2,0.1-2.4,0-3.5c-0.1-1.8,1.6-2.4,3-2
			c0.2-1.1,0.4-2,0.5-2.6c1.2-5,2.6-9.9,4.1-14.8c0.1,0.1,0.2,0.1,0.3,0.2c-1.5,5-3,9.8-4.3,14.8c-0.2,0.5-0.3,1.4-0.5,2.6
			c-1.4-0.5-3.1,0.2-3,2C319.8,986.9,319.8,988.1,319.8,989.3z M315.9,983c-0.2,6.1-5.2,10.8-11.3,10.6c-6.1-0.2-10.8-5.2-10.6-11.3
			c0.2-6.1,5.2-10.8,11.3-10.6C311.3,971.9,316,976.9,315.9,983z M324.6,965.3C324.6,965.3,324.6,965.3,324.6,965.3
			C324.6,965.3,324.6,965.3,324.6,965.3z M324,964.5C324,964.5,324,964.5,324,964.5c0.2,0.2,0.3,0.5,0.5,0.7
			C324.3,965,324.1,964.8,324,964.5z M200.2,978.7c-1.1,0.1-2.6,0.4-4.4,0.3C197.6,978.9,199.2,978.8,200.2,978.7z M184.9,978.4
			c-0.6-0.1-1.2-0.2-1.8-0.3C183.6,978.2,184.3,978.3,184.9,978.4c2.1,0.8,4.3,1.8,6.4,3C189.1,980.1,187,979.1,184.9,978.4z
			 M202.2,1053.7c3.4-1.6,8.1-0.7,9.4,2.9l-0.5-2.8c2.3-0.2,4.7-0.3,6.8,0.7c2.1,1,3.7,3.3,3,5.6c-0.8,2.7-4.4,3.2-7.3,3.1
			c-6.4,0-12.8-0.5-19-1.6C196.7,1058.4,199,1055.3,202.2,1053.7z M199.3,1083.3c2.1-4.8,8.7-6.4,13.7-4.3c5,2,8.3,6.7,10.3,11.6
			l1,1.4c-4.8,3.7-11,6.4-16.9,5C201.5,1095.6,196.9,1088.9,199.3,1083.3z M231.3,1000.4c-2.2-2.8-4.2-5.8-6.1-8.7
			c-1-1.6-3.1-1.3-4-0.1c0.5-1.6,3.1-2.4,4.3-0.5c1.9,3.1,3.9,5.9,6.1,8.7c0.7,0.9,0.7,2.3,0,3.1
			C231.8,1002.1,231.8,1001.1,231.3,1000.4z M230.2,869.3c4.8-7.3,14.8-10.5,22.9-7.4l5.6,4.6C250.1,871,239.6,872.1,230.2,869.3z
			 M263.5,745l2.4-0.4c-6.8-0.5-14.5-0.6-19.5,4.1c-3.4,3.2-5,8.4-9.2,10.8c-3.7,2.2-9,1.2-11.8-2.2c-2.6-3.4-2.5-8.8,0.5-12
			c1.7-1.9,4.4-2.9,6.7-3.9c5.9-2.4,11.7-4.7,17.6-7.1c3.9-1.6,7.9-3.1,12-2.8c4.1,0.3,8.3,3,8.9,7.1C272,743,267.1,747.1,263.5,745
			z M223.5,997.5c0.2,0.3,0.4,0.7,0.7,1c-7.2-2.5-13.4-8.6-19.7-13.4c0.2-0.1,0.4-0.3,0.5-0.4C210.9,989.2,216.8,994.8,223.5,997.5z
			 M199.8,981.6c4.2-1.4,10.1-5,1-9.3C210,976.6,204,980.2,199.8,981.6z M194.9,971.9c1,0.1,2.1,0,3.1,0
			C197,971.8,195.9,971.9,194.9,971.9z M183.2,964.3c1,0.6,2,1.1,3,1.6C185.2,965.4,184.1,964.9,183.2,964.3z M186.4,966.1
			C186.4,966.1,186.5,966.1,186.4,966.1C186.5,966.1,186.4,966.1,186.4,966.1z M177.5,964.2l0-0.2c0,0,0,0,0.2,0
			C177.7,964,177.5,964,177.5,964.2z M176.8,987.3c0.1,0,0.2,0.1,0.3,0.1l-0.7,23l-0.3,0L176.8,987.3z M217.9,1148.8
			c-4,0.2-7.9-1.6-11.8-2.8c-5.9-1.9-12.1-2.2-18.2-1.2c-5.7,1-11.4,3.2-17,2.5c-5.8-0.6-11.6-5.8-10.2-11.4c23,0.7,46,1.4,68.8,2.1
			l-4.1,3.2C226.2,1145.1,221.9,1148.4,217.9,1148.8z M241.2,1064.5c-3.1,2.2-8.2,2.6-10.2-0.5c-1-1.7-0.8-3.7-0.6-5.7
			c1.1-7.3,4.2-14.2,8.8-19.8l1-1.3c5.7-0.9,11.9-1.5,17,1.6c4.9,2.9,7.4,10.7,3.2,14.6c-2.8,2.5-6.9,2.5-10.3,4.1
			C246.7,1059,244.3,1062.3,241.2,1064.5z M261,1025c0.5,0,0.9,0,1.4,0c0,0,0,0.1,0,0.2C261.9,1025.1,261.4,1025,261,1025z
			 M251.5,1027.5c0.5-0.2,0.9-0.6,1.2-1.1c0.1,0,0.2,0.1,0.3,0.1C252.6,1027.1,252.1,1027.4,251.5,1027.5z M260.2,1129.2
			c-3.5-0.6-5.5-4-6.9-7.1c-1.8-4.3-2.7-10.1,1-12.9c3.7-2.8,9.3,0,11.3,4.2c2,4.2,1.2,9,0.7,13.6l-0.9-2
			C265.3,1127.1,262.8,1129.7,260.2,1129.2z M309.5,1131.1c-4.6,1.2-9.7,2.1-12.7,5.9c-1.6,2.1-2.4,4.6-3.9,6.7
			c-2.9,4-8.2,5.8-13.3,5.5c-5-0.3-9.7-2.3-14.2-4.4c4.6-0.2,9-1.9,12.6-4.5c3.1-2.3,5.6-5.5,8.6-8.1c7.4-6.6,17.2-10.4,27.1-10.3
			l5.6,0.3C318.9,1127.2,314,1129.9,309.5,1131.1z M514.9,759.1c-4.1,64.1-10.3,129.1-33.8,188.9s-66.5,114.5-126.1,138.6
			c-12.8,5.1-26.5,8.8-40.1,7.5c-13.7-1.3-27.3-8.9-33.3-21.3c-3.2-6.5-4.4-14.1-5.7-21.6c-0.2,0.5-0.3,0.8-0.6,0.9
			c0.4,3.5,0.9,7,1.4,10.6c0.3,1.5-0.8,2.5-1.9,2.7c0.9-0.4,1.7-1.3,1.5-2.6c-0.7-3.5-1-7-1.4-10.6c0.3-0.1,0.5-0.6,0.6-0.9
			c0-0.2,0.2-0.1,0.2-0.3c0.6-0.6,0.8-1,0.8-1.5c0.2-0.8,0-1.4-0.4-1.8c-0.2-4.6-0.3-9-0.7-13.6c-0.2-3.1,0.6-8.5-1.5-11.2
			c-1.8-2.3-5.6-2-8.2-2.1c-5.6-0.3-11.1-0.6-16.7-1c-0.2,0-0.3,0-0.5,0c0,0,0,0,0.1,0c-3.3-1.9-5.8-6-4.6-9.3l-3.3-0.1l0,0l3.2,0.1
			l93.3,2.4l1.7-55.8l-52-1.6l-0.2,0c-2.9-1.2-5.4-3-7-6c14.6-5.6,29.4-11.3,44.1-16.9c8.2-3.1,17.1-6.9,20.4-15.1
			c5.1-12.2-5.5-24.8-15.3-33.8c-7.2,7.4-16.8,12.4-27.1,14.1c-2.5-8.9,4.2-18.5,12.7-22.3c8.5-3.9,18.2-3.6,27.5-3.1
			c3.2,0.1,6.8,0.4,9.1,2.7c4.1,4.2,1,11.1,0.4,17.2c-1.1,12.2,11.3,22.6,23.4,22c12-0.5,22.5-9.8,27.7-20.8
			c4.6-9.8,7.4-22.8,17.8-25.7c5.7,4.4,3.1,13.2,1.4,20.1c-1.7,7,0.2,17.1,7.4,16.8c18.5-16.3,37.9-34.6,43.2-58.7
			c3.7-16.6-4.9-38.8-22-38.7c-5.8,0.1-11.2,2.7-16.3,5.4c-18.6,9.5-37,19.1-55.5,28.6c-9.7-3.2-9.3-18.4-2-25.3
			c7.4-7.1,18.2-8.6,28.2-11c10-2.4,20.6-7.6,23.4-17.4c-6.5-6.3-10.5-14.9-11.3-23.8c-3.7,5.1-10.3,7.6-16.5,6.5
			c1.7-6.3,3.4-12.7,5.3-18.9c-10.3-2.6-21.1,6.4-22.1,16.6c0,0,0,0,0,0l0-0.1l-14.1-8.3c0.6,0.9,1,1.9,1.7,2.8
			c1.9,1.4,3.9,2.7,6.1,3.4c-2.3-0.7-4.2-2-6.3-3.4c-0.6-0.9-1.2-1.9-1.7-2.8c0-0.2-0.1-0.2-0.1-0.3c-0.7-1.2-1.4-2.5-2.5-3.3
			c-0.6-0.5-1.3-1-1.9-1.4c-0.4-0.5-1-0.8-1.8-1c-1.5-0.8-3-1.6-4.5-3c-0.1-0.3-0.4-0.5-0.7-0.8l-0.1-0.2c-0.1-0.2-0.3-0.3-0.6-0.5
			c-1-0.8-2.1-1.4-3.2-1.8c1.3,0.3,2.6,1,3.8,2c0.1,0.2,0.3,0.3,0.6,0.5l0.1,0.2c0.3,0.3,0.4,0.5,0.7,0.8c1.3,1.4,3,2.2,4.5,3
			c0.8,0.2,1.4,0.5,1.8,1c0.6,0.3,1.3,0.8,1.9,1.4c1,0.9,1.8,2,2.5,3.3c-1.1-4.8-1.2-9.6-0.6-14.5c13.7-4.9,30.2-7.5,42.2,1.1
			c6.7,4.9,10.7,12.7,16.3,18.9c5.4,6.3,14.1,11.4,22,8.4c2.1-5.6,8.5-9.3,14.4-8.1c9.5-23.5,18.9-46.9,28.5-70.4
			c1.5-3.9,3.1-8.1,1.7-12.1c-1.4-3.9-7.6-5.9-9.8-2.4c-3.4-7.1,1.6-16.9,9.2-18.1c-3.8-5.8-12-6.9-18.6-4.8
			c-6.6,1.9-12.1,6.3-18,10c-9.5,5.8-19.9,9.8-31,11.4c-3.5,0.5-7.6,0.7-10.3-1.7c-4.6-4.3-5.2-15.5-11-13.3c-1.4,0.6-2.5,1.6-3.1,3
			c-5.3,10.5-18.9-0.4-17.5-10.1c1.2-8.9,8.2-15.7,11.5-24.2c-6.4-4.6-13.4,4.9-20.8,7.3c-7.2,2.2-14.8-3-19.4-9.1
			c-4.5-6.1-7.7-13.5-13.5-18.4c-3.6-3-8.1-5.1-10.2-9.1c-2.2-4,0.3-10.8,4.9-9.9c10.2,15.2,31.8,16.7,50.1,14.6
			c21.4-2.4,45.1-6.9,61.1,10.7c5.2,5.8,7.8,13.2,8.4,20.8c0.3,6.1,3,15.3,8.5,12.6c0.9-0.4,1.7-1.3,2.4-2.2l13.1-20.5
			c3.7-5.7,7.4-11.5,8.5-18.2c3.1-18.3-13.3-33.6-28.2-44.9c1.7-6.2,10.5-0.4,16.7,1.3c6,1.7,12.4-2.5,15.5-8.1
			c3.9-7,3.5-15.9,4.2-23.6c0.4-4.3-1.4-8.4-5-10.7c-6-3.7-9.5,1.2-14.1,2.5c-10,2.9-17.5-11.2-27.8-11.5c-10-0.3-17.1,12.3-27,11.4
			c-7.1-0.5-11.7-7.5-16.5-12.5c-4.9-5-14.2-8.5-18.3-2.8c-1.6,2.2-1.8,5.3-2.8,7.8c-2.3,6.6-9.2,10.5-14.6,15.1
			c-5.5,4.6-10,12.5-6.2,18.4c5.2-6.7,13.9-10.7,22.4-10.4c4.9,8.8,1,20.7-6.8,27.1c-9.2,7.5-22.4,8.8-34,7.3
			c-3.8-0.4-6.7-3.9-6.5-7.7c0.6-5.9,8.7-6,12.6-10.1c5.8-6.2-1.5-16.2-0.5-24.7c1.4-12.1,19.9-18.4,18.3-30.7
			c-11.2,2.1-22.4,4-33.7,6.1c-4.3,0.8-8.7,1.6-12.6,3.6c-12.4,6.2-16.3,21.6-19,35.1c-0.5,3-1.1,6.7,0.9,9c1.5,1.6,3.7,2.1,5.7,3.2
			c7.5,4.6,3.3,16.7-3.6,22.1c-6.9,5.4-16.3,8.8-20,16.8c-1.3,2.7-1.9,5.9-3.5,8.6c-6.9,10.6-23.4,2.5-36.1,4.2
			c-12.5,1.8-23.6,14.5-35.5,10.2c-3.8-1.3-6.6-4.3-10-6.2c-14.8-8.8-33.7,1.1-50.9-0.3c-2.4-0.2-5-0.8-7.1-2.2
			c-2.2-1.7-3.4-4.4-4.8-6.8c-5.4-9.1-14.9-14.8-23-21.6c-8.2-6.8-15.5-16.5-14-26.9c1-6.4,5-13.7,0.7-18.4c-3.2-3.6-9.4-3-12.4-6.8
			c-3.4-4.1-1.5-11.2-5.5-14.6c-4.2-3.6-10.5-0.3-16-0.8c-7.3-0.5-12.9-7.7-20.5-7.3c-2.9,0.2-5.5,1.8-6.5,4.4
			c-2.3,5.9,5.2,10.5,8.7,16c6.3,9.8-1.2,24.2,2.9,34.2c0.6,1.2,1.1,2.5,2.2,3.6c2.8,3.4,7.6,5.4,7.8,10.4c0,0.2,0,0.3,0,0.3
			l20.4,11.9c-0.3-0.5-0.6-1.1-0.6-1.7c-0.5-4.1,5.4-6.1,9.3-4.6l0,0.5c2.1-3.1,7.7,0.7,6.6,4.3c-1.2,3.6-5.6,5-9.4,4.6
			c-0.3,0-0.5,0-0.8-0.2l58.4,34.2c0.3-0.3,0.6-0.4,0.9-0.7c3.6-2.6,8.3-3.2,12.7-3.4c12.5-0.8,27.8,2.1,32.3,13.8
			c1.3,3.4,1.5,7.2,1.6,10.9c0.1,2.6,0.2,5,0.2,7.6l35,20.6c0.6-6.1,1-12.2,1.6-18.2c0-5.8,1.4-12.3,6-16.4c2.5-2.2,5.6-3.5,8.8-4.5
			c7.7-2.5,15.7-3.9,23.7-4.3l-1.1,0.1c12.8-0.7,28.4-3.1,33.2-15c0.5-1.4,1-3,2.3-3.9c2-1.3,4.6,0,6.5,1.4
			c14.1,10.8,16.6,33.7,5.3,47.4c-2.4,2.8-5.3,5.3-7,8.5c-6,11.2,4.1,25.6-0.7,37.3c-1.3,3.2-3.5,5.7-6.2,7.7
			c0.8,0.2,1.4,0.8,1.7,1.6c-0.2,0-0.3,0-0.5,0.1c-0.1-0.9-0.9-1.7-1.8-1.9c-0.2,0-0.3,0-0.5,0c-0.3,0-0.5,0-0.8,0
			c-1.1,0-1.7,0.6-2.2,1.5c0,0,0,0-0.2,0.1c-0.3,0.3-0.5,0.7-0.6,1c-0.1,0.3-0.1,0.6,0,0.9c-3.3,1.7-6.9,3-10.3,4.2
			c-1.7,0.6-3.4,1.1-5.2,0.9c-2.6-0.4-4.5-2.4-5.6-4.7c-2.1-4.5-1.4-9.6,1.3-14l-0.1-0.2c-0.6,0.6-1.7,0.9-2.6,0.4
			c-2-1-3.9-2.1-5.8-3.1c-0.6-0.3-1-0.8-1-1.4c-0.5-0.2-0.8-0.3-1.2-0.5c-1.2,0.4-2.9-0.1-3.2-1.5c-4.5-2.4-8.5-5.6-12-9.7l-6.3-3.7
			c0,1.1-0.1,2.1-0.1,3.2c-0.1,4.4,1.1,9.3,5,11.4c4.2,2.1,10.3,0.3,13.3,3.9c2.6,3.3,0.2,8.4-3.2,10.9c-3.4,2.5-7.9,3.4-11.2,6.1
			c-3.4,2.8-5.4,7-8.8,9.5c-4.7,3.4-11.5,3.2-15.8-0.6c-4.6-4.1-5.6-11-4.5-17c1.1-6.1,3.9-11.8,5.7-17.6c2-6.2,2.8-12.7,3.5-19.2
			l-35-20.6c0.4,13.3,0.1,26.7-0.5,39.9c-0.1,3.8-0.4,7.6-2.3,10.9c-2.9,4.8-9,6.6-14.5,6.1c-5.5-0.5-10.6-3.1-15.5-5.5
			c-6.2-3.1-13.2-7.9-12.2-14.7c1.6-12.1,23.7-8.3,28.8-19.4c3.4-7.5-3.5-15.3-9.6-20.7c-9.1-7.7-21.8-15.7-31.7-9.3
			c-2.6,1.7-5,4.6-8.1,4.9c-3.1,0.4-5.9-1.4-8.4-3.2c-7-4.9-14.2-9.9-19.8-16.4c-2.2-2.5-4.3-5.3-7.1-7.1
			c-5.1-3.2-11.6-2.6-17.7-2.4c-13.4,0.8-27-0.1-40.1-2.3c-0.8-0.2-1.5-0.4-2.1-0.8c-0.2,0-0.1-0.2-0.1-0.2c-1.2,1-3.2,0.8-3.6-0.7
			c0.7,1,2.3,0.9,3.3,0.1c0.2-0.1,0.2-0.1,0.3-0.3c1.5,0,3.1-0.7,4.7-0.6c0.8,0,1.5,0,2.1-0.4c1.1-0.6,1.4-1.8,2.4-2.4
			c0.2-0.1,0.3-0.3,0.5-0.4c0.3-0.4,0.6-0.9,0.5-1.5c1.1-0.3,2.2-0.7,3.1-1.1c1.2-0.5,1.4-1.6,1-2.6c0.8,1,0.8,2.6-0.7,3.2
			c-1.1,0.4-2,0.9-3.1,1.1c0,0.5-0.2,1.1-0.5,1.5c11.8-3.4,24.1-5.5,36.3-7.4c8.3-1.3,17.1-2.5,24.6,1.4
			c7.3,3.9,11.4,11.9,16.8,18.3c5.4,6.4,14.7,11.4,21.9,7.1c1.4-0.9,2.7-2.1,3.9-3.1l-58.4-34.2c-2-0.4-4.1-1.3-5.1-3L64,580.7
			c-0.1,4-3,7.4-7,8.5c-7.7,2.1-14.2-2.4-20.1-6.7c-4.5-3.3-9.4-7.5-11.7-12.4c2.4,4.6,7,8.6,11.3,11.7c5.8,4.3,12.4,8.9,20.1,6.7
			c3.8-1.1,6.8-4.4,7-8.5l-0.1-0.1c0-0.1,0-0.2,0-0.2c0-5.2-4.8-7.2-7.6-10.6c-0.9-1.1-1.6-2.3-2.2-3.6l-16-10
			c3-3.6,4.8-8.2,4.3-12.8c-0.9-9.9-9.8-17.8-19.5-19.9c-9.2-2-20.7-0.3-28.8,5.1c-0.3,0.3-0.6,0.4-0.9,0.7
			c-2.3,1.8-4.4,3.8-5.8,6.2l43.4,25.5c-0.1,0-0.1,0-0.2,0.1l0.1,0c-0.2,0.1-0.3,0.1-0.5,0.1l-43-25.6c-12.1-1.9-45.1-15.4-53-10
			c-9.3,6.4-5.6,23.4,4.8,26.5c0.6,0,1.4,0.2,2,0.4c-0.6,0-1.4-0.2-2-0.4c-8.3-1.2-17.3,3.9-20.3,11.9c-3.2,8.6,1.1,19.2,9.3,23.3
			c3.6,1.8,7.8,2.5,10.3,5.8c4.4,6.1-1.6,13.8-5,20.6c-6,12-1.8,28.1,9.4,35.5c4.4-14.2,28.9-8,38.1-19.7c3.5-4.5,3.8-10.4,6.4-15.5
			c2.4-5,9.6-8.8,13.6-4.9c1.4,8.1,6.7,15.6,14,19.5c-5.5,4.6-8.1,12.1-6.8,19c6.5-3.6,14.3-4.9,21.7-3.6c3.7,2.2,3.7,8.2,1,11.8
			c-2.7,3.4-7.2,5-11.5,6.2c-18.3,5.2-38.3,7.5-56.2,1.2c-7.5-2.7-14.9-6.8-22.9-6.9c-8.1-0.1-17.1,6-16,14
			c12.5,13.6,18,33.4,14.4,51.8c6.3-1.3,10.3,7,9.3,13.2c-1,6.2-4.5,12.4-3.3,18.6c2.3,13.6,21.5,14.5,35.1,12
			c3.5-18.8,20.1-34.3,38.9-36.4c12.5-1.4,25.4,2.4,37.6-0.4c-20.3,28-5,74,27.9,84.3c-6.6-9.9,0.2-25.6,11.8-27.7
			c4.3-0.8,8.8,0.1,13.1-0.7c17.8-2.8,23.1-28.2,40-34.1c12.9-4.6,27.4,4.6,33.4,17c5.9,12.4,5.3,26.7,4.3,40.3
			c-0.7,8.1-1.6,16.6-6.6,22.9c-4.9,6.4-15.4,9.3-21.3,3.6c-8.6-8.2,0.2-23.1-3.8-34.2c-3.4-9.2-15.1-12.9-24.8-10.7
			c-9.5,2.3-17.3,9.1-24.8,15.5c-1.6,1.3-3.1,3-3.5,4.9c-0.2,2,0.9,3.8,2,5.4c5.8,9,11.8,18,17.6,26.9c3.8-4.1,9.8-5.9,15.2-4.7
			c7.4,5.7,0.2,19-9,19.5c-9.3,0.5-17.2-6.6-22.9-13.9c-5.7-7.3-11.2-15.7-19.8-19.2c-9-3.6-19.8-1.4-28.3-5.9
			c-8.5-4.5-12.5-14.4-15.9-23.5c-3.2-8.8-6.5-17.6-9.6-26.5c-2.4-6.8-5.7-14.3-12.4-16.7c-10.1-3.5-19.5,6.4-24.7,15.7
			c13.7,5.9,10,26.2,4,39.9c-6.8,3.8-11.7-7.1-17.4-12.3c-11-9.9-28.2,1.9-35.9,14.6c-3.7,6.1-6.9,12.9-6.9,20
			c0,9.7,5.8,18.5,11.4,26.4c5.8,8.4,11.7,16.7,17.4,25c6.7,9.6,13.6,19.8,16.4,31.1c5.1-13.7,10.3-27.4,15.6-41
			c-2.5,16.5,15.9,27.7,31.3,34c8.9-6.1,20.5-8.1,30.9-5.5c-5.1,7.3-3.6,18.3,3.1,24.2c-0.4-6.1,6.7-10.5,12.8-10.4
			c6.2,0,12.3,2.5,18.4,2.5c4.6,0,9.3-1.4,13.7,0.1c4.4,1.4,7.4,7.7,3.8,10.5c4.4-3.5,10.3,2.3,12.3,7.7c2,5.4,5,12.2,10.6,11.4
			c1.8-0.2,3.4-1.3,4.8-2.4c19.5-15.7,19.9-49.5,1.1-65.9c12.9-4.3,26.6-6.7,40.1-6.9c-4.7,23-5.1,47.1-1.2,70.2
			c0.8,4.1,1.4,9-1.3,12.3c-0.2,0.1-0.2,0.1-0.3,0.3l-0.2,5.2c1.4-0.6,2.6-0.8,3.7-1c2-0.1,2,0.4,3.6,1.3c2.2,1.4,4.8,3.2,6.9,4.9
			c1,0.9,1.3,2.2,2.7,3c1.6,1,3,0.5,5,0.9c2.6,0.4,5.2,0.9,7.1,2.7c3.3,2.7,3.8,7.2,1.8,10.7c1.6-3.4,1-7.5-2.1-10.1
			c-1.9-1.7-4.7-2.3-7.1-2.7c-1.8-0.2-3.2,0.2-5-0.9c-1.3-0.8-1.5-2-2.7-3c-2.1-1.7-4.8-3.5-6.9-4.9c-1.6-1-1.5-1.4-3.6-1.3
			c-1.1,0.1-2.4,0.4-3.7,1l0.2-5.2l0-0.3l-92.5-2.8l-1.8,58l89.2,2.7l0.5,0c1,3.8,1.6,7.9,1.3,11.9c1.1,0,2.1,0.2,3.2,0.2
			c1.8,0.2,2.5,2,1.9,3.3c0.2-1.2-0.5-2.6-2.1-2.7c-1.1,0-2.1-0.1-3.2-0.2c-5-0.3-10-0.8-15.2-0.9c-1.4,0.1-2.6,0.2-3.7,0.5
			c-2-0.1-3.8-0.3-5.8-0.3c-0.3,0-0.6,0-0.8,0.1c-3-0.4-7.1-1-8.9,1.4c-0.9,1.2-0.6,3.5-0.6,4.9c-0.1,3.5-0.1,7.1,0,10.5
			c-0.9,2.3-1.5,4.8-1.6,7.4c-0.1,7.3,3.2,15,0.3,21.8c-5.4,11.9-25,10.2-31.3,21.6c-3.1,5.5-4,14.8-10.3,14.8
			c-1.8-0.1-3.5-1-5.1-1.8C-2,1048.6-69.6,951.6-88.6,845.2c-5.9-32.9-7.3-66.5-8.2-99.9c-2.8-99.7-1.1-199.4,5.3-298.8
			c14.4,16.6,35.1,26.7,56.1,33.5c78.6,25.4,169.9,7.1,232.8-46.5c3.9-3.4,8.3-7.1,13.5-7.1c3.8,0,7.4,2.1,10.7,4
			c45.6,27,95.1,49.5,147.7,56.6c52.6,7.1,109-2.5,151.2-34.5C523.1,554.8,521.3,657.1,514.9,759.1z M331.1,1006.4l0,0.3l-0.2,0
			C331.1,1006.6,331.1,1006.6,331.1,1006.4z M332,962.9l0.5,0l0,0.5C332.3,963.2,332.1,963.1,332,962.9z M431.6,851.4
			c1.1,3.7,0,8.4-3.2,10.4c-4.8,2.9-11.5-1.7-12.3-7.4c-0.7-5.7,2.8-11,6.8-14.9c1.1,0.3,1.9,1.1,2.5,2.2l-0.1-0.2
			C427.9,844.6,430.5,847.7,431.6,851.4z M456.8,845.3c-0.3,1.1-1,2.3-2.2,2.4c-0.9,0.1-1.7-0.7-2.2-1.3c-3.1-3.1-6.2-6.3-9.2-9.3
			c-1.9-1.9-3.8-3.9-4.5-6.5c-1.2-5.5,5.2-10.7,10.8-9.7c5.6,0.9,9.7,6.1,11.5,11.5l-3.1,1.9C458.6,837.9,458.1,841.9,456.8,845.3z
			 M446.4,710.8c-0.6,3.8-4.5,6.1-8,7.5c-4,1.7-8.2,3.1-12.5,4.3c-2.8,0.8-6.1,1.2-8.2-0.9c-1.3-1.4-1.6-3.7-1.5-5.7
			c-0.2-4.6-0.2-9.4,1.8-13.5c2-4.1,6.6-7.3,11-5.9c5.3,1.5,6.8,8.1,7.5,13.5l2.9-3.6C441.5,703.4,447.2,707,446.4,710.8z
			 M447.6,726.2l5.3-4.7c-0.4,8.4-0.8,16.7-1.1,25.1c0,1.1-0.1,2.3-0.7,3.3c-1.3,2.5-5.1,2.7-7.8,1.9c-6.8-2-12.2-8.9-11.2-16
			C432.9,728.8,441.2,723.3,447.6,726.2z M467.6,717.6c-1.2,3.8-7.2,6.3-8.8,2.8c-0.7-1.2-0.4-2.9,0.1-4.6
			c2.2-7.7,4.6-15.4,6.8-23.1l2.1-0.5c2.5-2.1,5.9,1.9,5.3,5c-0.7,3.2-3.2,5.5-4.4,8.5C467.5,709.5,468.6,713.8,467.6,717.6z
			 M406.5,552l-1.9-1.3C405.3,551,406,551.5,406.5,552l0.5,0.3c-0.1-0.2-0.2-0.3-0.5-0.4l-1.9-1.3c0.8,0.3,1.3,0.8,1.9,1.3l0.7,0.5
			l-0.1,0.1l0.1,0.1l-0.2,0.1c3.2,3.8,3.2,10.9,7.2,14.5c1.6,1.4,3.7,2.2,5.4,3.7c4.3,3.8,3.3,11.8-1.5,15
			c-4.8,3.2-11.9,1.9-15.9-2.3c-4-4.2-5.2-10.8-3.9-16.4c1.2-5.6,4.7-10.5,8.8-14.5C406.9,552.3,406.6,552.1,406.5,552z M69.4,551.8
			c-0.8,2.6-3.5,4.6-6.1,3.9c-3-0.9-3.8-5-3-8c1.2-4.7,4.5-8.7,9-10.7l-0.1,6.9C69.8,546.5,70.3,549.2,69.4,551.8z M187.3,738.7
			c-0.1,7.6-9.5,7.2-14.3,4.9c-5.6-2.6-10-7.9-11.3-14.1c8.6-1.9,17.9,1.8,22.9,9.1L187.3,738.7z M158.1,732.5
			c-1.5,3.9-6,6.2-10.1,6.2c-4.3,0-8.3-1.6-12.2-3.3c-2.3-1-4.8-2.7-4-5c0.3-0.9,1.1-1.5,1.9-1.9c4.2-2.8,9.1-4.3,14.2-4.6l4.3-0.3
			C156.4,723.3,159.6,728.6,158.1,732.5z M115.4,673.2l0.8-5.9c3.2-1.3,7,0.5,8.9,3.3c2,2.8,2.5,6.3,3.1,9.7
			c1.2,9.2,1.9,18.3,1.9,27.6c-0.1,2-0.1,4.3-1.7,5.4c-1.7,1.3-4.1,0.9-6.1,0.3c-3.6-0.9-7.4-1.9-10.2-4.3c-3-2.2-5-6.1-4-9.7
			c0.7-2.3,2.4-4.2,3.8-6.1C116,687.8,117.3,680.1,115.4,673.2z M74.1,664.6c-2.4,3.1-1.1,7.6,1,10.8c2.2,3.3,5.1,6.1,6.3,9.8
			c1.1,3.7-0.7,8.8-4.7,9c-3.8,0.2-6.1-4-7.4-7.7c-2.5-6.8-5.1-13.7-7.4-20.5c-1-2.6-2-5.5-4-7.4c-4.9-4.7-14.3-4.2-17-10.4
			c-2-4.6,1.5-10.2,6.1-11.8c4.6-1.7,9.9-0.3,14.4,2c4.5,2.1,8.7,5.3,11.3,9.6c2.5,4.3,2.9,10.1,0.2,14.3L74.1,664.6z M102.7,750
			l1.8,0.4c-1.5,4.2-0.4,8.7-0.1,13.1c0.2,4.4-0.7,9.6-4.8,11.6c-2,1-4.3,1.1-6.6,1c-7-0.1-14-0.7-20.8-1.9
			C80.5,764.3,91,755.9,102.7,750z M89.9,638.9c6,8.3,8.1,19.3,5.4,29.1l-0.5-3.7c-5.1-1.4-9.3-5.9-10.3-11.1
			C83.6,648,85.7,642.3,89.9,638.9z M106.9,683.4c-2.1,4.5-8.7,6.4-12.4,3.1c-3.7-3.3-1.6-10.9,3.2-11.3l5-4.7
			C106.9,673.2,109,678.9,106.9,683.4z M10.9,690c-2.5,1.4-4.6-2.6-2.2-4c5.6-3.3,11.6-5.6,17.9-6.9c2-0.4,3.5,1.6,2.5,3.4
			c-2.3,3.9-5.5,6.4-9.7,7.9c-2.3,0.8-3.4-2.1-2.2-3.6C15,687.7,12.9,688.8,10.9,690z M11.3,704.1c2.1-2.5,6.2-3.6,8.7-1.4l6.7-4.8
			c2,0.1,3.8,1.6,4.2,3.6c-3.4,0.4-5.7,3.5-7.1,6.5c-1.3,3-2.3,6.5-4.7,8.8c-2.4,2.4-6.9,3.1-8.8,0.3c-0.7-1.1-1-2.3-1.1-3.7
			C9,710.2,9.3,706.7,11.3,704.1z M31.8,636.2c-3.2-1.5-6.3-1.6-9.7-0.4c-0.5,0.1-0.9,0.1-1.4,0c-0.1,2.4-3.9,3.1-4.4,0.5
			c-0.8-3.8,1.7-7.3,5.6-8.4c4.5-1.2,8.6,1.5,11.9,4.2C35.6,633.4,34.4,637.2,31.8,636.2z M2.9,576.7l0.5-1.7
			c1.4,3.9,7.2,2.5,11,4.3c5.3,2.4,4.5,10.8,0,14.3c-4.4,3.7-10.6,3.8-16.4,3.9c-2.9,0.1-6.8-0.8-7-3.7c-0.2-3.1,3.6-4.2,6.3-5.6
			C1.4,586.1,3.7,581.1,2.9,576.7z M-26.6,605.5c-1.5-4.3-3.1-8.8-4.6-13.1c-1.3-3.7-2.7-7.7-1.6-11.6c1-3.9,5.7-6.8,9-4.9l-3.4,5.2
			C-22.8,588.4-22.6,598-26.6,605.5z M-14.6,691.2c-1.9-2.3-4.4-4.1-5.9-6.6c-1.6-2.5-1.6-6.3,0.9-8l1.4-0.4
			c5.9,1.5,10.6,6.4,12.1,12.4c1.5,5.8-0.5,12.5-5.1,16.6C-10.2,700.3-11.4,694.9-14.6,691.2z M-45.6,693.7
			c-3.3-5.9-5.8-13.3-2.5-19.1l0.7-1.5c5.2,4.6,10.7,9.5,12.3,16.2c0.5,2.3,0.6,4.7,1.3,7c1.5,4.8,5.8,8.1,10,11
			c4.2,2.9,8.5,6.2,10.2,11c1.7,4.8-1.3,11.2-6.3,11.4c-2.3-5.4-4.7-10.8-7-16.1c-0.4-1.1-1-2.3-2.2-2.8c-2.7-1.1-4.7,2.8-4.9,5.6
			c-0.2,2.9-1.1,7-4,6.7c-2.2-2.8-0.7-7-0.4-10.7C-38.2,705.7-42.3,699.6-45.6,693.7z M179,855.5c-6.7,1-13.6,0.8-20.2-0.5
			c-2.6-0.5-5.9-2.8-4.4-5c0.5-0.6,1.1-1,1.9-1.3c6.9-3.1,15-3.4,22.1-0.5L179,855.5z M107.8,877.5c-12.2-3.3-27.4-5.9-36,3.5
			c-1.1,1.2-2.2,2.5-3.7,2.6c-3.8,0-2.7-6-4.3-9.4c-2.9-6-12.7-1.8-18.6-5.1c-5.4-3.2-4.1-12,0.8-15.8c4.8-3.8,11.7-4.1,17.8-4
			c6.1,0,12.3,0.4,17.9,2.5c4.2,1.7,8.1,4.5,10.3,8.2C98.8,864.4,104.4,870.4,107.8,877.5z M20.6,839.2c-1.5,3.8-6.4,6.5-9.7,4.1
			c-2.7-1.9-2.7-6.3-0.8-9c1.9-2.8,5-4.4,8.1-5.8l1.9-1C21.2,831.3,22.1,835.4,20.6,839.2z M31.5,801.3c3.9,3,4.5,8.5,4.3,13.4
			c-0.1,4.9-0.8,9.7-2,14.6c-7.3-5.4-12.1-14.2-12.7-23.4l-0.3-0.2C20.3,800.8,27.7,798.3,31.5,801.3z M20.3,855.8l0.4,1.7
			c-0.3-5.9,6.7-10.8,12.3-8.6c0.6,0.2,1.1,0.5,1.5,1c0.7,1.1,0.2,2.6-0.4,3.8c-1.6,3.3-3.7,7-7.4,8.2
			C23,862.9,18.4,859.1,20.3,855.8z M3.6,829.7c-1.9,2.4-5,3-7.9,3.7c-1.6-3.4,0.8-7.9,4.4-8.7l1.6-2.1
			C4.5,822.9,5.3,827.3,3.6,829.7z M-20.9,811.6c-1.6,1-3.4,1.6-5,2.6c-2.5,1.8-3.9,4.6-6.1,6.7c-2.2,2.1-6.3,3-8.1,0.5l-3.1-3.7
			c-3.1-2.2-0.1-7.3,3.6-8.6c3.7-1.3,8.3-1.3,10.5-4.4c1-1.2,1.3-2.9,2.3-3.9c2.2-2.7,7.2-1.8,8.8,1.5
			C-16.4,805.5-18.1,809.6-20.9,811.6z M168.9,996.9c1.3,0,2.5,1.1,2.2,2.7c-0.1,0-0.1,0-0.2,0C171.2,998.1,170.1,997,168.9,996.9z
			 M93.1,1001.3c-0.1-0.1-0.1-0.3-0.2-0.4c0.1,0.1,0.3,0.2,0.4,0.4c0.4,0.8,0.2,1.8-0.2,2.6l-0.2,0
			C93.5,1003.2,93.5,1002.1,93.1,1001.3z M93,963.6c0.3-0.9,0.7-2,1-2.9c0,0,0.1,0,0.1,0c-0.3,0.9-0.7,1.9-1,2.8
			c1,1.9-0.7,3.5-2.3,3.4C92.4,966.9,94,965.4,93,963.6z M109.2,958c0.1,0,0.1,0,0.2,0c0.4,1.4-0.6,3.2-2.2,3.1c0,0-0.1,0-0.2,0
			C108.6,961.1,109.6,959.3,109.2,958z M123.6,980.5c-0.2,6.1-5.2,10.8-11.3,10.6c-6.1-0.2-10.8-5.2-10.6-11.3
			c0.2-6.1,5.2-10.8,11.3-10.6C119,969.4,123.8,974.4,123.6,980.5z M160.3,968.6c0.3,0,0.6-0.1,1-0.1c0.4-0.2,0.8-0.2,1.2-0.2
			c-0.3,0-0.6,0.1-0.9,0.2C161.1,968.5,160.8,968.7,160.3,968.6C160.3,968.6,160.3,968.6,160.3,968.6z M164.7,969.9
			C164.7,969.8,164.7,969.8,164.7,969.9c0.2,0,0.5,0,0.7-0.1C165.2,969.8,164.9,969.8,164.7,969.9z M149.9,962.9c0.2,0,0.3,0,0.5,0
			c0,0,0,0,0,0C150.3,962.9,150.1,962.9,149.9,962.9z M143.5,960.8c1.1,0,2.1,0,3.2,0l0,0C145.6,960.8,144.6,960.8,143.5,960.8z
			 M97.5,960.8c0.1,0,0.1,0,0.2,0c0,0,0.1,0,0.2,0C97.7,960.8,97.6,960.8,97.5,960.8z M88.4,1000.6c-0.1,0-0.1,0-0.2,0l1-34.4
			c0,0.1,0.1,0.1,0.1,0.1L88.4,1000.6z M117.4,999.9C117.4,999.9,117.4,999.9,117.4,999.9c-6.5-0.5-12.8-0.9-19.3,0
			C104.6,998.9,111,999.3,117.4,999.9z M172.5,979.7c-1.7-0.8-3.4-1.8-4.9-2.7c0,0,0.1,0,0.1,0c1.6,0.9,3.1,1.8,4.7,2.6l0.2-5.3
			c0.2,0,0.1,0.2,0.3,0.2l-0.2,5.3L172.5,979.7z M173,961c-1.9,1.3-3.4,2.9-3.9,4.6c-0.5,1.5-0.4,2.9-0.1,4.1c-0.2,0-0.5,0-0.8,0
			c0.2,0,0.3,0,0.5,0c-0.3-1.2-0.2-2.6,0.1-4.1c0.5-1.7,2.1-3.3,3.9-4.6l0.1-3.5l0.5,0l-0.1,3.5L173,961z"/>
		<path class="st3" d="M331.1,1006.4c0,0.2,0,0.2-0.2,0.3l0.2,0L331.1,1006.4z"/>
		<path class="st3" d="M332.5,962.9l-0.5,0c0.1,0.2,0.3,0.3,0.4,0.5L332.5,962.9z"/>
		<path class="st3" d="M278.7,707.1l0.1,0.2c0.2-0.1,0.2-0.3,0.3-0.4l-0.1-0.2C278.9,706.8,278.7,706.9,278.7,707.1z"/>
		<path class="st3" d="M143.9,1028c0.2-0.2,0.3-0.4,0.6-0.7c-0.6,0.3-0.8,0.5-0.9,0.7c0,0.1,0,0.2,0,0.3
			C143.7,1028.2,143.8,1028.1,143.9,1028z"/>
		<path class="st3" d="M246.4,687.5l6.3,3.7c3.4,4,7.3,7.1,11.9,9.5c0.3,1.5,1.9,2,3.2,1.5c0.5,0.2,0.8,0.3,1.2,0.5
			c0.1,0.5,0.4,1.1,1,1.4c2,1,3.9,2.1,5.8,3.1c1.1,0.5,2,0.2,2.6-0.4c0.2-0.1,0.3-0.3,0.3-0.4c0.9-0.7,1-2.1-0.4-2.9
			c-0.5-0.2-0.9-0.5-1.3-0.7c0.5,0.3,1,0.5,1.5,0.7c1.3,0.8,1.3,2.2,0.7,3.1l0.1,0.2c2.6-3.7,6.6-6.8,11.2-7.4
			c2.9-0.5,7.2-1.5,6.7-4.5c-0.1-1.1-1-1.9-1.7-2.6c-3.1-3.1-7.7-6.5-11.6-4.3c-2.2,1.2-3.5,3.9-5.9,4.2c-4.1,0.8-5.6-6.4-2.2-9.1
			c3.4-2.6,8.1-1.9,12.4-1.5c4.3,0.4,9.3,0,11.5-3.6c1.4-2.5,0.9-5.8,0.3-8.7c-1.8-6.9-4.6-13.8-10.1-18.4s-14.1-5.9-19.8-1.4
			c-5.8,4.7-7.1,14.4-14.4,16.5c-4.2,1.2-10.2-0.2-11.8,3.9c-1,2.6,0.9,5.4,1.7,8C246.8,680.8,246.5,684.2,246.4,687.5z M252.5,691
			c-0.3-0.3-0.6-0.7-0.8-1C251.9,690.4,252.2,690.7,252.5,691z M271.9,677c-6.1,1.5-0.3,11,1.1,13.9c1.6,3.4,2.4,6.8,1.2,10.2
			c0.5,0.2,0.9,0.5,1.3,0.7c-0.5-0.3-1-0.5-1.5-0.7c1.2-3.5,0.4-6.8-1.2-10.2c-1.3-2.9-7.1-12.2-1.1-13.9c2.7-0.6,2-4.4-0.4-4.5
			C273.8,672.4,274.6,676.4,271.9,677z M269.1,697.8c0.2,0.1,0.4,0.2,0.6,0.3c0,0,0,0,0,0.1c-0.3-0.2-0.5-0.2-0.8-0.3
			c-1-6.8-6.7-11.8-13.4-12.1C262.3,686,268.1,691,269.1,697.8z"/>
		<path class="st3" d="M146,598.3l124.5,3.8l3.8-124.3L149.8,474L146,598.3z M155.7,480.2l112.3,3.4l-3.4,112.3l-112.3-3.4
			L155.7,480.2z"/>
		<path class="st3" d="M170.7,492.1c-0.5,0.1-0.6,0.4-0.9,0.7c-1.1,0.1-2.2,0.7-2.2,2.1c-0.4,12.6-0.8,25.4-1.2,38
			c-0.1,2.9,4.5,3,4.6,0.1c0.2-5.2,0.3-10.3,0.5-15.7c0.4,0.3,0.9,0.3,1.5,0.4c8.3-1.3,20.2-4.7,20.7-14.9
			C194.2,490.4,179.7,487.8,170.7,492.1z M187.9,506.5c-3.2,4.8-10.5,6.1-15.9,6.8c-0.2,0-0.2,0-0.3,0.1c0.2-5.8,0.3-11.4,0.5-17.2
			c0.2,0,0.5-0.1,0.6-0.1c3.9-1.9,8.8-2.8,12.6-0.1C189,498.3,190.3,502.9,187.9,506.5z"/>
		<path class="st3" d="M212.9,561.3c-4.2-2.6-10.3-2.6-11.8-8.3c-3.1-12.3,17.4-12.4,14.6,0.4c-0.5,2.9,3.7,4.2,4.4,1.4
			c2.7-12.6-15.1-23.5-22.1-10.4c-2.4,4.6-2.2,11.1,1.2,15c2.9,3.4,7.5,3.4,11.3,5.7c3.7,2.4,6.5,7.5,4.8,12
			c-2.7,7.7-13.2,6.9-14.4-1.2c-0.4-2.9-4.8-1.8-4.4,1.1c2.2,13.9,21.2,12.7,23.8-0.5C221.3,570.6,218,564.4,212.9,561.3z"/>
		<path class="st3" d="M407.1,552.4L407.1,552.4l-0.6-0.6c0.2,0.1,0.3,0.3,0.5,0.4C407,552.3,407,552.4,407.1,552.4L407.1,552.4z"/>
		<path class="st3" d="M406.5,551.8c-0.6-0.5-1.2-1-1.9-1.3L406.5,551.8z"/>
		<line class="st4" x1="85.3" y1="950.2" x2="85.3" y2="950.1"/>
		<path class="st5" d="M258,512.3c-0.6-0.5-1.2-0.8-2-1s-1.7-0.2-2.4-0.2c0,0,0,0,0,0l-19.4-0.6c-1.3,0-2.3,0.9-2.3,2.2l0,0.3
			c0,1.3,0.9,2.3,2.2,2.3l20.2,0.6c0,0.1,0,0.1,0,0.2c0.1,0.5,0.3,1.1,0.6,1.8c0.5,2.9-1.2,4.5-3.2,6.3c-8,7.1-20.3,7.1-28-0.4
			c-8.3-8.2-8.8-21.4,0.7-28.9c8.7-6.9,20.7-3.6,27,4.8c1.8,2.3,5-0.8,3.3-3.1c-8.2-10.9-24.6-13.7-34.8-3.8
			c-11,10.6-8.6,27.9,3.1,36.8c10.4,7.9,26.5,5.5,34.6-4.9C260,521,262.6,515.6,258,512.3z"/>
	</g>
	<g>
		<path class="st3" d="M849.9,477h38.5c20.8,0,35.8,1.9,45,5.8c9.2,3.8,16.5,10.1,21.8,18.7c5.3,8.6,8,18.9,8,30.9
			c0,13.3-3.5,24.4-10.4,33.2c-7,8.8-16.4,14.9-28.3,18.4c-7,2-19.7,3-38.2,3v80.7h-36.3V477z M886.2,551.6h11.5
			c9.1,0,15.4-0.7,18.9-2c3.5-1.3,6.3-3.4,8.4-6.4c2-3,3-6.6,3-10.9c0-7.4-2.9-12.7-8.6-16.1c-4.1-2.5-11.8-3.8-23.1-3.8h-10.2
			V551.6z"/>
		<path class="st3" d="M1098.9,526.7h35.4v141h-35.4v-14.9c-6.9,6.6-13.8,11.3-20.8,14.2c-6.9,2.9-14.5,4.3-22.6,4.3
			c-18.2,0-34-7.1-47.2-21.2c-13.3-14.1-19.9-31.7-19.9-52.7c0-21.8,6.4-39.6,19.3-53.5c12.9-13.9,28.5-20.9,46.9-20.9
			c8.5,0,16.4,1.6,23.8,4.8c7.4,3.2,14.3,8,20.6,14.4V526.7z M1061.7,555.7c-10.9,0-20,3.9-27.3,11.6c-7.2,7.7-10.8,17.6-10.8,29.7
			c0,12.2,3.7,22.2,11,30.1c7.4,7.9,16.4,11.8,27.2,11.8c11.1,0,20.3-3.9,27.6-11.6c7.3-7.7,11-17.9,11-30.4
			c0-12.3-3.7-22.2-11-29.8C1082.1,559.5,1072.9,555.7,1061.7,555.7z"/>
		<path class="st3" d="M1170,526.7h35.4v14.4c8-6.8,15.3-11.5,21.8-14.1c6.5-2.6,13.2-4,20-4c14,0,25.8,4.9,35.6,14.6
			c8.2,8.3,12.3,20.6,12.3,36.8v93.2h-35v-61.7c0-16.8-0.8-28-2.3-33.5c-1.5-5.5-4.1-9.7-7.9-12.6c-3.8-2.9-8.4-4.3-13.9-4.3
			c-7.2,0-13.3,2.4-18.4,7.2c-5.1,4.8-8.7,11.4-10.7,19.9c-1,4.4-1.6,13.9-1.6,28.6v56.6H1170V526.7z"/>
		<path class="st3" d="M1433.5,526.7h35.3v120.8c0,23.8-4.8,41.4-14.4,52.6c-12.9,15.2-32.3,22.8-58.2,22.8
			c-13.8,0-25.4-1.7-34.9-5.2c-9.4-3.5-17.4-8.5-23.8-15.2c-6.5-6.7-11.3-14.8-14.4-24.4h39c3.5,4,7.9,7,13.3,9s11.9,3,19.3,3
			c9.5,0,17.2-1.5,22.9-4.4c5.8-2.9,9.9-6.7,12.2-11.4c2.4-4.7,3.6-12.7,3.6-24.1c-6.2,6.2-12.7,10.7-19.6,13.4
			c-6.8,2.7-14.6,4.1-23.2,4.1c-18.9,0-34.9-6.8-48-20.5c-13-13.7-19.6-30.9-19.6-51.8c0-22.4,6.9-40.3,20.7-53.9
			c12.5-12.3,27.5-18.4,44.8-18.4c8.1,0,15.8,1.5,23,4.5c7.2,3,14.4,7.9,21.7,14.7V526.7z M1396.8,556.1c-11.1,0-20.3,3.7-27.6,11.2
			c-7.3,7.5-10.9,16.9-10.9,28.2c0,11.8,3.7,21.4,11.1,28.9c7.4,7.5,16.8,11.3,28,11.3c11,0,20-3.7,27.1-11
			c7.1-7.3,10.7-17,10.7-28.9c0-11.7-3.6-21.3-10.8-28.6C1417.4,559.8,1408.1,556.1,1396.8,556.1z"/>
		<path class="st3" d="M1608.6,526.7h35.4v141h-35.4v-14.9c-6.9,6.6-13.8,11.3-20.8,14.2c-6.9,2.9-14.5,4.3-22.6,4.3
			c-18.2,0-34-7.1-47.2-21.2c-13.3-14.1-19.9-31.7-19.9-52.7c0-21.8,6.4-39.6,19.3-53.5c12.9-13.9,28.5-20.9,46.9-20.9
			c8.5,0,16.4,1.6,23.8,4.8c7.4,3.2,14.3,8,20.6,14.4V526.7z M1571.4,555.7c-10.9,0-20,3.9-27.3,11.6c-7.2,7.7-10.8,17.6-10.8,29.7
			c0,12.2,3.7,22.2,11,30.1c7.4,7.9,16.4,11.8,27.2,11.8c11.1,0,20.3-3.9,27.6-11.6c7.3-7.7,11-17.9,11-30.4
			c0-12.3-3.7-22.2-11-29.8C1591.8,559.5,1582.6,555.7,1571.4,555.7z"/>
		<path class="st3" d="M1679.7,526.7h35.4v14.4c8-6.8,15.3-11.5,21.8-14.1c6.5-2.6,13.2-4,20-4c14,0,25.8,4.9,35.6,14.6
			c8.2,8.3,12.3,20.6,12.3,36.8v93.2h-35v-61.7c0-16.8-0.8-28-2.3-33.5c-1.5-5.5-4.1-9.7-7.9-12.6c-3.8-2.9-8.4-4.3-13.9-4.3
			c-7.2,0-13.3,2.4-18.4,7.2c-5.1,4.8-8.7,11.4-10.7,19.9c-1,4.4-1.6,13.9-1.6,28.6v56.6h-35.4V526.7z"/>
		<path class="st3" d="M1852.8,468.6c6.2,0,11.5,2.2,16,6.7c4.4,4.5,6.7,9.9,6.7,16.3c0,6.3-2.2,11.7-6.6,16.1
			c-4.4,4.4-9.6,6.7-15.8,6.7c-6.3,0-11.7-2.3-16.1-6.8c-4.4-4.5-6.7-10-6.7-16.5c0-6.2,2.2-11.5,6.6-15.9
			C1841.3,470.8,1846.6,468.6,1852.8,468.6z M1835.1,526.7h35.4v141h-35.4V526.7z"/>
		<path class="st3" d="M2156.8,508.2l-25.6,25.3c-16.2-17.1-35-25.7-56.6-25.7c-18.8,0-34.5,6.2-47.2,18.7
			c-12.7,12.4-19,27.6-19,45.4c0,18.4,6.6,34,19.7,46.8c13.1,12.8,29.4,19.2,48.7,19.2c12.5,0,23.1-2.6,31.7-7.9
			c8.6-5.3,15.5-13.5,20.8-24.8h-55.2V571h95.9l0.3,8c0,16.7-4.3,32.5-13,47.4c-8.6,14.9-19.8,26.4-33.6,34.2s-29.9,11.8-48.3,11.8
			c-19.8,0-37.4-4.3-52.9-12.9c-15.5-8.6-27.8-20.8-36.8-36.7c-9-15.9-13.5-33-13.5-51.5c0-25.2,8.3-47.2,25-65.8
			c19.8-22.2,45.5-33.3,77.2-33.3c16.6,0,32.1,3.1,46.5,9.2C2133.2,486.6,2145.1,495.5,2156.8,508.2z"/>
		<path class="st3" d="M2213.6,468.6c6.2,0,11.5,2.2,16,6.7c4.4,4.5,6.7,9.9,6.7,16.3c0,6.3-2.2,11.7-6.6,16.1
			c-4.4,4.4-9.6,6.7-15.8,6.7c-6.3,0-11.7-2.3-16.1-6.8c-4.4-4.5-6.7-10-6.7-16.5c0-6.2,2.2-11.5,6.6-15.9
			C2202.1,470.8,2207.4,468.6,2213.6,468.6z M2195.9,526.7h35.4v141h-35.4V526.7z"/>
		<path class="st3" d="M2255.1,526.7h30.3v17.8c3.3-7,7.6-12.3,13.1-15.9c5.4-3.6,11.4-5.4,17.9-5.4c4.6,0,9.4,1.2,14.4,3.6
			l-11,30.5c-4.1-2.1-7.6-3.1-10.2-3.1c-5.4,0-10,3.4-13.8,10.1c-3.8,6.7-5.6,20-5.6,39.7l0.1,6.9v57h-35.1V526.7z"/>
		<path class="st3" d="M2344.4,472.3h35.4v195.4h-35.4V472.3z"/>
		<path class="st3" d="M2498.3,546.4l-21.9,21.9c-8.9-8.8-17-13.2-24.2-13.2c-4,0-7.1,0.8-9.3,2.5c-2.2,1.7-3.4,3.8-3.4,6.3
			c0,1.9,0.7,3.7,2.1,5.2c1.4,1.6,4.9,3.8,10.6,6.5l13,6.5c13.7,6.7,23,13.6,28.1,20.6c5.1,7,7.6,15.2,7.6,24.6
			c0,12.5-4.6,23-13.8,31.4c-9.2,8.4-21.5,12.6-37,12.6c-20.6,0-37-8-49.2-24.1l21.8-23.7c4.1,4.8,9,8.7,14.6,11.7
			c5.6,3,10.5,4.5,14.8,4.5c4.7,0,8.4-1.1,11.3-3.4c2.9-2.2,4.3-4.8,4.3-7.8c0-5.4-5.1-10.8-15.4-15.9l-11.9-6
			c-22.8-11.5-34.2-25.9-34.2-43.2c0-11.1,4.3-20.7,12.9-28.6c8.6-7.9,19.6-11.9,33-11.9c9.2,0,17.8,2,25.9,6
			C2485.8,533.1,2492.6,538.9,2498.3,546.4z"/>
	</g>
	<g>
		<path class="st3" d="M1136.5,914.1h-38.3v43.8h32.7v19.2h-32.7v65.5H1076V894.5h60.5V914.1z"/>
		<path class="st3" d="M1210.9,1030.8c0,7.9-4,11.8-12,11.8h-38.8c-8.1,0-12.2-3.9-12.2-11.8v-71.9c0-7.9,4.1-11.8,12.2-11.8h38.8
			c8,0,12,3.9,12,11.8V1030.8z M1189.7,1024.7v-59.5h-20.5v59.5H1189.7z"/>
		<path class="st3" d="M1290.1,1042.6h-21.6v-3.3c-5,0.8-10,1.6-15,2.5c-6.1,0.9-11.2,1.4-15.1,1.4c-7.9,0-11.8-3.9-11.8-11.8v-84.3
			h21.5v77.6l20.5-0.5v-77.1h21.6V1042.6z"/>
		<path class="st3" d="M1369.6,1042.6h-21.8v-77.5l-20.3,0.4v77.1h-21.7v-95.6h21.7v3.5c5-0.8,10.1-1.6,15-2.4
			c6.2-1,11.3-1.5,15.2-1.5c7.9,0,11.8,3.9,11.8,11.6V1042.6z"/>
		<path class="st3" d="M1448.5,1042.6H1427v-3.3c-14.6,2.6-22.8,3.9-24.6,3.9c-5.4,0-9.7-1.6-12.8-4.8c-3.1-3.2-4.6-7.5-4.6-13
			v-59.1c0-7.8,2.8-13.2,8.3-16.2c4-2.3,10.2-3.4,18.4-3.4c1.8,0,4.5,0.1,7.9,0.2c3.5,0.1,5.9,0.2,7.4,0.2v-52.5h21.6V1042.6z
			 M1427,1024v-58.9h-13.3c-4.8,0-7.2,2.4-7.2,7.2v45.7c0,4.7,2.3,7,6.8,7C1414.3,1025,1418.9,1024.7,1427,1024z"/>
		<path class="st3" d="M1526,1030.8c0,7.9-4.1,11.8-12.2,11.8h-37.4c-8.1,0-12.2-3.9-12.2-11.8v-71.9c0-7.9,4.1-11.8,12.2-11.8h37.4
			c8.1,0,12.2,3.9,12.2,11.8V994l-6,6H1485v26.8h20.3v-15.9h20.7V1030.8z M1505.3,985.9V963H1485v22.9H1505.3z"/>
		<path class="st3" d="M1605.1,1042.6h-21.6v-3.3c-14.6,2.6-22.8,3.9-24.6,3.9c-5.4,0-9.7-1.6-12.8-4.8c-3.1-3.2-4.6-7.5-4.6-13
			v-59.1c0-7.8,2.8-13.2,8.3-16.2c4-2.3,10.2-3.4,18.4-3.4c1.8,0,4.5,0.1,7.9,0.2c3.5,0.1,5.9,0.2,7.4,0.2v-52.5h21.6V1042.6z
			 M1583.6,1024v-58.9h-13.3c-4.8,0-7.2,2.4-7.2,7.2v45.7c0,4.7,2.3,7,6.8,7C1570.9,1025,1575.5,1024.7,1583.6,1024z"/>
		<path class="st3" d="M1723.8,1030.8c0,7.9-4,11.8-12,11.8H1673c-8.1,0-12.2-3.9-12.2-11.8v-71.9c0-7.9,4.1-11.8,12.2-11.8h38.8
			c8,0,12,3.9,12,11.8V1030.8z M1702.6,1024.7v-59.5h-20.5v59.5H1702.6z"/>
		<path class="st3" d="M1803.2,1042.6h-21.8v-77.5l-20.3,0.4v77.1h-21.7v-95.6h21.7v3.5c5-0.8,10.1-1.6,15-2.4
			c6.2-1,11.3-1.5,15.2-1.5c7.9,0,11.8,3.9,11.8,11.6V1042.6z"/>
		<path class="st3" d="M1924.1,914.1h-24.4v128.5h-22V914.1h-24.4v-19.6h70.9V914.1z"/>
		<path class="st3" d="M1994.5,987H1973v-21.9l-17.1,0.4v77.1h-21.7v-95.6h21.7v3.5c4.5-0.8,8.9-1.6,13.3-2.5
			c5.4-0.9,9.8-1.4,13.4-1.4c7.9,0,11.8,3.9,11.8,11.6V987z"/>
		<path class="st3" d="M2070.3,1042.6h-21.6v-3.3c-5,0.8-10,1.6-15,2.5c-6.1,0.9-11.2,1.4-15.1,1.4c-7.9,0-11.8-3.9-11.8-11.8v-84.3
			h21.5v77.6l20.5-0.5v-77.1h21.6V1042.6z"/>
		<path class="st3" d="M2127.3,1042.6h-24c-8,0-12-3.9-12-11.8v-65.3H2081v-18.5h10.2v-25.9h21.6v25.9h13.9v18.5h-13.9v58.7h14.5
			V1042.6z"/>
		<path class="st3" d="M2203.1,1042.6h-21.8v-77.5l-20.3,0.4v77.1h-21.7V894.5h21.7v56c5-0.8,10.1-1.5,15.1-2.4
			c6.4-1,11.4-1.5,15.1-1.5c7.9,0,11.8,3.9,11.8,11.6V1042.6z"/>
	</g>
</g>
</svg>
