<?xml version="1.0" encoding="utf-8"?>
<!-- Generator: Adobe Illustrator 21.0.0, SVG Export Plug-In . SVG Version: 6.00 Build 0)  -->
<svg version="1.1" id="Layer_1" xmlns="http://www.w3.org/2000/svg" xmlns:xlink="http://www.w3.org/1999/xlink" x="0px" y="0px"
	 viewBox="0 0 1920 1080" style="enable-background:new 0 0 1920 1080;" xml:space="preserve">
<style type="text/css">
	.st0{fill:#FDFDFF;}
	.st1{fill:none;}
	.st2{fill:#000066;}
	.st3{fill:#FFFFFF;}
	.st4{fill:none;stroke:#000066;stroke-width:0;stroke-linecap:round;stroke-linejoin:round;}
	.st5{fill:#FCFCFC;}
</style>
<g>
	<g>
		<path class="st0" d="M-3149.1-496.2c0.2-17.5,0.5-35.2,0.7-52.7c0.1-2.1-2.3-3-3.9-1.8c-37.2,30.4-83.7,48.6-131.5,52.8
			c-23.2,2-46.6,0.7-69.5-4.1c-24.7-5.2-48.6-14.7-71.6-24.7c-14.1-6.1-27.6-13.3-40.5-21.6c-8.7-5.9-17-12.2-26.3-17.4
			c-0.7-0.5-2.1-0.5-2.7,0.2c-29.2,33.1-68.6,55.9-111.7,65.6c-46.6,10.5-93,3-136.4-15.7c-27.2-11.8-52.8-26.9-78.4-42
			c-1-0.6-3.2-0.2-3.4,1.3c-0.5,2.9-0.2,5.8-0.1,8.7c-3,69.2-6,138.6-8.9,207.8c-2.5,61.3-3.9,122.8,2.5,183.8
			c6.1,59.1,20,118,47.6,171.1c26.5,50.9,65,94.7,109,131.4c21.5,18,44.5,34.4,68.1,49.4c25,15.8,51.1,33.4,81.1,37.6
			c32,4.6,64.4-3.8,94.6-14.2c14-4.9,27.9-10.1,41.5-15.8c7.2-3,14.4-6.3,21-10.2c6.7-3.9,12.3-9.1,18.8-13.1
			c22.7-14.2,44.6-28,64.8-45.9c20.2-17.8,38.3-37.8,54.2-59.6c32.7-44.7,55.3-96.2,65.5-150.6c12.7-68.2,12-139,12.9-208.3
			C-3150.7-354.7-3149.9-425.5-3149.1-496.2z M-3161.4-137.8c-4.7,59.9-17.6,117.5-46.9,170.2c-26.1,47.2-62.4,88.6-105.9,120.3
			c-10.9,7.9-22.2,15.2-33.9,21.8c-5.9,3.3-10.7,7.7-16.3,11.4c-6.5,4.2-13.5,7.8-20.6,10.9c-28.9,12.8-60,24.5-91.2,30.3
			c-17,3.1-34.7,4.3-51.8,1.2c-16.5-2.9-31.2-10.2-45.6-18.4c-24.2-14-47.9-29.2-70.3-45.9c-45.4-33.7-79.5-74.9-110.2-122.6
			c-32.1-49.7-58.1-105.3-67.4-163.6c-9.5-59.7-9.9-120.6-8.2-180.9c1.8-65.6,5.4-131,8.1-196.5c0.6-13.8,1.1-27.7,1.7-41.7
			c0.2-1.1,0.2-2.1,0.1-3.3c0.1-2.1,0.1-4.3,0.3-6.4c0-0.3,0-0.6-0.1-0.9c43.5,25.7,88.9,51.7,139.7,59.2
			c44.3,6.5,90.4-2.3,129.7-23.2c21.8-11.5,41.5-26.9,57.9-45.3c7.9,4.7,15.2,10.1,22.8,15.2c11.2,7.5,22.9,13.9,35,19.6
			c23.9,11.1,49.3,21.5,75.2,27.4c46.6,10.7,96.3,7.2,141-9.4c23.4-8.7,45.4-20.9,65.1-36.2c-0.8,67.1-1.7,134.4-2.5,201.6
			C-3156.3-274.4-3156-206-3161.4-137.8z"/>
		<path class="st0" d="M-3140.2-509.1c0.2-18,0.5-36.2,0.7-54.2c0.1-2.2-2.4-3-4-1.8c-38.2,31.3-86.1,50-135.3,54.3
			c-23.9,2.1-48,0.7-71.5-4.2c-25.4-5.3-50-15.1-73.6-25.4c-14.5-6.2-28.4-13.7-41.6-22.3c-8.9-6.1-17.5-12.6-27-17.9
			c-0.8-0.5-2.2-0.5-2.8,0.2c-30,34-70.5,57.5-114.8,67.5c-47.9,10.8-95.6,3-140.3-16.2c-28-12.1-54.3-27.7-80.6-43.2
			c-1.1-0.7-3.3-0.3-3.5,1.3c-0.6,3-0.2,5.9-0.1,8.9c-3.1,71.2-6.2,142.5-9.2,213.7c-2.5,63.1-4,126.3,2.6,189
			c6.3,60.8,20.6,121.4,49,176c27.2,52.4,66.9,97.4,112.1,135.2c22.2,18.5,45.8,35.4,70,50.8c25.7,16.3,52.5,34.3,83.4,38.7
			c32.9,4.8,66.2-3.9,97.3-14.6c14.4-5,28.7-10.4,42.6-16.2c7.5-3.1,14.8-6.4,21.6-10.5c6.9-4,12.7-9.3,19.4-13.5
			c23.3-14.6,45.8-28.8,66.6-47.2c20.8-18.3,39.4-38.9,55.8-61.3c33.7-46,56.9-99,67.4-154.9c13.1-70.1,12.3-143,13.3-214.2
			C-3141.8-363.5-3141-436.3-3140.2-509.1z M-3152.8-140.5c-4.8,61.6-18.1,120.9-48.2,175.1c-26.9,48.5-64.2,91.1-108.9,123.7
			c-11.2,8.1-22.9,15.6-34.8,22.4c-6.1,3.4-11.1,8-16.8,11.7c-6.7,4.3-13.9,8-21.2,11.3c-29.7,13.2-61.7,25.2-93.8,31.1
			c-17.5,3.2-35.7,4.4-53.3,1.2c-17-3-32.1-10.5-46.9-19c-24.9-14.4-49.2-30-72.3-47.2c-46.7-34.6-89.3-75.9-120.9-124.9
			c-33.1-51.1-52.1-109.5-61.7-169.5c-9.7-61.4-10.2-124.1-8.4-186c1.9-67.5,5.5-134.7,8.3-202.1c0.6-14.2,1.2-28.5,1.8-42.9
			c0.2-1.1,0.2-2.2,0.1-3.4c0.1-2.2,0.1-4.4,0.4-6.6c0-0.3,0-0.6-0.1-0.9c44.8,26.4,91.4,53.2,143.7,60.9
			c45.5,6.7,93-2.3,133.4-23.8c22.4-11.8,42.7-27.7,59.5-46.6c8.2,4.8,15.7,10.3,23.5,15.6c11.5,7.7,23.5,14.3,36,20.2
			c24.6,11.4,50.7,22.1,77.3,28.2c47.9,11,99.1,7.4,145-9.7c24.1-9,46.7-21.4,66.9-37.3c-0.8,69.1-1.7,138.3-2.5,207.3
			C-3147.6-281-3147.2-210.6-3152.8-140.5z"/>
		<path class="st1" d="M-3516,20.1c0.6,0.1,1.2,0.2,1.8,0.3c2.1,0.8,4.3,1.8,6.4,3c-2.1-1.2-4.3-2.2-6.4-3
			C-3514.7,20.3-3515.4,20.2-3516,20.1z"/>
		<path class="st1" d="M-3503.2,21c1.8,0.1,3.4-0.2,4.4-0.3C-3499.8,20.8-3501.4,20.9-3503.2,21z"/>
		<path class="st1" d="M-3485.3,105.2c2.9,0.1,6.4-0.4,7.3-3.1c0.7-2.3-0.9-4.6-3-5.6c-2.1-1-4.5-0.9-6.8-0.7l0.5,2.8
			c-1.3-3.5-6-4.4-9.4-2.9c-3.2,1.6-5.5,4.7-7.5,7.8C-3498.1,104.6-3491.7,105.1-3485.3,105.2z"/>
		<path class="st1" d="M-3467.4,41.8c-2.2-2.8-4.2-5.6-6.1-8.7c-1.2-1.9-3.8-1.1-4.3,0.5c0.9-1.1,2.9-1.5,4,0.1
			c1.9,3,3.9,5.9,6.1,8.7c0.5,0.8,0.6,1.7,0.3,2.5C-3466.8,44-3466.7,42.7-3467.4,41.8z"/>
		<path class="st1" d="M-3491.6,139c5.9,1.4,12.1-1.3,16.9-5l-1-1.4c-2-4.9-5.3-9.6-10.3-11.6c-5-2.1-11.6-0.5-13.7,4.3
			C-3502.1,130.9-3497.5,137.6-3491.6,139z"/>
		<path class="st1" d="M-3445.9-96c-8.1-3.1-18.1,0.1-22.9,7.4c9.4,2.7,19.9,1.7,28.6-2.8L-3445.9-96z"/>
		<path class="st1" d="M-3552,74.2C-3552,74.2-3552,74.2-3552,74.2c-1,2.1-0.4,6.1-0.4,8.5c0,0.1,0,0.2,0,0.2
			c0.1-0.2,0.2-0.5,0.2-0.8C-3552.1,79.9-3552.6,76.5-3552,74.2z"/>
		<path class="st1" d="M-3760.4-406.4c0.6,0.2,1.4,0.3,2,0.4C-3759-406.2-3759.8-406.4-3760.4-406.4z"/>
		<path class="st1" d="M-3431.7-66.8c-5.8,0-11.8-2.2-16.9,0.6c-2,1-3.4,2.6-4.9,4.3c-10.9,12.9-19,28.2-23.1,44.5
			c3.2-1,5.9,2.8,6.7,6c0.5,2.5,0.9,5.2,2.1,7.2l30.9,0.9l0.4,0c1.5-0.9,2.8-2,3.4-3.6c1.5-4.1-1.3-8.3-3.3-12
			c-3.5-6.2-5.1-13.4-4.7-20.6c0.1-2.3,0.4-4.6,1.7-6.3c3.8-5.1,12.3-3.3,17.1-7.4c3.3-2.8,3.7-8.1,1.3-11.4
			C-3423.4-67.6-3428.3-68.7-3431.7-66.8z"/>
		<path class="st1" d="M-3399.1-235.2c-0.1,0-0.3-0.1-0.4-0.1c0.1,0.1,0.1,0.2,0.2,0.3c0.1,0,0.1,0.1,0.2,0.1
			C-3399.1-235-3399.1-235.1-3399.1-235.2z"/>
		<path class="st1" d="M-3396.2-173l3.6,1.6c-1.6-6.8,2.1-14.4,8.4-17.1c1.5-0.6,3.4-1.1,4.6-2.1c1.1-0.9,1.7-2.1,2.2-3.4
			c1.8-5.3-2.1-12.2-7.7-12c-3.5,0.4-6.2,3.3-8.6,6.1c-3.3,4-6.8,8.2-8,13.3C-3402.6-181.4-3401-175.1-3396.2-173z"/>
		<path class="st1" d="M-3376.3,25.8c0.2-1.2,0.4-2.1,0.5-2.6c1.2-5,2.7-9.8,4.3-14.8c-0.1-0.1-0.2-0.1-0.3-0.2
			c-1.5,4.9-2.9,9.9-4.1,14.8c-0.2,0.6-0.4,1.5-0.5,2.6c-1.4-0.3-3.1,0.2-3,2c0.1,1.1,0.1,2.3,0,3.5c-0.6,0.4-1.2,0.9-1.7,1.8
			c-0.8,1.7-0.6,3.3,0.2,4.7c-0.3,0.6-0.6,1.2-1,2l0,0.2c-0.5,0-0.8,0.1-1.2,0.1c-0.8,0-1.5,0.1-2.4,0.4c-2,0.5-2.1,3.1-0.7,4.1
			c-0.2,0-0.5,0-0.6,0.1c-4.4-0.9-8.5-0.9-13.1,0.2c-1.5,0.4-1.9,1.9-1.5,3.2l-52.2-1.3l0,0.2l52.4,1.3c-0.6-1.2-0.1-2.7,1.5-3.2
			c4.6-1.1,8.7-1.1,13.1-0.2c0.2,0,0.5,0,0.6-0.1c-1.3-1.1-1.4-3.5,0.7-4.1c0.9-0.3,1.7-0.4,2.4-0.4c0.5,0,0.8-0.1,1.2-0.1l0-0.2
			c0.3-0.8,0.7-1.4,1-2c-0.9-1.5-1.1-3.1-0.2-4.7c0.5-0.9,1.1-1.5,1.7-1.8c0-1.2,0.1-2.4,0-3.5C-3379.4,26-3377.7,25.3-3376.3,25.8z
			"/>
		<path class="st1" d="M-3393.8,13.7c-6.1-0.2-11.1,4.5-11.3,10.6s4.5,11.1,10.6,11.3s11.1-4.5,11.3-10.6
			C-3383,18.9-3387.7,13.9-3393.8,13.7z"/>
		<path class="st1" d="M-3436.7-226.4c-4.1-0.3-8.1,1.3-12,2.8c-5.9,2.4-11.7,4.7-17.6,7.1c-2.3,1-4.9,2-6.7,3.9
			c-3,3.3-3.2,8.6-0.5,12c2.8,3.4,8.1,4.4,11.8,2.2c4.2-2.5,5.7-7.6,9.2-10.8c5-4.7,12.6-4.6,19.5-4.1l-2.4,0.4
			c3.6,2.1,8.4-2,7.7-6.3C-3428.4-223.4-3432.6-226.2-3436.7-226.4z"/>
		<path class="st1" d="M-3374.4,7.3C-3374.4,7.3-3374.4,7.3-3374.4,7.3C-3374.4,7.3-3374.4,7.3-3374.4,7.3z"/>
		<path class="st1" d="M-3385.6,4.7c-0.3,0.7-0.2,1.6,0.2,2.3c-0.4-0.7-0.4-1.6,0-2.3L-3385.6,4.7z"/>
		<path class="st1" d="M-3538.3,177.9c-1.4,5.6,4.4,10.8,10.2,11.4c5.6,0.6,11.3-1.5,17-2.5c6.1-1,12.4-0.7,18.2,1.2
			c3.9,1.2,7.8,3,11.8,2.8c4-0.3,8.3-3.7,7.5-7.5l4.1-3.2C-3492.3,179.3-3515.3,178.6-3538.3,177.9z"/>
		<path class="st1" d="M-3438,67c0.5,0,0.9,0,1.4,0.2c0-0.1,0-0.1,0-0.2C-3437.1,67.1-3437.6,67-3438,67z"/>
		<path class="st1" d="M-3441.8,80.8c-5.1-3-11.3-2.5-17-1.6l-1,1.3c-4.6,5.6-7.7,12.6-8.8,19.8c-0.2,2-0.4,3.9,0.6,5.7
			c2,3.1,7.1,2.7,10.2,0.5c3.1-2.2,5.5-5.5,8.9-7c3.4-1.6,7.5-1.6,10.3-4.1C-3434.4,91.5-3436.9,83.7-3441.8,80.8z"/>
		<path class="st1" d="M-3446.3,68.4c-0.2,0.5-0.7,0.9-1.2,1.1c0.6-0.1,1.1-0.5,1.5-1C-3446.1,68.5-3446.2,68.5-3446.3,68.4z"/>
		<path class="st1" d="M-3398.2-233.4c0.2,0.2,0.4,0.5,0.6,0.7c0.8,0.4,1.5,0.7,2.2,1c0-0.1,0-0.3,0-0.5
			C-3396.2-232.4-3397.1-232.7-3398.2-233.4C-3398.2-233.3-3398.2-233.4-3398.2-233.4z"/>
		<path class="st1" d="M-3412.2,174.3c-3,2.7-5.5,5.8-8.6,8.1c-3.6,2.6-8.1,4.3-12.6,4.5c4.5,2.1,9.2,4.1,14.2,4.4
			c5,0.3,10.4-1.5,13.3-5.5c1.4-2.1,2.3-4.7,3.9-6.7c3-3.7,8.1-4.6,12.7-5.9c4.5-1.2,9.4-4,10-8.8l-5.6-0.3
			C-3395,163.8-3404.9,167.6-3412.2,174.3z"/>
		<path class="st1" d="M-3433.4,155.4c-2-4.2-7.6-6.9-11.3-4.2c-3.7,2.8-2.9,8.6-1,12.9c1.4,3.1,3.5,6.5,6.9,7.1
			c2.6,0.5,5.1-2.1,5.2-4.3l0.9,2C-3432.2,164.4-3431.4,159.5-3433.4,155.4z"/>
		<path class="st1" d="M-3494.5,27.1c6.3,4.8,12.5,10.9,19.7,13.4c-0.2-0.3-0.4-0.7-0.7-1c-6.7-2.7-12.6-8.3-18.5-12.8
			C-3494.2,26.8-3494.4,26.9-3494.5,27.1z"/>
		<path class="st1" d="M-3521.9,29.4c-0.1,0-0.2-0.1-0.3-0.1l-0.7,23.1l0.3,0L-3521.9,29.4z"/>
		<path class="st1" d="M-3512.8,7.9c-1-0.5-2-1-3-1.6C-3514.9,6.9-3513.8,7.4-3512.8,7.9z"/>
		<path class="st1" d="M-3498.1,14.3c9,4.2,3.1,7.9-1,9.3C-3495,22.2-3489,18.6-3498.1,14.3z"/>
		<path class="st1" d="M-3504.1,13.9c1,0.1,2.1,0,3.1,0C-3502,13.8-3503.1,13.9-3504.1,13.9z"/>
		<path class="st1" d="M-3521.5,6.2c0-0.2,0.2-0.1,0.2-0.1c-0.2,0-0.2,0-0.2,0L-3521.5,6.2z"/>
		<path class="st1" d="M-3512.5,8.1C-3512.5,8.1-3512.6,8.1-3512.5,8.1C-3512.6,8.1-3512.5,8.1-3512.5,8.1z"/>
		<path class="st1" d="M-3375,6.5c0.1,0.3,0.3,0.5,0.5,0.7C-3374.7,7-3374.9,6.8-3375,6.5C-3375,6.5-3375,6.5-3375,6.5z"/>
		<path class="st1" d="M-3330.3-94.5l1.9,1.6c-2.8,1.1-3.1,5.4-0.8,7.4c2.2,2,5.9,1.9,8.4,0.3c4.5-2.8,6.1-9.9,2.2-13.6
			C-3322.5-102.6-3330.5-99.8-3330.3-94.5z"/>
		<path class="st1" d="M-3293.5-99.3c3.9-2.9,4.4-9.3,1.5-13.2l-4.3,2.5c-4.2-2.7-10,2.3-8.9,7
			C-3304.2-98.3-3297.4-96.4-3293.5-99.3z"/>
		<path class="st1" d="M-3315.3-83.8c-5.2,4.3-1.2,14.3,5.5,14.3c6.7,0.2,11.1-8.8,7.6-14.4l-2.3,0.8
			C-3307.1-86.2-3312.1-86.5-3315.3-83.8z"/>
		<path class="st1" d="M-3321.2-179c0.4,0.5,0.7,0.9,1.2,1.4c0.7,0.9,2.4,0.8,3.2,0.1c0.8-0.8,0.8-1.9,0.3-2.8
			c0.3,0.8,0.3,1.8-0.5,2.5c-0.8,0.7-2.5,0.8-3.2-0.1c-0.4-0.5-0.7-0.9-1.2-1.4c-0.9-0.9-2.1-1.6-3.6-1.6l0.1-4.2
			c-2.1,0.1-2.6,3-1.2,4c-0.2,0.1-0.5,0-0.6,0c-1.2-0.5-1.8-2-1.3-3.1c1.3-2.5-2.6-5-3.9-2.4c-1.9,3.6-0.4,8.7,3.7,9.9
			C-3325.6-176.1-3322.9-177.1-3321.2-179z"/>
		<path class="st1" d="M-3388.1-227.3c0.2,0.3,0.4,0.6,0.8,0.8c0.3,0.1,0.5,0.2,0.8,0.2c0-0.2,0-0.3,0-0.5c-0.5,0-0.9,0-1.4-0.3
			C-3388-227.1-3388.1-227.2-3388.1-227.3z"/>
		<path class="st1" d="M-3344-240.8c0.9,1.1,2.2,1.9,3.6,2.4c11.9,4.9,26.9-3,31.1-15.2c1.5-4.4,1.2-10.3-3-12.3
			c-5.7-2.6-10.8,4.4-13.1,10.1l-1.5,3.2c-4.4-0.7-9.2-1.3-13.3,0.7C-3344.2-250-3346.8-244.3-3344-240.8z"/>
		<path class="st1" d="M-3391-116.1c-2.6,4.6-1.3,12.3,4,12.6c4.9,0.3,7.2-5.9,10.5-9.4c4.4-4.7,11.4-5.4,17.7-6.8
			c7.5-1.6,14.7-4.1,21.4-7.9c2.8-1.6,5.6-3.6,6.9-6.5c1.3-2.9-0.2-7.2-3.4-7.6c-1.4-0.2-2.9,0.5-4.3,1.1c-8,3.6-16.1,7.1-24.1,10.7
			c-1.4,0.6-2.8,1.3-4.3,0.9c-2.6-0.5-3.5-3.6-3.5-6.2c0.1-2.6,0.9-5.2,0.4-7.8l1.1-0.3c0.6-6.1,1.3-12.6-1.4-18.2
			c-2.7-5.4-10.1-9.3-15.2-5.9c-5.7,3.6-4.8,12.3-2.1,18.5c2.7,6.3,6.8,12.8,4.9,19.3C-3383.9-124.3-3388.5-120.8-3391-116.1z"/>
		<path class="st1" d="M-3362.9-210.9c1,0.9,2.4,0.7,3.2-0.1c0.7,0.2,1.6,0.3,2.5,0.4c-0.2-0.2-0.4-0.4-0.5-0.6
			c-0.9,0-1.7-0.2-2.6-0.4c-0.8,0.7-2.2,1-3.2,0.1c-0.4-0.4-0.7-0.7-1.1-1C-3364-212-3363.5-211.5-3362.9-210.9z"/>
		<path class="st1" d="M-3484.7-135.1l-0.9-5.2c-1.9-3.3-4.4-6.8-8.2-6.9c-4.9-0.1-7.4,7.1-4.3,11
			C-3495-132.6-3488.9-132.5-3484.7-135.1z"/>
		<path class="st1" d="M-3498.5-204.4c-0.3,3.3-0.7,6.7-0.9,10c-0.4,4.7-0.8,9.7,1.3,13.9c2,4.2,7.6,7.1,11.6,4.8
			c4.2-2.5,4.4-8.2,3.4-13c-0.9-4.7-2.3-10,0.3-14c-5.3-2.3-10-5.6-13.9-9.9l2.6,3.6C-3496.2-210.6-3498.2-207-3498.5-204.4z"/>
		<path class="st1" d="M-3522,22l-0.1,2.1c0.8,0.3,1.4,0.7,1.9,1.1c1.1,0.7,1.2,1.9,0.7,2.9c0.8-0.9,1-2.5-0.3-3.5
			c-0.6-0.3-1.3-0.8-1.9-1.1l0-1.3C-3521.8,22.1-3521.9,22.1-3522,22z"/>
		<path class="st1" d="M-3486.9-54.5c3.6,0.7,4-5.1,5.1-8.7c1.5-4.4,6.6-6.3,10.6-8.8c3.9-2.5,7.1-8.3,3.7-11.6
			c-2,4.5-6.5,7.9-11.4,8.6c-0.4-6.6-2.5-12.9-6-18.5l-2.9,0.2c-0.6,10.8-1.4,21.6-1.9,32.4C-3489.8-58.2-3489.3-55-3486.9-54.5z"/>
		<path class="st1" d="M-3378.2-397.4c3.9,1.2,8,2.2,12,2c4.1-0.3,8.3-2,10.2-5.6c2.1-3.6,1-8.8-2.7-10.4c-3.8-1.6-8.7,2.2-7.5,6
			l0,0.8C-3371.4-406.1-3377.3-402.5-3378.2-397.4z"/>
		<path class="st1" d="M-3414.9-197.1c-3.7-2.9-9.8,1.1-9.8,5.5c-7.6-0.2-15.4-0.5-23-0.7c-2.1-0.1-4.4-0.1-6.4,0.7
			c-3.7,1.7-5.4,6.1-6.4,10c-6.3,22.8-8.7,46.6-7,70.3c0.2,2,0.5,4.1,1.8,5.5c1.3,1.4,3.4,1.8,5.4,1.8c12,0.5,24-6.7,35.6-3.3
			c3.5,1,6.8,2.9,10.4,3.1c4.7,0,9.3-3.7,10-8.4c0.9-4.7-2-9.8-6.5-11.3c-4.7-1.5-9.9,0.3-14.4-1.7c-7.2-3.1-7.7-13-6.8-20.9
			c0.2-2.1,0.4-4.4,2-5.9c1.3-1.3,3.1-1.7,4.9-2c8.3-1.3,16.8-0.9,24.9,1.2c4.6-1.5,3-9-0.9-12.1c-3.9-3-9.3-4.7-11.4-9.2
			C-3415.7-181.6-3408.5-192.4-3414.9-197.1z"/>
		<path class="st1" d="M-3335.3-265.4c0.4,3.1,2.5,6.9,5.5,6c1.1-0.4,1.9-1.3,2.5-2.2c4.5-6.6,4.7-15.1,4.7-23.2c0-1.4-0.1-3-1.1-4
			c-1-0.9-3.3-0.3-3.1,1.1l-3.4,1.3C-3334.4-280.3-3336.2-272.6-3335.3-265.4z"/>
		<path class="st1" d="M-3324.8-185.6c-0.3-0.4-0.5-0.9-0.8-1.3C-3325.3-186.4-3325.1-186-3324.8-185.6L-3324.8-185.6
			c2,0.1,3.7,0.6,5.1,1.6C-3321.1-185-3322.8-185.6-3324.8-185.6z"/>
		<path class="st1" d="M-3361.3-306.1c-3.8,4.3-1.1,12.2,4.6,13.4c5.5,1.1,11.1-5.1,9.3-10.5l3.9-4.1
			C-3349.5-309.2-3357.2-310.8-3361.3-306.1z"/>
		<path class="st1" d="M-3345.6-203.4c-0.8-0.3-1.3-0.8-1.9-1.1c-0.6,0.3-1.4,0.3-2-0.1c-2.5-1.2-4.4-2.5-6.2-4.3
			c1.9,2.1,4,3.6,6.7,4.9c0.6,0.2,1.4,0.2,2,0.1c0.8,0.3,1.3,0.8,1.9,1.1c1.2,0.8,2.5,1.6,3.9,2.4c1.1,0.7,2.1,1.2,3.1,1.8
			c0-0.1,0-0.2,0.1-0.2c-1.3-0.8-2.5-1.4-3.7-2.2C-3343-201.8-3344.2-202.6-3345.6-203.4z"/>
		<path class="st1" d="M-3327.6-189.3c-3.4-1.9-5.9-4.9-9.5-6.7c-0.1-0.1-0.2-0.2-0.4-0.3c0.2,0.4,0.5,0.7,1,0.9
			c3.6,1.8,6.2,4.9,9.5,6.7c0.1,0.2,0.5,0.2,0.6,0.3c0.2,0.4,0.4,0.8,0.6,1.1c-0.3-0.5-0.5-1-0.8-1.4c2.9,1.3,5.5,1,8.4,2.5
			c0,0-0.1-0.1-0.1-0.1c-3-1.8-5.9-1.4-8.8-2.7C-3327.1-189.1-3327.4-189.1-3327.6-189.3z"/>
		<path class="st1" d="M-3389.4-238.4c2.6,0.6,5.2,2,7.6,3.6c4.9,3.2,9.7,6.7,14.5,10.2c0.1,0,0.2,0,0.3,0c-4.7-3.4-9.4-6.9-14.2-10
			C-3383.7-236.4-3386.5-237.9-3389.4-238.4z"/>
		<path class="st1" d="M-3385.6-224c0.6,0.9,1.9,1.3,3,0.8c1-0.4,1.8-0.9,2.7-1.3c-0.1-0.3-0.3-0.5-0.4-0.7c-1.1,0.4-2,1-2.9,1.4
			C-3384.1-223.5-3385-223.6-3385.6-224z"/>
		<path class="st1" d="M-3365.9-237.7c2.4,1.3,3.3-3.3,3.8-6c0.7-3.3,4-5.5,6.9-7.3c2.9-1.7,6.2-3.8,7.2-7.1c1-3.3-2-7.8-5.3-6.4
			l2-0.7c-2.2-1.9-5.9-1.6-8.2,0.2c-2.3,1.8-3.8,4.6-4.8,7.3C-3366.4-251.2-3367-244.4-3365.9-237.7z"/>
		<path class="st1" d="M-3316.1-190l0.1,0c-0.2-0.1-0.5-0.2-0.7-0.3C-3316.5-190.2-3316.3-190.1-3316.1-190z"/>
		<path class="st1" d="M-3369.6-219.2c-3.1,0.5-6.3-0.6-8.5-2.8c2.1,2.6,5.5,3.9,8.9,3.4C-3369.4-218.8-3369.5-219-3369.6-219.2z"/>
		<path class="st1" d="M-3347.6-210.8c-3-2.9-5.1-6.3-7.7-9.9c-1-1.5-2.2-2.4-3.5-2.9c1.1,0.6,2,1.5,2.9,2.8
			c2.6,3.7,4.8,7.2,7.9,10.1C-3347.8-210.8-3347.7-210.8-3347.6-210.8z"/>
		<path class="st1" d="M-3366.5-215.1C-3366.5-215.1-3366.5-215.1-3366.5-215.1c-0.2-0.2-0.3-0.3-0.4-0.5
			C-3366.8-215.4-3366.6-215.2-3366.5-215.1z"/>
		<path class="st1" d="M-3366.2-224.6c0.3,0.1,0.7,0.2,1,0.5c0.1,0,0.2,0,0.3-0.1C-3365.3-224.5-3365.7-224.6-3366.2-224.6z"/>
		<path class="st1" d="M-3391.9-228.9c0.9-0.2,1.8-0.2,2.6-0.3c-0.1-0.2-0.1-0.4-0.2-0.7c-0.9,0.1-2,0.2-3.1,0.4
			c-0.7,0.1-1.4-0.1-1.9-0.5C-3393.9-229.2-3392.9-228.7-3391.9-228.9z"/>
		<path class="st1" d="M-3345.1-195.6l-2.5,1.9c-2,6.3-2.4,15.3,3.9,17c4.7,1.4,9.4-4.1,8.7-9
			C-3335.8-190.6-3340.2-194.2-3345.1-195.6z"/>
		<path class="st1" d="M-3313-187.8C-3313-187.8-3313.1-187.8-3313-187.8c1.3,1.8-1.2,4-3.1,3.1c-0.3,0-0.5-0.2-0.8-0.2
			c-0.1,0-0.2-0.1-0.3-0.1c0.2,0.2,0.4,0.3,0.6,0.3l-0.2,1.8c0,0.5-0.3,0.9-0.5,1.2c0,0,0,0,0,0c0,0,0,0,0,0
			c0.1,0.1,0.1,0.2,0.2,0.3c0.2-0.3,0.4-0.7,0.5-1.1l0.2-1.8c0.3,0.2,0.5,0.2,0.8,0.2C-3313.6-183.4-3310.9-186-3313-187.8z"/>
		<path class="st1" d="M-3554.5,69.3c-0.3,0.3-0.5,0.5-0.6,0.7C-3554.9,69.7-3554.7,69.5-3554.5,69.3z"/>
		<path class="st1" d="M-3527.9,41.6c0.3-1.6-0.9-2.6-2.2-2.7c1.2,0.1,2.3,1.2,2.1,2.7C-3528,41.6-3527.9,41.6-3527.9,41.6z"/>
		<path class="st1" d="M-3542.8-109.3c-0.8,0.3-1.4,0.7-1.9,1.3c-1.4,2.2,1.8,4.5,4.4,5c6.7,1.3,13.5,1.5,20.2,0.5l-0.7-7.3
			C-3527.8-112.7-3535.8-112.5-3542.8-109.3z"/>
		<path class="st1" d="M-3665.1-128.7c1.2-4.8,1.8-9.7,2-14.6s-0.4-10.4-4.3-13.4c-3.9-3-11.3-0.5-10.6,4.4l0.3,0.2
			C-3677.2-143-3672.4-134.1-3665.1-128.7z"/>
		<path class="st1" d="M-3607.1-98c-2.2-3.7-6-6.6-10.3-8.2c-5.6-2.1-11.8-2.5-17.9-2.5c-6.1,0-13,0.2-17.8,4
			c-4.8,3.8-6.2,12.6-0.8,15.8c5.8,3.4,15.7-0.9,18.6,5.1c1.6,3.4,0.5,9.5,4.3,9.4c1.5-0.1,2.6-1.4,3.7-2.6c8.7-9.3,23.8-6.7,36-3.5
			C-3594.6-87.6-3600.2-93.6-3607.1-98z"/>
		<path class="st1" d="M-3725.8-157.2c-0.9,1-1.3,2.7-2.3,3.9c-2.2,3.1-6.8,3.1-10.5,4.4c-3.7,1.3-6.7,6.3-3.6,8.6l3.1,3.7
			c1.8,2.5,5.9,1.6,8.1-0.5c2.2-2.1,3.7-4.9,6.1-6.7c1.6-1,3.4-1.6,5-2.6c2.8-2,4.5-6.1,2.9-9.4
			C-3718.6-159-3723.6-159.9-3725.8-157.2z"/>
		<path class="st1" d="M-3698.9-133.3c-3.5,0.8-5.9,5.3-4.4,8.7c2.9-0.7,6-1.3,7.9-3.7c1.7-2.4,1-6.8-1.9-7.1L-3698.9-133.3z"/>
		<path class="st1" d="M-3672.3-96.2c3.7-1.1,5.8-4.9,7.4-8.2c0.6-1.2,1.1-2.7,0.4-3.8c-0.4-0.5-0.9-0.8-1.5-1
			c-5.6-2.1-12.6,2.7-12.3,8.6l-0.4-1.7C-3680.6-98.9-3676-95.1-3672.3-96.2z"/>
		<path class="st1" d="M-3680.8-129.5c-3.1,1.4-6.2,3-8.1,5.8c-1.9,2.7-1.9,7.1,0.8,9c3.3,2.4,8.2-0.4,9.7-4.1s0.5-7.9-0.6-11.7
			L-3680.8-129.5z"/>
		<path class="st1" d="M-3596.3-287.5l-5,4.7c-4.9,0.5-6.9,8-3.2,11.3c3.7,3.3,10.3,1.4,12.4-3.1
			C-3590-279.1-3592.1-284.8-3596.3-287.5z"/>
		<path class="st1" d="M-3688.7-240.8c1.9,2.8,6.5,2,8.8-0.3c2.4-2.4,3.4-5.8,4.7-8.8c1.3-3,3.7-6.1,7.1-6.5c-0.4-2-2.2-3.6-4.2-3.6
			l-6.7,4.8c-2.5-2.2-6.7-1.1-8.7,1.4c-2.1,2.5-2.3,6-2.1,9.4C-3689.7-243.1-3689.4-241.9-3688.7-240.8z"/>
		<path class="st1" d="M-3679.6-267.6c4.2-1.5,7.4-4,9.7-7.9c1-1.8-0.5-3.8-2.5-3.4c-6.3,1.3-12.3,3.6-17.9,6.9
			c-2.5,1.4-0.3,5.5,2.2,4c2-1.2,4.2-2.3,6.3-3.2C-3683.1-269.7-3681.9-266.8-3679.6-267.6z"/>
		<path class="st1" d="M-3665.2-326c-3.3-2.7-7.5-5.4-11.9-4.2c-3.8,1.1-6.4,4.5-5.6,8.4c0.5,2.6,4.4,2,4.4-0.5
			c0.5,0.2,0.9,0.2,1.4,0c3.4-1.1,6.6-1,9.7,0.4C-3664.6-320.8-3663.4-324.6-3665.2-326z"/>
		<path class="st1" d="M-3705.2-269.5c-1.5-6-6.2-10.9-12.1-12.4l-1.4,0.4c-2.5,1.8-2.5,5.6-0.9,8c1.4,2.5,4,4.2,5.9,6.6
			c3.2,3.8,4.4,9.1,3.4,14C-3705.7-257-3703.7-263.6-3705.2-269.5z"/>
		<path class="st1" d="M-3701.8-369.7c-2.6,1.4-6.5,2.5-6.3,5.6c0.2,2.9,4.1,3.8,7,3.7c5.8-0.1,12-0.2,16.4-3.9
			c4.5-3.5,5.2-11.9,0-14.3c-3.8-1.8-9.6-0.4-11-4.3l-0.5,1.7C-3695.3-376.9-3697.6-371.9-3701.8-369.7z"/>
		<path class="st1" d="M-3731.9-377.2c-1,3.9,0.4,7.9,1.6,11.6c1.5,4.3,3.1,8.8,4.6,13.1c4-7.5,3.9-17.1-0.6-24.4l3.4-5.2
			C-3726.2-384-3730.8-381.1-3731.9-377.2z"/>
		<path class="st1" d="M-3737-234.8c2.9,0.2,3.8-3.8,4-6.7c0.2-2.9,2.2-6.8,4.9-5.6c1.2,0.5,1.8,1.7,2.2,2.8
			c2.3,5.2,4.7,10.7,7,16.1c5-0.2,8-6.6,6.3-11.4c-1.7-4.8-6-8.1-10.2-11c-4.2-2.9-8.5-6.2-10-11c-0.7-2.3-0.8-4.7-1.3-7
			c-1.6-6.8-7.1-11.6-12.3-16.2l-0.7,1.5c-3.4,5.8-0.9,13.2,2.5,19.1c3.3,5.9,7.4,12,7.2,18.8
			C-3737.7-241.8-3739.2-237.6-3737-234.8z"/>
		<path class="st1" d="M-3581.7,41.9C-3581.6,41.9-3581.6,41.9-3581.7,41.9c-6.4-0.6-12.7-1.1-19.2,0
			C-3594.4,41-3588.1,41.5-3581.7,41.9z"/>
		<path class="st1" d="M-3555.5,2.8c1.1,0,2.1,0,3.2,0l0,0C-3553.4,2.8-3554.4,2.8-3555.5,2.8z"/>
		<path class="st1" d="M-3601.5,2.8c0.1,0,0.2,0,0.3,0c-0.1,0-0.1,0-0.2,0C-3601.4,2.8-3601.4,2.8-3601.5,2.8z"/>
		<path class="st1" d="M-3610.8,42.6c0,0,0.1,0,0.2,0l1-34.3c0,0-0.1-0.1-0.1-0.1L-3610.8,42.6z"/>
		<path class="st1" d="M-3606,45.9c0.5-0.7,0.7-1.8,0.2-2.6c-0.1-0.2-0.2-0.3-0.4-0.4c0.1,0.1,0.2,0.2,0.2,0.4
			c0.4,0.8,0.4,1.8-0.2,2.6L-3606,45.9z"/>
		<path class="st1" d="M-3525.7-0.5l-0.5,0l-0.1,3.5c-1.9,1.3-3.4,2.9-3.9,4.6c-0.4,1.5-0.4,2.9-0.1,4.1c-0.2,0-0.3,0-0.5,0
			c0.3,0,0.5,0,0.8,0c-0.3-1.2-0.4-2.6,0.1-4.1c0.5-1.7,2.1-3.3,3.9-4.6l0.2,0L-3525.7-0.5z"/>
		<path class="st1" d="M-3526.2,16.4c-0.2,0-0.1-0.2-0.3-0.2l-0.2,5.3c-1.6-0.8-3.1-1.7-4.7-2.6c0,0-0.1,0-0.1,0
			c1.5,1,3.3,1.9,4.9,2.7l0.2,0L-3526.2,16.4z"/>
		<path class="st1" d="M-3592.1,3.1c0.1,0,0.1,0,0.2,0c1.7,0.1,2.6-1.7,2.2-3.1c-0.1,0-0.1,0-0.2,0
			C-3589.4,1.3-3590.4,3.1-3592.1,3.1z"/>
		<path class="st1" d="M-3597.3,21.8c-0.2,6.1,4.5,11.1,10.6,11.3c6.1,0.2,11.1-4.5,11.3-10.6c0.2-6.1-4.5-11.1-10.6-11.3
			C-3592.1,11-3597.2,15.7-3597.3,21.8z"/>
		<path class="st1" d="M-3549.1,4.9c0.2,0,0.4,0,0.5,0c0,0,0,0,0,0C-3548.7,4.9-3548.9,4.9-3549.1,4.9z"/>
		<path class="st1" d="M-3608.2,8.9c1.6,0.1,3.3-1.5,2.3-3.4c0.3-0.9,0.7-1.9,1-2.8c0,0-0.1,0-0.1,0c-0.3,0.9-0.7,2-1,2.9
			C-3605,7.4-3606.6,8.9-3608.2,8.9z"/>
		<path class="st1" d="M-3518.3,95.5c2.6-1.3,2.6-6.5-0.3-6.1l-3.3-0.4c-1.8-6.1-8.7-10.5-15-9.1c-6.3,1.3-11.1,8.2-9.6,14.5
			c0.5,2.1,1.7,4.2,3.5,5.1c4.9,2.7,10.6-2.6,15.9-3.3C-3524.1,95.8-3520.9,96.8-3518.3,95.5z"/>
		<path class="st1" d="M-3536.6,10.4c-0.4,0-0.8,0-1.2,0.2c-0.4,0-0.6,0.1-1,0.1c0,0,0,0,0,0c0.5,0,0.8-0.1,1.2-0.1
			C-3537.2,10.4-3536.9,10.4-3536.6,10.4z"/>
		<path class="st1" d="M-3534.3,11.9c0.2,0,0.5,0,0.7-0.1C-3533.8,11.8-3534,11.8-3534.3,11.9C-3534.3,11.8-3534.3,11.8-3534.3,11.9
			z"/>
		<path class="st1" d="M-3249.5-137.1c-5.6-0.9-12,4.2-10.8,9.7c0.7,2.6,2.6,4.6,4.5,6.5c3,3,6.1,6.1,9.2,9.3
			c0.6,0.6,1.3,1.4,2.2,1.3c1.2-0.1,1.9-1.3,2.2-2.4c1.3-3.5,1.7-7.4,1.1-11.1l3.1-1.9C-3239.8-131-3243.9-136.2-3249.5-137.1z"/>
		<path class="st1" d="M-3276-118.4c-4.1,3.8-7.6,9.2-6.8,14.9c0.7,5.7,7.5,10.3,12.3,7.4c3.3-2,4.3-6.7,3.2-10.4
			c-1.1-3.7-3.8-6.8-6.3-9.8l0.1,0.2C-3274-117.3-3274.9-118.1-3276-118.4z"/>
		<path class="st1" d="M-3329.8-471c-52.6-7.1-102.1-29.6-147.7-56.6c-3.3-1.9-6.9-4-10.7-4c-5.2,0-9.6,3.7-13.5,7.1
			c-62.9,53.7-154.2,71.9-232.8,46.5c-21-6.9-41.7-17-56.1-33.5c-6.4,99.4-8,199.1-5.3,298.8c1,33.4,2.4,66.9,8.2,99.9
			c19,106.4,86.6,203.4,179.9,258.1c1.7,0.8,3.3,1.8,5.1,1.8c6.4,0,7.3-9.2,10.3-14.8c6.3-11.4,25.9-9.7,31.3-21.6
			c2.9-6.8-0.3-14.5-0.3-21.8c0.1-2.6,0.7-5.1,1.6-7.4c0-3.5-0.1-7.1,0-10.5c0-1.4-0.3-3.7,0.6-4.9c1.7-2.4,5.8-1.8,8.9-1.4
			c0.2-0.1,0.5-0.1,0.8-0.1c2,0.1,3.8,0.3,5.8,0.3c1.1-0.3,2.3-0.4,3.7-0.5c5.2,0.2,10.2,0.6,15.2,0.9c1.1,0.2,2.1,0.2,3.2,0.2
			c1.6,0.1,2.2,1.5,2.1,2.7c0.6-1.3,0-3.2-1.9-3.3c-1.1,0-2.1-0.2-3.2-0.2c0.3-4-0.3-8.1-1.3-11.9l-0.5,0l-89.2-2.7l1.8-58l0-0.2
			l0,0.2l92.5,2.8l0,0.3l-0.2,5.2c1.2-0.6,2.6-0.8,3.7-1c2.1-0.1,2,0.4,3.6,1.3c2.1,1.4,4.8,3.2,6.9,4.9c1.2,1,1.3,2.2,2.7,3
			c1.8,1.1,3.2,0.7,5,0.9c2.4,0.4,5.2,0.9,7.1,2.7c3.1,2.6,3.7,6.6,2.1,10.1c2-3.5,1.5-7.9-1.8-10.7c-1.9-1.7-4.5-2.3-7.1-2.7
			c-2-0.4-3.4,0.1-5-0.9c-1.3-0.8-1.6-2-2.7-3c-2.1-1.7-4.6-3.5-6.9-4.9c-1.6-1-1.6-1.4-3.6-1.3c-1.1,0.1-2.3,0.4-3.7,1l0.2-5.2
			c0.2-0.1,0.2-0.1,0.3-0.3c2.7-3.3,2.1-8.2,1.3-12.3c-3.9-23.1-3.4-47.2,1.2-70.2c-13.6,0.2-27.2,2.5-40.1,6.9
			c18.8,16.4,18.4,50.2-1.1,65.9c-1.4,1.2-3,2.2-4.8,2.4c-5.7,0.7-8.6-6.1-10.6-11.4s-7.9-11.2-12.3-7.7c3.6-2.8,0.6-9.1-3.8-10.5
			c-4.4-1.5-9.1-0.1-13.7-0.1c-6.1,0-12.1-2.5-18.4-2.5c-6.1,0-13.2,4.3-12.8,10.4c-6.7-5.8-8.2-16.8-3.1-24.2
			c-10.4-2.6-22.1-0.7-30.9,5.5c-15.3-6.3-33.7-17.5-31.3-34c-5.3,13.5-10.4,27.3-15.6,41c-2.9-11.4-9.7-21.5-16.4-31.1
			c-5.7-8.4-11.5-16.6-17.4-25c-5.5-7.9-11.4-16.6-11.4-26.4c-0.1-7.2,3.2-13.9,6.9-20c7.7-12.7,25-24.5,35.9-14.6
			c5.8,5.2,10.6,16,17.4,12.3c6.1-13.7,9.7-34-4-39.9c5.2-9.3,14.6-19.2,24.7-15.7c6.8,2.3,10.1,9.9,12.4,16.7
			c3.1,8.9,6.3,17.7,9.6,26.5c3.4,9.1,7.3,19,15.9,23.5c8.5,4.5,19.3,2.3,28.3,5.9c8.6,3.5,14.1,11.9,19.8,19.2
			c5.7,7.3,13.6,14.4,22.9,13.9c9.2-0.5,16.4-13.8,9-19.5c-5.4-1.2-11.4,0.6-15.2,4.7c-5.8-8.9-11.8-17.9-17.6-26.9
			c-1-1.6-2.2-3.4-2-5.4c0.4-2,1.9-3.6,3.5-4.9c7.5-6.5,15.3-13.2,24.8-15.5c9.7-2.3,21.4,1.4,24.8,10.7c4.1,11.1-4.8,26.1,3.8,34.2
			c5.9,5.7,16.4,2.8,21.3-3.6c5.1-6.4,5.9-14.9,6.6-22.9c1-13.7,1.6-28-4.3-40.3c-6-12.4-20.5-21.6-33.4-17
			c-16.9,5.9-22.3,31.3-40,34.1c-4.3,0.8-8.8-0.1-13.1,0.7c-11.6,2.1-18.4,17.7-11.8,27.7c-32.9-10.3-48.2-56.3-27.9-84.3
			c-12.3,2.8-25.1-1.1-37.6,0.4c-18.8,2.2-35.4,17.7-38.9,36.4c-13.6,2.5-32.8,1.6-35.1-12c-1.2-6.3,2.4-12.4,3.3-18.6
			c1-6.2-3.1-14.6-9.3-13.2c3.6-18.3-1.9-38.1-14.4-51.8c-1.1-8,7.9-14.1,16-14c8.1,0.1,15.4,4.3,22.9,6.9c17.9,6.3,38,4,56.2-1.2
			c4.3-1.2,8.8-2.8,11.5-6.2c2.7-3.6,2.7-9.5-1-11.8c-7.4-1.3-15.2,0-21.7,3.6c-1.3-6.9,1.4-14.4,6.8-19c-7.3-3.9-12.6-11.3-14-19.5
			c-4-3.9-11.1,0-13.6,4.9c-2.6,5.1-2.9,11-6.4,15.5c-9.2,11.8-33.7,5.5-38.1,19.7c-11.2-7.3-15.4-23.5-9.4-35.5
			c3.4-6.8,9.4-14.5,5-20.6c-2.5-3.3-6.7-4-10.3-5.8c-8.3-4.1-12.5-14.7-9.3-23.3c3-8,12-13,20.3-11.9c-10.4-3.1-14.2-20.1-4.8-26.5
			c7.9-5.4,40.9,8.1,53,10l43,25.6c0.2,0,0.3-0.1,0.5-0.1l-0.1,0c0.1,0,0.1,0,0.2-0.1l-43.4-25.5c1.4-2.4,3.5-4.5,5.8-6.2
			c0.3-0.3,0.6-0.4,0.9-0.7c8.1-5.4,19.6-7,28.8-5.1c9.7,2.1,18.6,10,19.5,19.9c0.5,4.6-1.3,9.2-4.3,12.8l16,10
			c0.6,1.2,1.3,2.5,2.2,3.6c2.8,3.4,7.6,5.4,7.6,10.6c0,0,0,0.1,0,0.2l0.1,0.1c-0.1,4.1-3.1,7.4-7,8.5c-7.7,2.2-14.2-2.4-20.1-6.7
			c-4.2-3.1-8.8-7.2-11.3-11.7c2.3,4.9,7.2,9.1,11.7,12.4c5.8,4.3,12.4,8.8,20.1,6.7c4-1.1,6.8-4.5,7-8.5l20.4,11.9
			c1,1.7,3.1,2.7,5.1,3l58.4,34.2c-1.2,1-2.5,2.2-3.9,3.1c-7.1,4.4-16.4-0.7-21.9-7.1c-5.4-6.4-9.5-14.5-16.8-18.3
			c-7.5-3.9-16.4-2.6-24.6-1.4c-12.2,1.9-24.5,4-36.3,7.4c0.3-0.4,0.5-1.1,0.5-1.5c1.1-0.3,2-0.7,3.1-1.1c1.5-0.6,1.5-2.1,0.7-3.2
			c0.4,0.9,0.2,2-1,2.6c-0.9,0.4-2,0.9-3.1,1.1c0.1,0.6-0.2,1.1-0.5,1.5c-0.2,0.1-0.3,0.3-0.5,0.4c-0.9,0.6-1.3,1.8-2.4,2.4
			c-0.6,0.4-1.4,0.4-2.1,0.4c-1.7-0.1-3.2,0.7-4.7,0.6c-0.2,0.1-0.2,0.1-0.3,0.3c-1,0.8-2.6,0.9-3.3-0.1c0.3,1.5,2.4,1.7,3.6,0.7
			c0,0,0,0.2,0.1,0.2c0.6,0.5,1.4,0.7,2.1,0.8c13.2,2.2,26.7,3.1,40.1,2.3c6.1-0.3,12.7-0.8,17.7,2.4c2.8,1.8,4.9,4.6,7.1,7.1
			c5.6,6.6,12.7,11.5,19.8,16.4c2.5,1.8,5.4,3.5,8.4,3.2c3.1-0.4,5.4-3.2,8.1-4.9c9.9-6.4,22.6,1.6,31.7,9.3
			c6.1,5.4,13,13.2,9.6,20.7c-5.1,11.1-27.2,7.2-28.8,19.4c-1,6.8,6,11.6,12.2,14.7c5,2.4,10.1,5,15.5,5.5
			c5.5,0.5,11.6-1.3,14.5-6.1c1.9-3.3,2.2-7.1,2.3-10.9c0.6-13.2,0.8-26.6,0.5-39.9l35,20.6c-0.7,6.5-1.5,13.1-3.5,19.2
			c-1.9,5.9-4.6,11.6-5.7,17.6c-1.1,6.1-0.1,12.9,4.5,17c4.3,3.8,11.1,4,15.8,0.6c3.4-2.5,5.4-6.7,8.8-9.5c3.3-2.6,7.7-3.6,11.2-6.1
			c3.4-2.5,5.9-7.6,3.2-10.9c-2.9-3.6-9.1-1.8-13.3-3.9c-3.9-2.1-5.1-7-5-11.4c0-1.1,0.1-2.1,0.1-3.2l6.3,3.7
			c3.5,4.1,7.5,7.2,12,9.7c0.3,1.4,1.9,1.9,3.2,1.5c0.5,0.2,0.8,0.3,1.2,0.5c0,0.6,0.4,1.1,1,1.4c2,1,3.9,2.1,5.8,3.1
			c0.9,0.5,2,0.2,2.6-0.4l0.1,0.2c-2.7,4.3-3.5,9.5-1.3,14c1.1,2.3,3.1,4.4,5.6,4.7c1.8,0.2,3.5-0.4,5.2-0.9
			c3.5-1.2,7.1-2.5,10.3-4.2c0-0.3,0-0.6,0-0.9c0.2-0.3,0.3-0.8,0.6-1c0.2-0.1,0.2-0.1,0.2-0.1c0.5-0.9,1.1-1.5,2.2-1.5
			c0.3,0,0.5,0,0.8,0c0.2,0,0.3,0,0.5,0c0.9,0.2,1.6,1,1.8,1.9c0.2,0,0.3,0,0.5-0.1c-0.3-0.8-0.8-1.5-1.7-1.6
			c2.7-2.1,4.9-4.6,6.2-7.7c4.8-11.7-5.3-26.1,0.7-37.3c1.6-3.1,4.6-5.6,7-8.5c11.4-13.7,8.9-36.6-5.3-47.4
			c-1.9-1.4-4.5-2.7-6.5-1.4c-1.2,0.9-1.8,2.5-2.3,3.9c-4.8,11.9-20.4,14.3-33.2,15l1.1-0.1c-8.1,0.4-16,1.8-23.7,4.3
			c-3.2,1-6.3,2.2-8.8,4.5c-4.5,4.1-6,10.6-6,16.4c-0.6,6.1-1,12.2-1.6,18.2l-35-20.6c-0.1-2.6-0.2-5-0.2-7.6
			c-0.2-3.7-0.4-7.5-1.6-10.9c-4.5-11.7-19.8-14.6-32.3-13.8c-4.4,0.2-9.2,0.8-12.7,3.4c-0.3,0.3-0.6,0.4-0.9,0.7l-58.4-34.2
			c0.3,0.2,0.5,0.2,0.8,0.2c3.8,0.4,8.3-1,9.4-4.6c1.2-3.6-4.5-7.4-6.6-4.3l0-0.5c-3.9-1.5-9.8,0.5-9.3,4.6c0,0.6,0.3,1.2,0.6,1.7
			l-20.4-11.9c0,0,0-0.2,0-0.3c-0.2-5-5-7-7.8-10.4c-1-1.1-1.6-2.3-2.2-3.6c-4.1-10,3.3-24.4-2.9-34.2c-3.5-5.4-11-10.1-8.7-16
			c1-2.6,3.6-4.2,6.5-4.4c7.6-0.4,13.2,6.8,20.5,7.3c5.5,0.5,11.8-2.8,16,0.8c4,3.5,2.1,10.6,5.5,14.6c3.1,3.7,9.2,3.2,12.4,6.8
			c4.3,4.7,0.2,12-0.7,18.4c-1.5,10.5,5.8,20.1,14,26.9c8,6.8,17.6,12.4,23,21.6c1.4,2.5,2.6,5.1,4.8,6.8c2.1,1.4,4.7,2,7.1,2.2
			c17.2,1.4,36.1-8.5,50.9,0.3c3.4,1.9,6.2,4.9,10,6.2c11.9,4.3,23-8.4,35.5-10.2c12.7-1.7,29.2,6.4,36.1-4.2
			c1.6-2.7,2.2-5.9,3.5-8.6c3.7-8,13.1-11.3,20-16.8c6.9-5.4,11-17.5,3.6-22.1c-1.9-1.1-4.2-1.7-5.7-3.2c-2.1-2.3-1.5-6-0.9-9
			c2.7-13.5,6.7-28.9,19-35.1c3.9-2,8.3-2.8,12.6-3.6c11.3-2.1,22.5-4,33.7-6.1c1.6,12.2-16.9,18.5-18.3,30.7
			c-1,8.5,6.3,18.5,0.5,24.7c-3.9,4.1-12,4.2-12.6,10.1c-0.3,3.8,2.7,7.2,6.5,7.7c11.7,1.4,24.8,0.1,34-7.3
			c7.8-6.3,11.7-18.2,6.8-27.1c-8.5-0.3-17.2,3.7-22.4,10.4c-3.8-5.9,0.7-13.8,6.2-18.4c5.5-4.6,12.3-8.5,14.6-15.1
			c1-2.6,1.2-5.6,2.8-7.8c4.1-5.7,13.5-2.2,18.3,2.8c4.9,5,9.4,12,16.5,12.5c9.9,0.9,17-11.7,27-11.4c10.3,0.3,17.8,14.4,27.8,11.5
			c4.6-1.2,8.1-6.2,14.1-2.5c3.6,2.2,5.4,6.4,5,10.7c-0.7,7.7-0.4,16.6-4.2,23.6c-3.1,5.5-9.4,9.8-15.5,8.1
			c-6.2-1.7-15-7.5-16.7-1.3c14.9,11.3,31.3,26.5,28.2,44.9c-1.1,6.7-4.8,12.5-8.5,18.2l-13.1,20.5c-0.6,0.9-1.4,1.8-2.4,2.2
			c-5.4,2.7-8.2-6.5-8.5-12.6c-0.5-7.6-3.2-15-8.4-20.8c-15.9-17.5-39.7-13.1-61.1-10.7c-18.3,2-39.9,0.6-50.1-14.6
			c-4.5-0.9-7,5.9-4.9,9.9c2.2,4,6.7,6.1,10.2,9.1c5.8,4.9,8.9,12.3,13.5,18.4c4.5,6.1,12.1,11.3,19.4,9.1
			c7.4-2.4,14.4-11.9,20.8-7.3c-3.3,8.4-10.4,15.2-11.5,24.2c-1.4,9.7,12.2,20.6,17.5,10.1c0.7-1.4,1.7-2.4,3.1-3
			c5.9-2.3,6.4,9,11,13.3c2.7,2.4,6.8,2.2,10.3,1.7c11-1.6,21.5-5.6,31-11.4c5.9-3.6,11.4-8,18-10c6.6-2.1,14.8-0.9,18.6,4.8
			c-7.7,1.3-12.7,11-9.2,18.1c2.2-3.4,8.4-1.4,9.8,2.4c1.4,4-0.2,8.2-1.7,12.1c-9.5,23.5-18.9,46.9-28.5,70.4
			c-5.9-1.2-12.3,2.5-14.4,8.1c-7.9,3-16.5-2.2-22-8.4c-5.6-6.3-9.6-14-16.3-18.9c-11.9-8.6-28.4-6-42.2-1.1
			c-0.6,4.9-0.4,9.7,0.6,14.5c-0.7-1.2-1.5-2.3-2.5-3.3c-0.6-0.6-1.3-1.1-1.9-1.4c-0.4-0.5-1-0.8-1.8-1c-1.5-0.8-3.1-1.6-4.5-3
			c-0.3-0.3-0.4-0.5-0.7-0.8l-0.1-0.2c-0.3-0.2-0.4-0.3-0.6-0.5c-1.2-0.9-2.5-1.7-3.8-2c1.1,0.4,2.2,1,3.2,1.8
			c0.3,0.2,0.4,0.3,0.6,0.5l0.1,0.2c0.3,0.3,0.6,0.5,0.7,0.8c1.5,1.4,3,2.2,4.5,3c0.8,0.2,1.4,0.5,1.8,1c0.6,0.5,1.3,1,1.9,1.4
			c1,0.8,1.8,2,2.5,3.3c0,0.2,0.1,0.2,0.1,0.3c0.6,0.9,1.2,1.9,1.7,2.8c2.1,1.4,4,2.7,6.3,3.4c-2.3-0.7-4.2-2-6.1-3.4
			c-0.7-0.9-1.2-1.9-1.7-2.8l14.1,8.3l0,0.1c0,0,0,0,0,0c1-10.2,11.8-19.2,22.1-16.6c-1.9,6.2-3.6,12.5-5.3,18.9
			c6.2,1.1,12.8-1.4,16.5-6.5c0.8,8.9,4.8,17.5,11.3,23.8c-2.7,9.8-13.4,15-23.4,17.4c-10,2.4-20.8,3.9-28.2,11
			c-7.4,6.9-7.7,22.2,2,25.3c18.6-9.5,37-19.1,55.5-28.6c5.1-2.7,10.5-5.3,16.3-5.4c17.1-0.1,25.7,22.1,22,38.7
			c-5.3,24.1-24.7,42.3-43.2,58.7c-7.2,0.2-9.1-9.9-7.4-16.8c1.7-7,4.3-15.7-1.4-20.1c-10.4,2.9-13.3,15.9-17.8,25.7
			c-5.2,11-15.7,20.2-27.7,20.8c-12,0.5-24.5-9.9-23.4-22c0.6-6.1,3.7-13-0.4-17.2c-2.2-2.4-5.9-2.6-9.1-2.7
			c-9.3-0.4-19-0.7-27.5,3.1c-8.5,3.9-15.2,13.4-12.7,22.3c10.3-1.7,19.9-6.7,27.1-14.1c9.8,9,20.4,21.6,15.3,33.8
			c-3.3,8.1-12.2,12-20.4,15.1c-14.6,5.6-29.4,11.3-44.1,16.9c1.7,3,4.2,4.8,7,6l0.2,0l52,1.6l-1.7,55.8l-93.3-2.4l-3.2-0.1v0
			l3.3,0.1c-1.2,3.3,1.3,7.4,4.6,9.3c0,0,0,0-0.1,0c0.2,0,0.3,0,0.5,0c5.6,0.3,11.1,0.6,16.7,1c2.6,0.1,6.4-0.3,8.2,2.1
			c2.1,2.7,1.3,8.1,1.5,11.2c0.3,4.6,0.5,9,0.7,13.6c0.4,0.5,0.6,1.1,0.4,1.8c0,0.5-0.2,0.9-0.8,1.5c0,0.2-0.2,0.1-0.2,0.3
			c-0.2,0.3-0.3,0.8-0.6,0.9c0.4,3.5,0.7,7,1.4,10.6c0.2,1.3-0.5,2.2-1.5,2.6c1.1-0.2,2.2-1.2,1.9-2.7c-0.5-3.5-1-7-1.4-10.6
			c0.3-0.1,0.5-0.4,0.6-0.9c1.3,7.5,2.6,15.2,5.7,21.6c6,12.4,19.6,19.9,33.3,21.3c13.7,1.3,27.3-2.4,40.1-7.5
			c59.5-24.1,102.6-78.8,126.1-138.6s29.7-124.7,33.8-188.9c6.5-102,8.2-204.3,5.5-306.6C-3220.9-473.5-3277.2-463.9-3329.8-471z
			 M-3706.4-429.3c0.2-0.8,0.3-1.2,0.5-1.1l0.4,0.3C-3705.8-429.7-3706.1-429.6-3706.4-429.3z M-3420.1-250.7l-0.1-0.2
			c0-0.2,0.2-0.3,0.3-0.4l0.1,0.2C-3420-251-3420-250.9-3420.1-250.7z M-3455.1-288.2c1.6-4.1,7.7-2.7,11.8-3.9
			c7.2-2.1,8.6-11.8,14.4-16.5c5.6-4.6,14.3-3.2,19.8,1.4c5.5,4.6,8.3,11.5,10.1,18.4c0.7,2.9,1.2,6.1-0.3,8.7
			c-2.2,3.6-7.3,4-11.5,3.6c-4.3-0.4-8.9-1.2-12.4,1.5c-3.4,2.6-2,9.8,2.2,9.1c2.4-0.4,3.7-3.1,5.9-4.2c3.9-2.2,8.5,1.2,11.6,4.3
			c0.7,0.8,1.6,1.6,1.7,2.6c0.5,3.1-3.8,4-6.7,4.5c-4.6,0.6-8.6,3.7-11.2,7.4l-0.1-0.2c0.6-0.9,0.7-2.3-0.7-3.1
			c-0.5-0.2-1-0.5-1.5-0.7c0.4,0.2,0.9,0.5,1.3,0.7c1.3,0.8,1.3,2.2,0.4,2.9c0,0.2-0.2,0.3-0.3,0.4c-0.6,0.6-1.5,0.9-2.6,0.4
			c-2-1-3.9-2.1-5.8-3.1c-0.6-0.3-0.9-0.9-1-1.4c-0.5-0.2-0.8-0.3-1.2-0.5c-1.2,0.6-2.9,0.1-3.2-1.5c-4.6-2.4-8.6-5.5-11.9-9.5
			l-6.3-3.7c0.1-3.3,0.4-6.7-0.8-9.8C-3454.2-282.9-3456.1-285.7-3455.1-288.2z M-3428.5-355.9l-124.5-3.8l3.8-124.3l124.5,3.8
			L-3428.5-355.9z"/>
		<path class="st1" d="M-3259.6-251.3l-2.8,3.6c-0.8-5.4-2.2-11.9-7.5-13.5c-4.4-1.4-9,1.9-11,5.9s-1.9,8.9-1.8,13.5
			c-0.1,2,0.2,4.3,1.5,5.7c2.1,2,5.4,1.7,8.2,0.9c4.3-1.2,8.5-2.6,12.5-4.3c3.5-1.4,7.4-3.7,8-7.5
			C-3251.8-251-3257.5-254.6-3259.6-251.3z"/>
		<path class="st1" d="M-3431-474.4l-112.3-3.4l-3.4,112.3l112.3,3.4L-3431-474.4z M-3526-440.2c-0.6,0-1.1,0-1.5-0.4
			c-0.2,5.3-0.3,10.5-0.5,15.7c-0.1,2.9-4.7,2.8-4.6-0.1c0.4-12.6,0.8-25.4,1.2-38c0-1.4,1.1-1.9,2.2-2.1c0.3-0.3,0.5-0.6,0.9-0.7
			c9-4.3,23.5-1.7,23,10.8C-3505.8-445-3517.8-441.5-3526-440.2z M-3478.8-381.5c-2.5,13.2-21.6,14.4-23.8,0.5
			c-0.4-2.9,4.1-4,4.4-1.1c1.3,8.1,11.8,8.9,14.4,1.2c1.7-4.5-1.1-9.6-4.8-12c-3.7-2.2-8.3-2.2-11.3-5.7c-3.4-3.9-3.6-10.3-1.2-15
			c6.9-13,24.7-2.1,22.1,10.4c-0.7,2.9-4.9,1.5-4.4-1.4c2.8-12.9-17.7-12.7-14.6-0.4c1.5,5.7,7.6,5.7,11.8,8.3
			C-3481-393.6-3477.7-387.4-3478.8-381.5z M-3441.6-433.3c-8.1,10.4-24.1,12.8-34.6,4.9c-11.8-8.9-14.1-26.2-3.1-36.8
			c10.2-9.9,26.6-7.1,34.8,3.8c1.8,2.3-1.5,5.4-3.3,3.1c-6.3-8.4-18.2-11.7-27-4.8c-9.5,7.5-9,20.7-0.7,28.9c7.7,7.5,20,7.5,28,0.4
			c2-1.8,3.8-3.4,3.2-6.3c-0.3-0.8-0.4-1.4-0.6-1.8c0.2-0.6,0.2-1.2,0.2-1.8l0-0.2c-0.1-1.1-0.4-2.1-0.8-3.1c0.8,0,1.7,0.1,2.4,0.2
			c0.8,0.2,1.4,0.5,2,1C-3436.4-442.4-3439-437-3441.6-433.3z"/>
		<path class="st1" d="M-3266.9-222.2c-1,7.1,4.4,14,11.2,16c2.7,0.8,6.5,0.7,7.8-1.9c0.6-1,0.7-2.3,0.7-3.3
			c0.3-8.4,0.7-16.7,1.1-25.1l-5.3,4.7C-3257.8-234.7-3266.1-229.2-3266.9-222.2z"/>
		<path class="st1" d="M-3427.3-281c-6,1.6-0.2,11,1.1,13.9c1.6,3.4,2.4,6.8,1.2,10.2c0.5,0.2,1,0.5,1.5,0.7
			c-0.4-0.2-0.9-0.5-1.3-0.7c1.2-3.5,0.4-6.8-1.2-10.2c-1.4-2.9-7.2-12.4-1.1-13.9c2.7-0.6,1.9-4.6-0.6-4.5
			C-3425.3-285.4-3424.6-281.6-3427.3-281z"/>
		<path class="st1" d="M-3447.3-268c0.2,0.3,0.5,0.7,0.8,1C-3446.8-267.3-3447.1-267.6-3447.3-268z"/>
		<path class="st1" d="M-3225.8-260.8c0.6-3.2-2.8-7.1-5.3-5l-2.1,0.5c-2.2,7.7-4.6,15.4-6.8,23.1c-0.5,1.7-0.9,3.3-0.1,4.6
			c1.6,3.6,7.6,1,8.8-2.8c1-3.8-0.1-8.1,1.3-11.8C-3229-255.3-3226.5-257.7-3225.8-260.8z"/>
		<path class="st1" d="M-3430.1-260.2c0.3,0.2,0.5,0.2,0.8,0.3c0,0,0,0,0-0.1c-0.2-0.1-0.4-0.1-0.6-0.3c-1-6.9-6.8-11.9-13.5-12.1
			C-3436.7-272-3431.1-267-3430.1-260.2z"/>
		<path class="st1" d="M-3513.5-461.9c-3.9-2.7-8.8-1.8-12.6,0.1c-0.2,0-0.5,0.1-0.6,0.1c-0.2,5.8-0.3,11.4-0.5,17.2
			c0.2-0.1,0.2-0.1,0.3-0.1c5.4-0.8,12.7-2.1,15.9-6.8C-3508.7-455.1-3510-459.7-3513.5-461.9z"/>
		<path class="st1" d="M-3604.2-293.7l0.5,3.7c2.7-9.8,0.6-20.8-5.4-29.1c-4.2,3.4-6.4,9.1-5.5,14.3
			C-3613.5-299.6-3609.3-295-3604.2-293.7z"/>
		<path class="st1" d="M-3296.8-374.5c4,4.2,11.1,5.5,15.9,2.3c4.8-3.2,5.8-11.2,1.5-15c-1.6-1.4-3.7-2.2-5.4-3.7
			c-4-3.6-3.9-10.8-7.2-14.5c-4.1,4-7.6,8.9-8.8,14.5C-3302-385.3-3300.8-378.7-3296.8-374.5z"/>
		<path class="st1" d="M-3546.9-234.3l-4.3,0.3c-5,0.3-10,1.8-14.2,4.6c-0.8,0.4-1.6,1-1.9,1.9c-0.8,2.3,1.7,4,4,5
			c3.9,1.6,8,3.3,12.2,3.3c4.1,0,8.6-2.3,10.1-6.2C-3539.4-229.4-3542.6-234.7-3546.9-234.3z"/>
		<path class="st1" d="M-3537.3-228.4c1.3,6.1,5.7,11.4,11.3,14.1c4.8,2.3,14.2,2.7,14.3-4.9l-2.7-0.1
			C-3519.4-226.7-3528.8-230.3-3537.3-228.4z"/>
		<path class="st1" d="M-3629.6-421c-4.5,2-7.8,6-9,10.7c-0.9,3-0.1,7.2,3,8c2.6,0.7,5.2-1.4,6.1-3.9c0.8-2.6,0.3-5.3-0.1-7.9
			L-3629.6-421z"/>
		<path class="st1" d="M-3605.9-181.9c2.3,0.1,4.6,0,6.6-1c4-2,4.9-7.2,4.8-11.6c-0.3-4.4-1.4-8.9,0.1-13.1l-1.8-0.4
			c-11.8,5.9-22.2,14.3-30.4,24.2C-3619.9-182.7-3612.9-182-3605.9-181.9z"/>
		<path class="st1" d="M-3292.5-406c-0.4-0.5-1.2-0.9-1.9-1.3L-3292.5-406z"/>
		<path class="st1" d="M-3626.4-310c-2.6-4.3-6.8-7.5-11.3-9.6c-4.5-2.3-9.8-3.6-14.4-2c-4.6,1.7-8.1,7.2-6.1,11.8
			c2.7,6.2,12.2,5.7,17,10.4c2.1,1.9,3.1,4.8,4,7.4c2.4,6.8,4.9,13.7,7.4,20.5c1.3,3.7,3.6,7.9,7.4,7.7c4-0.2,5.8-5.3,4.7-9
			s-4.1-6.5-6.3-9.8c-2.2-3.3-3.4-7.7-1-10.8l-1.3-2.3C-3623.5-299.9-3623.9-305.7-3626.4-310z"/>
		<path class="st1" d="M-3591-258.4c-1,3.6,1,7.5,4,9.7c2.8,2.4,6.6,3.4,10.2,4.3c2,0.7,4.4,1,6.1-0.3c1.6-1.2,1.6-3.5,1.7-5.4
			c0-9.3-0.7-18.4-1.9-27.6c-0.5-3.4-1-6.9-3.1-9.7c-1.9-2.8-5.6-4.6-8.9-3.3l-0.8,5.9c1.9,6.9,0.6,14.6-3.5,20.3
			C-3588.5-262.6-3590.3-260.6-3591-258.4z"/>
		<path class="st1" d="M-3291.9-405.6L-3291.9-405.6c-0.1,0-0.2-0.1-0.2-0.1l-0.5-0.3c0.1,0.2,0.4,0.3,0.6,0.6L-3291.9-405.6
			L-3291.9-405.6z"/>
		<path class="st2" d="M-3706.4-429.3c0.3-0.3,0.6-0.4,0.9-0.7l-0.4-0.3C-3706-430.5-3706.2-430-3706.4-429.3z"/>
		<path class="st3" d="M-3167.4-178.5c2.8-118.4,5.5-236.7,8.1-354.9c-34.3,20.4-69.3,41.1-108.5,48.5
			c-71.8,13.5-143.8-20.4-206.4-58.1c-5.2-3.2-11.4-6.6-17.4-4.8c-3.2,1-5.7,3.3-8.2,5.4c-28,24.6-61.8,42.3-97.8,51.7
			c-58.3,15-121.8,7.1-175.9-19.1c-13.7-6.7-27.1-14.7-36-27l-4.8-3.8c-1.6,88.1-3.2,176.1-5,264.3c-0.9,43.5-1.6,87.4,3.9,130.6
			c20.5,158.3,133.4,301.2,282.8,357.8c10.4,4,21.2,7.5,32.3,8.1c10.5,0.6,20.9-1.3,31-3.6c28.4-6.4,56.2-15.8,82.6-27.9
			c30.3-14,59-31.9,84.6-53.2c71.1-59.1,118.8-145.8,130.4-237.6C-3168.5-127.3-3167.9-152.9-3167.4-178.5z M-3554.5,69.3
			c-0.2,0.2-0.4,0.4-0.6,0.7c-0.1,0.1-0.2,0.3-0.3,0.4c0-0.1,0-0.2,0-0.3C-3555.3,69.8-3555,69.6-3554.5,69.3z M-3552.3,82.1
			c0,0.3-0.1,0.6-0.2,0.8c0-0.1,0-0.2,0-0.2c0.1-2.4-0.6-6.4,0.4-8.5c0,0,0,0,0,0C-3552.6,76.5-3552.1,79.9-3552.3,82.1z
			 M-3542.9,99.5c-1.8-1-3-3-3.5-5.1c-1.5-6.3,3.3-13.2,9.6-14.5c6.3-1.3,13.2,3,15,9.1l3.3,0.4c2.9-0.4,2.9,4.8,0.3,6.1
			c-2.6,1.3-5.8,0.3-8.7,0.6C-3532.3,96.9-3538,102.2-3542.9,99.5z M-3519.8,24.6c1.3,0.9,1.2,2.5,0.3,3.5c0.5-0.9,0.4-2.2-0.7-2.9
			c-0.6-0.5-1.2-0.8-1.9-1.1l0.1-2.1c0.1,0.1,0.2,0.2,0.3,0.2l0,1.3C-3521.1,23.8-3520.4,24.3-3519.8,24.6z M-3496.7-212.6
			c3.8,4.2,8.6,7.6,13.9,9.9c-2.6,4-1.2,9.3-0.3,14c0.9,4.7,0.7,10.5-3.4,13c-4,2.3-9.6-0.6-11.6-4.8c-2-4.2-1.7-9.2-1.3-13.9
			c0.3-3.3,0.7-6.7,0.9-10c0.2-2.6,2.3-6.2,4.4-4.6L-3496.7-212.6z M-3493.8-147.3c3.8,0.1,6.3,3.7,8.2,6.9l0.9,5.2
			c-4.2,2.6-10.3,2.6-13.4-1.2C-3501.2-140.2-3498.7-147.4-3493.8-147.3z M-3489.6-60.8c0.5-10.8,1.3-21.6,1.9-32.4l2.9-0.2
			c3.5,5.6,5.6,11.9,6,18.5c4.9-0.8,9.4-4.1,11.4-8.6c3.4,3.3,0.2,9.1-3.7,11.6c-4,2.5-9.1,4.4-10.6,8.8c-1.2,3.6-1.5,9.4-5.1,8.7
			C-3489.3-55-3489.8-58.2-3489.6-60.8z M-3412.4-174.4c2.1,4.5,7.6,6.2,11.4,9.2c3.9,3,5.5,10.5,0.9,12.1
			c-8.2-2.1-16.7-2.5-24.9-1.2c-1.8,0.2-3.7,0.6-4.9,2c-1.6,1.5-1.8,3.8-2,5.9c-0.8,7.9-0.4,17.8,6.8,20.9c4.5,2,9.7,0.1,14.4,1.7
			c4.5,1.5,7.4,6.6,6.5,11.3c-0.8,4.7-5.3,8.4-10,8.4c-3.7-0.1-6.9-2-10.4-3.1c-11.6-3.4-23.6,3.9-35.6,3.3c-2-0.1-4.1-0.4-5.4-1.8
			c-1.3-1.4-1.6-3.6-1.8-5.5c-1.7-23.7,0.7-47.5,7-70.3c1-3.9,2.7-8.3,6.4-10c2-0.9,4.3-0.8,6.4-0.7c7.6,0.2,15.4,0.5,23,0.7
			c0-4.4,6-8.3,9.8-5.5C-3408.5-192.4-3415.7-181.6-3412.4-174.4z M-3358.8-411.4c3.8,1.6,4.8,6.8,2.7,10.4
			c-1.9,3.6-6.1,5.3-10.2,5.6c-4,0.2-8-0.9-12-2c0.9-5.2,6.8-8.8,11.9-7.3l0-0.8C-3367.5-409.2-3362.5-413-3358.8-411.4z
			 M-3323.8-288.8c1,0.9,1.1,2.6,1.1,4c0.1,8.1-0.2,16.6-4.7,23.2c-0.6,0.9-1.4,1.8-2.5,2.2c-2.9,1-5.1-2.9-5.5-6
			c-0.8-7.2,0.9-14.9,5.1-21l3.4-1.3C-3327.1-289-3324.8-289.7-3323.8-288.8z M-3326.9-252.6l1.5-3.2c2.3-5.7,7.4-12.7,13.1-10.1
			c4.2,2,4.5,7.9,3,12.3c-4.2,12.2-19.2,20.1-31.1,15.2c-1.4-0.5-2.7-1.3-3.6-2.4c-2.8-3.4-0.2-9.1,3.8-11.2
			C-3336.1-254-3331.3-253.4-3326.9-252.6z M-3304.5-83l2.3-0.8c3.5,5.6-0.9,14.6-7.6,14.4c-6.7-0.1-10.7-10.1-5.5-14.3
			C-3312.1-86.5-3307.1-86.2-3304.5-83z M-3296.3-110.1l4.3-2.5c2.9,3.9,2.4,10.3-1.5,13.2s-10.7,1-11.8-3.7
			C-3306.3-107.8-3300.5-112.8-3296.3-110.1z M-3320.9-85.2c-2.5,1.6-6.1,1.8-8.4-0.3c-2.2-2-1.9-6.3,0.8-7.4l-1.9-1.6
			c-0.1-5.3,7.9-8.1,11.7-4.4C-3314.8-95.1-3316.4-88-3320.9-85.2z M-3328.1-176.8c-4.1-1.2-5.6-6.3-3.7-9.9
			c1.3-2.5,5.2-0.1,3.9,2.4c-0.5,1.1,0.1,2.6,1.3,3.1c0.2,0,0.5,0.2,0.6,0c-1.5-1.1-1-4,1.2-4l-0.1,4.2c1.5,0,2.7,0.7,3.6,1.6
			c0.4,0.5,0.7,0.9,1.2,1.4c0.7,0.9,2.4,0.8,3.2,0.1c0.7-0.7,0.8-1.7,0.5-2.5c0.5,0.9,0.5,2.1-0.3,2.8c-0.8,0.7-2.5,0.8-3.2-0.1
			c-0.4-0.5-0.7-0.9-1.2-1.4C-3322.9-177.1-3325.6-176.1-3328.1-176.8z M-3387.3-148.8c-2.7-6.2-3.7-14.9,2.1-18.5
			c5.1-3.3,12.5,0.5,15.2,5.9c2.7,5.6,2.1,12.1,1.4,18.2l-1.1,0.3c0.5,2.6-0.3,5.2-0.4,7.8c-0.1,2.6,0.9,5.7,3.5,6.2
			c1.5,0.4,2.9-0.4,4.3-0.9c8-3.6,16.1-7.1,24.1-10.7c1.4-0.6,2.9-1.3,4.3-1.1c3.2,0.4,4.7,4.7,3.4,7.6c-1.3,2.9-4.1,4.9-6.9,6.5
			c-6.7,3.8-13.9,6.3-21.4,7.9c-6.3,1.3-13.3,2-17.7,6.8c-3.3,3.6-5.6,9.7-10.5,9.4c-5.3-0.3-6.6-8-4-12.6c2.6-4.6,7.1-8.2,8.6-13.3
			C-3380.5-135.9-3384.6-142.4-3387.3-148.8z M-3386.6-226.2c-0.3-0.1-0.5-0.2-0.8-0.2c-0.3-0.2-0.6-0.5-0.8-0.8
			c0.1,0.1,0.1,0.1,0.2,0.2c0.4,0.3,0.9,0.3,1.4,0.3C-3386.6-226.5-3386.6-226.4-3386.6-226.2z M-3363.5-211.6
			c1,0.9,2.4,0.7,3.2-0.1c0.9,0.2,1.7,0.4,2.6,0.4c0.2,0.2,0.3,0.4,0.5,0.6c-0.9,0-1.8-0.2-2.5-0.4c-0.8,0.7-2.2,1-3.2,0.1
			c-0.6-0.5-1.2-1.1-1.7-1.7C-3364.2-212.3-3363.8-211.9-3363.5-211.6z M-3358.8-223.7c1.3,0.5,2.5,1.4,3.5,2.9
			c2.6,3.6,4.7,7,7.7,9.9c-0.1,0-0.3,0-0.4,0.1c-3.1-3-5.3-6.4-7.9-10.1C-3356.7-222.2-3357.7-223.1-3358.8-223.7z M-3365.2-224.1
			c-0.3-0.2-0.6-0.4-1-0.5c0.5,0,0.9,0.1,1.3,0.4C-3365-224.1-3365.1-224.1-3365.2-224.1z M-3366.6-215.2
			C-3366.5-215.1-3366.5-215.1-3366.6-215.2c-0.1-0.1-0.2-0.2-0.4-0.4C-3366.8-215.4-3366.7-215.3-3366.6-215.2z M-3378.1-222
			c2.2,2.2,5.4,3.3,8.5,2.8c0.1,0.2,0.3,0.4,0.4,0.6C-3372.6-218.1-3376-219.4-3378.1-222z M-3335-185.7c0.8,4.9-4,10.4-8.7,9
			c-6.3-1.7-5.9-10.7-3.9-17l2.5-1.9C-3340.2-194.2-3335.8-190.6-3335-185.7z M-3324.8-185.6L-3324.8-185.6
			c-0.3-0.4-0.5-0.9-0.8-1.3C-3325.3-186.4-3325.1-186-3324.8-185.6c2,0,3.7,0.6,5.1,1.6C-3321.1-184.9-3322.8-185.5-3324.8-185.6z
			 M-3316.5-184.4l-0.2,1.8c0,0.4-0.3,0.8-0.5,1.1c-0.1-0.1-0.1-0.2-0.2-0.3c0,0,0,0,0,0c0,0,0,0,0,0c0.2-0.3,0.5-0.7,0.5-1.2
			l0.2-1.8c-0.2,0-0.4-0.1-0.6-0.3c0.1,0,0.2,0.1,0.3,0.1c0.3,0,0.5,0.2,0.8,0.2c2,0.9,4.4-1.3,3.1-3.2c0,0,0.1,0,0.1,0.1
			c2.1,1.7-0.6,4.4-2.7,3.6C-3316-184.2-3316.2-184.2-3316.5-184.4z M-3316.1-190c-0.2-0.1-0.4-0.2-0.6-0.3c0.2,0.1,0.5,0.2,0.7,0.3
			L-3316.1-190z M-3318.2-186.2c-2.8-1.5-5.5-1.2-8.4-2.5c0.3,0.5,0.5,1,0.8,1.4c-0.2-0.4-0.4-0.7-0.6-1.1c-0.1-0.2-0.5-0.2-0.6-0.3
			c-3.3-1.8-5.9-4.9-9.5-6.7c-0.5-0.2-0.8-0.5-1-0.9c0.1,0.1,0.2,0.2,0.4,0.3c3.6,1.8,6.1,4.8,9.5,6.7c0.1,0.2,0.5,0.2,0.6,0.3
			c2.9,1.3,5.8,0.9,8.8,2.7C-3318.2-186.2-3318.2-186.2-3318.2-186.2z M-3338-198.5c-1-0.6-2-1.2-3.1-1.8c-1.3-0.8-2.7-1.6-3.9-2.4
			c-0.6-0.3-1.2-0.8-1.9-1.1c-0.6,0.1-1.4,0.1-2-0.1c-2.7-1.3-4.9-2.9-6.7-4.9c1.7,1.8,3.7,3.2,6.2,4.3c0.6,0.3,1.4,0.3,2,0.1
			c0.6,0.3,1.2,0.8,1.9,1.1c1.3,0.8,2.5,1.6,3.9,2.4c1.2,0.8,2.4,1.4,3.7,2.2C-3338-198.7-3338-198.6-3338-198.5z M-3347.4-303.2
			c1.8,5.4-3.9,11.6-9.3,10.5c-5.7-1.2-8.4-9.1-4.6-13.4c4.1-4.7,11.8-3.1,17.9-1.3L-3347.4-303.2z M-3364.2-257.6
			c1-2.7,2.5-5.6,4.8-7.3c2.3-1.8,6-2.1,8.2-0.2l-2,0.7c3.2-1.4,6.3,3.1,5.3,6.4c-1,3.3-4.3,5.4-7.2,7.1c-2.9,1.7-6.2,3.9-6.9,7.3
			c-0.5,2.7-1.4,7.3-3.8,6C-3367-244.4-3366.4-251.2-3364.2-257.6z M-3367-224.6c-0.1,0-0.2,0-0.3,0c-4.8-3.5-9.5-7-14.5-10.2
			c-2.4-1.6-4.9-2.9-7.6-3.6c2.9,0.5,5.6,2,8.2,3.7C-3376.4-231.5-3371.7-228.1-3367-224.6z M-3379.9-224.6
			c-0.9,0.4-1.7,0.9-2.7,1.3c-1.1,0.5-2.4,0.1-3-0.8c0.6,0.4,1.5,0.5,2.4,0.2c0.9-0.4,1.9-1,2.9-1.4
			C-3380.2-225.1-3380-224.8-3379.9-224.6z M-3392.5-229.5c1.1-0.1,2.1-0.2,3.1-0.4c0.1,0.2,0.1,0.4,0.2,0.7
			c-0.8,0.1-1.7,0.1-2.6,0.3c-1.1,0.2-2.1-0.4-2.5-1.1C-3393.9-229.6-3393.2-229.4-3392.5-229.5z M-3395.3-231.7
			c-0.7-0.2-1.4-0.6-2.2-1c-0.3-0.2-0.5-0.4-0.6-0.7c0,0,0,0,0.1,0c1,0.6,2,1,2.9,1.2C-3395.3-232-3395.3-231.9-3395.3-231.7z
			 M-3401.5-186.5c1.2-5.1,4.7-9.3,8-13.3c2.4-2.8,5-5.8,8.6-6.1c5.6-0.3,9.5,6.7,7.7,12c-0.5,1.4-1.1,2.6-2.2,3.4
			c-1.2,1-3.1,1.6-4.6,2.1c-6.3,2.7-10.1,10.4-8.4,17.1l-3.6-1.6C-3401-175.1-3402.6-181.4-3401.5-186.5z M-3399.5-235.3
			c0.1,0.1,0.2,0.1,0.4,0.1c0,0.1,0,0.2,0,0.3c-0.1,0-0.1-0.1-0.2-0.1C-3399.4-235.1-3399.4-235.2-3399.5-235.3z M-3422.4-53.1
			c-4.8,4.1-13.3,2.3-17.1,7.4c-1.3,1.8-1.6,4.1-1.7,6.3c-0.4,7.1,1.2,14.4,4.7,20.6c2,3.7,4.8,7.9,3.3,12c-0.6,1.6-1.9,2.7-3.4,3.6
			l-0.4,0l-30.9-0.9c-1.2-2-1.5-4.8-2.1-7.2c-0.8-3.2-3.4-7-6.7-6c4.2-16.3,12.2-31.6,23.1-44.5c1.4-1.6,2.8-3.3,4.9-4.3
			c5.1-2.7,11.1-0.6,16.9-0.6c3.4-1.9,8.2-0.8,10.6,2.3C-3418.6-61.2-3419.1-55.9-3422.4-53.1z M-3385.4,6.9
			c-0.5-0.7-0.6-1.6-0.2-2.3l0.2,0C-3385.8,5.3-3385.7,6.2-3385.4,6.9z M-3379.2,31.3c-0.6,0.3-1.2,0.9-1.7,1.8
			c-1,1.6-0.7,3.2,0.2,4.7c-0.3,0.6-0.6,1.2-1,2l0,0.2c-0.5,0-0.8,0.1-1.2,0.1c-0.8,0-1.5,0.1-2.4,0.4c-2.1,0.5-2.1,3-0.7,4.1
			c-0.2,0.1-0.5,0.1-0.6,0.1c-4.4-0.9-8.5-0.9-13.1,0.2c-1.5,0.4-2,1.9-1.5,3.2l-52.4-1.3l0-0.2l52.2,1.3c-0.4-1.2-0.1-2.7,1.5-3.2
			c4.6-1.1,8.7-1.1,13.1-0.2c0.2-0.1,0.5-0.1,0.6-0.1c-1.3-1-1.3-3.5,0.7-4.1c0.9-0.3,1.7-0.4,2.4-0.4c0.5,0,0.8-0.1,1.2-0.1l0-0.2
			c0.3-0.8,0.7-1.4,1-2c-0.7-1.4-1-3.1-0.2-4.7c0.5-0.9,1.1-1.3,1.7-1.8c0-1.2,0.1-2.4,0-3.5c-0.1-1.8,1.6-2.4,3-2
			c0.2-1.1,0.4-2,0.5-2.6c1.2-5,2.6-9.9,4.1-14.8c0.1,0.1,0.2,0.1,0.3,0.2c-1.5,5-3,9.8-4.3,14.8c-0.2,0.5-0.3,1.4-0.5,2.6
			c-1.4-0.5-3.1,0.2-3,2C-3379.2,28.9-3379.2,30.1-3379.2,31.3z M-3383.1,25c-0.2,6.1-5.2,10.8-11.3,10.6s-10.8-5.2-10.6-11.3
			s5.2-10.8,11.3-10.6C-3387.7,13.9-3383,18.9-3383.1,25z M-3374.4,7.3C-3374.4,7.3-3374.4,7.3-3374.4,7.3
			C-3374.4,7.3-3374.4,7.3-3374.4,7.3z M-3375,6.5C-3375,6.5-3375,6.5-3375,6.5c0.2,0.2,0.3,0.5,0.5,0.7
			C-3374.7,7-3374.9,6.8-3375,6.5z M-3498.8,20.7c-1.1,0.1-2.6,0.4-4.4,0.3C-3501.4,20.9-3499.8,20.8-3498.8,20.7z M-3514.1,20.4
			c-0.6-0.1-1.2-0.2-1.8-0.3C-3515.4,20.2-3514.7,20.3-3514.1,20.4c2.1,0.8,4.3,1.8,6.4,3C-3509.9,22.1-3512,21.1-3514.1,20.4z
			 M-3496.8,95.7c3.4-1.6,8.1-0.7,9.4,2.9l-0.5-2.8c2.3-0.2,4.7-0.3,6.8,0.7c2.1,1,3.7,3.3,3,5.6c-0.8,2.7-4.4,3.2-7.3,3.1
			c-6.4,0-12.8-0.5-19-1.6C-3502.3,100.4-3500,97.3-3496.8,95.7z M-3499.7,125.3c2.1-4.8,8.7-6.4,13.7-4.3c5,2,8.3,6.7,10.3,11.6
			l1,1.4c-4.8,3.7-11,6.4-16.9,5S-3502.1,130.9-3499.7,125.3z M-3467.7,42.4c-2.2-2.8-4.2-5.8-6.1-8.7c-1-1.6-3.1-1.3-4-0.1
			c0.5-1.6,3.1-2.4,4.3-0.5c1.9,3.1,3.9,5.9,6.1,8.7c0.7,0.9,0.7,2.3,0,3.1C-3467.2,44.1-3467.2,43.1-3467.7,42.4z M-3468.8-88.7
			c4.8-7.3,14.8-10.5,22.9-7.4l5.6,4.6C-3448.9-87-3459.4-85.9-3468.8-88.7z M-3435.5-213l2.4-0.4c-6.8-0.5-14.5-0.6-19.5,4.1
			c-3.4,3.2-5,8.4-9.2,10.8c-3.7,2.2-9,1.2-11.8-2.2c-2.6-3.4-2.5-8.8,0.5-12c1.7-1.9,4.4-2.9,6.7-3.9c5.9-2.4,11.7-4.7,17.6-7.1
			c3.9-1.6,7.9-3.1,12-2.8c4.1,0.3,8.3,3,8.9,7.1C-3427-215-3431.9-210.9-3435.5-213z M-3475.5,39.5c0.2,0.3,0.4,0.7,0.7,1
			c-7.2-2.5-13.4-8.6-19.7-13.4c0.2-0.1,0.4-0.3,0.5-0.4C-3488.1,31.2-3482.2,36.8-3475.5,39.5z M-3499.2,23.6c4.2-1.4,10.1-5,1-9.3
			C-3489,18.6-3495,22.2-3499.2,23.6z M-3504.1,13.9c1,0.1,2.1,0,3.1,0C-3502,13.8-3503.1,13.9-3504.1,13.9z M-3515.8,6.3
			c1,0.6,2,1.1,3,1.6C-3513.8,7.4-3514.9,6.9-3515.8,6.3z M-3512.6,8.1C-3512.6,8.1-3512.5,8.1-3512.6,8.1
			C-3512.5,8.1-3512.6,8.1-3512.6,8.1z M-3521.5,6.2l0-0.2c0,0,0,0,0.2,0C-3521.3,6-3521.5,6-3521.5,6.2z M-3522.2,29.3
			c0.1,0,0.2,0.1,0.3,0.1l-0.7,23l-0.3,0L-3522.2,29.3z M-3481.1,190.8c-4,0.2-7.9-1.6-11.8-2.8c-5.9-1.9-12.1-2.2-18.2-1.2
			c-5.7,1-11.4,3.2-17,2.5c-5.8-0.6-11.6-5.8-10.2-11.4c23,0.7,46,1.4,68.8,2.1l-4.1,3.2C-3472.8,187.1-3477.1,190.4-3481.1,190.8z
			 M-3457.8,106.5c-3.1,2.2-8.2,2.6-10.2-0.5c-1-1.7-0.8-3.7-0.6-5.7c1.1-7.3,4.2-14.2,8.8-19.8l1-1.3c5.7-0.9,11.9-1.5,17,1.6
			c4.9,2.9,7.4,10.7,3.2,14.6c-2.8,2.5-6.9,2.5-10.3,4.1C-3452.3,101-3454.7,104.3-3457.8,106.5z M-3438,67c0.5,0,0.9,0,1.4,0
			c0,0,0,0.1,0,0.2C-3437.1,67.1-3437.6,67-3438,67z M-3447.5,69.5c0.5-0.2,0.9-0.6,1.2-1.1c0.1,0,0.2,0.1,0.3,0.1
			C-3446.4,69.1-3446.9,69.4-3447.5,69.5z M-3438.8,171.2c-3.5-0.6-5.5-4-6.9-7.1c-1.8-4.3-2.7-10.1,1-12.9c3.7-2.8,9.3,0,11.3,4.2
			c2,4.2,1.2,9,0.7,13.6l-0.9-2C-3433.7,169.1-3436.2,171.7-3438.8,171.2z M-3389.5,173.1c-4.6,1.2-9.7,2.1-12.7,5.9
			c-1.6,2.1-2.4,4.6-3.9,6.7c-2.9,4-8.2,5.8-13.3,5.5c-5-0.3-9.7-2.3-14.2-4.4c4.6-0.2,9-1.9,12.6-4.5c3.1-2.3,5.6-5.5,8.6-8.1
			c7.4-6.6,17.2-10.4,27.1-10.3l5.6,0.3C-3380.1,169.2-3385,171.9-3389.5,173.1z M-3184.1-198.9c-4.1,64.1-10.3,129.1-33.8,188.9
			s-66.5,114.5-126.1,138.6c-12.8,5.1-26.5,8.8-40.1,7.5c-13.7-1.3-27.3-8.9-33.3-21.3c-3.2-6.5-4.4-14.1-5.7-21.6
			c-0.2,0.5-0.3,0.8-0.6,0.9c0.4,3.5,0.9,7,1.4,10.6c0.3,1.5-0.8,2.5-1.9,2.7c0.9-0.4,1.7-1.3,1.5-2.6c-0.7-3.5-1-7-1.4-10.6
			c0.3-0.1,0.5-0.6,0.6-0.9c0-0.2,0.2-0.1,0.2-0.3c0.6-0.6,0.8-1,0.8-1.5c0.2-0.8,0-1.4-0.4-1.8c-0.2-4.6-0.3-9-0.7-13.6
			c-0.2-3.1,0.6-8.5-1.5-11.2c-1.8-2.3-5.6-2-8.2-2.1c-5.6-0.3-11.1-0.6-16.7-1c-0.2,0-0.3,0-0.5,0c0,0,0,0,0.1,0
			c-3.3-1.9-5.8-6-4.6-9.3l-3.3-0.1v0l3.2,0.1l93.3,2.4l1.7-55.8l-52-1.6l-0.2,0c-2.9-1.2-5.4-3-7-6c14.6-5.6,29.4-11.3,44.1-16.9
			c8.2-3.1,17.1-6.9,20.4-15.1c5.1-12.2-5.5-24.8-15.3-33.8c-7.2,7.4-16.8,12.4-27.1,14.1c-2.5-8.9,4.2-18.5,12.7-22.3
			c8.5-3.9,18.2-3.6,27.5-3.1c3.2,0.1,6.8,0.4,9.1,2.7c4.1,4.2,1,11.1,0.4,17.2c-1.1,12.2,11.3,22.6,23.4,22
			c12-0.5,22.5-9.8,27.7-20.8c4.6-9.8,7.4-22.8,17.8-25.7c5.7,4.4,3.1,13.2,1.4,20.1c-1.7,7,0.2,17.1,7.4,16.8
			c18.5-16.3,37.9-34.6,43.2-58.7c3.7-16.6-4.9-38.8-22-38.7c-5.8,0.1-11.2,2.7-16.3,5.4c-18.6,9.5-37,19.1-55.5,28.6
			c-9.7-3.2-9.3-18.4-2-25.3c7.4-7.1,18.2-8.6,28.2-11c10-2.4,20.6-7.6,23.4-17.4c-6.5-6.3-10.5-14.9-11.3-23.8
			c-3.7,5.1-10.3,7.6-16.5,6.5c1.7-6.3,3.4-12.7,5.3-18.9c-10.3-2.6-21.1,6.4-22.1,16.6c0,0,0,0,0,0l0-0.1l-14.1-8.3
			c0.6,0.9,1,1.9,1.7,2.8c1.9,1.4,3.9,2.7,6.1,3.4c-2.3-0.7-4.2-2-6.3-3.4c-0.6-0.9-1.2-1.9-1.7-2.8c0-0.2-0.1-0.2-0.1-0.3
			c-0.7-1.2-1.4-2.5-2.5-3.3c-0.6-0.5-1.3-1-1.9-1.4c-0.4-0.5-1-0.8-1.8-1c-1.5-0.8-3-1.6-4.5-3c-0.1-0.3-0.4-0.5-0.7-0.8l-0.1-0.2
			c-0.1-0.2-0.3-0.3-0.6-0.5c-1-0.8-2.1-1.4-3.2-1.8c1.3,0.3,2.6,1,3.8,2c0.1,0.2,0.3,0.3,0.6,0.5l0.1,0.2c0.3,0.3,0.4,0.5,0.7,0.8
			c1.3,1.4,3,2.2,4.5,3c0.8,0.2,1.4,0.5,1.8,1c0.6,0.3,1.3,0.8,1.9,1.4c1,0.9,1.8,2,2.5,3.3c-1.1-4.8-1.2-9.6-0.6-14.5
			c13.7-4.9,30.2-7.5,42.2,1.1c6.7,4.9,10.7,12.7,16.3,18.9c5.4,6.3,14.1,11.4,22,8.4c2.1-5.6,8.5-9.3,14.4-8.1
			c9.5-23.5,18.9-46.9,28.5-70.4c1.5-3.9,3.1-8.1,1.7-12.1c-1.4-3.9-7.6-5.9-9.8-2.4c-3.4-7.1,1.6-16.9,9.2-18.1
			c-3.8-5.8-12-6.9-18.6-4.8c-6.6,1.9-12.1,6.3-18,10c-9.5,5.8-19.9,9.8-31,11.4c-3.5,0.5-7.6,0.7-10.3-1.7
			c-4.6-4.3-5.2-15.5-11-13.3c-1.4,0.6-2.5,1.6-3.1,3c-5.3,10.5-18.9-0.4-17.5-10.1c1.2-8.9,8.2-15.7,11.5-24.2
			c-6.4-4.6-13.4,4.9-20.8,7.3c-7.2,2.2-14.8-3-19.4-9.1c-4.5-6.1-7.7-13.5-13.5-18.4c-3.6-3-8.1-5.1-10.2-9.1
			c-2.2-4,0.3-10.8,4.9-9.9c10.2,15.2,31.8,16.7,50.1,14.6c21.4-2.4,45.1-6.9,61.1,10.7c5.2,5.8,7.8,13.2,8.4,20.8
			c0.3,6.1,3,15.3,8.5,12.6c0.9-0.4,1.7-1.3,2.4-2.2l13.1-20.5c3.7-5.7,7.4-11.5,8.5-18.2c3.1-18.3-13.3-33.6-28.2-44.9
			c1.7-6.2,10.5-0.4,16.7,1.3c6,1.7,12.4-2.5,15.5-8.1c3.9-7,3.5-15.9,4.2-23.6c0.4-4.3-1.4-8.4-5-10.7c-6-3.7-9.5,1.2-14.1,2.5
			c-10,2.9-17.5-11.2-27.8-11.5c-10-0.3-17.1,12.3-27,11.4c-7.1-0.5-11.7-7.5-16.5-12.5c-4.9-5-14.2-8.5-18.3-2.8
			c-1.6,2.2-1.8,5.3-2.8,7.8c-2.3,6.6-9.2,10.5-14.6,15.1c-5.5,4.6-10,12.5-6.2,18.4c5.2-6.7,13.9-10.7,22.4-10.4
			c4.9,8.8,1,20.7-6.8,27.1c-9.2,7.5-22.4,8.8-34,7.3c-3.8-0.4-6.7-3.9-6.5-7.7c0.6-5.9,8.7-6,12.6-10.1c5.8-6.2-1.5-16.2-0.5-24.7
			c1.4-12.1,19.9-18.4,18.3-30.7c-11.2,2.1-22.4,4-33.7,6.1c-4.3,0.8-8.7,1.6-12.6,3.6c-12.4,6.2-16.3,21.6-19,35.1
			c-0.5,3-1.1,6.7,0.9,9c1.5,1.6,3.7,2.1,5.7,3.2c7.5,4.6,3.3,16.7-3.6,22.1c-6.9,5.4-16.3,8.8-20,16.8c-1.3,2.7-1.9,5.9-3.5,8.6
			c-6.9,10.6-23.4,2.5-36.1,4.2c-12.5,1.8-23.6,14.5-35.5,10.2c-3.8-1.3-6.6-4.3-10-6.2c-14.8-8.8-33.7,1.1-50.9-0.3
			c-2.4-0.2-5-0.8-7.1-2.2c-2.2-1.7-3.4-4.4-4.8-6.8c-5.4-9.1-14.9-14.8-23-21.6c-8.2-6.8-15.5-16.5-14-26.9c1-6.4,5-13.7,0.7-18.4
			c-3.2-3.6-9.4-3-12.4-6.8c-3.4-4.1-1.5-11.2-5.5-14.6c-4.2-3.6-10.5-0.3-16-0.8c-7.3-0.5-12.9-7.7-20.5-7.3
			c-2.9,0.2-5.5,1.8-6.5,4.4c-2.3,5.9,5.2,10.5,8.7,16c6.3,9.8-1.2,24.2,2.9,34.2c0.6,1.2,1.1,2.5,2.2,3.6c2.8,3.4,7.6,5.4,7.8,10.4
			c0,0.2,0,0.3,0,0.3l20.4,11.9c-0.3-0.5-0.6-1.1-0.6-1.7c-0.5-4.1,5.4-6.1,9.3-4.6l0,0.5c2.1-3.1,7.7,0.7,6.6,4.3
			c-1.2,3.6-5.6,5-9.4,4.6c-0.3,0-0.5,0-0.8-0.2l58.4,34.2c0.3-0.3,0.6-0.4,0.9-0.7c3.6-2.6,8.3-3.2,12.7-3.4
			c12.5-0.8,27.8,2.1,32.3,13.8c1.3,3.4,1.5,7.2,1.6,10.9c0.1,2.6,0.2,5,0.2,7.6l35,20.6c0.6-6.1,1-12.2,1.6-18.2
			c0-5.8,1.4-12.3,6-16.4c2.5-2.2,5.6-3.5,8.8-4.5c7.7-2.5,15.7-3.9,23.7-4.3l-1.1,0.1c12.8-0.7,28.4-3.1,33.2-15
			c0.5-1.4,1-3,2.3-3.9c2-1.3,4.6,0,6.5,1.4c14.1,10.8,16.6,33.7,5.3,47.4c-2.4,2.8-5.3,5.3-7,8.5c-6,11.2,4.1,25.6-0.7,37.3
			c-1.3,3.2-3.5,5.7-6.2,7.7c0.8,0.2,1.4,0.8,1.7,1.6c-0.2,0-0.3,0-0.5,0.1c-0.1-0.9-0.9-1.7-1.8-1.9c-0.2,0-0.3,0-0.5,0
			c-0.3,0-0.5,0-0.8,0c-1.1,0-1.7,0.6-2.2,1.5c0,0,0,0-0.2,0.1c-0.3,0.3-0.5,0.7-0.6,1c-0.1,0.3-0.1,0.6,0,0.9
			c-3.3,1.7-6.9,3-10.3,4.2c-1.7,0.6-3.4,1.1-5.2,0.9c-2.6-0.4-4.5-2.4-5.6-4.7c-2.1-4.5-1.4-9.6,1.3-14l-0.1-0.2
			c-0.6,0.6-1.7,0.9-2.6,0.4c-2-1-3.9-2.1-5.8-3.1c-0.6-0.3-1-0.8-1-1.4c-0.5-0.2-0.8-0.3-1.2-0.5c-1.2,0.4-2.9-0.1-3.2-1.5
			c-4.5-2.4-8.5-5.6-12-9.7l-6.3-3.7c0,1.1-0.1,2.1-0.1,3.2c-0.1,4.4,1.1,9.3,5,11.4c4.2,2.1,10.3,0.3,13.3,3.9
			c2.6,3.3,0.2,8.4-3.2,10.9c-3.4,2.5-7.9,3.4-11.2,6.1c-3.4,2.8-5.4,7-8.8,9.5c-4.7,3.4-11.5,3.2-15.8-0.6c-4.6-4.1-5.6-11-4.5-17
			c1.1-6.1,3.9-11.8,5.7-17.6c2-6.2,2.8-12.7,3.5-19.2l-35-20.6c0.4,13.3,0.1,26.7-0.5,39.9c-0.1,3.8-0.4,7.6-2.3,10.9
			c-2.9,4.8-9,6.6-14.5,6.1c-5.5-0.5-10.6-3.1-15.5-5.5c-6.2-3.1-13.2-7.9-12.2-14.7c1.6-12.1,23.7-8.3,28.8-19.4
			c3.4-7.5-3.5-15.3-9.6-20.7c-9.1-7.7-21.8-15.7-31.7-9.3c-2.6,1.7-5,4.6-8.1,4.9c-3.1,0.4-5.9-1.4-8.4-3.2
			c-7-4.9-14.2-9.9-19.8-16.4c-2.2-2.5-4.3-5.3-7.1-7.1c-5.1-3.2-11.6-2.6-17.7-2.4c-13.4,0.8-27-0.1-40.1-2.3
			c-0.8-0.2-1.5-0.4-2.1-0.8c-0.2,0-0.1-0.2-0.1-0.2c-1.2,1-3.2,0.8-3.6-0.7c0.7,1,2.3,0.9,3.3,0.1c0.2-0.1,0.2-0.1,0.3-0.3
			c1.5,0,3.1-0.7,4.7-0.6c0.8,0,1.5,0,2.1-0.4c1.1-0.6,1.4-1.8,2.4-2.4c0.2-0.1,0.3-0.3,0.5-0.4c0.3-0.4,0.6-0.9,0.5-1.5
			c1.1-0.3,2.2-0.7,3.1-1.1c1.2-0.5,1.4-1.6,1-2.6c0.8,1,0.8,2.6-0.7,3.2c-1.1,0.4-2,0.9-3.1,1.1c0,0.5-0.2,1.1-0.5,1.5
			c11.8-3.4,24.1-5.5,36.3-7.4c8.3-1.3,17.1-2.5,24.6,1.4c7.3,3.9,11.4,11.9,16.8,18.3c5.4,6.4,14.7,11.4,21.9,7.1
			c1.4-0.9,2.7-2.1,3.9-3.1l-58.4-34.2c-2-0.4-4.1-1.3-5.1-3l-20.4-11.9c-0.1,4-3,7.4-7,8.5c-7.7,2.1-14.2-2.4-20.1-6.7
			c-4.5-3.3-9.4-7.5-11.7-12.4c2.4,4.6,7,8.6,11.3,11.7c5.8,4.3,12.4,8.9,20.1,6.7c3.8-1.1,6.8-4.4,7-8.5l-0.1-0.1
			c0-0.1,0-0.2,0-0.2c0-5.2-4.8-7.2-7.6-10.6c-0.9-1.1-1.6-2.3-2.2-3.6l-16-10c3-3.6,4.8-8.2,4.3-12.8c-0.9-9.9-9.8-17.8-19.5-19.9
			c-9.2-2-20.7-0.3-28.8,5.1c-0.3,0.3-0.6,0.4-0.9,0.7c-2.3,1.8-4.4,3.8-5.8,6.2l43.4,25.5c-0.1,0-0.1,0-0.2,0.1l0.1,0
			c-0.2,0.1-0.3,0.1-0.5,0.1l-43-25.6c-12.1-1.9-45.1-15.4-53-10c-9.3,6.4-5.6,23.4,4.8,26.5c0.6,0,1.4,0.2,2,0.4
			c-0.6,0-1.4-0.2-2-0.4c-8.3-1.2-17.3,3.9-20.3,11.9c-3.2,8.6,1.1,19.2,9.3,23.3c3.6,1.8,7.8,2.5,10.3,5.8c4.4,6.1-1.6,13.8-5,20.6
			c-6,12-1.8,28.1,9.4,35.5c4.4-14.2,28.9-8,38.1-19.7c3.5-4.5,3.8-10.4,6.4-15.5c2.4-5,9.6-8.8,13.6-4.9c1.4,8.1,6.7,15.6,14,19.5
			c-5.5,4.6-8.1,12.1-6.8,19c6.5-3.6,14.3-4.9,21.7-3.6c3.7,2.2,3.7,8.2,1,11.8c-2.7,3.4-7.2,5-11.5,6.2
			c-18.3,5.2-38.3,7.5-56.2,1.2c-7.5-2.7-14.9-6.8-22.9-6.9c-8.1-0.1-17.1,6-16,14c12.5,13.6,18,33.4,14.4,51.8
			c6.3-1.3,10.3,7,9.3,13.2c-1,6.2-4.5,12.4-3.3,18.6c2.3,13.6,21.5,14.5,35.1,12c3.5-18.8,20.1-34.3,38.9-36.4
			c12.5-1.4,25.4,2.4,37.6-0.4c-20.3,28-5,74,27.9,84.3c-6.6-9.9,0.2-25.6,11.8-27.7c4.3-0.8,8.8,0.1,13.1-0.7
			c17.8-2.8,23.1-28.2,40-34.1c12.9-4.6,27.4,4.6,33.4,17c5.9,12.4,5.3,26.7,4.3,40.3c-0.7,8.1-1.6,16.6-6.6,22.9
			c-4.9,6.4-15.4,9.3-21.3,3.6c-8.6-8.2,0.2-23.1-3.8-34.2c-3.4-9.2-15.1-12.9-24.8-10.7c-9.5,2.3-17.3,9.1-24.8,15.5
			c-1.6,1.3-3.1,3-3.5,4.9c-0.2,2,0.9,3.8,2,5.4c5.8,9,11.8,18,17.6,26.9c3.8-4.1,9.8-5.9,15.2-4.7c7.4,5.7,0.2,19-9,19.5
			c-9.3,0.5-17.2-6.6-22.9-13.9c-5.7-7.3-11.2-15.7-19.8-19.2c-9-3.6-19.8-1.4-28.3-5.9c-8.5-4.5-12.5-14.4-15.9-23.5
			c-3.2-8.8-6.5-17.6-9.6-26.5c-2.4-6.8-5.7-14.3-12.4-16.7c-10.1-3.5-19.5,6.4-24.7,15.7c13.7,5.9,10,26.2,4,39.9
			c-6.8,3.8-11.7-7.1-17.4-12.3c-11-9.9-28.2,1.9-35.9,14.6c-3.7,6.1-6.9,12.9-6.9,20c0,9.7,5.8,18.5,11.4,26.4
			c5.8,8.4,11.7,16.7,17.4,25c6.7,9.6,13.6,19.8,16.4,31.1c5.1-13.7,10.3-27.4,15.6-41c-2.5,16.5,15.9,27.7,31.3,34
			c8.9-6.1,20.5-8.1,30.9-5.5c-5.1,7.3-3.6,18.3,3.1,24.2c-0.4-6.1,6.7-10.5,12.8-10.4c6.2,0,12.3,2.5,18.4,2.5
			c4.6,0,9.3-1.4,13.7,0.1c4.4,1.4,7.4,7.7,3.8,10.5c4.4-3.5,10.3,2.3,12.3,7.7s5,12.2,10.6,11.4c1.8-0.2,3.4-1.3,4.8-2.4
			c19.5-15.7,19.9-49.5,1.1-65.9c12.9-4.3,26.6-6.7,40.1-6.9c-4.7,23-5.1,47.1-1.2,70.2c0.8,4.1,1.4,9-1.3,12.3
			c-0.2,0.1-0.2,0.1-0.3,0.3l-0.2,5.2c1.4-0.6,2.6-0.8,3.7-1c2-0.1,2,0.4,3.6,1.3c2.2,1.4,4.8,3.2,6.9,4.9c1,0.9,1.3,2.2,2.7,3
			c1.6,1,3,0.5,5,0.9c2.6,0.4,5.2,0.9,7.1,2.7c3.3,2.7,3.8,7.2,1.8,10.7c1.6-3.4,1-7.5-2.1-10.1c-1.9-1.7-4.7-2.3-7.1-2.7
			c-1.8-0.2-3.2,0.2-5-0.9c-1.3-0.8-1.5-2-2.7-3c-2.1-1.7-4.8-3.5-6.9-4.9c-1.6-1-1.5-1.4-3.6-1.3c-1.1,0.1-2.4,0.4-3.7,1l0.2-5.2
			l0-0.3l-92.5-2.8l-1.8,58l89.2,2.7l0.5,0c1,3.8,1.6,7.9,1.3,11.9c1.1,0,2.1,0.2,3.2,0.2c1.8,0.2,2.5,2,1.9,3.3
			c0.2-1.2-0.5-2.6-2.1-2.7c-1.1,0-2.1-0.1-3.2-0.2c-5-0.3-10-0.8-15.2-0.9c-1.4,0.1-2.6,0.2-3.7,0.5c-2-0.1-3.8-0.3-5.8-0.3
			c-0.3,0-0.6,0-0.8,0.1c-3-0.4-7.1-1-8.9,1.4c-0.9,1.2-0.6,3.5-0.6,4.9c-0.1,3.5-0.1,7.1,0,10.5c-0.9,2.3-1.5,4.8-1.6,7.4
			c-0.1,7.3,3.2,15,0.3,21.8c-5.4,11.9-25,10.2-31.3,21.6c-3.1,5.5-4,14.8-10.3,14.8c-1.8-0.1-3.5-1-5.1-1.8
			c-93.4-54.8-160.9-151.7-179.9-258.1c-5.9-32.9-7.3-66.5-8.2-99.9c-2.8-99.7-1.1-199.4,5.3-298.8c14.4,16.6,35.1,26.7,56.1,33.5
			c78.6,25.4,169.9,7.1,232.8-46.5c3.9-3.4,8.3-7.1,13.5-7.1c3.8,0,7.4,2.1,10.7,4c45.6,27,95.1,49.5,147.7,56.6
			c52.6,7.1,109-2.5,151.2-34.5C-3175.9-403.2-3177.7-300.9-3184.1-198.9z M-3367.9,48.4l0,0.3l-0.2,0
			C-3367.9,48.6-3367.9,48.6-3367.9,48.4z M-3367,4.9l0.5,0l0,0.5C-3366.7,5.2-3366.9,5.1-3367,4.9z M-3267.4-106.6
			c1.1,3.7,0,8.4-3.2,10.4c-4.8,2.9-11.5-1.7-12.3-7.4c-0.7-5.7,2.8-11,6.8-14.9c1.1,0.3,1.9,1.1,2.5,2.2l-0.1-0.2
			C-3271.1-113.4-3268.5-110.3-3267.4-106.6z M-3242.2-112.7c-0.3,1.1-1,2.3-2.2,2.4c-0.9,0.1-1.7-0.7-2.2-1.3
			c-3.1-3.1-6.2-6.3-9.2-9.3c-1.9-1.9-3.8-3.9-4.5-6.5c-1.2-5.5,5.2-10.7,10.8-9.7s9.7,6.1,11.5,11.5l-3.1,1.9
			C-3240.4-120.1-3240.9-116.1-3242.2-112.7z M-3252.6-247.2c-0.6,3.8-4.5,6.1-8,7.5c-4,1.7-8.2,3.1-12.5,4.3
			c-2.8,0.8-6.1,1.2-8.2-0.9c-1.3-1.4-1.6-3.7-1.5-5.7c-0.2-4.6-0.2-9.4,1.8-13.5s6.6-7.3,11-5.9c5.3,1.5,6.8,8.1,7.5,13.5l2.8-3.6
			C-3257.5-254.6-3251.8-251-3252.6-247.2z M-3251.4-231.8l5.3-4.7c-0.4,8.4-0.8,16.7-1.1,25.1c0,1.1-0.1,2.3-0.7,3.3
			c-1.3,2.5-5.1,2.7-7.8,1.9c-6.8-2-12.2-8.9-11.2-16C-3266.1-229.2-3257.8-234.7-3251.4-231.8z M-3231.4-240.4
			c-1.2,3.8-7.2,6.3-8.8,2.8c-0.7-1.2-0.4-2.9,0.1-4.6c2.2-7.7,4.6-15.4,6.8-23.1l2.1-0.5c2.5-2.1,5.9,1.9,5.3,5
			c-0.7,3.2-3.2,5.5-4.4,8.5C-3231.5-248.5-3230.4-244.2-3231.4-240.4z M-3292.5-406l-1.9-1.3C-3293.7-407-3293-406.5-3292.5-406
			l0.5,0.3c-0.1-0.2-0.2-0.3-0.5-0.4l-1.9-1.3c0.8,0.3,1.3,0.8,1.9,1.3l0.7,0.5l-0.1,0.1l0.1,0.1l-0.2,0.1
			c3.2,3.8,3.2,10.9,7.2,14.5c1.6,1.4,3.7,2.2,5.4,3.7c4.3,3.8,3.3,11.8-1.5,15c-4.8,3.2-11.9,1.9-15.9-2.3
			c-4-4.2-5.2-10.8-3.9-16.4c1.2-5.6,4.7-10.5,8.8-14.5C-3292.1-405.7-3292.4-405.9-3292.5-406z M-3629.6-406.2
			c-0.8,2.6-3.5,4.6-6.1,3.9c-3-0.9-3.8-5-3-8c1.2-4.7,4.5-8.7,9-10.7l-0.1,6.9C-3629.2-411.5-3628.7-408.8-3629.6-406.2z
			 M-3511.7-219.3c-0.1,7.6-9.5,7.2-14.3,4.9c-5.6-2.6-10-7.9-11.3-14.1c8.6-1.9,17.9,1.8,22.9,9.1L-3511.7-219.3z M-3540.9-225.5
			c-1.5,3.9-6,6.2-10.1,6.2c-4.3,0-8.3-1.6-12.2-3.3c-2.3-1-4.8-2.7-4-5c0.3-0.9,1.1-1.5,1.9-1.9c4.2-2.8,9.1-4.3,14.2-4.6l4.3-0.3
			C-3542.6-234.7-3539.4-229.4-3540.9-225.5z M-3583.6-284.8l0.8-5.9c3.2-1.3,7,0.5,8.9,3.3c2,2.8,2.5,6.3,3.1,9.7
			c1.2,9.2,1.9,18.3,1.9,27.6c-0.1,2-0.1,4.3-1.7,5.4c-1.7,1.3-4.1,0.9-6.1,0.3c-3.6-0.9-7.4-1.9-10.2-4.3c-3-2.2-5-6.1-4-9.7
			c0.7-2.3,2.4-4.2,3.8-6.1C-3583-270.2-3581.7-277.9-3583.6-284.8z M-3624.9-293.4c-2.4,3.1-1.1,7.6,1,10.8
			c2.2,3.3,5.1,6.1,6.3,9.8s-0.7,8.8-4.7,9c-3.8,0.2-6.1-4-7.4-7.7c-2.5-6.8-5.1-13.7-7.4-20.5c-1-2.6-2-5.5-4-7.4
			c-4.9-4.7-14.3-4.2-17-10.4c-2-4.6,1.5-10.2,6.1-11.8c4.6-1.7,9.9-0.3,14.4,2c4.5,2.1,8.7,5.3,11.3,9.6c2.5,4.3,2.9,10.1,0.2,14.3
			L-3624.9-293.4z M-3596.3-208l1.8,0.4c-1.5,4.2-0.4,8.7-0.1,13.1c0.2,4.4-0.7,9.6-4.8,11.6c-2,1-4.3,1.1-6.6,1
			c-7-0.1-14-0.7-20.8-1.9C-3618.5-193.7-3608-202.1-3596.3-208z M-3609.1-319.1c6,8.3,8.1,19.3,5.4,29.1l-0.5-3.7
			c-5.1-1.4-9.3-5.9-10.3-11.1C-3615.4-310-3613.3-315.7-3609.1-319.1z M-3592.1-274.6c-2.1,4.5-8.7,6.4-12.4,3.1
			c-3.7-3.3-1.6-10.9,3.2-11.3l5-4.7C-3592.1-284.8-3590-279.1-3592.1-274.6z M-3688.1-268c-2.5,1.4-4.6-2.6-2.2-4
			c5.6-3.3,11.6-5.6,17.9-6.9c2-0.4,3.5,1.6,2.5,3.4c-2.3,3.9-5.5,6.4-9.7,7.9c-2.3,0.8-3.4-2.1-2.2-3.6
			C-3684-270.3-3686.1-269.2-3688.1-268z M-3687.7-253.9c2.1-2.5,6.2-3.6,8.7-1.4l6.7-4.8c2,0.1,3.8,1.6,4.2,3.6
			c-3.4,0.4-5.7,3.5-7.1,6.5c-1.3,3-2.3,6.5-4.7,8.8c-2.4,2.4-6.9,3.1-8.8,0.3c-0.7-1.1-1-2.3-1.1-3.7
			C-3690-247.8-3689.7-251.3-3687.7-253.9z M-3667.2-321.8c-3.2-1.5-6.3-1.6-9.7-0.4c-0.5,0.1-0.9,0.1-1.4,0
			c-0.1,2.4-3.9,3.1-4.4,0.5c-0.8-3.8,1.7-7.3,5.6-8.4c4.5-1.2,8.6,1.5,11.9,4.2C-3663.4-324.6-3664.6-320.8-3667.2-321.8z
			 M-3696.1-381.3l0.5-1.7c1.4,3.9,7.2,2.5,11,4.3c5.3,2.4,4.5,10.8,0,14.3c-4.4,3.7-10.6,3.8-16.4,3.9c-2.9,0.1-6.8-0.8-7-3.7
			c-0.2-3.1,3.6-4.2,6.3-5.6C-3697.6-371.9-3695.3-376.9-3696.1-381.3z M-3725.6-352.5c-1.5-4.3-3.1-8.8-4.6-13.1
			c-1.3-3.7-2.7-7.7-1.6-11.6c1-3.9,5.7-6.8,9-4.9l-3.4,5.2C-3721.8-369.6-3721.6-360-3725.6-352.5z M-3713.6-266.8
			c-1.9-2.3-4.4-4.1-5.9-6.6c-1.6-2.5-1.6-6.3,0.9-8l1.4-0.4c5.9,1.5,10.6,6.4,12.1,12.4c1.5,5.8-0.5,12.5-5.1,16.6
			C-3709.2-257.7-3710.4-263.1-3713.6-266.8z M-3744.6-264.3c-3.3-5.9-5.8-13.3-2.5-19.1l0.7-1.5c5.2,4.6,10.7,9.5,12.3,16.2
			c0.5,2.3,0.6,4.7,1.3,7c1.5,4.8,5.8,8.1,10,11c4.2,2.9,8.5,6.2,10.2,11c1.7,4.8-1.3,11.2-6.3,11.4c-2.3-5.4-4.7-10.8-7-16.1
			c-0.4-1.1-1-2.3-2.2-2.8c-2.7-1.1-4.7,2.8-4.9,5.6c-0.2,2.9-1.1,7-4,6.7c-2.2-2.8-0.7-7-0.4-10.7
			C-3737.2-252.3-3741.3-258.4-3744.6-264.3z M-3520-102.5c-6.7,1-13.6,0.8-20.2-0.5c-2.6-0.5-5.9-2.8-4.4-5c0.5-0.6,1.1-1,1.9-1.3
			c6.9-3.1,15-3.4,22.1-0.5L-3520-102.5z M-3591.2-80.5c-12.2-3.3-27.4-5.9-36,3.5c-1.1,1.2-2.2,2.5-3.7,2.6c-3.8,0-2.7-6-4.3-9.4
			c-2.9-6-12.7-1.8-18.6-5.1c-5.4-3.2-4.1-12,0.8-15.8c4.8-3.8,11.7-4.1,17.8-4c6.1,0,12.3,0.4,17.9,2.5c4.2,1.7,8.1,4.5,10.3,8.2
			C-3600.2-93.6-3594.6-87.6-3591.2-80.5z M-3678.4-118.8c-1.5,3.8-6.4,6.5-9.7,4.1c-2.7-1.9-2.7-6.3-0.8-9c1.9-2.8,5-4.4,8.1-5.8
			l1.9-1C-3677.8-126.7-3676.9-122.6-3678.4-118.8z M-3667.5-156.7c3.9,3,4.5,8.5,4.3,13.4s-0.8,9.7-2,14.6
			c-7.3-5.4-12.1-14.2-12.7-23.4l-0.3-0.2C-3678.7-157.2-3671.3-159.7-3667.5-156.7z M-3678.7-102.2l0.4,1.7
			c-0.3-5.9,6.7-10.8,12.3-8.6c0.6,0.2,1.1,0.5,1.5,1c0.7,1.1,0.2,2.6-0.4,3.8c-1.6,3.3-3.7,7-7.4,8.2
			C-3676-95.1-3680.6-98.9-3678.7-102.2z M-3695.4-128.3c-1.9,2.4-5,3-7.9,3.7c-1.6-3.4,0.8-7.9,4.4-8.7l1.6-2.1
			C-3694.5-135.1-3693.7-130.7-3695.4-128.3z M-3719.9-146.4c-1.6,1-3.4,1.6-5,2.6c-2.5,1.8-3.9,4.6-6.1,6.7c-2.2,2.1-6.3,3-8.1,0.5
			l-3.1-3.7c-3.1-2.2-0.1-7.3,3.6-8.6c3.7-1.3,8.3-1.3,10.5-4.4c1-1.2,1.3-2.9,2.3-3.9c2.2-2.7,7.2-1.8,8.8,1.5
			C-3715.4-152.5-3717.1-148.4-3719.9-146.4z M-3530.1,38.9c1.3,0,2.5,1.1,2.2,2.7c-0.1,0-0.1,0-0.2,0
			C-3527.8,40.1-3528.9,39-3530.1,38.9z M-3605.9,43.3c-0.1-0.1-0.1-0.3-0.2-0.4c0.1,0.1,0.3,0.2,0.4,0.4c0.4,0.8,0.2,1.8-0.2,2.6
			l-0.2,0C-3605.5,45.2-3605.5,44.1-3605.9,43.3z M-3606,5.6c0.3-0.9,0.7-2,1-2.9c0,0,0.1,0,0.1,0c-0.3,0.9-0.7,1.9-1,2.8
			c1,1.9-0.7,3.5-2.3,3.4C-3606.6,8.9-3605,7.4-3606,5.6z M-3589.8,0c0.1,0,0.1,0,0.2,0c0.4,1.4-0.6,3.2-2.2,3.1c-0.1,0-0.1,0-0.2,0
			C-3590.4,3.1-3589.4,1.3-3589.8,0z M-3575.4,22.5c-0.2,6.1-5.2,10.8-11.3,10.6c-6.1-0.2-10.8-5.2-10.6-11.3
			c0.2-6.1,5.2-10.8,11.3-10.6C-3580,11.4-3575.2,16.4-3575.4,22.5z M-3538.7,10.6c0.3,0,0.6-0.1,1-0.1c0.4-0.2,0.8-0.2,1.2-0.2
			c-0.3,0-0.6,0.1-0.9,0.2C-3537.9,10.5-3538.2,10.7-3538.7,10.6C-3538.7,10.6-3538.7,10.6-3538.7,10.6z M-3534.3,11.9
			C-3534.3,11.8-3534.3,11.8-3534.3,11.9c0.2,0,0.5,0,0.7-0.1C-3533.8,11.8-3534.1,11.8-3534.3,11.9z M-3549.1,4.9
			c0.2,0,0.3,0,0.5,0c0,0,0,0,0,0C-3548.7,4.9-3548.9,4.9-3549.1,4.9z M-3555.5,2.8c1.1,0,2.1,0,3.2,0l0,0
			C-3553.4,2.8-3554.4,2.8-3555.5,2.8z M-3601.5,2.8c0.1,0,0.1,0,0.2,0c0,0,0.1,0,0.2,0C-3601.3,2.8-3601.4,2.8-3601.5,2.8z
			 M-3610.6,42.6c-0.1,0-0.1,0-0.2,0l1-34.4c0,0.1,0.1,0.1,0.1,0.1L-3610.6,42.6z M-3581.6,41.9
			C-3581.6,41.9-3581.6,41.9-3581.6,41.9c-6.5-0.5-12.8-0.9-19.3,0C-3594.4,40.9-3588,41.3-3581.6,41.9z M-3526.5,21.7
			c-1.7-0.8-3.4-1.8-4.9-2.7c0,0,0.1,0,0.1,0c1.6,0.9,3.1,1.8,4.7,2.6l0.2-5.3c0.2,0,0.1,0.2,0.3,0.2l-0.2,5.3L-3526.5,21.7z
			 M-3526,3c-1.9,1.3-3.4,2.9-3.9,4.6c-0.5,1.5-0.4,2.9-0.1,4.1c-0.2,0-0.5,0-0.8,0c0.2,0,0.3,0,0.5,0c-0.3-1.2-0.2-2.6,0.1-4.1
			c0.5-1.7,2.1-3.3,3.9-4.6l0.1-3.5l0.5,0l-0.1,3.5L-3526,3z"/>
		<path class="st3" d="M-3367.9,48.4c0,0.2,0,0.2-0.2,0.3l0.2,0L-3367.9,48.4z"/>
		<path class="st3" d="M-3366.5,4.9l-0.5,0c0.1,0.2,0.3,0.3,0.4,0.5L-3366.5,4.9z"/>
		<path class="st3" d="M-3420.3-250.9l0.1,0.2c0.2-0.1,0.2-0.3,0.3-0.4l-0.1-0.2C-3420.1-251.2-3420.3-251.1-3420.3-250.9z"/>
		<path class="st3" d="M-3555.1,70c0.2-0.2,0.3-0.4,0.6-0.7c-0.6,0.3-0.8,0.5-0.9,0.7c0,0.1,0,0.2,0,0.3
			C-3555.3,70.2-3555.2,70.1-3555.1,70z"/>
		<path class="st3" d="M-3452.6-270.5l6.3,3.7c3.4,4,7.3,7.1,11.9,9.5c0.3,1.5,1.9,2,3.2,1.5c0.5,0.2,0.8,0.3,1.2,0.5
			c0.1,0.5,0.4,1.1,1,1.4c2,1,3.9,2.1,5.8,3.1c1.1,0.5,2,0.2,2.6-0.4c0.2-0.1,0.3-0.3,0.3-0.4c0.9-0.7,1-2.1-0.4-2.9
			c-0.5-0.2-0.9-0.5-1.3-0.7c0.5,0.3,1,0.5,1.5,0.7c1.3,0.8,1.3,2.2,0.7,3.1l0.1,0.2c2.6-3.7,6.6-6.8,11.2-7.4
			c2.9-0.5,7.2-1.5,6.7-4.5c-0.1-1.1-1-1.9-1.7-2.6c-3.1-3.1-7.7-6.5-11.6-4.3c-2.2,1.2-3.5,3.9-5.9,4.2c-4.1,0.8-5.6-6.4-2.2-9.1
			c3.4-2.6,8.1-1.9,12.4-1.5c4.3,0.4,9.3,0,11.5-3.6c1.4-2.5,0.9-5.8,0.3-8.7c-1.8-6.9-4.6-13.8-10.1-18.4
			c-5.5-4.6-14.1-5.9-19.8-1.4c-5.8,4.7-7.1,14.4-14.4,16.5c-4.2,1.2-10.2-0.2-11.8,3.9c-1,2.6,0.9,5.4,1.7,8
			C-3452.2-277.2-3452.5-273.8-3452.6-270.5z M-3446.5-267c-0.3-0.3-0.6-0.7-0.8-1C-3447.1-267.6-3446.8-267.3-3446.5-267z
			 M-3427.1-281c-6.1,1.5-0.3,11,1.1,13.9c1.6,3.4,2.4,6.8,1.2,10.2c0.5,0.2,0.9,0.5,1.3,0.7c-0.5-0.3-1-0.5-1.5-0.7
			c1.2-3.5,0.4-6.8-1.2-10.2c-1.3-2.9-7.1-12.2-1.1-13.9c2.7-0.6,2-4.4-0.4-4.5C-3425.2-285.6-3424.4-281.6-3427.1-281z
			 M-3429.9-260.2c0.2,0.1,0.4,0.2,0.6,0.3c0,0,0,0,0,0.1c-0.3-0.2-0.5-0.2-0.8-0.3c-1-6.8-6.7-11.8-13.4-12.1
			C-3436.7-272-3430.9-267-3429.9-260.2z"/>
		<path class="st3" d="M-3553-359.7l124.5,3.8l3.8-124.3l-124.5-3.8L-3553-359.7z M-3543.3-477.8l112.3,3.4l-3.4,112.3l-112.3-3.4
			L-3543.3-477.8z"/>
		<path class="st3" d="M-3528.3-465.9c-0.5,0.1-0.6,0.4-0.9,0.7c-1.1,0.1-2.2,0.7-2.2,2.1c-0.4,12.6-0.8,25.4-1.2,38
			c-0.1,2.9,4.5,3,4.6,0.1c0.2-5.2,0.3-10.3,0.5-15.7c0.4,0.3,0.9,0.3,1.5,0.4c8.3-1.3,20.2-4.7,20.7-14.9
			C-3504.8-467.6-3519.3-470.2-3528.3-465.9z M-3511.1-451.5c-3.2,4.8-10.5,6.1-15.9,6.8c-0.2,0-0.2,0-0.3,0.1
			c0.2-5.8,0.3-11.4,0.5-17.2c0.2,0,0.5-0.1,0.6-0.1c3.9-1.9,8.8-2.8,12.6-0.1C-3510-459.7-3508.7-455.1-3511.1-451.5z"/>
		<path class="st3" d="M-3486.1-396.7c-4.2-2.6-10.3-2.6-11.8-8.3c-3.1-12.3,17.4-12.4,14.6,0.4c-0.5,2.9,3.7,4.2,4.4,1.4
			c2.7-12.6-15.1-23.5-22.1-10.4c-2.4,4.6-2.2,11.1,1.2,15c2.9,3.4,7.5,3.4,11.3,5.7c3.7,2.4,6.5,7.5,4.8,12
			c-2.7,7.7-13.2,6.9-14.4-1.2c-0.4-2.9-4.8-1.8-4.4,1.1c2.2,13.9,21.2,12.7,23.8-0.5C-3477.7-387.4-3481-393.6-3486.1-396.7z"/>
		<path class="st3" d="M-3291.9-405.6L-3291.9-405.6l-0.6-0.6c0.2,0.1,0.3,0.3,0.5,0.4C-3292-405.7-3292-405.6-3291.9-405.6
			L-3291.9-405.6z"/>
		<path class="st3" d="M-3292.5-406.2c-0.6-0.5-1.2-1-1.9-1.3L-3292.5-406.2z"/>
		<line class="st4" x1="-3613.7" y1="-7.8" x2="-3613.7" y2="-7.9"/>
		<path class="st5" d="M-3441-445.7c-0.6-0.5-1.2-0.8-2-1c-0.8-0.2-1.7-0.2-2.4-0.2c0,0,0,0,0,0l-19.4-0.6c-1.3,0-2.3,0.9-2.3,2.2
			l0,0.3c0,1.3,0.9,2.3,2.2,2.3l20.2,0.6c0,0.1,0,0.1,0,0.2c0.1,0.5,0.3,1.1,0.6,1.8c0.5,2.9-1.2,4.5-3.2,6.3
			c-8,7.1-20.3,7.1-28-0.4c-8.3-8.2-8.8-21.4,0.7-28.9c8.7-6.9,20.7-3.6,27,4.8c1.8,2.3,5-0.8,3.3-3.1c-8.2-10.9-24.6-13.7-34.8-3.8
			c-11,10.6-8.6,27.9,3.1,36.8c10.4,7.9,26.5,5.5,34.6-4.9C-3439-437-3436.4-442.4-3441-445.7z"/>
	</g>
	<g>
		<path class="st3" d="M-2957.6-560c19.5-3.3,46.9-5.8,85.5-5.8c39,0,66.8,7.5,85.5,22.4c17.8,14.1,29.9,37.3,29.9,64.7
			s-9.1,50.6-25.7,66.4c-21.6,20.3-53.5,29.5-90.9,29.5c-8.3,0-15.8-0.4-21.6-1.2v100h-62.7V-560z M-2894.9-433
			c5.4,1.2,12,1.7,21.2,1.7c33.6,0,54.4-17,54.4-45.6c0-25.7-17.8-41.1-49.4-41.1c-12.9,0-21.6,1.2-26.1,2.5V-433z"/>
		<path class="st3" d="M-2610.7-284l-3.7-20.3h-1.2c-13.3,16.2-34,24.9-58.1,24.9c-41.1,0-65.6-29.9-65.6-62.2
			c0-52.7,47.3-78,119.1-77.6v-2.9c0-10.8-5.8-26.1-36.9-26.1c-20.8,0-42.7,7.1-56,15.4l-11.6-40.7c14.1-7.9,41.9-17.8,78.8-17.8
			c67.6,0,89.2,39.8,89.2,87.6v70.5c0,19.5,0.8,38.2,2.9,49.4H-2610.7z M-2618.1-379.9c-33.2-0.4-58.9,7.5-58.9,32
			c0,16.2,10.8,24.1,24.9,24.1c15.8,0,28.6-10.4,32.8-23.2c0.8-3.3,1.2-7.1,1.2-10.8V-379.9z"/>
		<path class="st3" d="M-2506.9-422.2c0-25.3-0.8-46.9-1.7-64.7h54.8l2.9,27.8h1.2c8.3-12.9,29-32.4,62.7-32.4
			c41.5,0,72.6,27.4,72.6,87.1V-284h-63.1v-112.5c0-26.1-9.1-44-32-44c-17.4,0-27.8,12-32,23.7c-1.7,3.7-2.5,10-2.5,15.8v117h-63.1
			V-422.2z"/>
		<path class="st3" d="M-2069.9-486.9c-0.8,12.9-1.7,29.9-1.7,60.2v113.3c0,39-7.9,71-30.7,91.3c-22.4,19.1-52.7,24.9-82.6,24.9
			c-26.6,0-54.8-5.4-73-15.8l12.4-47.7c12.9,7.5,35.3,15.4,58.9,15.4c29.9,0,52.7-16.2,52.7-53.5v-13.3h-0.8
			c-12,17-31.5,26.6-54.8,26.6c-50.2,0-85.9-40.7-85.9-99.2c0-65.2,42.3-106.7,92.1-106.7c27.8,0,45.2,12,55.6,28.6h0.8l2.1-24.1
			H-2069.9z M-2134.7-404.3c0-4.1-0.4-8.3-1.2-11.6c-4.6-16.6-16.6-27.8-34-27.8c-22.8,0-41.5,20.7-41.5,57.7
			c0,30.3,14.9,53.9,41.5,53.9c16.2,0,29-10.8,33.2-25.7c1.7-4.6,2.1-11.2,2.1-16.6V-404.3z"/>
		<path class="st3" d="M-1905.6-284l-3.7-20.3h-1.2c-13.3,16.2-34,24.9-58.1,24.9c-41.1,0-65.6-29.9-65.6-62.2
			c0-52.7,47.3-78,119.1-77.6v-2.9c0-10.8-5.8-26.1-36.9-26.1c-20.8,0-42.7,7.1-56,15.4l-11.6-40.7c14.1-7.9,41.9-17.8,78.8-17.8
			c67.6,0,89.2,39.8,89.2,87.6v70.5c0,19.5,0.8,38.2,2.9,49.4H-1905.6z M-1913.1-379.9c-33.2-0.4-58.9,7.5-58.9,32
			c0,16.2,10.8,24.1,24.9,24.1c15.8,0,28.6-10.4,32.8-23.2c0.8-3.3,1.2-7.1,1.2-10.8V-379.9z"/>
		<path class="st3" d="M-1801.8-422.2c0-25.3-0.8-46.9-1.7-64.7h54.8l2.9,27.8h1.2c8.3-12.9,29-32.4,62.7-32.4
			c41.5,0,72.6,27.4,72.6,87.1V-284h-63.1v-112.5c0-26.1-9.1-44-32-44c-17.4,0-27.8,12-32,23.7c-1.7,3.7-2.5,10-2.5,15.8v117h-63.1
			V-422.2z"/>
		<path class="st3" d="M-1493.5-543.4c0,17.4-13.3,31.5-34,31.5c-19.9,0-33.2-14.1-32.8-31.5c-0.4-18.3,12.9-32,33.2-32
			C-1506.8-575.3-1493.9-561.6-1493.5-543.4z M-1558.6-284v-202.9h63.1V-284H-1558.6z"/>
		<path class="st3" d="M-1125.4-296.9c-19.5,6.6-56.4,15.8-93.4,15.8c-51,0-88-12.9-113.7-37.8c-25.7-24.1-39.8-60.6-39.4-101.7
			c0.4-93,68.1-146.1,159.8-146.1c36.1,0,63.9,7.1,77.6,13.7l-13.3,50.6c-15.4-6.6-34.4-12-65.2-12c-52.7,0-92.5,29.9-92.5,90.5
			c0,57.7,36.1,91.7,88,91.7c14.5,0,26.1-1.7,31.1-4.1v-58.5h-43.2v-49.4h104.2V-296.9z"/>
		<path class="st3" d="M-1011.7-543.4c0,17.4-13.3,31.5-34,31.5c-19.9,0-33.2-14.1-32.8-31.5c-0.4-18.3,12.9-32,33.2-32
			C-1025-575.3-1012.1-561.6-1011.7-543.4z M-1076.8-284v-202.9h63.1V-284H-1076.8z"/>
		<path class="st3" d="M-963.1-420.1c0-29.9-0.8-49.4-1.7-66.8h54.4l2.1,37.3h1.7c10.4-29.5,35.3-41.9,54.8-41.9
			c5.8,0,8.7,0,13.3,0.8v59.3c-4.6-0.8-10-1.7-17-1.7c-23.2,0-39,12.4-43.2,32c-0.8,4.2-1.2,9.1-1.2,14.1V-284h-63.1V-420.1z"/>
		<path class="st3" d="M-806.7-578.6h63.1V-284h-63.1V-578.6z"/>
		<path class="st3" d="M-693-339.2c11.6,7.1,35.7,15.4,54.4,15.4c19.1,0,27-6.6,27-17c0-10.4-6.2-15.4-29.9-23.2
			c-41.9-14.1-58.1-36.9-57.7-61c0-37.8,32.4-66.4,82.6-66.4c23.7,0,44.8,5.4,57.3,11.6l-11.2,43.6c-9.1-5-26.6-11.6-44-11.6
			c-15.4,0-24.1,6.2-24.1,16.6c0,9.5,7.9,14.5,32.8,23.2c38.6,13.3,54.8,32.8,55.2,62.7c0,37.8-29.9,65.6-88,65.6
			c-26.6,0-50.2-5.8-65.6-14.1L-693-339.2z"/>
	</g>
	<g>
		<path class="st3" d="M-2395.3,106.8c17,8.7,43.2,17.4,70.1,17.4c29,0,44.4-12,44.4-30.3c0-17.4-13.3-27.4-46.9-39.4
			c-46.5-16.2-76.8-41.9-76.8-82.6c0-47.7,39.8-84.2,105.8-84.2c31.5,0,54.8,6.6,71.4,14.1l-14.1,51c-11.2-5.4-31.1-13.3-58.5-13.3
			s-40.7,12.5-40.7,27c0,17.8,15.8,25.7,51.9,39.4c49.4,18.3,72.6,44,72.6,83.4c0,46.9-36.1,86.7-112.9,86.7c-32,0-63.5-8.3-79.3-17
			L-2395.3,106.8z"/>
		<path class="st3" d="M-2020.2,167c-11.2,5-32.4,9.1-56.4,9.1c-65.6,0-107.5-39.8-107.5-103.7c0-59.3,40.7-107.9,116.2-107.9
			c16.6,0,34.9,2.9,48.1,7.9l-10,46.9c-7.5-3.3-18.7-6.2-35.3-6.2c-33.2,0-54.8,23.7-54.4,56.9c0,37.3,24.9,56.9,55.6,56.9
			c14.9,0,26.6-2.5,36.1-6.2L-2020.2,167z"/>
		<path class="st3" d="M-1985.3-122.6h63.1V-6.9h0.8c6.6-8.7,14.9-15.4,24.9-20.7c9.1-5,21.2-7.9,32.8-7.9c40.3,0,71,27.8,71,88.8
			V172h-63.1V60.4c0-26.6-9.1-44.8-32.8-44.8c-16.6,0-27,10.8-31.5,22c-1.7,4.1-2.1,9.5-2.1,14.1V172h-63.1V-122.6z"/>
		<path class="st3" d="M-1541.7,68.3c0,74.3-52.7,108.3-107.1,108.3c-59.3,0-105-39-105-104.6c0-65.6,43.2-107.5,108.3-107.5
			C-1583.2-35.5-1541.7,7.2-1541.7,68.3z M-1688.6,70.3c0,34.9,14.5,61,41.5,61c24.5,0,40.3-24.5,40.3-61c0-30.3-11.6-61-40.3-61
			C-1677.4,9.3-1688.6,40.4-1688.6,70.3z"/>
		<path class="st3" d="M-1301,68.3c0,74.3-52.7,108.3-107.1,108.3c-59.3,0-105-39-105-104.6c0-65.6,43.2-107.5,108.3-107.5
			C-1342.5-35.5-1301,7.2-1301,68.3z M-1447.9,70.3c0,34.9,14.5,61,41.5,61c24.5,0,40.3-24.5,40.3-61c0-30.3-11.6-61-40.3-61
			C-1436.7,9.3-1447.9,40.4-1447.9,70.3z"/>
		<path class="st3" d="M-1262-122.6h63.1V172h-63.1V-122.6z"/>
	</g>
</g>
</svg>
